<?xml version="1.0" encoding="UTF-8" standalone="no"?>
<svg
   xmlns:dc="http://purl.org/dc/elements/1.1/"
   xmlns:cc="http://creativecommons.org/ns#"
   xmlns:rdf="http://www.w3.org/1999/02/22-rdf-syntax-ns#"
   xmlns:svg="http://www.w3.org/2000/svg"
   xmlns="http://www.w3.org/2000/svg"
   xmlns:sodipodi="http://sodipodi.sourceforge.net/DTD/sodipodi-0.dtd"
   xmlns:inkscape="http://www.inkscape.org/namespaces/inkscape"
   width="200"
   height="200"
   viewBox="0 0 53.924589 52.916651"
   version="1.1"
   id="svg1149"
   sodipodi:docname="critter-mad.svg"
   inkscape:version="0.92.2 5c3e80d, 2017-08-06">
  <metadata
     id="metadata1155">
    <rdf:RDF>
      <cc:Work
         rdf:about="">
        <dc:format>image/svg+xml</dc:format>
        <dc:type
           rdf:resource="http://purl.org/dc/dcmitype/StillImage" />
        <dc:title></dc:title>
      </cc:Work>
    </rdf:RDF>
  </metadata>
  <defs
     id="defs1153" />
  <sodipodi:namedview
     pagecolor="#ffffff"
     bordercolor="#666666"
     borderopacity="1"
     objecttolerance="10"
     gridtolerance="10"
     guidetolerance="10"
     inkscape:pageopacity="0"
     inkscape:pageshadow="2"
     inkscape:window-width="1279"
     inkscape:window-height="785"
     id="namedview1151"
     showgrid="false"
     inkscape:zoom="0.53094821"
     inkscape:cx="396.85049"
     inkscape:cy="236.9541"
     inkscape:window-x="109"
     inkscape:window-y="0"
     inkscape:window-maximized="0"
     inkscape:current-layer="svg1149" />
  <path
     d="m 35.888369,38.876274 c 0.05,0.814 0.134,1.558 0.134,2.405 0,1.043 0.45,3.675 0,3.675 h 2.205 c 1.115,0 5.412,-0.107 5.412,1.336 0,0.66 -0.017,1.617 -0.802,2.205 -0.888,0.666 -4.762,1.055 -5.88,0.869 -0.528,-0.088 -1.695,-0.626 -2.004,-0.936 -0.501,-0.5 -1.515,-1.447 -2.005,-1.937 -0.315,-0.315 0.618,-5.997 0.2,-6.415"
     id="path1055"
     inkscape:connector-curvature="0"
     style="fill:#b4823e;stroke:#000000;stroke-width:0.70599997;stroke-linecap:round;stroke-linejoin:round" />
  <path
     d="m 32.760369,6.5842737 c 0.547,-0.954 1.232,-1.87 1.524,-2.884 0.435,-1.514 0.108,-1.278 -0.095,-1.252 -0.547,0.712 -1.79,1.498 -2.36,2.137 -0.7,0.786 -2.622,1.596 -2.567,2.033 0.003,0.026 -0.494,-1.081 -1.492,-2.237 -0.912,-1.056 -2.208,-1.256 -2.533,-1.51 -0.366,-0.283 1.599,4.147 -0.666,2.853 -2.139,-1.221 -4.114,-2.536 -6.565,-2.948 -1.073,-0.181 2.38,2.181 1.51,2.29 -0.196,0.025 -0.236,-0.183 0,0 0.799,0.621 -4.132,-0.736 -3.382,-0.036 4.935,4.611 1.088,1.107 -1.855,4.543 -3.834,4.4750003 -7.9339998,9.7400003 -9.9249998,15.3840003 -0.67,1.9 2.39,-0.918 2.669,-1.277 0.06,-0.078 -0.112,0.183 -0.1,0.282 0.09,0.716 0.445,1.401 0.531,2.088 0.242,1.925 1.1579997,9.344 2.7209998,9.895 0.835,0.294 0.305,-3.622 1.807,-1.708 1.72,2.193 3.501,4.008 5.736,4.938 0.615,0.256 2.283,0.735 2.702,1.143 0.345,0.335 1.503,1.205 2.189,1.342 1.73,0.346 -1.306,-2.193 0.364,-1.392 1.422,0 5.356,1.508 6.432,1.888 1.132,-2.209 4.538,-2.183 5.668,-2.714 2.9,-0.743 3.158,-1.522 3.596,-1.814 4.156,-2.772 0.544,1.65 1.46,1.972 0.597,0.21 1.244,-0.362 1.673,-0.614 3.558,-2.082 3.632,-6.488 3.196,-9.962 -0.054,-0.438 0.718,0.515 1.045,0.812 0.538,0.488 3.154,3.24 3.63,3.181 0.014,-0.002 -0.273,-3.725 -0.597,-4.773 -0.578,-2.687 -2.77,-8.138 -2.77,-8.138 1.358,0.407 2.181,1.655 2.9,2.734 0.09,0.134 0.336,0.524 0.316,0.364 -0.626,-4.999 -2.454,-8.326 -5.755,-12.612 -0.568,-0.7370003 -5.22,-3.3860003 -5.67,-3.3300003 -0.162,0.02 -0.894,0.388 -0.912,0.249 -0.044,-0.355 2.726,-3.142 2.696,-3.379 -0.05,-0.407 -2.666,1.039 -2.845,1.108 -2.424,0.94 -2.603,0.696 -4.276,1.344 z"
     id="path1057"
     inkscape:connector-curvature="0"
     style="fill:#ffce8b;stroke:#000000;stroke-width:0.70599997;stroke-linecap:round;stroke-linejoin:round" />
  <ellipse
     cx="23.196369"
     cy="-16.958284"
     rx="2.0710001"
     ry="3.9419999"
     transform="scale(1,-1)"
     id="ellipse1059"
     style="fill:#280b0b" />
  <ellipse
     cx="33.553368"
     cy="-16.958284"
     rx="2.0710001"
     ry="3.9419999"
     transform="scale(1,-1)"
     id="ellipse1061"
     style="fill:#280b0b" />
  <path
     d="m 38.445369,31.305274 c -0.531,-0.565 -1.269,-0.945 -2.08,-1.355 -4.606,-2.331 -6.115,-4.424 -11.905,-2.47 -1.54,0.519 -2.99,1.999 -4.253,2.709 -0.704,0.396 -2.456,1.461 -2.456,1.992 0,0.062 0.265,-0.426 0.472,-0.557 0.74,-0.469 1.196,-0.873 1.984,-1.435 1.19,-0.752 2.354,-1.681 3.73,-2.564 1.154,-0.74 1.95,-0.546 3.091,-0.776 1.071,-0.312 3.018,0.031 4.84,0.746 3.425,1.925 5.784,2.935 6.577,3.71 z"
     id="path1063"
     inkscape:connector-curvature="0"
     style="fill:none;stroke:#000000;stroke-width:0.70599997;stroke-linecap:round;stroke-linejoin:round" />
  <ellipse
     cx="23.567368"
     cy="-15.72928"
     rx="0.458"
     ry="1.182"
     transform="scale(1,-1)"
     id="ellipse1065"
     style="fill:#ffffff" />
  <ellipse
     cx="34.120369"
     cy="-15.753282"
     rx="0.458"
     ry="1.205"
     transform="scale(1,-1)"
     id="ellipse1067"
     style="fill:#ffffff" />
  <path
     d="m 17.316369,39.141274 c -0.05,0.815 -0.134,1.558 -0.134,2.406 0,1.042 -0.45,3.674 0,3.674 h -2.204 c -1.115,0 -5.4120001,-0.107 -5.4120001,1.337 0,0.66 0.017,1.616 0.8020001,2.205 0.888,0.666 4.762,1.055 5.88,0.868 0.528,-0.088 1.695,-0.625 2.004,-0.935 0.501,-0.5 1.515,-1.448 2.005,-1.938 0.315,-0.314 -0.618,-5.996 -0.2,-6.414"
     id="path1069"
     inkscape:connector-curvature="0"
     style="fill:#b4823e;stroke:#000000;stroke-width:0.70599997;stroke-linecap:round;stroke-linejoin:round" />
  <path
     d="m 21.233369,11.932274 c 0.86,1.64 3.843,3.613 4.876,3.143"
     id="path1071"
     inkscape:connector-curvature="0"
     style="fill:#ffce8b;stroke:#000000;stroke-width:0.80000001;stroke-linecap:round;stroke-linejoin:round" />
  <ellipse
     cx="27.686956"
     cy="0.63777632"
     rx="2.5479944"
     ry="1.1530019"
     transform="matrix(0.89516198,0.44574099,-0.38417937,0.92325848,0,0)"
     id="ellipse1073"
     style="fill:#ffce8b" />
  <path
     d="m 35.711369,11.953274 c -0.86,1.64 -3.842,3.612 -4.876,3.143"
     id="path1075"
     inkscape:connector-curvature="0"
     style="fill:#ffce8b;stroke:#000000;stroke-width:0.80000001;stroke-linecap:round;stroke-linejoin:round" />
  <ellipse
     cx="-25.001072"
     cy="26.09729"
     rx="2.5479944"
     ry="1.1530019"
     transform="matrix(-0.89516198,0.44574099,0.38417937,0.92325848,0,0)"
     id="ellipse1077"
     style="fill:#ffce8b" />
</svg>
