<?xml version="1.0" encoding="UTF-8" standalone="no"?>
<svg
   xmlns:dc="http://purl.org/dc/elements/1.1/"
   xmlns:cc="http://creativecommons.org/ns#"
   xmlns:rdf="http://www.w3.org/1999/02/22-rdf-syntax-ns#"
   xmlns:svg="http://www.w3.org/2000/svg"
   xmlns="http://www.w3.org/2000/svg"
   xmlns:sodipodi="http://sodipodi.sourceforge.net/DTD/sodipodi-0.dtd"
   xmlns:inkscape="http://www.inkscape.org/namespaces/inkscape"
   width="200"
   height="200"
   viewBox="0 0 53.925 52.917"
   version="1.1"
   id="svg8666"
   sodipodi:docname="o-critter-surprised-small-mouth-4-nodes.svg"
   inkscape:version="0.92.2 5c3e80d, 2017-08-06">
  <metadata
     id="metadata8672">
    <rdf:RDF>
      <cc:Work
         rdf:about="">
        <dc:format>image/svg+xml</dc:format>
        <dc:type
           rdf:resource="http://purl.org/dc/dcmitype/StillImage" />
        <dc:title></dc:title>
      </cc:Work>
    </rdf:RDF>
  </metadata>
  <defs
     id="defs8670" />
  <sodipodi:namedview
     pagecolor="#ffffff"
     bordercolor="#666666"
     borderopacity="1"
     objecttolerance="10"
     gridtolerance="10"
     guidetolerance="10"
     inkscape:pageopacity="0"
     inkscape:pageshadow="2"
     inkscape:window-width="1144"
     inkscape:window-height="703"
     id="namedview8668"
     showgrid="false"
     inkscape:zoom="4.72"
     inkscape:cx="115.82861"
     inkscape:cy="69.492855"
     inkscape:window-x="189"
     inkscape:window-y="0"
     inkscape:window-maximized="0"
     inkscape:current-layer="svg8666" />
  <path
     d="M35.888 38.876c.05.814.134 1.558.134 2.405 0 1.043.45 3.675 0 3.675h2.205c1.115 0 5.412-.107 5.412 1.336 0 .66-.017 1.617-.802 2.205-.888.666-4.762 1.055-5.88.87-.528-.089-1.695-.627-2.004-.937-.5-.5-1.515-1.447-2.005-1.937-.315-.315.618-5.997.2-6.415"
     fill="#b4823e"
     stroke="#000"
     stroke-width=".706"
     stroke-linecap="round"
     stroke-linejoin="round"
     id="path8646" />
  <path
     d="M32.76 6.584c.547-.954 1.232-1.87 1.524-2.884.435-1.514.108-1.278-.095-1.252-.547.712-1.79 1.498-2.36 2.137-.7.786-2.622 1.596-2.567 2.033.003.026-.494-1.08-1.492-2.237-.912-1.056-2.208-1.256-2.533-1.51-.366-.283 1.6 4.147-.666 2.853-2.139-1.22-4.114-2.536-6.565-2.948-1.073-.18 2.38 2.181 1.51 2.29-.196.025-.236-.183 0 0 .8.621-4.132-.736-3.382-.036 4.935 4.611 1.088 1.107-1.855 4.543-3.834 4.475-7.934 9.74-9.925 15.384-.67 1.9 2.39-.918 2.67-1.277.06-.078-.113.183-.1.282.09.716.444 1.401.53 2.088.242 1.925 1.158 9.344 2.721 9.895.835.294.305-3.622 1.807-1.708 1.72 2.193 3.501 4.008 5.736 4.938.615.256 2.283.735 2.702 1.143.345.335 1.503 1.205 2.19 1.342 1.73.346-1.307-2.193.363-1.392 1.422 0 5.356 1.508 6.432 1.888 1.132-2.209 4.538-2.183 5.668-2.714 2.9-.743 3.158-1.522 3.596-1.814 4.156-2.772.544 1.65 1.46 1.972.597.21 1.244-.362 1.673-.614 3.558-2.082 3.632-6.488 3.196-9.962-.054-.438.718.515 1.045.812.538.488 3.154 3.24 3.63 3.181.014-.002-.273-3.725-.597-4.773-.578-2.687-2.77-8.138-2.77-8.138 1.358.407 2.181 1.655 2.9 2.734.09.134.336.524.316.364-.626-4.999-2.454-8.326-5.755-12.612-.568-.737-5.22-3.386-5.67-3.33-.162.02-.894.388-.912.25-.044-.356 2.726-3.143 2.696-3.38-.05-.407-2.666 1.04-2.845 1.108-2.424.94-2.603.696-4.276 1.344z"
     fill="#ffce8b"
     stroke="#000"
     stroke-width=".706"
     stroke-linecap="round"
     stroke-linejoin="round"
     id="path8648" />
  <ellipse
     cx="23.196"
     cy="-16.958"
     rx="2.071"
     ry="3.942"
     transform="scale(1 -1)"
     fill="#280b0b"
     id="ellipse8650" />
  <ellipse
     cx="33.553"
     cy="-16.958"
     rx="2.071"
     ry="3.942"
     transform="scale(1 -1)"
     fill="#280b0b"
     id="ellipse8652" />
  <ellipse
     cx="23.567"
     cy="-15.729"
     rx=".458"
     ry="1.182"
     transform="scale(1 -1)"
     fill="#fff"
     id="ellipse8654" />
  <ellipse
     cx="34.12"
     cy="-15.753"
     rx=".458"
     ry="1.205"
     transform="scale(1 -1)"
     fill="#fff"
     id="ellipse8656" />
  <path
     d="M17.316 39.141c-.05.815-.134 1.558-.134 2.406 0 1.042-.45 3.674 0 3.674h-2.204c-1.115 0-5.412-.107-5.412 1.337 0 .66.017 1.616.802 2.205.888.666 4.762 1.055 5.88.868.528-.088 1.695-.625 2.004-.935.501-.5 1.515-1.448 2.005-1.938.315-.314-.618-5.996-.2-6.414"
     fill="#b4823e"
     stroke="#000"
     stroke-width=".706"
     stroke-linecap="round"
     stroke-linejoin="round"
     id="path8658" />
  <path
     d="m 31.743,32.76 c -1.0475,-0.205 -1.96625,0.0575 -2.553,0.589625 -0.58675,0.532125 -0.8415,1.333875 -0.561,2.207375 1.288,1.6335 2.9175,1.116 3.7995,0.09925 C 33.3105,34.6395 33.445,33.1235 31.743,32.76 Z"
     id="path8660"
     inkscape:connector-curvature="0"
     style="fill:#b74c24;stroke:#000000;stroke-width:0.70599997;stroke-linecap:round;stroke-linejoin:round"
     sodipodi:nodetypes="cscsc" />
  <path
     d="M24.32 9.05c-2.706-1.13-4.214 1.125-4.61 1.983"
     fill="#ffce8b"
     stroke="#000"
     stroke-width=".706"
     stroke-linecap="round"
     stroke-linejoin="round"
     id="path8662" />
  <path
     d="M36.89 10.713c-.351-.192-.493-.726-.695-1.051-1.18-1.901-3.013-1.395-3.748-1.12"
     fill="#ffce8b"
     stroke="#000"
     stroke-width=".706"
     stroke-linecap="round"
     stroke-linejoin="round"
     id="path8664" />
</svg>
