<?xml version="1.0" encoding="UTF-8" standalone="no"?>
<svg
   xmlns:dc="http://purl.org/dc/elements/1.1/"
   xmlns:cc="http://creativecommons.org/ns#"
   xmlns:rdf="http://www.w3.org/1999/02/22-rdf-syntax-ns#"
   xmlns:svg="http://www.w3.org/2000/svg"
   xmlns="http://www.w3.org/2000/svg"
   xmlns:sodipodi="http://sodipodi.sourceforge.net/DTD/sodipodi-0.dtd"
   xmlns:inkscape="http://www.inkscape.org/namespaces/inkscape"
   width="200"
   height="200"
   viewBox="0 0 53.925 52.917"
   version="1.1"
   id="svg2258"
   sodipodi:docname="critter-dismayed.svg"
   inkscape:version="0.92.2 5c3e80d, 2017-08-06">
  <metadata
     id="metadata2264">
    <rdf:RDF>
      <cc:Work
         rdf:about="">
        <dc:format>image/svg+xml</dc:format>
        <dc:type
           rdf:resource="http://purl.org/dc/dcmitype/StillImage" />
        <dc:title></dc:title>
      </cc:Work>
    </rdf:RDF>
  </metadata>
  <defs
     id="defs2262" />
  <sodipodi:namedview
     pagecolor="#ffffff"
     bordercolor="#666666"
     borderopacity="1"
     objecttolerance="10"
     gridtolerance="10"
     guidetolerance="10"
     inkscape:pageopacity="0"
     inkscape:pageshadow="2"
     inkscape:window-width="1391"
     inkscape:window-height="715"
     id="namedview2260"
     showgrid="false"
     inkscape:zoom="2.36"
     inkscape:cx="101.7767"
     inkscape:cy="98.266411"
     inkscape:window-x="442"
     inkscape:window-y="71"
     inkscape:window-maximized="0"
     inkscape:current-layer="svg2258" />
  <path
     d="M35.888 38.876c.05.814.134 1.558.134 2.405 0 1.043.45 3.675 0 3.675h2.205c1.115 0 5.412-.107 5.412 1.336 0 .66-.017 1.617-.802 2.205-.888.666-4.762 1.055-5.88.87-.528-.089-1.695-.627-2.004-.937-.5-.5-1.515-1.447-2.005-1.937-.315-.315.618-5.997.2-6.415"
     fill="#b4823e"
     stroke="#000"
     stroke-width=".706"
     stroke-linecap="round"
     stroke-linejoin="round"
     id="path2238" />
  <path
     d="M32.76 6.584c.547-.954 1.232-1.87 1.524-2.884.435-1.514.108-1.278-.095-1.252-.547.712-1.79 1.498-2.36 2.137-.7.786-2.622 1.596-2.567 2.033.003.026-.494-1.08-1.492-2.237-.912-1.056-2.208-1.256-2.533-1.51-.366-.283 1.6 4.147-.666 2.853-2.139-1.22-4.114-2.536-6.565-2.948-1.073-.18 2.38 2.181 1.51 2.29-.196.025-.236-.183 0 0 .8.621-4.132-.736-3.382-.036 4.935 4.611 1.088 1.107-1.855 4.543-3.834 4.475-7.934 9.74-9.925 15.384-.67 1.9 2.39-.918 2.67-1.277.06-.078-.113.183-.1.282.09.716.444 1.401.53 2.088.242 1.925 1.158 9.344 2.721 9.895.835.294.305-3.622 1.807-1.708 1.72 2.193 3.501 4.008 5.736 4.938.615.256 2.283.735 2.702 1.143.345.335 1.503 1.205 2.19 1.342 1.73.346-1.307-2.193.363-1.392 1.422 0 5.356 1.508 6.432 1.888 1.132-2.209 4.538-2.183 5.668-2.714 2.9-.743 3.158-1.522 3.596-1.814 4.156-2.772.544 1.65 1.46 1.972.597.21 1.244-.362 1.673-.614 3.558-2.082 3.632-6.488 3.196-9.962-.054-.438.718.515 1.045.812.538.488 3.154 3.24 3.63 3.181.014-.002-.273-3.725-.597-4.773-.578-2.687-2.77-8.138-2.77-8.138 1.358.407 2.181 1.655 2.9 2.734.09.134.336.524.316.364-.626-4.999-2.454-8.326-5.755-12.612-.568-.737-5.22-3.386-5.67-3.33-.162.02-.894.388-.912.25-.044-.356 2.726-3.143 2.696-3.38-.05-.407-2.666 1.04-2.845 1.108-2.424.94-2.603.696-4.276 1.344z"
     fill="#ffce8b"
     stroke="#000"
     stroke-width=".706"
     stroke-linecap="round"
     stroke-linejoin="round"
     id="path2240" />
  <ellipse
     cx="23.196"
     cy="-16.958"
     rx="2.071"
     ry="3.942"
     transform="scale(1 -1)"
     fill="#280b0b"
     id="ellipse2242" />
  <ellipse
     cx="33.553"
     cy="-16.958"
     rx="2.071"
     ry="3.942"
     transform="scale(1 -1)"
     fill="#280b0b"
     id="ellipse2244" />
  <ellipse
     cx="23.567"
     cy="-15.729"
     rx=".458"
     ry="1.182"
     transform="scale(1 -1)"
     fill="#fff"
     id="ellipse2246" />
  <ellipse
     cx="34.12"
     cy="-15.753"
     rx=".458"
     ry="1.205"
     transform="scale(1 -1)"
     fill="#fff"
     id="ellipse2248" />
  <path
     d="M17.316 39.141c-.05.815-.134 1.558-.134 2.406 0 1.042-.45 3.674 0 3.674h-2.204c-1.115 0-5.412-.107-5.412 1.337 0 .66.017 1.616.802 2.205.888.666 4.762 1.055 5.88.868.528-.088 1.695-.625 2.004-.935.501-.5 1.515-1.448 2.005-1.938.315-.314-.618-5.996-.2-6.414"
     fill="#b4823e"
     stroke="#000"
     stroke-width=".706"
     stroke-linecap="round"
     stroke-linejoin="round"
     id="path2250" />
  <path
     inkscape:connector-curvature="0"
     style="fill:#b74c24;stroke:#000000;stroke-width:0.70600533;stroke-linecap:round;stroke-linejoin:round"
     d="M 38.33781,31.509594 C 37.807806,30.94559 37.0688,30.565587 36.258794,30.155584 31.651759,27.823566 30.142748,25.73155 24.352703,27.684565 c -1.540011,0.520004 -2.990022,2.000015 -4.252032,2.710021 -0.705005,0.396003 -2.457019,1.461011 -2.457019,1.992015 0,0.061 0.265002,-0.426003 0.472004,-0.558004 0.740006,-0.468004 1.196009,-0.872007 1.985015,-1.434011 1.189009,-0.753006 2.353018,0.390003 3.730028,-0.493004 1.153009,-0.740006 4.956038,-0.565004 6.098047,-0.795006 1.071008,-0.312003 2.550019,-0.370003 4.371033,0.344003 3.425026,1.926014 3.245025,1.285009 4.038031,2.060015 z"
     id="path1324" />
  <path
     inkscape:connector-curvature="0"
     style="fill:#ffce8b;stroke:#000000;stroke-width:0.70600533;stroke-linecap:round;stroke-linejoin:round"
     d="M 24.200702,10.864437 C 21.494681,9.734428 19.98667,11.987445 19.590667,12.844452"
     id="path1332" />
  <path
     inkscape:connector-curvature="0"
     style="fill:#ffce8b;stroke:#000000;stroke-width:0.70600533;stroke-linecap:round;stroke-linejoin:round"
     d="M 36.772798,12.525449 C 36.419796,12.333448 36.277794,11.799444 36.075793,11.475441 34.895784,9.573427 33.06377,10.079431 32.327764,10.355433"
     id="path1334" />
</svg>
