<?xml version="1.0" encoding="UTF-8" standalone="no"?>
<svg
   xmlns:dc="http://purl.org/dc/elements/1.1/"
   xmlns:cc="http://creativecommons.org/ns#"
   xmlns:rdf="http://www.w3.org/1999/02/22-rdf-syntax-ns#"
   xmlns:svg="http://www.w3.org/2000/svg"
   xmlns="http://www.w3.org/2000/svg"
   xmlns:sodipodi="http://sodipodi.sourceforge.net/DTD/sodipodi-0.dtd"
   xmlns:inkscape="http://www.inkscape.org/namespaces/inkscape"
   width="793.701"
   height="1122.52"
   viewBox="0 0 210 297"
   version="1.1"
   id="svg1880"
   sodipodi:docname="fuzzy-critter-states.svg"
   inkscape:version="0.92.2 5c3e80d, 2017-08-06">
  <metadata
     id="metadata1886">
    <rdf:RDF>
      <cc:Work
         rdf:about="">
        <dc:format>image/svg+xml</dc:format>
        <dc:type
           rdf:resource="http://purl.org/dc/dcmitype/StillImage" />
        <dc:title></dc:title>
      </cc:Work>
    </rdf:RDF>
  </metadata>
  <defs
     id="defs1884">
    <inkscape:path-effect
       effect="skeletal"
       id="path-effect1946"
       is_visible="true"
       pattern="m 37.311559,-18.78436 c 0,-2.76 2.24,-5 5,-5 2.76,0 5,2.24 5,5 0,2.76 -2.24,5.000001 -5,5.000001 -2.76,0 -5,-2.240001 -5,-5.000001 z"
       copytype="single_stretched"
       prop_scale="0.10162561"
       scale_y_rel="false"
       spacing="0"
       normal_offset="0"
       tang_offset="0"
       prop_units="false"
       vertical_pattern="false"
       fuse_tolerance="0" />
    <inkscape:path-effect
       effect="skeletal"
       id="path-effect1938"
       is_visible="true"
       pattern="m -1.058333,5 c 0,-2.76 2.24,-5 5,-5 2.76,0 5,2.24 5,5 0,2.76 -2.24,5 -5,5 -2.76,0 -5,-2.24 -5,-5 z"
       copytype="single_stretched"
       prop_scale="0.26458327"
       scale_y_rel="false"
       spacing="0"
       normal_offset="0"
       tang_offset="0"
       prop_units="false"
       vertical_pattern="false"
       fuse_tolerance="0" />
    <inkscape:path-effect
       effect="skeletal"
       id="path-effect1934"
       is_visible="true"
       pattern="m 37.311559,-20.37186 c 0,-2.76 2.24,-5 5,-5 2.76,0 5,2.24 5,5 0,2.76 -2.24,5 -5,5 -2.76,0 -5,-2.24 -5,-5 z"
       copytype="single_stretched"
       prop_scale="0.10162561"
       scale_y_rel="false"
       spacing="0"
       normal_offset="0"
       tang_offset="0"
       prop_units="false"
       vertical_pattern="false"
       fuse_tolerance="0" />
    <inkscape:path-effect
       effect="skeletal"
       id="path-effect1930"
       is_visible="true"
       pattern="m 37.311559,-20.37186 c 0,-2.76 2.24,-5 5,-5 2.76,0 5,2.24 5,5 0,2.76 -2.24,5 -5,5 -2.76,0 -5,-2.24 -5,-5 z"
       copytype="single_stretched"
       prop_scale="0.10162561"
       scale_y_rel="false"
       spacing="0"
       normal_offset="0"
       tang_offset="0"
       prop_units="false"
       vertical_pattern="false"
       fuse_tolerance="0" />
    <inkscape:path-effect
       effect="skeletal"
       id="path-effect1926"
       is_visible="true"
       pattern="m 37.311559,-20.37186 c 0,-2.76 2.24,-5 5,-5 2.76,0 5,2.24 5,5 0,2.76 -2.24,5 -5,5 -2.76,0 -5,-2.24 -5,-5 z"
       copytype="single_stretched"
       prop_scale="0.10162561"
       scale_y_rel="false"
       spacing="0"
       normal_offset="0"
       tang_offset="0"
       prop_units="false"
       vertical_pattern="false"
       fuse_tolerance="0" />
    <inkscape:path-effect
       effect="skeletal"
       id="path-effect1922"
       is_visible="true"
       pattern="m 37.311559,-20.37186 c 0,-2.76 2.24,-5 5,-5 2.76,0 5,2.24 5,5 0,2.76 -2.24,5 -5,5 -2.76,0 -5,-2.24 -5,-5 z"
       copytype="single_stretched"
       prop_scale="0.10162561"
       scale_y_rel="false"
       spacing="0"
       normal_offset="0"
       tang_offset="0"
       prop_units="false"
       vertical_pattern="false"
       fuse_tolerance="0" />
    <inkscape:path-effect
       effect="skeletal"
       id="path-effect1918"
       is_visible="true"
       pattern="m 37.311559,-20.37186 c 0,-2.76 2.24,-5 5,-5 2.76,0 5,2.24 5,5 0,2.76 -2.24,5 -5,5 -2.76,0 -5,-2.24 -5,-5 z"
       copytype="single_stretched"
       prop_scale="0.10162561"
       scale_y_rel="false"
       spacing="0"
       normal_offset="0"
       tang_offset="0"
       prop_units="false"
       vertical_pattern="false"
       fuse_tolerance="0" />
    <inkscape:path-effect
       effect="skeletal"
       id="path-effect1914"
       is_visible="true"
       pattern="m 37.311559,-20.37186 c 0,-2.76 2.24,-5 5,-5 2.76,0 5,2.24 5,5 0,2.76 -2.24,5 -5,5 -2.76,0 -5,-2.24 -5,-5 z"
       copytype="single_stretched"
       prop_scale="0.10162561"
       scale_y_rel="false"
       spacing="0"
       normal_offset="0"
       tang_offset="0"
       prop_units="false"
       vertical_pattern="false"
       fuse_tolerance="0" />
    <inkscape:path-effect
       effect="skeletal"
       id="path-effect1910"
       is_visible="true"
       pattern="m 37.311559,-20.37186 c 0,-2.76 2.24,-5 5,-5 2.76,0 5,2.24 5,5 0,2.76 -2.24,5 -5,5 -2.76,0 -5,-2.24 -5,-5 z"
       copytype="single_stretched"
       prop_scale="0.10162561"
       scale_y_rel="false"
       spacing="0"
       normal_offset="0"
       tang_offset="0"
       prop_units="false"
       vertical_pattern="false"
       fuse_tolerance="0" />
    <inkscape:path-effect
       effect="skeletal"
       id="path-effect1906"
       is_visible="true"
       pattern="m 37.311559,-20.37186 c 0,-2.76 2.24,-5 5,-5 2.76,0 5,2.24 5,5 0,2.76 -2.24,5 -5,5 -2.76,0 -5,-2.24 -5,-5 z"
       copytype="single_stretched"
       prop_scale="0.10162561"
       scale_y_rel="false"
       spacing="0"
       normal_offset="0"
       tang_offset="0"
       prop_units="false"
       vertical_pattern="false"
       fuse_tolerance="0" />
    <inkscape:path-effect
       effect="skeletal"
       id="path-effect1902"
       is_visible="true"
       pattern="m 37.311559,-20.37186 c 0,-2.76 2.24,-5 5,-5 2.76,0 5,2.24 5,5 0,2.76 -2.24,5 -5,5 -2.76,0 -5,-2.24 -5,-5 z"
       copytype="single_stretched"
       prop_scale="0.10162561"
       scale_y_rel="false"
       spacing="0"
       normal_offset="0"
       tang_offset="0"
       prop_units="false"
       vertical_pattern="false"
       fuse_tolerance="0" />
    <inkscape:path-effect
       effect="skeletal"
       id="path-effect1898"
       is_visible="true"
       pattern="m 37.311559,-20.37186 c 0,-2.76 2.24,-5 5,-5 2.76,0 5,2.24 5,5 0,2.76 -2.24,5 -5,5 -2.76,0 -5,-2.24 -5,-5 z"
       copytype="single_stretched"
       prop_scale="0.10162561"
       scale_y_rel="false"
       spacing="0"
       normal_offset="0"
       tang_offset="0"
       prop_units="false"
       vertical_pattern="false"
       fuse_tolerance="0" />
    <inkscape:path-effect
       effect="skeletal"
       id="path-effect1894"
       is_visible="true"
       pattern="M 0,5 C 0,2.24 2.24,0 5,0 7.76,0 10,2.24 10,5 10,7.76 7.76,10 5,10 2.24,10 0,7.76 0,5 Z"
       copytype="single_stretched"
       prop_scale="0.26458327"
       scale_y_rel="false"
       spacing="0"
       normal_offset="0"
       tang_offset="0"
       prop_units="false"
       vertical_pattern="false"
       fuse_tolerance="0" />
    <inkscape:path-effect
       effect="skeletal"
       id="path-effect1890"
       is_visible="true"
       pattern="M 0,5 C 0,2.24 2.24,0 5,0 7.76,0 10,2.24 10,5 10,7.76 7.76,10 5,10 2.24,10 0,7.76 0,5 Z"
       copytype="single_stretched"
       prop_scale="0.26458327"
       scale_y_rel="false"
       spacing="0"
       normal_offset="0"
       tang_offset="0"
       prop_units="false"
       vertical_pattern="false"
       fuse_tolerance="0" />
  </defs>
  <sodipodi:namedview
     pagecolor="#ffffff"
     bordercolor="#666666"
     borderopacity="1"
     objecttolerance="10"
     gridtolerance="10"
     guidetolerance="10"
     inkscape:pageopacity="0"
     inkscape:pageshadow="2"
     inkscape:window-width="1415"
     inkscape:window-height="829"
     id="namedview1882"
     showgrid="false"
     inkscape:zoom="0.75213402"
     inkscape:cx="342.30863"
     inkscape:cy="-15.939067"
     inkscape:window-x="468"
     inkscape:window-y="524"
     inkscape:window-maximized="0"
     inkscape:current-layer="svg1880" />
  <path
     d="M58.38 157.095c.051.815.134 1.559.134 2.406 0 1.042.45 3.675 0 3.675h2.205c1.116 0 5.412-.108 5.412 1.336 0 .66-.017 1.616-.802 2.205-.888.666-4.762 1.055-5.88.868-.528-.088-1.694-.625-2.004-.935-.5-.5-1.515-1.448-2.005-1.938-.314-.314.619-5.996.2-6.414"
     fill="#b4823e"
     stroke="#000"
     stroke-width=".706"
     stroke-linecap="round"
     stroke-linejoin="round"
     id="path1568" />
  <path
     d="M55.252 124.804c.548-.954 1.232-1.871 1.524-2.885.436-1.513.109-1.277-.094-1.252-.547.712-1.791 1.498-2.36 2.138-.7.786-2.622 1.595-2.567 2.033.003.026-.494-1.082-1.493-2.238-.912-1.055-2.208-1.256-2.533-1.509-.365-.283 1.6 4.146-.665 2.853-2.14-1.221-4.115-2.536-6.565-2.949-1.074-.18 2.379 2.182 1.51 2.29-.197.025-.237-.182 0 0 .798.622-4.132-.735-3.382-.035 4.934 4.61 1.088 1.107-1.856 4.542-3.834 4.476-7.934 9.741-9.924 15.385-.67 1.9 2.39-.919 2.668-1.277.061-.079-.112.183-.1.282.09.716.446 1.4.532 2.088.241 1.925 1.158 9.344 2.72 9.895.836.294.305-3.623 1.807-1.708 1.72 2.193 3.501 4.007 5.737 4.938.614.256 2.282.735 2.702 1.143.344.335 1.503 1.205 2.188 1.342 1.73.345-1.306-2.194.364-1.393 1.423 0 5.357 1.509 6.432 1.888 1.132-2.208 4.539-2.182 5.668-2.713 2.9-.743 3.158-1.522 3.596-1.814 4.156-2.773.545 1.65 1.46 1.972.597.21 1.244-.363 1.674-.614 3.557-2.082 3.631-6.489 3.196-9.963-.055-.437.718.516 1.044.812.538.489 3.154 3.241 3.631 3.182.013-.002-.273-3.725-.598-4.774-.577-2.686-2.77-8.138-2.77-8.138 1.359.407 2.182 1.656 2.901 2.734.09.134.335.524.315.365-.626-5-2.454-8.326-5.755-12.612-.568-.737-5.219-3.387-5.67-3.33-.161.02-.894.388-.911.249-.045-.356 2.725-3.142 2.696-3.38-.051-.406-2.667 1.04-2.846 1.109-2.424.939-2.602.695-4.276 1.344z"
     fill="#ffce8b"
     stroke="#000"
     stroke-width=".706"
     stroke-linecap="round"
     stroke-linejoin="round"
     id="path1570" />
  <ellipse
     cx="45.688"
     cy="-135.177"
     rx="2.071"
     ry="3.942"
     transform="scale(1 -1)"
     fill="#280b0b"
     id="ellipse1572" />
  <ellipse
     cx="56.045"
     cy="-135.177"
     rx="2.071"
     ry="3.942"
     transform="scale(1 -1)"
     fill="#280b0b"
     id="ellipse1574" />
  <path
     d="M60.937 149.524c-.53-.564-1.268-.944-2.079-1.355-4.606-2.33-6.116-4.424-11.906-2.47-1.539.52-2.99 2-4.252 2.71-.705.396-2.457 1.46-2.457 1.992 0 .061.265-.427.473-.558.74-.468 1.195-.872 1.984-1.434 1.19-.753 2.354-1.682 3.73-2.564 1.153-.74 1.949-.546 3.09-.776 1.072-.312 3.018.03 4.84.745 3.425 1.926 5.784 2.936 6.577 3.71z"
     fill="none"
     stroke="#000"
     stroke-width=".706"
     stroke-linecap="round"
     stroke-linejoin="round"
     id="path1576" />
  <ellipse
     cx="46.059"
     cy="-133.949"
     rx=".458"
     ry="1.182"
     transform="scale(1 -1)"
     fill="#fff"
     id="ellipse1578" />
  <ellipse
     cx="56.613"
     cy="-133.972"
     rx=".458"
     ry="1.205"
     transform="scale(1 -1)"
     fill="#fff"
     id="ellipse1580" />
  <path
     d="M39.808 157.36c-.05.815-.133 1.559-.133 2.406 0 1.043-.45 3.675 0 3.675H37.47c-1.116 0-5.412-.107-5.412 1.336 0 .661.017 1.617.801 2.205.889.667 4.762 1.055 5.88.869.528-.088 1.695-.626 2.005-.935.5-.501 1.515-1.448 2.004-1.938.315-.315-.618-5.997-.2-6.415"
     fill="#b4823e"
     stroke="#000"
     stroke-width=".706"
     stroke-linecap="round"
     stroke-linejoin="round"
     id="path1582" />
  <path
     d="M46.8 128.879c-2.705-1.13-4.214 1.123-4.61 1.98"
     fill="#ffce8b"
     stroke="#000"
     stroke-width=".706"
     stroke-linecap="round"
     stroke-linejoin="round"
     id="path1584" />
  <path
     d="M59.372 130.54c-.353-.192-.494-.726-.696-1.051-1.18-1.901-3.013-1.395-3.749-1.12"
     fill="#ffce8b"
     stroke="#000"
     stroke-width=".706"
     stroke-linecap="round"
     stroke-linejoin="round"
     id="path1586" />
  <path
     d="M116.162 157.403c.05.815.134 1.559.134 2.406 0 1.042.45 3.675 0 3.675h2.205c1.115 0 5.412-.107 5.412 1.336 0 .66-.017 1.616-.802 2.205-.888.666-4.762 1.055-5.88.869-.528-.088-1.695-.626-2.004-.936-.501-.5-1.515-1.448-2.005-1.938-.315-.314.618-5.996.2-6.414"
     fill="#b4823e"
     stroke="#000"
     stroke-width=".706"
     stroke-linecap="round"
     stroke-linejoin="round"
     id="path1588" />
  <path
     d="M113.034 125.112c.547-.954 1.232-1.871 1.524-2.885.435-1.513.108-1.277-.095-1.252-.547.713-1.79 1.498-2.36 2.138-.7.786-2.622 1.595-2.567 2.033.003.026-.494-1.082-1.492-2.237-.912-1.056-2.208-1.257-2.533-1.51-.366-.283 1.599 4.146-.666 2.853-2.139-1.221-4.114-2.536-6.564-2.948-1.074-.181 2.378 2.181 1.509 2.29-.196.025-.236-.183 0 0 .799.621-4.132-.736-3.382-.036 4.935 4.61 1.088 1.107-1.855 4.542-3.834 4.476-7.934 9.741-9.924 15.385-.67 1.9 2.39-.919 2.668-1.277.06-.079-.112.183-.1.282.09.716.445 1.401.531 2.088.242 1.925 1.158 9.344 2.721 9.895.835.294.305-3.623 1.807-1.708 1.72 2.193 3.501 4.007 5.736 4.938.615.256 2.283.735 2.702 1.143.345.335 1.503 1.205 2.189 1.342 1.73.345-1.306-2.194.364-1.392 1.422 0 5.356 1.508 6.432 1.887 1.132-2.208 4.538-2.182 5.668-2.713 2.9-.743 3.158-1.522 3.596-1.814 4.156-2.772.544 1.65 1.46 1.972.597.21 1.244-.363 1.673-.614 3.558-2.082 3.632-6.489 3.196-9.963-.054-.437.718.516 1.045.812.538.49 3.154 3.242 3.63 3.182.014-.002-.273-3.725-.597-4.774-.578-2.686-2.77-8.138-2.77-8.138 1.358.407 2.181 1.656 2.9 2.735.09.133.336.524.316.364-.626-5-2.454-8.326-5.755-12.612-.568-.737-5.22-3.387-5.67-3.33-.162.02-.894.388-.911.249-.045-.356 2.725-3.142 2.695-3.38-.05-.406-2.666 1.04-2.845 1.109-2.424.939-2.603.695-4.276 1.344z"
     fill="#ffce8b"
     stroke="#000"
     stroke-width=".706"
     stroke-linecap="round"
     stroke-linejoin="round"
     id="path1590" />
  <ellipse
     cx="103.47"
     cy="-135.486"
     rx="2.071"
     ry="3.942"
     transform="scale(1 -1)"
     fill="#280b0b"
     id="ellipse1592" />
  <ellipse
     cx="113.827"
     cy="-135.486"
     rx="2.071"
     ry="3.942"
     transform="scale(1 -1)"
     fill="#280b0b"
     id="ellipse1594" />
  <path
     d="M118.719 145.265c-.53.669-1.269 1.12-2.079 1.606-4.607 2.764-3.754 1.277-9.544-1.04-1.539-.615-5.352 1.598-6.615.757-.704-.47-2.456-1.733-2.456-2.363 0-.072.265.506.472.662.74.555 1.196 1.034 1.985 1.7 1.189.893 2.353 1.994 3.73 3.04 1.153.877 1.948.647 3.09.92 1.071.37 3.018-.036 4.84-.883 3.425-2.284 5.784-3.481 6.577-4.4z"
     fill="#b74c24"
     stroke="#000"
     stroke-width=".706"
     stroke-linecap="round"
     stroke-linejoin="round"
     id="path1596" />
  <ellipse
     cx="103.841"
     cy="-134.257"
     rx=".458"
     ry="1.182"
     transform="scale(1 -1)"
     fill="#fff"
     id="ellipse1598" />
  <ellipse
     cx="114.395"
     cy="-134.28"
     rx=".458"
     ry="1.205"
     transform="scale(1 -1)"
     fill="#fff"
     id="ellipse1600" />
  <path
     d="M97.59 157.669c-.05.814-.134 1.558-.134 2.405 0 1.043-.45 3.675 0 3.675h-2.205c-1.115 0-5.412-.107-5.412 1.337 0 .66.017 1.616.802 2.205.888.666 4.762 1.054 5.88.868.528-.088 1.695-.626 2.004-.935.501-.501 1.515-1.448 2.005-1.938.315-.315-.618-5.997-.2-6.414"
     fill="#b4823e"
     stroke="#000"
     stroke-width=".706"
     stroke-linecap="round"
     stroke-linejoin="round"
     id="path1602" />
  <path
     d="M105.675 130.073c-2.15-1.994-4.343-.4-5.011.267"
     fill="#ffce8b"
     stroke="#000"
     stroke-width=".706"
     stroke-linecap="round"
     stroke-linejoin="round"
     id="path1604" />
  <path
     d="M116.566 130.407c-.4-.028-.75-.456-1.069-.668-1.862-1.241-3.32-.021-3.875.535"
     fill="#ffce8b"
     stroke="#000"
     stroke-width=".706"
     stroke-linecap="round"
     stroke-linejoin="round"
     id="path1606" />
  <path
     d="M114.182 213.089c.051.815.134 1.558.134 2.405 0 1.043.45 3.675 0 3.675h2.205c1.116 0 5.412-.107 5.412 1.337 0 .66-.017 1.616-.802 2.205-.888.666-4.762 1.055-5.88.868-.528-.088-1.694-.625-2.004-.935-.501-.501-1.515-1.448-2.005-1.938-.314-.314.619-5.997.2-6.414"
     fill="#b4823e"
     stroke="#000"
     stroke-width=".706"
     stroke-linecap="round"
     stroke-linejoin="round"
     id="path1608" />
  <path
     d="M111.054 180.797c.547-.954 1.232-1.87 1.524-2.884.436-1.513.109-1.277-.094-1.252-.547.712-1.791 1.498-2.36 2.138-.7.785-2.622 1.595-2.567 2.033.003.026-.494-1.082-1.493-2.238-.912-1.055-2.208-1.256-2.533-1.509-.365-.284 1.6 4.146-.665 2.853-2.14-1.222-4.115-2.536-6.565-2.949-1.074-.18 2.379 2.182 1.51 2.29-.197.025-.237-.183 0 0 .798.622-4.132-.736-3.383-.035 4.935 4.61 1.089 1.106-1.855 4.542-3.834 4.475-7.934 9.741-9.924 15.385-.67 1.9 2.39-.919 2.668-1.277.061-.079-.112.183-.1.281.09.716.446 1.402.532 2.089.24 1.925 1.158 9.343 2.72 9.895.835.294.305-3.623 1.807-1.708 1.72 2.193 3.501 4.007 5.736 4.938.615.256 2.283.735 2.703 1.143.344.335 1.503 1.205 2.188 1.342 1.73.345-1.306-2.194.364-1.393 1.423 0 5.356 1.509 6.432 1.888 1.132-2.209 4.539-2.182 5.668-2.713 2.9-.744 3.158-1.522 3.596-1.815 4.156-2.772.545 1.65 1.46 1.972.597.211 1.244-.362 1.673-.613 3.558-2.082 3.632-6.49 3.197-9.963-.055-.437.718.515 1.044.812.538.489 3.154 3.241 3.631 3.181.013-.002-.273-3.725-.598-4.773-.578-2.686-2.77-8.138-2.77-8.138 1.359.407 2.182 1.656 2.901 2.734.09.134.335.524.315.365-.626-5-2.454-8.327-5.755-12.612-.568-.738-5.219-3.387-5.67-3.33-.162.02-.894.388-.911.248-.045-.355 2.725-3.141 2.695-3.379-.05-.407-2.666 1.04-2.845 1.109-2.424.939-2.602.695-4.276 1.343z"
     fill="#ffce8b"
     stroke="#000"
     stroke-width=".706"
     stroke-linecap="round"
     stroke-linejoin="round"
     id="path1610" />
  <ellipse
     cx="101.49"
     cy="-191.171"
     rx="2.071"
     ry="3.942"
     transform="scale(1 -1)"
     fill="#280b0b"
     id="ellipse1612" />
  <ellipse
     cx="111.847"
     cy="-191.171"
     rx="2.071"
     ry="3.942"
     transform="scale(1 -1)"
     fill="#280b0b"
     id="ellipse1614" />
  <path
     d="M116.74 200.95c-.532.67-1.27 1.12-2.08 1.607-4.606 2.764-3.753 1.276-9.544-1.04-1.539-.615-5.351 1.598-6.614.756-.705-.47-2.457-1.732-2.457-2.362 0-.073.399 3.245.606 3.4.74.556 2.265.968 3.054 1.635 1.189.892 2.287 1.392 3.663 2.439 1.153.876.813-1.425 1.955-1.152 1.07.37 1.547 1.767 3.369.92 3.425-2.283 7.254-5.284 8.047-6.203z"
     fill="#b74c24"
     stroke="#000"
     stroke-width=".706"
     stroke-linecap="round"
     stroke-linejoin="round"
     id="path1616" />
  <ellipse
     cx="101.861"
     cy="-189.942"
     rx=".458"
     ry="1.182"
     transform="scale(1 -1)"
     fill="#fff"
     id="ellipse1618" />
  <ellipse
     cx="112.415"
     cy="-189.966"
     rx=".458"
     ry="1.205"
     transform="scale(1 -1)"
     fill="#fff"
     id="ellipse1620" />
  <path
     d="M95.61 213.355c-.05.814-.133 1.558-.133 2.405 0 1.043-.45 3.675 0 3.675h-2.205c-1.116 0-5.413-.107-5.413 1.336 0 .66.017 1.617.802 2.205.889.666 4.762 1.055 5.88.869.528-.088 1.695-.626 2.005-.936.5-.5 1.514-1.448 2.004-1.937.315-.315-.618-5.997-.2-6.415"
     fill="#b4823e"
     stroke="#000"
     stroke-width=".706"
     stroke-linecap="round"
     stroke-linejoin="round"
     id="path1622" />
  <path
     d="M103.695 185.759c-2.15-1.995-4.343-.401-5.011.267"
     fill="#ffce8b"
     stroke="#000"
     stroke-width=".706"
     stroke-linecap="round"
     stroke-linejoin="round"
     id="path1624" />
  <path
     d="M114.586 186.093c-.4-.028-.75-.456-1.069-.668-1.861-1.241-3.32-.021-3.875.534"
     fill="#ffce8b"
     stroke="#000"
     stroke-width=".706"
     stroke-linecap="round"
     stroke-linejoin="round"
     id="path1626" />
  <path
     d="M55.48 212.28c.05.815.133 1.559.133 2.406 0 1.043.45 3.675 0 3.675h2.205c1.116 0 5.412-.107 5.412 1.336 0 .66-.017 1.617-.801 2.205-.889.666-4.762 1.055-5.88.869-.528-.088-1.695-.626-2.005-.936-.5-.5-1.515-1.448-2.004-1.937-.315-.315.618-5.997.2-6.415"
     fill="#b4823e"
     stroke="#000"
     stroke-width=".706"
     stroke-linecap="round"
     stroke-linejoin="round"
     id="path1628" />
  <path
     d="M52.351 179.989c.548-.954 1.233-1.87 1.524-2.885.436-1.513.109-1.277-.094-1.252-.547.713-1.791 1.498-2.36 2.138-.7.786-2.622 1.595-2.567 2.033.003.026-.494-1.082-1.493-2.237-.912-1.056-2.208-1.257-2.533-1.51-.365-.283 1.6 4.147-.665 2.853-2.139-1.221-4.114-2.536-6.565-2.948-1.073-.181 2.379 2.181 1.51 2.29-.197.025-.236-.183 0 0 .798.621-4.132-.736-3.382-.036 4.935 4.61 1.088 1.107-1.855 4.542-3.834 4.476-7.935 9.742-9.925 15.385-.67 1.9 2.39-.918 2.668-1.277.062-.078-.111.183-.099.282.09.716.445 1.401.531 2.088.241 1.925 1.158 9.344 2.721 9.895.835.294.305-3.623 1.806-1.708 1.72 2.193 3.502 4.008 5.737 4.938.615.256 2.282.735 2.702 1.143.344.335 1.503 1.205 2.188 1.342 1.73.346-1.306-2.194.364-1.392 1.423 0 5.357 1.508 6.432 1.887 1.133-2.208 4.539-2.182 5.668-2.713 2.9-.743 3.158-1.522 3.597-1.814 4.155-2.772.544 1.65 1.459 1.972.597.21 1.244-.363 1.674-.614 3.557-2.082 3.631-6.489 3.196-9.962-.055-.438.718.515 1.044.811.539.49 3.154 3.242 3.631 3.182.014-.002-.273-3.725-.598-4.774-.577-2.686-2.77-8.137-2.77-8.137 1.359.406 2.182 1.655 2.901 2.734.09.133.335.524.315.364-.626-5-2.453-8.326-5.755-12.612-.567-.737-5.218-3.386-5.67-3.33-.161.02-.893.388-.91.249-.045-.355 2.724-3.142 2.695-3.38-.051-.406-2.666 1.04-2.846 1.109-2.424.94-2.602.695-4.276 1.344z"
     fill="#ffce8b"
     stroke="#000"
     stroke-width=".706"
     stroke-linecap="round"
     stroke-linejoin="round"
     id="path1630" />
  <ellipse
     cx="42.787"
     cy="-190.363"
     rx="2.071"
     ry="3.942"
     transform="scale(1 -1)"
     fill="#280b0b"
     id="ellipse1632" />
  <ellipse
     cx="53.144"
     cy="-190.363"
     rx="2.071"
     ry="3.942"
     transform="scale(1 -1)"
     fill="#280b0b"
     id="ellipse1634" />
  <path
     d="M51.247 202.316c-2.368-.476-2.885.174-4.366 1.2-1.572-1.251-4.85-1.243-6.113-2.085-1.06-.307-2.8-1.659-1.918-.865.74.555 3.413 3.16 4.202 3.827 2.413 2.24 2.412 2.021 3.899 2.307 1.26-.055.597-.24 2.418-1.087 3.425-2.283 5.168-4.353 5.961-5.27-1.676 1.08-2.9 2.387-4.083 1.973z"
     fill="#b74c24"
     stroke="#000"
     stroke-width=".706"
     stroke-linecap="round"
     stroke-linejoin="round"
     id="path1636" />
  <ellipse
     cx="43.159"
     cy="-189.134"
     rx=".458"
     ry="1.182"
     transform="scale(1 -1)"
     fill="#fff"
     id="ellipse1638" />
  <ellipse
     cx="53.712"
     cy="-189.158"
     rx=".458"
     ry="1.205"
     transform="scale(1 -1)"
     fill="#fff"
     id="ellipse1640" />
  <path
     d="M36.908 212.546c-.051.815-.134 1.558-.134 2.405 0 1.043-.45 3.675 0 3.675h-2.205c-1.116 0-5.412-.107-5.412 1.337 0 .66.017 1.616.802 2.205.888.666 4.762 1.055 5.88.868.528-.088 1.694-.625 2.004-.935.5-.501 1.515-1.448 2.005-1.938.314-.315-.619-5.997-.2-6.414"
     fill="#b4823e"
     stroke="#000"
     stroke-width=".706"
     stroke-linecap="round"
     stroke-linejoin="round"
     id="path1642" />
  <path
     d="M44.992 184.95c-2.149-1.994-4.342-.4-5.01.268"
     fill="#ffce8b"
     stroke="#000"
     stroke-width=".706"
     stroke-linecap="round"
     stroke-linejoin="round"
     id="path1644" />
  <path
     d="M55.884 185.284c-.4-.028-.75-.455-1.07-.668-1.861-1.24-3.32-.02-3.875.535"
     fill="#ffce8b"
     stroke="#000"
     stroke-width=".706"
     stroke-linecap="round"
     stroke-linejoin="round"
     id="path1646" />
  <path
     d="M113.21 269.476c.05.815.133 1.558.133 2.406 0 1.042.45 3.675 0 3.675h2.205c1.116 0 5.413-.108 5.413 1.336 0 .66-.017 1.616-.802 2.205-.888.666-4.762 1.055-5.88.868-.528-.088-1.695-.625-2.005-.935-.5-.5-1.514-1.448-2.004-1.938-.315-.314.618-5.996.2-6.414"
     fill="#b4823e"
     stroke="#000"
     stroke-width=".706"
     stroke-linecap="round"
     stroke-linejoin="round"
     id="path1648" />
  <path
     d="M110.081 237.185c.548-.955 1.233-1.871 1.525-2.885.435-1.513.108-1.277-.095-1.252-.547.712-1.791 1.498-2.36 2.138-.7.786-2.622 1.595-2.567 2.033.003.026-.494-1.082-1.492-2.238-.912-1.055-2.208-1.256-2.534-1.509-.365-.283 1.6 4.146-.665 2.853-2.139-1.221-4.114-2.536-6.565-2.949-1.073-.18 2.38 2.182 1.51 2.29-.197.025-.236-.182 0 0 .799.622-4.132-.735-3.382-.035 4.935 4.61 1.088 1.106-1.855 4.542-3.834 4.476-7.935 9.741-9.925 15.385-.67 1.9 2.39-.919 2.669-1.277.06-.079-.112.183-.1.282.09.716.445 1.4.531 2.088.241 1.925 1.158 9.343 2.721 9.895.835.294.305-3.623 1.807-1.708 1.72 2.193 3.5 4.007 5.736 4.938.615.256 2.283.735 2.702 1.143.345.335 1.503 1.205 2.188 1.342 1.73.345-1.305-2.194.365-1.393 1.422 0 5.356 1.509 6.431 1.888 1.133-2.208 4.54-2.182 5.669-2.713 2.9-.743 3.157-1.522 3.596-1.814 4.156-2.773.544 1.65 1.459 1.972.598.21 1.245-.363 1.674-.614 3.558-2.082 3.631-6.489 3.196-9.963-.055-.437.718.516 1.045.812.538.489 3.154 3.241 3.63 3.182.014-.002-.273-3.725-.597-4.774-.578-2.686-2.77-8.138-2.77-8.138 1.358.407 2.181 1.656 2.9 2.734.09.134.336.524.316.365-.627-5-2.454-8.326-5.755-12.612-.568-.737-5.22-3.387-5.67-3.33-.162.02-.894.388-.912.248-.044-.355 2.726-3.141 2.696-3.378-.051-.408-2.666 1.038-2.845 1.108-2.424.939-2.603.695-4.277 1.343z"
     fill="#ffce8b"
     stroke="#000"
     stroke-width=".706"
     stroke-linecap="round"
     stroke-linejoin="round"
     id="path1650" />
  <ellipse
     cx="100.518"
     cy="-247.558"
     rx="2.071"
     ry="3.942"
     transform="scale(1 -1)"
     fill="#280b0b"
     id="ellipse1652" />
  <ellipse
     cx="110.874"
     cy="-247.558"
     rx="2.071"
     ry="3.942"
     transform="scale(1 -1)"
     fill="#280b0b"
     id="ellipse1654" />
  <path
     d="M116.1 263.522c-.53-.67-4.424-1.551-5.285-1.94-4.34-1.963-.88-1.478-6.671.838-1.54.616-5.352-1.598-6.615-.756-.704.47-2.457 1.733-2.457 2.363 0 .072.399-3.246.607-3.401.74-.556 2.264-.968 3.053-1.634 1.19-.892 2.287-1.393 3.663-2.439 1.154-.877.813 1.424 1.955 1.151 1.071-.37 2.684-1.5 4.505-.653 1.713 1.142 3.526 1.929 5.01 3.08 1.485 1.15 1.84 2.932 2.236 3.39z"
     fill="#b74c24"
     stroke="#000"
     stroke-width=".706"
     stroke-linecap="round"
     stroke-linejoin="round"
     id="path1656" />
  <ellipse
     cx="100.889"
     cy="-246.33"
     rx=".458"
     ry="1.182"
     transform="scale(1 -1)"
     fill="#fff"
     id="ellipse1658" />
  <ellipse
     cx="111.442"
     cy="-246.353"
     rx=".458"
     ry="1.205"
     transform="scale(1 -1)"
     fill="#fff"
     id="ellipse1660" />
  <path
     d="M94.638 269.742c-.051.814-.134 1.558-.134 2.405 0 1.043-.45 3.675 0 3.675H92.3c-1.116 0-5.412-.107-5.412 1.336 0 .66.017 1.617.802 2.205.888.666 4.762 1.055 5.88.869.528-.088 1.694-.626 2.004-.936.501-.5 1.515-1.447 2.005-1.937.314-.315-.618-5.997-.2-6.415"
     fill="#b4823e"
     stroke="#000"
     stroke-width=".706"
     stroke-linecap="round"
     stroke-linejoin="round"
     id="path1662" />
  <path
     d="M102.723 240.877c-2.15-1.995-4.343-.402-5.012.267"
     fill="#ffce8b"
     stroke="#000"
     stroke-width=".706"
     stroke-linecap="round"
     stroke-linejoin="round"
     id="path1664" />
  <path
     d="M113.614 240.61c-.4-.03-.75-.457-1.07-.669-1.861-1.241-3.319-.021-3.875.535"
     fill="#ffce8b"
     stroke="#000"
     stroke-width=".706"
     stroke-linecap="round"
     stroke-linejoin="round"
     id="path1666" />
  <path
     d="M53.418 269.284c.05.815.134 1.559.134 2.406 0 1.042.45 3.675 0 3.675h2.205c1.115 0 5.412-.107 5.412 1.336 0 .66-.017 1.616-.802 2.205-.888.666-4.762 1.055-5.88.869-.528-.088-1.695-.626-2.004-.936-.501-.5-1.515-1.448-2.005-1.938-.315-.314.618-5.996.2-6.414"
     fill="#b4823e"
     stroke="#000"
     stroke-width=".706"
     stroke-linecap="round"
     stroke-linejoin="round"
     id="path1668" />
  <path
     d="M50.29 236.993c.547-.954 1.232-1.871 1.524-2.885.435-1.513.108-1.277-.095-1.252-.547.713-1.79 1.498-2.36 2.138-.7.786-2.622 1.595-2.567 2.033.003.026-.494-1.082-1.492-2.237-.912-1.056-2.208-1.257-2.533-1.51-.366-.283 1.599 4.146-.666 2.853-2.139-1.221-4.114-2.536-6.564-2.949-1.074-.18 2.378 2.182 1.509 2.291-.196.025-.236-.183 0 0 .799.621-4.132-.736-3.382-.036 4.935 4.61 1.088 1.107-1.855 4.542-3.834 4.476-7.934 9.741-9.924 15.385-.67 1.9 2.39-.919 2.668-1.277.06-.079-.112.183-.1.282.09.716.445 1.401.531 2.088.242 1.925 1.158 9.344 2.721 9.895.835.294.305-3.623 1.807-1.708 1.72 2.193 3.501 4.007 5.736 4.938.615.256 2.283.735 2.702 1.143.345.335 1.503 1.205 2.189 1.342 1.73.345-1.306-2.194.364-1.393 1.422 0 5.356 1.51 6.432 1.888 1.132-2.208 4.538-2.182 5.668-2.713 2.9-.743 3.158-1.522 3.596-1.814 4.156-2.772.544 1.65 1.46 1.972.597.21 1.244-.363 1.673-.614 3.558-2.082 3.632-6.489 3.196-9.963-.054-.437.718.516 1.045.812.538.49 3.154 3.241 3.63 3.182.014-.002-.273-3.725-.597-4.774-.578-2.686-2.77-8.138-2.77-8.138 1.358.407 2.181 1.656 2.9 2.735.09.133.336.524.316.364-.626-5-2.454-8.326-5.755-12.612-.568-.737-5.22-3.387-5.67-3.33-.162.02-.894.388-.912.249-.044-.356 2.726-3.142 2.696-3.38-.05-.406-2.666 1.04-2.845 1.109-2.424.939-2.603.695-4.276 1.344z"
     fill="#ffce8b"
     stroke="#000"
     stroke-width=".706"
     stroke-linecap="round"
     stroke-linejoin="round"
     id="path1670" />
  <ellipse
     cx="40.726"
     cy="-247.367"
     rx="2.071"
     ry="3.942"
     transform="scale(1 -1)"
     fill="#280b0b"
     id="ellipse1672" />
  <ellipse
     cx="51.083"
     cy="-247.367"
     rx="2.071"
     ry="3.942"
     transform="scale(1 -1)"
     fill="#280b0b"
     id="ellipse1674" />
  <path
     d="M56.309 263.33c-.53-.67-4.425.622-5.286.233-4.34-1.962-.834-.816-6.624 1.5-1.539.616-5.399-4.432-6.662-3.59-.704.47-2.456 1.732-2.456 2.362 0 .072.398-3.245.606-3.401.74-.555 2.264-.967 3.053-1.634 1.19-.892 2.287-1.392 3.664-2.439 1.153-.877.812 1.425 1.954 1.151 1.071-.37 2.684-1.5 4.505-.653 1.713 1.142 3.526 1.929 5.011 3.08 1.485 1.15 1.838 2.932 2.235 3.391z"
     fill="#b74c24"
     stroke="#000"
     stroke-width=".706"
     stroke-linecap="round"
     stroke-linejoin="round"
     id="path1676" />
  <ellipse
     cx="41.097"
     cy="-246.138"
     rx=".458"
     ry="1.182"
     transform="scale(1 -1)"
     fill="#fff"
     id="ellipse1678" />
  <ellipse
     cx="51.651"
     cy="-246.161"
     rx=".458"
     ry="1.205"
     transform="scale(1 -1)"
     fill="#fff"
     id="ellipse1680" />
  <path
     d="M34.846 269.55c-.05.814-.134 1.558-.134 2.405 0 1.043-.45 3.675 0 3.675h-2.205c-1.115 0-5.412-.107-5.412 1.336 0 .661.017 1.617.802 2.205.888.667 4.762 1.055 5.88.87.528-.089 1.695-.627 2.004-.936.501-.501 1.515-1.448 2.005-1.938.315-.315-.618-5.997-.2-6.415"
     fill="#b4823e"
     stroke="#000"
     stroke-width=".706"
     stroke-linecap="round"
     stroke-linejoin="round"
     id="path1682" />
  <path
     d="M42.93 240.685c-2.149-1.995-4.342-.401-5.01.267"
     fill="#ffce8b"
     stroke="#000"
     stroke-width=".706"
     stroke-linecap="round"
     stroke-linejoin="round"
     id="path1684" />
  <path
     d="M53.822 240.417c-.4-.028-.75-.455-1.069-.668-1.862-1.241-3.32-.02-3.875.535"
     fill="#ffce8b"
     stroke="#000"
     stroke-width=".706"
     stroke-linecap="round"
     stroke-linejoin="round"
     id="path1686" />
  <path
     d="M58.71 101.84c.05.815.133 1.56.133 2.406 0 1.043.45 3.675 0 3.675h2.205c1.116 0 5.412-.107 5.412 1.337 0 .66-.017 1.616-.801 2.205-.889.666-4.762 1.054-5.88.868-.528-.088-1.695-.626-2.005-.935-.5-.501-1.515-1.448-2.004-1.938-.315-.315.618-5.997.2-6.414"
     fill="#b4823e"
     stroke="#000"
     stroke-width=".706"
     stroke-linecap="round"
     stroke-linejoin="round"
     id="path1688" />
  <path
     d="M55.581 69.55c.548-.955 1.233-1.872 1.524-2.885.436-1.514.109-1.278-.094-1.252-.547.712-1.791 1.498-2.36 2.138-.7.785-2.622 1.595-2.567 2.032.003.027-.494-1.081-1.493-2.237-.912-1.055-2.208-1.256-2.533-1.509-.365-.284 1.6 4.146-.665 2.853-2.139-1.222-4.114-2.536-6.565-2.949-1.073-.18 2.379 2.182 1.51 2.29-.197.025-.236-.183 0 0 .798.622-4.132-.736-3.382-.035 4.935 4.61 1.088 1.106-1.855 4.542-3.834 4.475-7.935 9.741-9.925 15.385-.67 1.899 2.39-.919 2.668-1.277.062-.08-.111.182-.099.281.09.716.445 1.402.531 2.089.241 1.925 1.158 9.343 2.721 9.894.835.295.305-3.622 1.806-1.707 1.72 2.193 3.502 4.007 5.737 4.937.615.257 2.282.736 2.702 1.143.344.336 1.503 1.206 2.188 1.342 1.73.346-1.306-2.193.364-1.392 1.423 0 5.357 1.509 6.432 1.888 1.133-2.209 4.54-2.183 5.668-2.713 2.9-.744 3.158-1.522 3.597-1.815 4.155-2.772.544 1.65 1.459 1.972.597.211 1.244-.362 1.674-.613 3.557-2.083 3.631-6.49 3.196-9.963-.055-.438.718.515 1.045.812.538.489 3.153 3.241 3.63 3.181.014-.002-.273-3.725-.598-4.773-.577-2.687-2.77-8.138-2.77-8.138 1.359.407 2.182 1.656 2.901 2.734.09.134.335.524.316.365-.627-5-2.454-8.327-5.756-12.613-.567-.737-5.218-3.386-5.67-3.33-.161.02-.893.389-.91.25-.045-.356 2.724-3.142 2.695-3.38-.051-.407-2.666 1.039-2.846 1.108-2.424.94-2.602.696-4.276 1.344z"
     fill="#ffce8b"
     stroke="#000"
     stroke-width=".706"
     stroke-linecap="round"
     stroke-linejoin="round"
     id="path1690" />
  <ellipse
     cx="46.017"
     cy="-79.923"
     rx="2.071"
     ry="3.942"
     transform="scale(1 -1)"
     fill="#280b0b"
     id="ellipse1692" />
  <ellipse
     cx="56.374"
     cy="-79.923"
     rx="2.071"
     ry="3.942"
     transform="scale(1 -1)"
     fill="#280b0b"
     id="ellipse1694" />
  <path
     d="M61.266 89.702c-.53.67-1.268 1.12-2.078 1.607-4.607 2.764-6.116 5.245-11.907 2.929-1.539-.616-2.989-2.371-4.252-3.213-.704-.47-2.457-1.733-2.457-2.362 0-.073.265.506.473.661.74.555 1.195 1.034 1.984 1.701 1.19.892 2.354 1.994 3.73 3.04 1.153.877 1.95.647 3.09.92 1.072.37 3.019-.037 4.84-.884 3.425-2.283 5.784-3.48 6.577-4.399z"
     fill="none"
     stroke="#000"
     stroke-width=".706"
     stroke-linecap="round"
     stroke-linejoin="round"
     id="path1696" />
  <ellipse
     cx="46.389"
     cy="-78.694"
     rx=".458"
     ry="1.182"
     transform="scale(1 -1)"
     fill="#fff"
     id="ellipse1698" />
  <ellipse
     cx="56.942"
     cy="-78.718"
     rx=".458"
     ry="1.205"
     transform="scale(1 -1)"
     fill="#fff"
     id="ellipse1700" />
  <path
     d="M40.138 102.106c-.051.815-.134 1.559-.134 2.406 0 1.042-.45 3.675 0 3.675h-2.205c-1.116 0-5.412-.107-5.412 1.336 0 .66.017 1.616.802 2.205.888.666 4.762 1.055 5.88.869.528-.088 1.694-.626 2.004-.936.5-.5 1.515-1.448 2.005-1.938.314-.314-.619-5.996-.2-6.414"
     fill="#b4823e"
     stroke="#000"
     stroke-width=".706"
     stroke-linecap="round"
     stroke-linejoin="round"
     id="path1702" />
  <path
     d="M48.222 74.51c-2.149-1.994-4.342-.4-5.01.268"
     fill="#ffce8b"
     stroke="#000"
     stroke-width=".706"
     stroke-linecap="round"
     stroke-linejoin="round"
     id="path1704" />
  <path
     d="M59.114 74.845c-.4-.029-.75-.456-1.07-.668-1.861-1.242-3.32-.021-3.875.534"
     fill="#ffce8b"
     stroke="#000"
     stroke-width=".706"
     stroke-linecap="round"
     stroke-linejoin="round"
     id="path1706" />
  <path
     d="M116.417 104.036c.05.815.134 1.559.134 2.406 0 1.042.45 3.675 0 3.675h2.205c1.115 0 5.412-.107 5.412 1.336 0 .66-.017 1.616-.802 2.205-.888.666-4.762 1.055-5.88.869-.528-.088-1.695-.626-2.004-.936-.501-.5-1.515-1.448-2.005-1.938-.315-.314.618-5.996.2-6.414"
     fill="#b4823e"
     stroke="#000"
     stroke-width=".706"
     stroke-linecap="round"
     stroke-linejoin="round"
     id="path1708" />
  <path
     d="M113.289 71.745c.547-.954 1.232-1.871 1.524-2.885.435-1.513.108-1.277-.095-1.252-.547.713-1.79 1.498-2.36 2.138-.7.786-2.622 1.595-2.567 2.033.003.026-.493-1.082-1.492-2.237-.912-1.056-2.208-1.257-2.533-1.51-.366-.283 1.599 4.146-.666 2.853-2.139-1.221-4.114-2.536-6.564-2.948-1.074-.181 2.378 2.181 1.509 2.29-.196.025-.236-.183 0 0 .799.621-4.132-.736-3.382-.036 4.935 4.61 1.088 1.107-1.855 4.542-3.834 4.476-7.934 9.741-9.924 15.385-.67 1.9 2.39-.919 2.668-1.277.06-.079-.112.183-.1.282.09.716.445 1.401.531 2.088.242 1.925 1.158 9.344 2.722 9.895.834.294.304-3.623 1.806-1.708 1.72 2.193 3.501 4.007 5.736 4.938.615.256 2.283.735 2.702 1.143.345.335 1.504 1.205 2.189 1.342 1.73.345-1.306-2.194.364-1.392 1.422 0 5.356 1.508 6.432 1.887 1.132-2.208 4.538-2.182 5.668-2.713 2.9-.743 3.158-1.522 3.596-1.814 4.156-2.772.545 1.65 1.46 1.972.597.21 1.244-.363 1.673-.614 3.558-2.082 3.632-6.489 3.196-9.963-.054-.437.719.516 1.045.812.538.49 3.154 3.242 3.63 3.182.014-.002-.273-3.725-.597-4.774-.578-2.686-2.77-8.138-2.77-8.138 1.358.407 2.181 1.656 2.9 2.735.09.133.336.524.316.364-.626-5-2.454-8.326-5.755-12.612-.568-.737-5.219-3.387-5.67-3.33-.162.02-.894.388-.911.249-.045-.356 2.725-3.142 2.695-3.38-.05-.406-2.666 1.04-2.845 1.109-2.424.939-2.603.695-4.276 1.344z"
     fill="#ffce8b"
     stroke="#000"
     stroke-width=".706"
     stroke-linecap="round"
     stroke-linejoin="round"
     id="path1710" />
  <ellipse
     cx="103.725"
     cy="-82.118"
     rx="2.071"
     ry="3.942"
     transform="scale(1 -1)"
     fill="#280b0b"
     id="ellipse1712" />
  <ellipse
     cx="114.082"
     cy="-82.118"
     rx="2.071"
     ry="3.942"
     transform="scale(1 -1)"
     fill="#280b0b"
     id="ellipse1714" />
  <path
     d="M118.974 96.465c-.53-.564-1.269-.944-2.079-1.354-4.607-2.332-6.116-4.424-11.906-2.471-1.54.52-2.99 2-4.252 2.71-.705.396-2.457 1.461-2.457 1.992 0 .061.265-.426.472-.558.74-.468 1.196-.872 1.985-1.434 1.189-.753 2.353.39 3.73-.493 1.153-.74 4.956-.565 6.098-.795 1.071-.312 2.55-.37 4.371.344 3.425 1.926 3.245 1.285 4.038 2.06z"
     fill="#b74c24"
     stroke="#000"
     stroke-width=".706"
     stroke-linecap="round"
     stroke-linejoin="round"
     id="path1716" />
  <ellipse
     cx="104.096"
     cy="-80.89"
     rx=".458"
     ry="1.182"
     transform="scale(1 -1)"
     fill="#fff"
     id="ellipse1718" />
  <ellipse
     cx="114.65"
     cy="-80.913"
     rx=".458"
     ry="1.205"
     transform="scale(1 -1)"
     fill="#fff"
     id="ellipse1720" />
  <path
     d="M97.845 104.302c-.05.814-.134 1.558-.134 2.405 0 1.043-.45 3.675 0 3.675h-2.205c-1.115 0-5.412-.107-5.412 1.337 0 .66.017 1.616.802 2.204.888.667 4.762 1.055 5.88.87.528-.089 1.695-.627 2.004-.936.501-.501 1.515-1.448 2.005-1.938.315-.315-.618-5.997-.2-6.415"
     fill="#b4823e"
     stroke="#000"
     stroke-width=".706"
     stroke-linecap="round"
     stroke-linejoin="round"
     id="path1722" />
  <path
     d="M104.837 75.82c-2.706-1.13-4.214 1.123-4.61 1.98"
     fill="#ffce8b"
     stroke="#000"
     stroke-width=".706"
     stroke-linecap="round"
     stroke-linejoin="round"
     id="path1724" />
  <path
     d="M117.409 77.481c-.353-.192-.495-.726-.697-1.05-1.18-1.902-3.012-1.396-3.748-1.12"
     fill="#ffce8b"
     stroke="#000"
     stroke-width=".706"
     stroke-linecap="round"
     stroke-linejoin="round"
     id="path1726" />
  <path
     d="M172.801 105.57c.05.815.134 1.559.134 2.406 0 1.043.45 3.675 0 3.675h2.205c1.115 0 5.412-.107 5.412 1.336 0 .66-.017 1.617-.802 2.205-.888.666-4.762 1.055-5.88.869-.528-.088-1.695-.626-2.004-.936-.501-.5-1.515-1.447-2.005-1.937-.315-.315.618-5.997.2-6.415"
     fill="#b4823e"
     stroke="#000"
     stroke-width=".706"
     stroke-linecap="round"
     stroke-linejoin="round"
     id="path1728" />
  <path
     d="M169.673 73.28c.547-.955 1.232-1.872 1.524-2.885.435-1.514.108-1.278-.095-1.253-.547.713-1.79 1.499-2.36 2.138-.7.786-2.622 1.596-2.567 2.033.003.026-.494-1.081-1.492-2.237-.912-1.056-2.208-1.256-2.533-1.51-.366-.283 1.599 4.147-.666 2.853-2.139-1.221-4.114-2.536-6.564-2.948-1.074-.181 2.378 2.181 1.509 2.29-.196.025-.236-.183 0 0 .799.621-4.132-.736-3.382-.036 4.935 4.61 1.088 1.107-1.855 4.543-3.834 4.475-7.934 9.74-9.924 15.384-.67 1.9 2.39-.918 2.668-1.277.06-.078-.112.183-.1.282.09.716.445 1.401.531 2.088.242 1.925 1.158 9.344 2.721 9.895.835.294.305-3.622 1.807-1.708 1.72 2.193 3.501 4.008 5.736 4.938.615.256 2.283.735 2.702 1.143.345.335 1.503 1.205 2.189 1.342 1.73.346-1.306-2.193.364-1.392 1.422 0 5.356 1.508 6.432 1.888 1.132-2.209 4.538-2.183 5.668-2.714 2.9-.743 3.158-1.522 3.596-1.814 4.156-2.772.544 1.65 1.46 1.972.597.21 1.244-.362 1.673-.614 3.558-2.082 3.632-6.488 3.196-9.962-.054-.438.718.515 1.045.812.538.488 3.154 3.24 3.63 3.181.014-.002-.273-3.725-.597-4.773-.578-2.687-2.77-8.138-2.77-8.138 1.358.407 2.181 1.655 2.9 2.734.09.134.336.524.316.364-.626-4.999-2.454-8.326-5.755-12.612-.568-.737-5.22-3.386-5.67-3.33-.162.02-.894.388-.912.249-.044-.355 2.726-3.142 2.696-3.379-.05-.407-2.666 1.039-2.845 1.108-2.424.94-2.603.696-4.276 1.344z"
     fill="#ffce8b"
     stroke="#000"
     stroke-width=".706"
     stroke-linecap="round"
     stroke-linejoin="round"
     id="path1730" />
  <ellipse
     cx="160.109"
     cy="-83.653"
     rx="2.071"
     ry="3.942"
     transform="scale(1 -1)"
     fill="#280b0b"
     id="ellipse1732" />
  <ellipse
     cx="170.465"
     cy="-83.653"
     rx="2.071"
     ry="3.942"
     transform="scale(1 -1)"
     fill="#280b0b"
     id="ellipse1734" />
  <path
     d="M175.358 98c-.531-.565-1.269-.945-2.08-1.355-4.606-2.331-6.115-4.424-11.905-2.47-1.54.519-2.99 1.999-4.253 2.709 3.716 5.581 16.366-.421 18.238 1.116z"
     fill="#b74c24"
     stroke="#000"
     stroke-width=".706"
     stroke-linecap="round"
     stroke-linejoin="round"
     id="path1736" />
  <ellipse
     cx="160.48"
     cy="-82.424"
     rx=".458"
     ry="1.182"
     transform="scale(1 -1)"
     fill="#fff"
     id="ellipse1738" />
  <ellipse
     cx="171.033"
     cy="-82.448"
     rx=".458"
     ry="1.205"
     transform="scale(1 -1)"
     fill="#fff"
     id="ellipse1740" />
  <path
     d="M154.229 105.836c-.05.815-.134 1.558-.134 2.405 0 1.043-.45 3.675 0 3.675h-2.205c-1.115 0-5.412-.107-5.412 1.337 0 .66.017 1.616.802 2.205.888.666 4.762 1.055 5.88.868.528-.088 1.695-.625 2.004-.935.501-.501 1.515-1.448 2.005-1.938.315-.314-.618-5.997-.2-6.414"
     fill="#b4823e"
     stroke="#000"
     stroke-width=".706"
     stroke-linecap="round"
     stroke-linejoin="round"
     id="path1742" />
  <path
     d="M161.221 77.354c-2.706-1.13-4.214 1.123-4.61 1.981"
     fill="#ffce8b"
     stroke="#000"
     stroke-width=".706"
     stroke-linecap="round"
     stroke-linejoin="round"
     id="path1744" />
  <path
     d="M173.792 79.015c-.352-.191-.494-.725-.696-1.05-1.18-1.902-3.012-1.395-3.748-1.12"
     fill="#ffce8b"
     stroke="#000"
     stroke-width=".706"
     stroke-linecap="round"
     stroke-linejoin="round"
     id="path1746" />
  <path
     d="M170.205 158.786c.05.814.134 1.558.134 2.405 0 1.043.45 3.675 0 3.675h2.205c1.115 0 5.412-.107 5.412 1.336 0 .66-.017 1.617-.802 2.205-.888.666-4.762 1.055-5.88.869-.528-.088-1.695-.626-2.004-.936-.501-.5-1.515-1.448-2.005-1.937-.314-.315.618-5.997.2-6.415"
     fill="#b4823e"
     stroke="#000"
     stroke-width=".706"
     stroke-linecap="round"
     stroke-linejoin="round"
     id="path1748" />
  <path
     d="M167.077 126.494c.547-.954 1.232-1.87 1.524-2.885.436-1.513.108-1.277-.095-1.252-.547.713-1.79 1.498-2.36 2.138-.7.786-2.621 1.595-2.567 2.033.003.026-.493-1.081-1.492-2.237-.912-1.056-2.208-1.257-2.533-1.51-.365-.283 1.6 4.147-.666 2.853-2.138-1.221-4.114-2.536-6.564-2.948-1.074-.181 2.378 2.181 1.509 2.29-.196.025-.236-.183 0 0 .799.621-4.132-.736-3.382-.036 4.935 4.61 1.088 1.107-1.855 4.543-3.834 4.475-7.934 9.74-9.924 15.384-.67 1.9 2.39-.918 2.668-1.277.061-.078-.112.183-.1.282.09.716.445 1.401.532 2.088.24 1.925 1.158 9.344 2.72 9.895.835.294.305-3.623 1.807-1.708 1.72 2.193 3.501 4.008 5.736 4.938.615.256 2.283.735 2.702 1.143.345.335 1.504 1.205 2.189 1.342 1.73.346-1.306-2.193.364-1.392 1.423 0 5.356 1.508 6.432 1.888 1.132-2.209 4.539-2.183 5.668-2.714 2.9-.743 3.158-1.522 3.596-1.814 4.156-2.772.545 1.65 1.46 1.972.597.21 1.244-.362 1.673-.614 3.558-2.082 3.632-6.489 3.197-9.962-.055-.438.718.515 1.044.812.538.488 3.154 3.24 3.63 3.181.014-.002-.273-3.725-.597-4.774-.578-2.686-2.77-8.137-2.77-8.137 1.358.406 2.182 1.655 2.901 2.734.09.133.335.524.315.364-.626-5-2.454-8.326-5.755-12.612-.568-.737-5.219-3.386-5.67-3.33-.162.02-.894.388-.911.249-.045-.355 2.725-3.142 2.695-3.379-.05-.407-2.666 1.039-2.845 1.108-2.424.94-2.603.695-4.276 1.344z"
     fill="#ffce8b"
     stroke="#000"
     stroke-width=".706"
     stroke-linecap="round"
     stroke-linejoin="round"
     id="path1750" />
  <ellipse
     cx="157.513"
     cy="-136.868"
     rx="2.071"
     ry="3.942"
     transform="scale(1 -1)"
     fill="#280b0b"
     id="ellipse1752" />
  <ellipse
     cx="167.87"
     cy="-136.868"
     rx="2.071"
     ry="3.942"
     transform="scale(1 -1)"
     fill="#280b0b"
     id="ellipse1754" />
  <path
     d="M161.895 147.673c-1.633-1.702-6.226.582-4.913 2.048 13.179 7.135 12.506-4.95 4.913-2.048z"
     fill="#b74c24"
     stroke="#000"
     stroke-width=".706"
     stroke-linecap="round"
     stroke-linejoin="round"
     id="path1756" />
  <ellipse
     cx="157.884"
     cy="-135.639"
     rx=".458"
     ry="1.182"
     transform="scale(1 -1)"
     fill="#fff"
     id="ellipse1758" />
  <ellipse
     cx="168.438"
     cy="-135.663"
     rx=".458"
     ry="1.205"
     transform="scale(1 -1)"
     fill="#fff"
     id="ellipse1760" />
  <path
     d="M151.633 159.051c-.05.815-.134 1.558-.134 2.405 0 1.043-.45 3.675 0 3.675h-2.205c-1.115 0-5.412-.107-5.412 1.337 0 .66.017 1.616.802 2.205.888.666 4.762 1.055 5.88.868.528-.088 1.695-.625 2.005-.935.5-.501 1.514-1.448 2.004-1.938.315-.314-.618-5.997-.2-6.414"
     fill="#b4823e"
     stroke="#000"
     stroke-width=".706"
     stroke-linecap="round"
     stroke-linejoin="round"
     id="path1762" />
  <path
     d="M158.625 130.569c-2.706-1.13-4.214 1.123-4.61 1.981"
     fill="#ffce8b"
     stroke="#000"
     stroke-width=".706"
     stroke-linecap="round"
     stroke-linejoin="round"
     id="path1764" />
  <path
     d="M171.197 132.23c-.353-.191-.495-.725-.697-1.05-1.18-1.902-3.012-1.395-3.748-1.12"
     fill="#ffce8b"
     stroke="#000"
     stroke-width=".706"
     stroke-linecap="round"
     stroke-linejoin="round"
     id="path1766" />
  <path
     d="M169.45 213.403c.05.815.133 1.558.133 2.405 0 1.043.45 3.675 0 3.675h2.205c1.116 0 5.412-.107 5.412 1.337 0 .66-.017 1.616-.802 2.205-.888.666-4.762 1.055-5.88.868-.528-.088-1.694-.625-2.004-.935-.501-.5-1.515-1.448-2.005-1.938-.314-.314.618-5.996.2-6.414"
     fill="#b4823e"
     stroke="#000"
     stroke-width=".706"
     stroke-linecap="round"
     stroke-linejoin="round"
     id="path1768" />
  <path
     d="M166.32 181.112c.548-.955 1.233-1.871 1.525-2.885.436-1.513.108-1.277-.095-1.252-.547.712-1.79 1.498-2.36 2.138-.7.786-2.621 1.595-2.567 2.033.003.026-.493-1.082-1.492-2.238-.912-1.055-2.208-1.256-2.533-1.509-.365-.284 1.6 4.146-.666 2.853-2.138-1.222-4.114-2.536-6.564-2.949-1.074-.18 2.379 2.182 1.509 2.29-.196.025-.236-.182 0 0 .799.622-4.131-.735-3.382-.035 4.935 4.61 1.088 1.106-1.855 4.542-3.834 4.475-7.934 9.741-9.924 15.385-.67 1.9 2.39-.919 2.668-1.277.061-.079-.112.183-.1.282.09.716.446 1.4.532 2.088.24 1.925 1.158 9.343 2.72 9.895.835.294.305-3.623 1.807-1.708 1.72 2.193 3.501 4.007 5.736 4.938.615.256 2.283.735 2.702 1.143.345.335 1.504 1.205 2.189 1.342 1.73.345-1.306-2.194.364-1.393 1.423 0 5.356 1.509 6.432 1.888 1.132-2.208 4.539-2.182 5.668-2.713 2.9-.744 3.158-1.522 3.596-1.814 4.156-2.773.545 1.649 1.46 1.972.597.21 1.244-.363 1.673-.614 3.558-2.082 3.632-6.489 3.197-9.963-.055-.437.718.516 1.044.812.538.489 3.154 3.241 3.63 3.182.014-.002-.273-3.725-.597-4.774-.578-2.686-2.77-8.138-2.77-8.138 1.358.407 2.182 1.656 2.901 2.734.09.134.335.524.315.365-.626-5-2.454-8.326-5.755-12.612-.568-.737-5.219-3.387-5.67-3.33-.162.02-.894.388-.911.248-.045-.355 2.725-3.141 2.695-3.378-.05-.408-2.666 1.038-2.845 1.108-2.424.939-2.602.695-4.276 1.343z"
     fill="#ffce8b"
     stroke="#000"
     stroke-width=".706"
     stroke-linecap="round"
     stroke-linejoin="round"
     id="path1770" />
  <ellipse
     cx="156.757"
     cy="-191.485"
     rx="2.071"
     ry="3.942"
     transform="scale(1 -1)"
     fill="#280b0b"
     id="ellipse1772" />
  <ellipse
     cx="167.114"
     cy="-191.485"
     rx="2.071"
     ry="3.942"
     transform="scale(1 -1)"
     fill="#280b0b"
     id="ellipse1774" />
  <path
     d="M162.208 203.05c-2.956-.52-5.186 1.338-4.394 3.56 3.636 4.16 9.2-2.635 4.394-3.56z"
     fill="#b74c24"
     stroke="#000"
     stroke-width=".706"
     stroke-linecap="round"
     stroke-linejoin="round"
     id="path1776" />
  <ellipse
     cx="157.128"
     cy="-190.257"
     rx=".458"
     ry="1.182"
     transform="scale(1 -1)"
     fill="#fff"
     id="ellipse1778" />
  <ellipse
     cx="167.682"
     cy="-190.28"
     rx=".458"
     ry="1.205"
     transform="scale(1 -1)"
     fill="#fff"
     id="ellipse1780" />
  <path
     d="M150.877 213.669c-.05.814-.133 1.558-.133 2.405 0 1.043-.45 3.675 0 3.675h-2.205c-1.116 0-5.413-.107-5.413 1.336 0 .66.017 1.617.802 2.205.888.666 4.762 1.055 5.88.869.528-.088 1.695-.626 2.005-.936.5-.5 1.514-1.447 2.004-1.937.315-.315-.618-5.997-.2-6.415"
     fill="#b4823e"
     stroke="#000"
     stroke-width=".706"
     stroke-linecap="round"
     stroke-linejoin="round"
     id="path1782" />
  <path
     d="M157.87 185.187c-2.707-1.13-4.215 1.123-4.611 1.98"
     fill="#ffce8b"
     stroke="#000"
     stroke-width=".706"
     stroke-linecap="round"
     stroke-linejoin="round"
     id="path1784" />
  <path
     d="M170.44 186.848c-.352-.192-.494-.726-.696-1.051-1.18-1.901-3.012-1.395-3.748-1.12"
     fill="#ffce8b"
     stroke="#000"
     stroke-width=".706"
     stroke-linecap="round"
     stroke-linejoin="round"
     id="path1786" />
  <path
     d="M167.733 267.872c.05.815.133 1.559.133 2.406 0 1.043.45 3.675 0 3.675h2.205c1.116 0 5.413-.107 5.413 1.336 0 .66-.017 1.617-.802 2.205-.888.666-4.762 1.055-5.88.869-.528-.088-1.695-.626-2.005-.936-.5-.5-1.514-1.448-2.004-1.937-.315-.315.618-5.997.2-6.415"
     fill="#b4823e"
     stroke="#000"
     stroke-width=".706"
     stroke-linecap="round"
     stroke-linejoin="round"
     id="path1788" />
  <path
     d="M164.604 235.581c.548-.954 1.233-1.87 1.525-2.885.435-1.513.108-1.277-.095-1.252-.547.713-1.791 1.498-2.36 2.138-.7.786-2.622 1.595-2.567 2.033.003.026-.494-1.082-1.492-2.237-.912-1.056-2.208-1.257-2.534-1.51-.365-.283 1.6 4.147-.665 2.853-2.139-1.221-4.114-2.536-6.565-2.948-1.073-.181 2.38 2.181 1.51 2.29-.197.025-.236-.183 0 0 .799.621-4.132-.736-3.382-.036 4.935 4.61 1.088 1.107-1.855 4.543-3.834 4.475-7.935 9.74-9.925 15.384-.67 1.9 2.39-.918 2.669-1.277.06-.078-.112.183-.1.282.09.716.445 1.401.531 2.088.241 1.925 1.158 9.344 2.721 9.895.835.294.305-3.623 1.807-1.708 1.72 2.193 3.5 4.008 5.736 4.938.615.256 2.283.735 2.702 1.143.345.335 1.503 1.205 2.188 1.342 1.73.346-1.305-2.194.365-1.392 1.422 0 5.356 1.508 6.431 1.888 1.133-2.209 4.54-2.183 5.669-2.714 2.9-.743 3.157-1.522 3.596-1.814 4.156-2.772.544 1.65 1.459 1.972.598.21 1.245-.363 1.674-.614 3.558-2.082 3.631-6.489 3.196-9.962-.055-.438.718.515 1.045.811.538.49 3.154 3.242 3.63 3.182.014-.002-.273-3.725-.597-4.774-.578-2.686-2.77-8.137-2.77-8.137 1.358.406 2.181 1.655 2.9 2.734.09.133.336.524.316.364-.627-5-2.454-8.326-5.755-12.612-.568-.737-5.22-3.386-5.67-3.33-.162.02-.894.388-.912.249-.044-.355 2.726-3.142 2.696-3.38-.051-.406-2.666 1.04-2.845 1.11-2.424.938-2.603.694-4.277 1.343z"
     fill="#ffce8b"
     stroke="#000"
     stroke-width=".706"
     stroke-linecap="round"
     stroke-linejoin="round"
     id="path1790" />
  <ellipse
     cx="155.041"
     cy="-245.955"
     rx="2.071"
     ry="3.942"
     transform="scale(1 -1)"
     fill="#280b0b"
     id="ellipse1792" />
  <ellipse
     cx="165.397"
     cy="-245.955"
     rx="2.071"
     ry="3.942"
     transform="scale(1 -1)"
     fill="#280b0b"
     id="ellipse1794" />
  <path
     d="M163.576 261.777c-2.095-.409-3.675 1.05-3.114 2.797 2.576 3.267 6.518-2.07 3.114-2.797z"
     fill="#b74c24"
     stroke="#000"
     stroke-width=".706"
     stroke-linecap="round"
     stroke-linejoin="round"
     id="path1796" />
  <ellipse
     cx="155.412"
     cy="-244.726"
     rx=".458"
     ry="1.182"
     transform="scale(1 -1)"
     fill="#fff"
     id="ellipse1798" />
  <ellipse
     cx="165.965"
     cy="-244.75"
     rx=".458"
     ry="1.205"
     transform="scale(1 -1)"
     fill="#fff"
     id="ellipse1800" />
  <path
     d="M149.16 268.138c-.05.815-.133 1.558-.133 2.405 0 1.043-.45 3.675 0 3.675h-2.205c-1.116 0-5.412-.107-5.412 1.337 0 .66.017 1.616.802 2.205.888.666 4.762 1.055 5.88.868.528-.088 1.694-.625 2.004-.935.501-.501 1.515-1.448 2.005-1.938.314-.314-.618-5.997-.2-6.414"
     fill="#b4823e"
     stroke="#000"
     stroke-width=".706"
     stroke-linecap="round"
     stroke-linejoin="round"
     id="path1802" />
  <path
     d="M156.153 238.068c-2.706-1.13-4.214 1.124-4.61 1.982"
     fill="#ffce8b"
     stroke="#000"
     stroke-width=".706"
     stroke-linecap="round"
     stroke-linejoin="round"
     id="path1804" />
  <path
     d="M168.724 239.73c-.352-.192-.494-.726-.696-1.051-1.18-1.901-3.013-1.395-3.748-1.12"
     fill="#ffce8b"
     stroke="#000"
     stroke-width=".706"
     stroke-linecap="round"
     stroke-linejoin="round"
     id="path1806" />
  <path
     d="M58.74 46.905c.05.814.134 1.558.134 2.405 0 1.043.45 3.675 0 3.675h2.205c1.115 0 5.412-.107 5.412 1.336 0 .66-.017 1.617-.802 2.205-.888.666-4.762 1.055-5.88.869-.528-.088-1.695-.626-2.004-.936-.501-.5-1.515-1.447-2.005-1.937-.315-.315.618-5.997.2-6.415"
     fill="#b4823e"
     stroke="#000"
     stroke-width=".706"
     stroke-linecap="round"
     stroke-linejoin="round"
     id="path1808" />
  <path
     d="M55.612 14.613c.547-.954 1.232-1.87 1.524-2.884.435-1.514.108-1.278-.095-1.252-.547.712-1.79 1.498-2.36 2.137-.7.786-2.622 1.596-2.567 2.033.003.026-.494-1.081-1.492-2.237-.912-1.056-2.208-1.256-2.533-1.51-.366-.283 1.599 4.147-.666 2.853-2.139-1.221-4.114-2.536-6.565-2.948-1.073-.181 2.38 2.181 1.51 2.29-.196.025-.236-.183 0 0 .799.621-4.132-.736-3.382-.036 4.935 4.611 1.088 1.107-1.855 4.543-3.834 4.475-7.934 9.74-9.925 15.384-.67 1.9 2.39-.918 2.669-1.277.06-.078-.112.183-.1.282.09.716.445 1.401.531 2.088.242 1.925 1.158 9.344 2.721 9.895.835.294.305-3.622 1.807-1.708 1.72 2.193 3.501 4.008 5.736 4.938.615.256 2.283.735 2.702 1.143.345.335 1.503 1.205 2.189 1.342 1.73.346-1.306-2.193.364-1.392 1.422 0 5.356 1.508 6.432 1.888 1.132-2.209 4.538-2.183 5.668-2.714 2.9-.743 3.158-1.522 3.596-1.814 4.156-2.772.544 1.65 1.46 1.972.597.21 1.244-.362 1.673-.614 3.558-2.082 3.632-6.488 3.196-9.962-.054-.438.718.515 1.045.812.538.488 3.154 3.24 3.63 3.181.014-.002-.273-3.725-.597-4.773-.578-2.687-2.77-8.138-2.77-8.138 1.358.407 2.181 1.655 2.9 2.734.09.134.336.524.316.364-.626-4.999-2.454-8.326-5.755-12.612-.568-.737-5.22-3.386-5.67-3.33-.162.02-.894.388-.912.249-.044-.355 2.726-3.142 2.696-3.379-.05-.407-2.666 1.039-2.845 1.108-2.424.94-2.603.696-4.276 1.344z"
     fill="#ffce8b"
     stroke="#000"
     stroke-width=".706"
     stroke-linecap="round"
     stroke-linejoin="round"
     id="path1810" />
  <ellipse
     cx="46.048"
     cy="-24.987"
     rx="2.071"
     ry="3.942"
     transform="scale(1 -1)"
     fill="#280b0b"
     id="ellipse1812" />
  <ellipse
     cx="56.405"
     cy="-24.987"
     rx="2.071"
     ry="3.942"
     transform="scale(1 -1)"
     fill="#280b0b"
     id="ellipse1814" />
  <path
     d="M61.297 39.334c-.531-.565-1.269-.945-2.08-1.355-4.606-2.331-6.115-4.424-11.905-2.47-1.54.519-2.99 1.999-4.253 2.709-.704.396-2.456 1.461-2.456 1.992 0 .062.265-.426.472-.557.74-.469 1.196-.873 1.984-1.435 1.19-.752 2.354-1.681 3.73-2.564 1.154-.74 1.95-.546 3.091-.776 1.071-.312 3.018.031 4.84.746 3.425 1.925 5.784 2.935 6.577 3.71z"
     fill="none"
     stroke="#000"
     stroke-width=".706"
     stroke-linecap="round"
     stroke-linejoin="round"
     id="path1816" />
  <ellipse
     cx="46.419"
     cy="-23.758"
     rx=".458"
     ry="1.182"
     transform="scale(1 -1)"
     fill="#fff"
     id="ellipse1818" />
  <ellipse
     cx="56.972"
     cy="-23.782"
     rx=".458"
     ry="1.205"
     transform="scale(1 -1)"
     fill="#fff"
     id="ellipse1820" />
  <path
     d="M40.168 47.17c-.05.815-.134 1.558-.134 2.406 0 1.042-.45 3.674 0 3.674H37.83c-1.115 0-5.412-.107-5.412 1.337 0 .66.017 1.616.802 2.205.888.666 4.762 1.055 5.88.868.528-.088 1.695-.625 2.004-.935.501-.5 1.515-1.448 2.005-1.938.315-.314-.618-5.996-.2-6.414"
     fill="#b4823e"
     stroke="#000"
     stroke-width=".706"
     stroke-linecap="round"
     stroke-linejoin="round"
     id="path1822" />
  <path
     d="M44.085 19.961c.86 1.64 3.843 3.613 4.876 3.143"
     fill="#ffce8b"
     stroke="#000"
     stroke-width=".8"
     stroke-linecap="round"
     stroke-linejoin="round"
     id="path1824" />
  <ellipse
     cx="51.925"
     cy="-2.368"
     rx="2.548"
     ry="1.153"
     transform="matrix(.89516 .44574 -.38418 .92326 0 0)"
     fill="#ffce8b"
     id="ellipse1826" />
  <path
     d="M58.563 19.982c-.86 1.64-3.842 3.612-4.876 3.143"
     fill="#ffce8b"
     stroke="#000"
     stroke-width=".8"
     stroke-linecap="round"
     stroke-linejoin="round"
     id="path1828" />
  <ellipse
     cx="-43.056"
     cy="43.51"
     rx="2.548"
     ry="1.153"
     transform="matrix(-.89516 .44574 .38418 .92326 0 0)"
     fill="#ffce8b"
     id="ellipse1830" />
  <path
     d="M115.547 47.949c.05.815.134 1.558.134 2.405 0 1.043.45 3.675 0 3.675h2.205c1.115 0 5.412-.107 5.412 1.337 0 .66-.017 1.616-.802 2.205-.888.666-4.762 1.055-5.88.868-.528-.088-1.695-.625-2.004-.935-.501-.501-1.515-1.448-2.005-1.938-.315-.314.618-5.997.2-6.414"
     fill="#b4823e"
     stroke="#000"
     stroke-width=".706"
     stroke-linecap="round"
     stroke-linejoin="round"
     id="path1832" />
  <path
     d="M112.419 15.658c.547-.955 1.232-1.871 1.524-2.885.436-1.513.108-1.277-.095-1.252-.547.712-1.79 1.498-2.36 2.138-.7.786-2.621 1.595-2.567 2.033.003.026-.493-1.082-1.492-2.238-.912-1.055-2.208-1.256-2.533-1.509-.365-.284 1.6 4.146-.666 2.853-2.139-1.222-4.114-2.536-6.564-2.949-1.074-.18 2.378 2.182 1.509 2.29-.196.025-.236-.182 0 0 .799.622-4.132-.736-3.382-.035 4.935 4.61 1.088 1.106-1.855 4.542-3.834 4.475-7.934 9.741-9.924 15.385-.67 1.9 2.39-.919 2.668-1.277.061-.079-.112.183-.1.282.09.715.445 1.4.532 2.088.24 1.925 1.158 9.343 2.72 9.895.835.294.305-3.623 1.807-1.708 1.72 2.193 3.501 4.007 5.736 4.938.615.256 2.283.735 2.702 1.143.345.335 1.504 1.205 2.189 1.342 1.73.345-1.306-2.194.364-1.393 1.423 0 5.356 1.509 6.432 1.888 1.132-2.208 4.539-2.182 5.668-2.713 2.9-.744 3.158-1.522 3.596-1.815 4.156-2.772.545 1.65 1.46 1.973.597.21 1.244-.363 1.673-.614 3.558-2.082 3.632-6.489 3.197-9.963-.055-.437.718.516 1.044.812.538.489 3.154 3.241 3.63 3.182.014-.003-.273-3.725-.597-4.774-.578-2.686-2.77-8.138-2.77-8.138 1.358.407 2.182 1.656 2.901 2.734.09.134.335.524.315.365-.626-5-2.454-8.326-5.755-12.612-.568-.738-5.219-3.387-5.67-3.33-.162.02-.894.388-.911.248-.045-.355 2.725-3.141 2.695-3.379-.05-.407-2.666 1.04-2.845 1.109-2.424.939-2.603.695-4.276 1.343z"
     fill="#ffce8b"
     stroke="#000"
     stroke-width=".706"
     stroke-linecap="round"
     stroke-linejoin="round"
     id="path1834" />
  <ellipse
     cx="102.855"
     cy="-26.031"
     rx="2.071"
     ry="3.942"
     transform="scale(1 -1)"
     fill="#280b0b"
     id="ellipse1836" />
  <ellipse
     cx="113.212"
     cy="-26.031"
     rx="2.071"
     ry="3.942"
     transform="scale(1 -1)"
     fill="#280b0b"
     id="ellipse1838" />
  <ellipse
     cx="103.226"
     cy="-25.956"
     rx=".458"
     ry=".748"
     transform="scale(1 -1)"
     fill="#fff"
     id="ellipse1840" />
  <ellipse
     cx="113.78"
     cy="-26.013"
     rx=".458"
     ry=".805"
     transform="scale(1 -1)"
     fill="#fff"
     id="ellipse1842" />
  <path
     d="M96.975 48.215c-.05.814-.134 1.558-.134 2.405 0 1.043-.45 3.675 0 3.675h-2.205c-1.115 0-5.412-.107-5.412 1.336 0 .66.017 1.617.802 2.205.888.666 4.762 1.055 5.88.869.528-.088 1.695-.626 2.005-.936.5-.5 1.514-1.447 2.004-1.937.315-.315-.618-5.997-.2-6.415"
     fill="#b4823e"
     stroke="#000"
     stroke-width=".706"
     stroke-linecap="round"
     stroke-linejoin="round"
     id="path1844" />
  <path
     d="M100.363 21.874c.86 1.64 3.843 3.613 4.876 3.144"
     fill="#ffce8b"
     stroke="#000"
     stroke-width=".8"
     stroke-linecap="round"
     stroke-linejoin="round"
     id="path1846" />
  <ellipse
     cx="104.813"
     cy="-25.624"
     rx="2.548"
     ry="1.153"
     transform="matrix(.89516 .44574 -.38418 .92326 0 0)"
     fill="#ffce8b"
     id="ellipse1848" />
  <path
     d="M115.37 22.084c-.86 1.64-3.842 3.613-4.876 3.144"
     fill="#ffce8b"
     stroke="#000"
     stroke-width=".8"
     stroke-linecap="round"
     stroke-linejoin="round"
     id="path1850" />
  <ellipse
     cx="-94.814"
     cy="70.776"
     rx="2.548"
     ry="1.153"
     transform="matrix(-.89516 .44574 .38418 .92326 0 0)"
     fill="#ffce8b"
     id="ellipse1852" />
  <path
     d="M169.536 47.949c.05.815.133 1.558.133 2.405 0 1.043.45 3.675 0 3.675h2.205c1.116 0 5.412-.107 5.412 1.337 0 .66-.017 1.616-.801 2.205-.889.666-4.762 1.055-5.88.868-.529-.088-1.695-.625-2.005-.935-.5-.501-1.515-1.448-2.004-1.938-.315-.314.618-5.997.2-6.414"
     fill="#b4823e"
     stroke="#000"
     stroke-width=".706"
     stroke-linecap="round"
     stroke-linejoin="round"
     id="path1854" />
  <path
     d="M166.407 15.658c.548-.955 1.233-1.871 1.524-2.885.436-1.513.109-1.277-.094-1.252-.547.712-1.791 1.498-2.36 2.138-.7.786-2.622 1.595-2.567 2.033.003.026-.494-1.082-1.493-2.238-.912-1.055-2.208-1.256-2.533-1.509-.365-.284 1.6 4.146-.665 2.853-2.14-1.222-4.114-2.536-6.565-2.949-1.073-.18 2.379 2.182 1.51 2.29-.197.025-.236-.182 0 0 .798.622-4.132-.736-3.382-.035 4.935 4.61 1.088 1.106-1.855 4.542-3.834 4.475-7.935 9.741-9.925 15.385-.67 1.9 2.39-.919 2.668-1.277.061-.079-.111.183-.099.282.09.715.445 1.4.531 2.088.241 1.925 1.158 9.343 2.721 9.895.835.294.305-3.623 1.806-1.708 1.72 2.193 3.502 4.007 5.737 4.938.615.256 2.282.735 2.702 1.143.344.335 1.503 1.205 2.188 1.342 1.73.345-1.306-2.194.364-1.393 1.423 0 5.357 1.509 6.432 1.888 1.133-2.208 4.539-2.182 5.668-2.713 2.9-.744 3.158-1.522 3.597-1.815 4.155-2.772.544 1.65 1.459 1.973.597.21 1.244-.363 1.674-.614 3.557-2.082 3.631-6.489 3.196-9.963-.055-.437.718.516 1.044.812.539.489 3.154 3.241 3.631 3.182.014-.003-.273-3.725-.598-4.774-.577-2.686-2.77-8.138-2.77-8.138 1.359.407 2.182 1.656 2.901 2.734.09.134.335.524.315.365-.626-5-2.453-8.326-5.755-12.612-.568-.738-5.219-3.387-5.67-3.33-.161.02-.893.388-.91.248-.045-.355 2.724-3.141 2.695-3.379-.051-.407-2.666 1.04-2.846 1.109-2.424.939-2.602.695-4.276 1.343z"
     fill="#ffce8b"
     stroke="#000"
     stroke-width=".706"
     stroke-linecap="round"
     stroke-linejoin="round"
     id="path1856" />
  <ellipse
     cx="156.843"
     cy="-26.031"
     rx="2.071"
     ry="3.942"
     transform="scale(1 -1)"
     fill="#280b0b"
     id="ellipse1858" />
  <ellipse
     cx="167.2"
     cy="-26.031"
     rx="2.071"
     ry="3.942"
     transform="scale(1 -1)"
     fill="#280b0b"
     id="ellipse1860" />
  <path
     d="M165.788 37.93c-.178-.466-.425-.78-.697-1.12-1.543-1.926-2.05-3.655-3.99-2.04-.515.428-1.002 1.652-1.425 2.238-.236.328-.823 1.208-.823 1.647 0 .05.089-.353.158-.461.665-1.186 2.257-4.314 2.936-4.097 1.094-.196 2.088.843 3.841 3.833z"
     fill="none"
     stroke="#000"
     stroke-width=".706"
     stroke-linecap="round"
     stroke-linejoin="round"
     id="path1862" />
  <ellipse
     cx="157.214"
     cy="-25.956"
     rx=".458"
     ry=".748"
     transform="scale(1 -1)"
     fill="#fff"
     id="ellipse1864" />
  <ellipse
     cx="167.768"
     cy="-26.013"
     rx=".458"
     ry=".805"
     transform="scale(1 -1)"
     fill="#fff"
     id="ellipse1866" />
  <path
     d="M150.964 48.215c-.051.814-.134 1.558-.134 2.405 0 1.043-.45 3.675 0 3.675h-2.205c-1.116 0-5.412-.107-5.412 1.336 0 .66.017 1.617.802 2.205.888.666 4.762 1.055 5.88.869.528-.088 1.694-.626 2.004-.936.5-.5 1.515-1.447 2.004-1.937.315-.315-.618-5.997-.2-6.415"
     fill="#b4823e"
     stroke="#000"
     stroke-width=".706"
     stroke-linecap="round"
     stroke-linejoin="round"
     id="path1868" />
  <path
     d="M154.352 21.874c.86 1.64 3.842 3.613 4.875 3.144"
     fill="#ffce8b"
     stroke="#000"
     stroke-width=".8"
     stroke-linecap="round"
     stroke-linejoin="round"
     id="path1870" />
  <ellipse
     cx="154.773"
     cy="-49.745"
     rx="2.548"
     ry="1.153"
     transform="matrix(.89516 .44574 -.38418 .92326 0 0)"
     fill="#ffce8b"
     id="ellipse1872" />
  <path
     d="M169.359 22.084c-.86 1.64-3.843 3.613-4.876 3.144"
     fill="#ffce8b"
     stroke="#000"
     stroke-width=".8"
     stroke-linecap="round"
     stroke-linejoin="round"
     id="path1874" />
  <ellipse
     cx="-144.774"
     cy="94.897"
     rx="2.548"
     ry="1.153"
     transform="matrix(-.89516 .44574 .38418 .92326 0 0)"
     fill="#ffce8b"
     id="ellipse1876" />
  <path
     d="M113.185 36.537c-.745-1.277-1.807-1.92-3.071-2.552-.351-.175-.54-.383-.898-.472-1.695.24-7.024 5.17-7.134 6.52"
     fill="#ffce8b"
     stroke="#000"
     stroke-width=".8"
     stroke-linecap="round"
     stroke-linejoin="round"
     id="path1878" />
  <g
     id="g1959"
     transform="rotate(-85.751091,46.514348,142.93895)">
    <path
       inkscape:original-d="m 165.35061,283.73655 c 1.51471,3.23526 2.38271,6.91353 2.38271,10.65165"
       inkscape:path-effect="#path-effect1898"
       inkscape:connector-curvature="0"
       id="path1896"
       d="m 165.35061,283.73655 c 0.24878,-0.11647 1.58304,2.0199 2.27033,5.08487 0.68733,3.06514 0.3894,5.56679 0.11238,5.56679 -0.28049,0 -0.45278,-2.44065 -1.10411,-5.34437 -0.65134,-2.90371 -1.53262,-5.18836 -1.2786,-5.30729 z"
       style="fill:#000000;fill-opacity:1;stroke:none;stroke-width:0.202033;stroke-linecap:round;stroke-linejoin:round;stroke-miterlimit:4;stroke-dasharray:none;stroke-opacity:1" />
    <path
       inkscape:original-d="m 169.39271,283.31261 c -0.3695,2.12076 -0.76163,4.3137 -1.36155,6.3062 -0.16094,0.53452 -0.66114,1.12916 -0.68078,1.16584"
       inkscape:path-effect="#path-effect1902"
       inkscape:connector-curvature="0"
       id="path1900"
       d="m 169.39271,283.31261 c 0.25425,0.0443 0.23855,1.81489 -0.23149,3.94769 -0.21487,0.97498 -0.48305,1.8147 -0.76158,2.46946 0,0 0,0 0,0 -0.15842,0.37977 -0.39385,0.64333 -0.55743,0.7958 -0.109,0.10351 -0.20826,0.17737 -0.28728,0.22138 -0.0845,0.061 -0.18027,0.0507 -0.20455,0.0377 -0.0431,-0.0231 -0.0323,-0.12645 -0.0205,-0.20724 0.0192,-0.0881 0.0556,-0.19472 0.10347,-0.32614 0.0663,-0.18405 0.19585,-0.49596 0.22933,-0.74342 0,0 0,0 0,0 0.10944,-0.60293 0.31381,-1.59023 0.5063,-2.46595 0.45762,-2.08197 0.92596,-3.78118 1.22373,-3.7293 z"
       style="fill:#000000;fill-opacity:1;stroke:none;stroke-width:0.202033;stroke-linecap:round;stroke-linejoin:round;stroke-miterlimit:4;stroke-dasharray:none;stroke-opacity:1" />
    <path
       inkscape:original-d="m 168.329,288.77091 c 0.87786,0.99878 1.80235,1.97983 2.638,3.02062 0.34416,0.42865 0.59393,1.11068 0.89351,1.48381"
       inkscape:path-effect="#path-effect1906"
       inkscape:connector-curvature="0"
       id="path1904"
       d="m 168.329,288.77091 c 0.19415,-0.17065 1.24657,0.60367 2.29284,1.81528 0.26854,0.31097 0.50606,0.61779 0.70902,0.9132 0,0 0,0 0,0 0.63831,0.93291 0.54236,1.76575 0.52965,1.77595 -0.16295,0.13083 -0.68272,-0.62772 -1.25737,-1.19167 0,0 0,0 0,0 -0.23176,-0.24688 -0.49233,-0.53488 -0.7502,-0.83332 -1.0269,-1.18848 -1.75109,-2.27979 -1.52394,-2.47944 z"
       style="fill:#000000;fill-opacity:1;stroke:none;stroke-width:0.202033;stroke-linecap:round;stroke-linejoin:round;stroke-miterlimit:4;stroke-dasharray:none;stroke-opacity:1" />
    <path
       inkscape:original-d="m 173.34971,293.16936 c -0.0373,-1.5765 0.0462,-3.14434 0.12764,-4.71641 0.0554,-1.06879 0.1702,-2.42378 0.1702,-3.33857 0,-0.20141 0.0419,0.41213 0.12764,0.58292 0.21119,0.42084 0.45766,0.89379 0.63823,1.32483 0.66346,1.58379 1.36192,3.9759 1.74449,5.40531"
       inkscape:path-effect="#path-effect1910"
       inkscape:connector-curvature="0"
       id="path1908"
       d="m 173.34971,293.16936 c -0.24794,0.006 -0.40186,-1.94711 -0.33617,-4.74044 0,0 0,0 0,0 0.16594,-1.04784 0.44781,-2.1868 0.61376,-3.23463 0.006,-0.0382 0.0121,-0.0762 0.0179,-0.11419 0.0219,-0.0148 0.0415,-0.0291 0.0672,-0.0434 0.0614,0.022 0.10846,0.0531 0.16022,0.0768 0.10672,0.0519 0.21268,0.10245 0.31924,0.15169 l 0,0 c 0.0318,0.14103 0.0266,0.21534 0.0352,0.20535 0.22635,0.45732 0.44537,0.88727 0.6357,1.36341 1.24003,3.12711 1.42669,5.55834 1.29512,5.59356 -0.22239,0.0595 -0.89106,-2.27345 -2.19386,-5.21708 -0.18642,-0.42289 -0.40089,-0.81458 -0.64076,-1.28625 -0.10036,-0.22712 -0.1289,-0.40264 -0.1344,-0.50475 l 0,0 c 0.0883,-0.0697 0.17812,-0.13849 0.26852,-0.20647 0.0443,-0.0315 0.0934,-0.0699 0.1302,-0.0988 0.0163,0.0113 0.0404,0.0226 0.0623,0.0346 0.006,0.0396 0.0115,0.0791 0.0171,0.11877 0.15736,1.11629 0.21974,2.30353 0.27416,3.20955 0,0 0,0 0,0 -0.22113,2.75857 -0.42705,4.68849 -0.59145,4.69238 z"
       style="fill:#000000;fill-opacity:1;stroke:none;stroke-width:0.202033;stroke-linecap:round;stroke-linejoin:round;stroke-miterlimit:4;stroke-dasharray:none;stroke-opacity:1" />
    <path
       inkscape:original-d="m 175.09419,289.45983 c -0.43118,0.0979 -2.17562,0.0741 -2.29761,0.52992"
       inkscape:path-effect="#path-effect1914"
       inkscape:connector-curvature="0"
       id="path1912"
       d="m 175.09419,289.45983 c 0.0751,0.33059 -0.5191,0.56316 -1.14931,0.62906 -0.0177,0.002 -0.0352,0.004 -0.0524,0.005 -0.23851,0.0274 -0.46989,0.0192 -0.61911,0.01 0,0 0,0 0,0 -0.23213,0.0788 -0.32207,-0.0726 -0.4768,-0.11405 -0.001,-3.8e-4 -0.34423,-0.44551 0.22286,-0.63671 0,0 0,0 0,0 0.20668,-0.13893 0.47013,-0.22867 0.74694,-0.26605 0.0222,-0.003 0.0445,-0.006 0.0668,-0.009 0.69195,-0.0798 1.21298,0.16989 1.26105,0.38161 z"
       style="fill:#000000;fill-opacity:1;stroke:none;stroke-width:0.202033;stroke-linecap:round;stroke-linejoin:round;stroke-miterlimit:4;stroke-dasharray:none;stroke-opacity:1" />
    <path
       inkscape:original-d="m 181.56156,282.94165 c -2.66745,0.29752 -5.93016,-0.44713 -8.3395,0.053"
       inkscape:path-effect="#path-effect1918"
       inkscape:connector-curvature="0"
       id="path1916"
       d="m 181.56156,282.94165 c 0.0443,0.39685 -1.88296,0.60356 -4.22019,0.43981 -2.23329,-0.15647 -4.08974,-0.24434 -4.11931,-0.38681 -0.0812,-0.3912 1.82657,-0.7924 4.18945,-0.63288 2.28304,0.15413 4.1333,0.42971 4.15005,0.57988 z"
       style="fill:#000000;fill-opacity:1;stroke:none;stroke-width:0.202033;stroke-linecap:round;stroke-linejoin:round;stroke-miterlimit:4;stroke-dasharray:none;stroke-opacity:1" />
    <path
       inkscape:original-d="m 177.85984,283.41859 c 0.0332,2.95875 0.12765,6.47373 0.12765,9.16783"
       inkscape:path-effect="#path-effect1922"
       inkscape:connector-curvature="0"
       id="path1920"
       d="m 177.85984,283.41859 c 0.27301,-0.003 0.53901,2.04466 0.58474,4.57466 0.0458,2.53486 -0.16918,4.59318 -0.45709,4.59318 -0.273,0 -0.51334,-2.04935 -0.55902,-4.57481 -0.0458,-2.53049 0.14347,-4.5898 0.43137,-4.59303 z"
       style="fill:#000000;fill-opacity:1;stroke:none;stroke-width:0.202033;stroke-linecap:round;stroke-linejoin:round;stroke-miterlimit:4;stroke-dasharray:none;stroke-opacity:1" />
    <path
       inkscape:original-d="m 179.85962,285.6443 c 0.76587,0 1.53174,0 2.29761,0 0.3307,0 1.51987,0.27237 1.78704,0.106 0.0802,-0.05 -0.19187,0.027 -0.25529,0.10598 -0.14226,0.17719 -0.66097,0.98475 -0.89352,1.37783 -0.70944,1.19916 -1.27962,2.52407 -1.87213,3.81552 -0.14356,0.31289 -0.25895,0.85359 -0.42548,1.11285 -0.0931,0.14497 -0.38294,0.52338 -0.38294,0.52994 0,0.0363 0.3327,-0.13912 0.80842,-0.37096 1.00144,-0.48806 2.88464,-1.05986 3.65916,-1.05986"
       inkscape:path-effect="#path-effect1926"
       inkscape:connector-curvature="0"
       id="path1924"
       d="m 179.85962,285.6443 c 0,-0.13485 0.87334,-0.25748 2.29761,-0.34848 0,0 0,0 0,0 0.37162,-0.0164 0.64318,0.0412 0.96772,0.0676 0.36145,0.0987 0.654,0.33562 0.66453,0.39891 l 0,0 c 0,0 0,0 0,0 0.041,0.0283 0.0794,0.0553 0.11305,0.078 0,0 0,0 0,0 0.16537,0.17465 0.1873,0.30187 0.0881,0.32193 0,0 0,0 0,0 -0.0447,0.0463 -0.0378,0.0313 0.0465,-0.0264 -0.29517,0.39592 -0.51995,0.82359 -0.82219,1.34644 -0.3696,0.64978 -0.70153,1.32785 -1.05446,2.08342 -0.2689,0.57566 -0.52695,1.14485 -0.78678,1.69056 -0.12819,0.2664 -0.19852,0.7127 -0.47744,1.16211 -0.085,0.12581 -0.17053,0.23348 -0.24411,0.32663 -0.0913,-0.003 -0.17002,-0.048 -0.21515,-0.11978 9.4e-4,0.005 9.3e-4,0.005 9.3e-4,0.005 -0.50128,-0.12937 -0.55983,-0.34744 -0.2709,-0.42985 0.21513,-0.0976 0.3546,-0.16407 0.56973,-0.26166 0.73475,-0.32354 1.46319,-0.51323 2.01293,-0.62998 0,0 0,0 0,0 1.12972,-0.24827 1.83272,-0.21333 1.83272,-0.0472 0,0.0495 -0.63886,0.26867 -1.65627,0.64657 0,0 0,0 0,0 -0.50031,0.19143 -1.19148,0.45746 -1.81642,0.79593 -0.17065,0.0898 -0.36816,0.19582 -0.5591,0.29293 0.13699,-0.009 -0.11232,-0.008 -0.75546,-0.23561 0,0 0,-10e-6 0,-10e-6 0.0466,-0.23048 0.0926,-0.41885 0.11083,-0.56852 0.0727,-0.10457 0.142,-0.20003 0.19327,-0.28635 0.13686,-0.19789 0.16007,-0.58537 0.37352,-1.06359 0.23577,-0.53405 0.49748,-1.13262 0.76675,-1.70785 0.35896,-0.76683 0.72372,-1.47678 1.13627,-2.14921 0.30313,-0.50052 0.5889,-0.96875 0.96485,-1.40922 0.15562,-0.14621 0.27313,-0.20412 0.3321,-0.20005 0,0 0,0 0,0 -0.0291,-0.008 0.0977,0.063 0.33845,0.2572 0.002,0.005 0.002,0.005 0.002,0.005 0.0268,0.0326 0.0547,0.065 0.0856,0.0996 0,0 0,0 0,0 l 0,0 c -0.49717,0.36976 -0.89969,0.39149 -1.07486,0.41769 -0.35887,-0.059 -0.63391,-0.14816 -0.86697,-0.16315 0,0 0,0 0,0 -1.42427,-0.091 -2.29761,-0.21363 -2.29761,-0.34848 z"
       style="fill:#000000;fill-opacity:1;stroke:none;stroke-width:0.202033;stroke-linecap:round;stroke-linejoin:round;stroke-miterlimit:4;stroke-dasharray:none;stroke-opacity:1" />
    <path
       inkscape:original-d="m 187.94382,282.19974 c 0,1.00689 0,2.01375 0,3.02062"
       inkscape:path-effect="#path-effect1930"
       inkscape:connector-curvature="0"
       id="path1928"
       d="m 187.94382,282.19974 c 0.28049,0 0.50813,0.67662 0.50813,1.51031 0,0.8337 -0.22764,1.51032 -0.50813,1.51032 -0.28049,0 -0.50813,-0.67662 -0.50813,-1.51032 0,-0.83369 0.22764,-1.51031 0.50813,-1.51031 z"
       style="fill:#000000;fill-opacity:1;stroke:none;stroke-width:0.202033;stroke-linecap:round;stroke-linejoin:round;stroke-miterlimit:4;stroke-dasharray:none;stroke-opacity:1" />
    <path
       inkscape:original-d="m 189.64576,284.31948 c 0,2.29637 0,4.59275 0,6.88912"
       inkscape:path-effect="#path-effect1934"
       inkscape:connector-curvature="0"
       id="path1932"
       d="m 189.64576,284.31948 c 0.28049,0 0.50813,1.54316 0.50813,3.44456 0,1.9014 -0.22764,3.44456 -0.50813,3.44456 -0.28049,0 -0.50813,-1.54316 -0.50813,-3.44456 0,-1.9014 0.22764,-3.44456 0.50813,-3.44456 z"
       style="fill:#000000;fill-opacity:1;stroke:none;stroke-width:0.202033;stroke-linecap:round;stroke-linejoin:round;stroke-miterlimit:4;stroke-dasharray:none;stroke-opacity:1" />
    <path
       inkscape:original-d="m 193.9857,283.51208 c -0.18942,0.2128 -1.05885,-0.27102 -1.27646,0 -0.15543,0.1936 -0.4883,0.63342 -0.59567,0.90089 -0.16461,0.41002 -0.13831,1.93757 0.46803,1.74877 0.10441,-0.0325 0.33846,0.0723 0.42548,0 0.45876,-0.38091 0.72434,-1.06237 0.89352,-1.4838 0.10642,-0.26509 0.14027,-0.63592 0.17019,-0.63592 0.16775,0 -0.48068,2.07675 -0.51058,2.22572 -0.29728,1.48104 -0.7287,4.19316 -1.2339,4.82239"
       inkscape:path-effect="#path-effect1946"
       inkscape:connector-curvature="0"
       id="path1944"
       d="m 193.9857,283.51208 c 0.056,0.0498 -0.36027,0.28456 -0.67387,0.18313 -0.22025,0.0202 -0.51077,-0.0769 -0.3746,-8e-5 0,0 0,0 0,0 -0.15693,0.24693 -0.39271,0.57744 -0.47364,0.85835 -0.0807,0.23084 -0.0315,0.51596 0.0246,0.8936 0.0403,0.15238 0.0647,0.27871 0.11586,0.31957 -0.0246,-0.0398 -0.0485,-0.0409 -0.16166,-0.0522 0.53986,-0.12283 0.63317,0.0431 0.25794,0.0779 0.32643,-0.25791 0.48425,-0.72935 0.73058,-1.30301 0.0338,-0.08 0.0554,-0.18892 0.0843,-0.32271 0,0 0,0 0,0 0.0916,-0.11013 0.18441,-0.23044 0.28194,-0.36077 0.23296,0.094 0.4096,0.15311 0.55225,0.19886 0.023,0.007 0.0452,0.0144 0.0665,0.0212 0.22099,0.0833 0.26265,0.14783 0.18535,0.12088 l 0,0 c 0,0 0,0 0,0 -0.005,0.13285 -0.0211,0.23855 -0.0367,0.31732 l 0,0 c -0.0532,0.27154 -0.12281,0.52818 -0.1898,0.76554 l 0,0 c -0.0734,0.26161 -0.15088,0.51823 -0.22689,0.76385 l 0,0 c -0.0467,0.15858 -0.0944,0.27805 -0.11497,0.36907 l 0,0 c -0.24855,1.10368 -0.40995,1.87115 -0.65607,2.71434 l 0,0 0,0 0,0 c -0.33975,1.26158 -0.93916,2.10255 -1.05046,2.01318 -0.1113,-0.0894 0.0895,-0.76433 0.33938,-2.17035 l 0,0 0,0 0,0 c 0.0835,-0.55509 0.27271,-1.90389 0.42189,-2.74691 l 0,0 c 0.0351,-0.18623 0.0831,-0.33215 0.11699,-0.45216 l 0,0 c 0.0659,-0.24478 0.1352,-0.50113 0.19997,-0.75237 l 0,0 c 0.0605,-0.23592 0.12132,-0.47036 0.16293,-0.69481 l 0,0 c 0.0142,-0.0773 0.0276,-0.13004 0.0278,-0.15727 0,0 0,0 0,0 l 0,0 c -0.0775,-0.0948 -0.0209,-0.14064 0.12869,-0.0577 0.01,0.008 0.0373,0.0255 0.049,0.033 0.11561,0.0742 0.29616,0.18955 0.51981,0.32481 0.0739,-0.0259 0.14755,-0.0413 0.21782,-0.047 0,0 0,0 0,0 -0.0283,0.14719 -0.0689,0.31513 -0.14024,0.49718 -0.21795,0.58284 -0.50553,1.19417 -1.05646,1.66459 -0.61442,0.22186 -0.84861,0.11156 -0.59302,0.0779 -0.37824,0.0711 -0.68942,-0.0649 -0.86582,-0.32404 -0.15954,-0.26411 -0.21408,-0.51316 -0.22622,-0.70822 -0.0655,-0.42779 -0.0461,-0.88305 0.13475,-1.30428 0.20389,-0.42537 0.51075,-0.73778 0.7177,-0.94343 0,0 0,0 0,0 0.44718,-0.31933 0.8003,-0.12846 0.923,-0.0437 0.50526,0.0832 0.52549,0.17699 0.58145,0.2268 z"
       style="fill:#000000;fill-opacity:1;stroke:none;stroke-width:0.202033;stroke-linecap:round;stroke-linejoin:round;stroke-miterlimit:4;stroke-dasharray:none;stroke-opacity:1" />
  </g>
</svg>
