<svg xmlns="http://www.w3.org/2000/svg" width="793.701" height="1122.52" viewBox="0 0 214 297">
  <path d="M58.38 157.095c.051.815.134 1.559.134 2.406 0 1.042.45 3.675 0 3.675h2.205c1.116 0 5.412-.108 5.412 1.336 0 .66-.017 1.616-.802 2.205-.888.666-4.762 1.055-5.88.868-.528-.088-1.694-.625-2.004-.935-.5-.5-1.515-1.448-2.005-1.938-.314-.314.619-5.996.2-6.414" fill="#b4823e" stroke="#000" stroke-width=".706" stroke-linecap="round" stroke-linejoin="round"/>
  <path d="M55.252 124.804c.548-.954 1.232-1.871 1.524-2.885.436-1.513.109-1.277-.094-1.252-.547.712-1.791 1.498-2.36 2.138-.7.786-2.622 1.595-2.567 2.033.003.026-.494-1.082-1.493-2.238-.912-1.055-2.208-1.256-2.533-1.509-.365-.283 1.6 4.146-.665 2.853-2.14-1.221-4.115-2.536-6.565-2.949-1.074-.18 2.379 2.182 1.51 2.29-.197.025-.237-.182 0 0 .798.622-4.132-.735-3.382-.035 4.934 4.61 1.088 1.107-1.856 4.542-3.834 4.476-7.934 9.741-9.924 15.385-.67 1.9 2.39-.919 2.668-1.277.061-.079-.112.183-.1.282.09.716.446 1.4.532 2.088.241 1.925 1.158 9.344 2.72 9.895.836.294.305-3.623 1.807-1.708 1.72 2.193 3.501 4.007 5.737 4.938.614.256 2.282.735 2.702 1.143.344.335 1.503 1.205 2.188 1.342 1.73.345-1.306-2.194.364-1.393 1.423 0 5.357 1.509 6.432 1.888 1.132-2.208 4.539-2.182 5.668-2.713 2.9-.743 3.158-1.522 3.596-1.814 4.156-2.773.545 1.65 1.46 1.972.597.21 1.244-.363 1.674-.614 3.557-2.082 3.631-6.489 3.196-9.963-.055-.437.718.516 1.044.812.538.489 3.154 3.241 3.631 3.182.013-.002-.273-3.725-.598-4.774-.577-2.686-2.77-8.138-2.77-8.138 1.359.407 2.182 1.656 2.901 2.734.09.134.335.524.315.365-.626-5-2.454-8.326-5.755-12.612-.568-.737-5.219-3.387-5.67-3.33-.161.02-.894.388-.911.249-.045-.356 2.725-3.142 2.696-3.38-.051-.406-2.667 1.04-2.846 1.109-2.424.939-2.602.695-4.276 1.344z" fill="#ffce8b" stroke="#000" stroke-width=".706" stroke-linecap="round" stroke-linejoin="round"/>
  <ellipse cx="45.688" cy="-135.177" rx="2.071" ry="3.942" transform="scale(1 -1)" fill="#280b0b"/>
  <ellipse cx="56.045" cy="-135.177" rx="2.071" ry="3.942" transform="scale(1 -1)" fill="#280b0b"/>
  <path d="M60.937 149.524c-.53-.564-1.268-.944-2.079-1.355-4.606-2.33-6.116-4.424-11.906-2.47-1.539.52-2.99 2-4.252 2.71-.705.396-2.457 1.46-2.457 1.992 0 .061.265-.427.473-.558.74-.468 1.195-.872 1.984-1.434 1.19-.753 2.354-1.682 3.73-2.564 1.153-.74 1.949-.546 3.09-.776 1.072-.312 3.018.03 4.84.745 3.425 1.926 5.784 2.936 6.577 3.71z" fill="none" stroke="#000" stroke-width=".706" stroke-linecap="round" stroke-linejoin="round"/>
  <ellipse cx="46.059" cy="-133.949" rx=".458" ry="1.182" transform="scale(1 -1)" fill="#fff"/>
  <ellipse cx="56.613" cy="-133.972" rx=".458" ry="1.205" transform="scale(1 -1)" fill="#fff"/>
  <path d="M39.808 157.36c-.05.815-.133 1.559-.133 2.406 0 1.043-.45 3.675 0 3.675H37.47c-1.116 0-5.412-.107-5.412 1.336 0 .661.017 1.617.801 2.205.889.667 4.762 1.055 5.88.869.528-.088 1.695-.626 2.005-.935.5-.501 1.515-1.448 2.004-1.938.315-.315-.618-5.997-.2-6.415" fill="#b4823e" stroke="#000" stroke-width=".706" stroke-linecap="round" stroke-linejoin="round"/>
  <path d="M46.8 128.879c-2.705-1.13-4.214 1.123-4.61 1.98" fill="#ffce8b" stroke="#000" stroke-width=".706" stroke-linecap="round" stroke-linejoin="round"/>
  <path d="M59.372 130.54c-.353-.192-.494-.726-.696-1.051-1.18-1.901-3.013-1.395-3.749-1.12" fill="#ffce8b" stroke="#000" stroke-width=".706" stroke-linecap="round" stroke-linejoin="round"/>
  <path d="M116.162 157.403c.05.815.134 1.559.134 2.406 0 1.042.45 3.675 0 3.675h2.205c1.115 0 5.412-.107 5.412 1.336 0 .66-.017 1.616-.802 2.205-.888.666-4.762 1.055-5.88.869-.528-.088-1.695-.626-2.004-.936-.501-.5-1.515-1.448-2.005-1.938-.315-.314.618-5.996.2-6.414" fill="#b4823e" stroke="#000" stroke-width=".706" stroke-linecap="round" stroke-linejoin="round"/>
  <path d="M113.034 125.112c.547-.954 1.232-1.871 1.524-2.885.435-1.513.108-1.277-.095-1.252-.547.713-1.79 1.498-2.36 2.138-.7.786-2.622 1.595-2.567 2.033.003.026-.494-1.082-1.492-2.237-.912-1.056-2.208-1.257-2.533-1.51-.366-.283 1.599 4.146-.666 2.853-2.139-1.221-4.114-2.536-6.564-2.948-1.074-.181 2.378 2.181 1.509 2.29-.196.025-.236-.183 0 0 .799.621-4.132-.736-3.382-.036 4.935 4.61 1.088 1.107-1.855 4.542-3.834 4.476-7.934 9.741-9.924 15.385-.67 1.9 2.39-.919 2.668-1.277.06-.079-.112.183-.1.282.09.716.445 1.401.531 2.088.242 1.925 1.158 9.344 2.721 9.895.835.294.305-3.623 1.807-1.708 1.72 2.193 3.501 4.007 5.736 4.938.615.256 2.283.735 2.702 1.143.345.335 1.503 1.205 2.189 1.342 1.73.345-1.306-2.194.364-1.392 1.422 0 5.356 1.508 6.432 1.887 1.132-2.208 4.538-2.182 5.668-2.713 2.9-.743 3.158-1.522 3.596-1.814 4.156-2.772.544 1.65 1.46 1.972.597.21 1.244-.363 1.673-.614 3.558-2.082 3.632-6.489 3.196-9.963-.054-.437.718.516 1.045.812.538.49 3.154 3.242 3.63 3.182.014-.002-.273-3.725-.597-4.774-.578-2.686-2.77-8.138-2.77-8.138 1.358.407 2.181 1.656 2.9 2.735.09.133.336.524.316.364-.626-5-2.454-8.326-5.755-12.612-.568-.737-5.22-3.387-5.67-3.33-.162.02-.894.388-.911.249-.045-.356 2.725-3.142 2.695-3.38-.05-.406-2.666 1.04-2.845 1.109-2.424.939-2.603.695-4.276 1.344z" fill="#ffce8b" stroke="#000" stroke-width=".706" stroke-linecap="round" stroke-linejoin="round"/>
  <ellipse cx="103.47" cy="-135.486" rx="2.071" ry="3.942" transform="scale(1 -1)" fill="#280b0b"/>
  <ellipse cx="113.827" cy="-135.486" rx="2.071" ry="3.942" transform="scale(1 -1)" fill="#280b0b"/>
  <path d="M118.719 145.265c-.53.669-1.269 1.12-2.079 1.606-4.607 2.764-3.754 1.277-9.544-1.04-1.539-.615-5.352 1.598-6.615.757-.704-.47-2.456-1.733-2.456-2.363 0-.072.265.506.472.662.74.555 1.196 1.034 1.985 1.7 1.189.893 2.353 1.994 3.73 3.04 1.153.877 1.948.647 3.09.92 1.071.37 3.018-.036 4.84-.883 3.425-2.284 5.784-3.481 6.577-4.4z" fill="#b74c24" stroke="#000" stroke-width=".706" stroke-linecap="round" stroke-linejoin="round"/>
  <ellipse cx="103.841" cy="-134.257" rx=".458" ry="1.182" transform="scale(1 -1)" fill="#fff"/>
  <ellipse cx="114.395" cy="-134.28" rx=".458" ry="1.205" transform="scale(1 -1)" fill="#fff"/>
  <path d="M97.59 157.669c-.05.814-.134 1.558-.134 2.405 0 1.043-.45 3.675 0 3.675h-2.205c-1.115 0-5.412-.107-5.412 1.337 0 .66.017 1.616.802 2.205.888.666 4.762 1.054 5.88.868.528-.088 1.695-.626 2.004-.935.501-.501 1.515-1.448 2.005-1.938.315-.315-.618-5.997-.2-6.414" fill="#b4823e" stroke="#000" stroke-width=".706" stroke-linecap="round" stroke-linejoin="round"/>
  <path d="M105.675 130.073c-2.15-1.994-4.343-.4-5.011.267" fill="#ffce8b" stroke="#000" stroke-width=".706" stroke-linecap="round" stroke-linejoin="round"/>
  <path d="M116.566 130.407c-.4-.028-.75-.456-1.069-.668-1.862-1.241-3.32-.021-3.875.535" fill="#ffce8b" stroke="#000" stroke-width=".706" stroke-linecap="round" stroke-linejoin="round"/>
  <path d="M114.182 213.089c.051.815.134 1.558.134 2.405 0 1.043.45 3.675 0 3.675h2.205c1.116 0 5.412-.107 5.412 1.337 0 .66-.017 1.616-.802 2.205-.888.666-4.762 1.055-5.88.868-.528-.088-1.694-.625-2.004-.935-.501-.501-1.515-1.448-2.005-1.938-.314-.314.619-5.997.2-6.414" fill="#b4823e" stroke="#000" stroke-width=".706" stroke-linecap="round" stroke-linejoin="round"/>
  <path d="M111.054 180.797c.547-.954 1.232-1.87 1.524-2.884.436-1.513.109-1.277-.094-1.252-.547.712-1.791 1.498-2.36 2.138-.7.785-2.622 1.595-2.567 2.033.003.026-.494-1.082-1.493-2.238-.912-1.055-2.208-1.256-2.533-1.509-.365-.284 1.6 4.146-.665 2.853-2.14-1.222-4.115-2.536-6.565-2.949-1.074-.18 2.379 2.182 1.51 2.29-.197.025-.237-.183 0 0 .798.622-4.132-.736-3.383-.035 4.935 4.61 1.089 1.106-1.855 4.542-3.834 4.475-7.934 9.741-9.924 15.385-.67 1.9 2.39-.919 2.668-1.277.061-.079-.112.183-.1.281.09.716.446 1.402.532 2.089.24 1.925 1.158 9.343 2.72 9.895.835.294.305-3.623 1.807-1.708 1.72 2.193 3.501 4.007 5.736 4.938.615.256 2.283.735 2.703 1.143.344.335 1.503 1.205 2.188 1.342 1.73.345-1.306-2.194.364-1.393 1.423 0 5.356 1.509 6.432 1.888 1.132-2.209 4.539-2.182 5.668-2.713 2.9-.744 3.158-1.522 3.596-1.815 4.156-2.772.545 1.65 1.46 1.972.597.211 1.244-.362 1.673-.613 3.558-2.082 3.632-6.49 3.197-9.963-.055-.437.718.515 1.044.812.538.489 3.154 3.241 3.631 3.181.013-.002-.273-3.725-.598-4.773-.578-2.686-2.77-8.138-2.77-8.138 1.359.407 2.182 1.656 2.901 2.734.09.134.335.524.315.365-.626-5-2.454-8.327-5.755-12.612-.568-.738-5.219-3.387-5.67-3.33-.162.02-.894.388-.911.248-.045-.355 2.725-3.141 2.695-3.379-.05-.407-2.666 1.04-2.845 1.109-2.424.939-2.602.695-4.276 1.343z" fill="#ffce8b" stroke="#000" stroke-width=".706" stroke-linecap="round" stroke-linejoin="round"/>
  <ellipse cx="101.49" cy="-191.171" rx="2.071" ry="3.942" transform="scale(1 -1)" fill="#280b0b"/>
  <ellipse cx="111.847" cy="-191.171" rx="2.071" ry="3.942" transform="scale(1 -1)" fill="#280b0b"/>
  <path d="M116.74 200.95c-.532.67-1.27 1.12-2.08 1.607-4.606 2.764-3.753 1.276-9.544-1.04-1.539-.615-5.351 1.598-6.614.756-.705-.47-2.457-1.732-2.457-2.362 0-.073.399 3.245.606 3.4.74.556 2.265.968 3.054 1.635 1.189.892 2.287 1.392 3.663 2.439 1.153.876.813-1.425 1.955-1.152 1.07.37 1.547 1.767 3.369.92 3.425-2.283 7.254-5.284 8.047-6.203z" fill="#b74c24" stroke="#000" stroke-width=".706" stroke-linecap="round" stroke-linejoin="round"/>
  <ellipse cx="101.861" cy="-189.942" rx=".458" ry="1.182" transform="scale(1 -1)" fill="#fff"/>
  <ellipse cx="112.415" cy="-189.966" rx=".458" ry="1.205" transform="scale(1 -1)" fill="#fff"/>
  <path d="M95.61 213.355c-.05.814-.133 1.558-.133 2.405 0 1.043-.45 3.675 0 3.675h-2.205c-1.116 0-5.413-.107-5.413 1.336 0 .66.017 1.617.802 2.205.889.666 4.762 1.055 5.88.869.528-.088 1.695-.626 2.005-.936.5-.5 1.514-1.448 2.004-1.937.315-.315-.618-5.997-.2-6.415" fill="#b4823e" stroke="#000" stroke-width=".706" stroke-linecap="round" stroke-linejoin="round"/>
  <path d="M103.695 185.759c-2.15-1.995-4.343-.401-5.011.267" fill="#ffce8b" stroke="#000" stroke-width=".706" stroke-linecap="round" stroke-linejoin="round"/>
  <path d="M114.586 186.093c-.4-.028-.75-.456-1.069-.668-1.861-1.241-3.32-.021-3.875.534" fill="#ffce8b" stroke="#000" stroke-width=".706" stroke-linecap="round" stroke-linejoin="round"/>
  <path d="M55.48 212.28c.05.815.133 1.559.133 2.406 0 1.043.45 3.675 0 3.675h2.205c1.116 0 5.412-.107 5.412 1.336 0 .66-.017 1.617-.801 2.205-.889.666-4.762 1.055-5.88.869-.528-.088-1.695-.626-2.005-.936-.5-.5-1.515-1.448-2.004-1.937-.315-.315.618-5.997.2-6.415" fill="#b4823e" stroke="#000" stroke-width=".706" stroke-linecap="round" stroke-linejoin="round"/>
  <path d="M52.351 179.989c.548-.954 1.233-1.87 1.524-2.885.436-1.513.109-1.277-.094-1.252-.547.713-1.791 1.498-2.36 2.138-.7.786-2.622 1.595-2.567 2.033.003.026-.494-1.082-1.493-2.237-.912-1.056-2.208-1.257-2.533-1.51-.365-.283 1.6 4.147-.665 2.853-2.139-1.221-4.114-2.536-6.565-2.948-1.073-.181 2.379 2.181 1.51 2.29-.197.025-.236-.183 0 0 .798.621-4.132-.736-3.382-.036 4.935 4.61 1.088 1.107-1.855 4.542-3.834 4.476-7.935 9.742-9.925 15.385-.67 1.9 2.39-.918 2.668-1.277.062-.078-.111.183-.099.282.09.716.445 1.401.531 2.088.241 1.925 1.158 9.344 2.721 9.895.835.294.305-3.623 1.806-1.708 1.72 2.193 3.502 4.008 5.737 4.938.615.256 2.282.735 2.702 1.143.344.335 1.503 1.205 2.188 1.342 1.73.346-1.306-2.194.364-1.392 1.423 0 5.357 1.508 6.432 1.887 1.133-2.208 4.539-2.182 5.668-2.713 2.9-.743 3.158-1.522 3.597-1.814 4.155-2.772.544 1.65 1.459 1.972.597.21 1.244-.363 1.674-.614 3.557-2.082 3.631-6.489 3.196-9.962-.055-.438.718.515 1.044.811.539.49 3.154 3.242 3.631 3.182.014-.002-.273-3.725-.598-4.774-.577-2.686-2.77-8.137-2.77-8.137 1.359.406 2.182 1.655 2.901 2.734.09.133.335.524.315.364-.626-5-2.453-8.326-5.755-12.612-.567-.737-5.218-3.386-5.67-3.33-.161.02-.893.388-.91.249-.045-.355 2.724-3.142 2.695-3.38-.051-.406-2.666 1.04-2.846 1.109-2.424.94-2.602.695-4.276 1.344z" fill="#ffce8b" stroke="#000" stroke-width=".706" stroke-linecap="round" stroke-linejoin="round"/>
  <ellipse cx="42.787" cy="-190.363" rx="2.071" ry="3.942" transform="scale(1 -1)" fill="#280b0b"/>
  <ellipse cx="53.144" cy="-190.363" rx="2.071" ry="3.942" transform="scale(1 -1)" fill="#280b0b"/>
  <path d="M51.247 202.316c-2.368-.476-2.885.174-4.366 1.2-1.572-1.251-4.85-1.243-6.113-2.085-1.06-.307-2.8-1.659-1.918-.865.74.555 3.413 3.16 4.202 3.827 2.413 2.24 2.412 2.021 3.899 2.307 1.26-.055.597-.24 2.418-1.087 3.425-2.283 5.168-4.353 5.961-5.27-1.676 1.08-2.9 2.387-4.083 1.973z" fill="#b74c24" stroke="#000" stroke-width=".706" stroke-linecap="round" stroke-linejoin="round"/>
  <ellipse cx="43.159" cy="-189.134" rx=".458" ry="1.182" transform="scale(1 -1)" fill="#fff"/>
  <ellipse cx="53.712" cy="-189.158" rx=".458" ry="1.205" transform="scale(1 -1)" fill="#fff"/>
  <path d="M36.908 212.546c-.051.815-.134 1.558-.134 2.405 0 1.043-.45 3.675 0 3.675h-2.205c-1.116 0-5.412-.107-5.412 1.337 0 .66.017 1.616.802 2.205.888.666 4.762 1.055 5.88.868.528-.088 1.694-.625 2.004-.935.5-.501 1.515-1.448 2.005-1.938.314-.315-.619-5.997-.2-6.414" fill="#b4823e" stroke="#000" stroke-width=".706" stroke-linecap="round" stroke-linejoin="round"/>
  <path d="M44.992 184.95c-2.149-1.994-4.342-.4-5.01.268" fill="#ffce8b" stroke="#000" stroke-width=".706" stroke-linecap="round" stroke-linejoin="round"/>
  <path d="M55.884 185.284c-.4-.028-.75-.455-1.07-.668-1.861-1.24-3.32-.02-3.875.535" fill="#ffce8b" stroke="#000" stroke-width=".706" stroke-linecap="round" stroke-linejoin="round"/>
  <path d="M113.21 269.476c.05.815.133 1.558.133 2.406 0 1.042.45 3.675 0 3.675h2.205c1.116 0 5.413-.108 5.413 1.336 0 .66-.017 1.616-.802 2.205-.888.666-4.762 1.055-5.88.868-.528-.088-1.695-.625-2.005-.935-.5-.5-1.514-1.448-2.004-1.938-.315-.314.618-5.996.2-6.414" fill="#b4823e" stroke="#000" stroke-width=".706" stroke-linecap="round" stroke-linejoin="round"/>
  <path d="M110.081 237.185c.548-.955 1.233-1.871 1.525-2.885.435-1.513.108-1.277-.095-1.252-.547.712-1.791 1.498-2.36 2.138-.7.786-2.622 1.595-2.567 2.033.003.026-.494-1.082-1.492-2.238-.912-1.055-2.208-1.256-2.534-1.509-.365-.283 1.6 4.146-.665 2.853-2.139-1.221-4.114-2.536-6.565-2.949-1.073-.18 2.38 2.182 1.51 2.29-.197.025-.236-.182 0 0 .799.622-4.132-.735-3.382-.035 4.935 4.61 1.088 1.106-1.855 4.542-3.834 4.476-7.935 9.741-9.925 15.385-.67 1.9 2.39-.919 2.669-1.277.06-.079-.112.183-.1.282.09.716.445 1.4.531 2.088.241 1.925 1.158 9.343 2.721 9.895.835.294.305-3.623 1.807-1.708 1.72 2.193 3.5 4.007 5.736 4.938.615.256 2.283.735 2.702 1.143.345.335 1.503 1.205 2.188 1.342 1.73.345-1.305-2.194.365-1.393 1.422 0 5.356 1.509 6.431 1.888 1.133-2.208 4.54-2.182 5.669-2.713 2.9-.743 3.157-1.522 3.596-1.814 4.156-2.773.544 1.65 1.459 1.972.598.21 1.245-.363 1.674-.614 3.558-2.082 3.631-6.489 3.196-9.963-.055-.437.718.516 1.045.812.538.489 3.154 3.241 3.63 3.182.014-.002-.273-3.725-.597-4.774-.578-2.686-2.77-8.138-2.77-8.138 1.358.407 2.181 1.656 2.9 2.734.09.134.336.524.316.365-.627-5-2.454-8.326-5.755-12.612-.568-.737-5.22-3.387-5.67-3.33-.162.02-.894.388-.912.248-.044-.355 2.726-3.141 2.696-3.378-.051-.408-2.666 1.038-2.845 1.108-2.424.939-2.603.695-4.277 1.343z" fill="#ffce8b" stroke="#000" stroke-width=".706" stroke-linecap="round" stroke-linejoin="round"/>
  <ellipse cx="100.518" cy="-247.558" rx="2.071" ry="3.942" transform="scale(1 -1)" fill="#280b0b"/>
  <ellipse cx="110.874" cy="-247.558" rx="2.071" ry="3.942" transform="scale(1 -1)" fill="#280b0b"/>
  <path d="M116.1 263.522c-.53-.67-4.424-1.551-5.285-1.94-4.34-1.963-.88-1.478-6.671.838-1.54.616-5.352-1.598-6.615-.756-.704.47-2.457 1.733-2.457 2.363 0 .072.399-3.246.607-3.401.74-.556 2.264-.968 3.053-1.634 1.19-.892 2.287-1.393 3.663-2.439 1.154-.877.813 1.424 1.955 1.151 1.071-.37 2.684-1.5 4.505-.653 1.713 1.142 3.526 1.929 5.01 3.08 1.485 1.15 1.84 2.932 2.236 3.39z" fill="#b74c24" stroke="#000" stroke-width=".706" stroke-linecap="round" stroke-linejoin="round"/>
  <ellipse cx="100.889" cy="-246.33" rx=".458" ry="1.182" transform="scale(1 -1)" fill="#fff"/>
  <ellipse cx="111.442" cy="-246.353" rx=".458" ry="1.205" transform="scale(1 -1)" fill="#fff"/>
  <path d="M94.638 269.742c-.051.814-.134 1.558-.134 2.405 0 1.043-.45 3.675 0 3.675H92.3c-1.116 0-5.412-.107-5.412 1.336 0 .66.017 1.617.802 2.205.888.666 4.762 1.055 5.88.869.528-.088 1.694-.626 2.004-.936.501-.5 1.515-1.447 2.005-1.937.314-.315-.618-5.997-.2-6.415" fill="#b4823e" stroke="#000" stroke-width=".706" stroke-linecap="round" stroke-linejoin="round"/>
  <path d="M102.723 240.877c-2.15-1.995-4.343-.402-5.012.267" fill="#ffce8b" stroke="#000" stroke-width=".706" stroke-linecap="round" stroke-linejoin="round"/>
  <path d="M113.614 240.61c-.4-.03-.75-.457-1.07-.669-1.861-1.241-3.319-.021-3.875.535" fill="#ffce8b" stroke="#000" stroke-width=".706" stroke-linecap="round" stroke-linejoin="round"/>
  <path d="M53.418 269.284c.05.815.134 1.559.134 2.406 0 1.042.45 3.675 0 3.675h2.205c1.115 0 5.412-.107 5.412 1.336 0 .66-.017 1.616-.802 2.205-.888.666-4.762 1.055-5.88.869-.528-.088-1.695-.626-2.004-.936-.501-.5-1.515-1.448-2.005-1.938-.315-.314.618-5.996.2-6.414" fill="#b4823e" stroke="#000" stroke-width=".706" stroke-linecap="round" stroke-linejoin="round"/>
  <path d="M50.29 236.993c.547-.954 1.232-1.871 1.524-2.885.435-1.513.108-1.277-.095-1.252-.547.713-1.79 1.498-2.36 2.138-.7.786-2.622 1.595-2.567 2.033.003.026-.494-1.082-1.492-2.237-.912-1.056-2.208-1.257-2.533-1.51-.366-.283 1.599 4.146-.666 2.853-2.139-1.221-4.114-2.536-6.564-2.949-1.074-.18 2.378 2.182 1.509 2.291-.196.025-.236-.183 0 0 .799.621-4.132-.736-3.382-.036 4.935 4.61 1.088 1.107-1.855 4.542-3.834 4.476-7.934 9.741-9.924 15.385-.67 1.9 2.39-.919 2.668-1.277.06-.079-.112.183-.1.282.09.716.445 1.401.531 2.088.242 1.925 1.158 9.344 2.721 9.895.835.294.305-3.623 1.807-1.708 1.72 2.193 3.501 4.007 5.736 4.938.615.256 2.283.735 2.702 1.143.345.335 1.503 1.205 2.189 1.342 1.73.345-1.306-2.194.364-1.393 1.422 0 5.356 1.51 6.432 1.888 1.132-2.208 4.538-2.182 5.668-2.713 2.9-.743 3.158-1.522 3.596-1.814 4.156-2.772.544 1.65 1.46 1.972.597.21 1.244-.363 1.673-.614 3.558-2.082 3.632-6.489 3.196-9.963-.054-.437.718.516 1.045.812.538.49 3.154 3.241 3.63 3.182.014-.002-.273-3.725-.597-4.774-.578-2.686-2.77-8.138-2.77-8.138 1.358.407 2.181 1.656 2.9 2.735.09.133.336.524.316.364-.626-5-2.454-8.326-5.755-12.612-.568-.737-5.22-3.387-5.67-3.33-.162.02-.894.388-.912.249-.044-.356 2.726-3.142 2.696-3.38-.05-.406-2.666 1.04-2.845 1.109-2.424.939-2.603.695-4.276 1.344z" fill="#ffce8b" stroke="#000" stroke-width=".706" stroke-linecap="round" stroke-linejoin="round"/>
  <ellipse cx="40.726" cy="-247.367" rx="2.071" ry="3.942" transform="scale(1 -1)" fill="#280b0b"/>
  <ellipse cx="51.083" cy="-247.367" rx="2.071" ry="3.942" transform="scale(1 -1)" fill="#280b0b"/>
  <path d="M56.309 263.33c-.53-.67-4.425.622-5.286.233-4.34-1.962-.834-.816-6.624 1.5-1.539.616-5.399-4.432-6.662-3.59-.704.47-2.456 1.732-2.456 2.362 0 .072.398-3.245.606-3.401.74-.555 2.264-.967 3.053-1.634 1.19-.892 2.287-1.392 3.664-2.439 1.153-.877.812 1.425 1.954 1.151 1.071-.37 2.684-1.5 4.505-.653 1.713 1.142 3.526 1.929 5.011 3.08 1.485 1.15 1.838 2.932 2.235 3.391z" fill="#b74c24" stroke="#000" stroke-width=".706" stroke-linecap="round" stroke-linejoin="round"/>
  <ellipse cx="41.097" cy="-246.138" rx=".458" ry="1.182" transform="scale(1 -1)" fill="#fff"/>
  <ellipse cx="51.651" cy="-246.161" rx=".458" ry="1.205" transform="scale(1 -1)" fill="#fff"/>
  <path d="M34.846 269.55c-.05.814-.134 1.558-.134 2.405 0 1.043-.45 3.675 0 3.675h-2.205c-1.115 0-5.412-.107-5.412 1.336 0 .661.017 1.617.802 2.205.888.667 4.762 1.055 5.88.87.528-.089 1.695-.627 2.004-.936.501-.501 1.515-1.448 2.005-1.938.315-.315-.618-5.997-.2-6.415" fill="#b4823e" stroke="#000" stroke-width=".706" stroke-linecap="round" stroke-linejoin="round"/>
  <path d="M42.93 240.685c-2.149-1.995-4.342-.401-5.01.267" fill="#ffce8b" stroke="#000" stroke-width=".706" stroke-linecap="round" stroke-linejoin="round"/>
  <path d="M53.822 240.417c-.4-.028-.75-.455-1.069-.668-1.862-1.241-3.32-.02-3.875.535" fill="#ffce8b" stroke="#000" stroke-width=".706" stroke-linecap="round" stroke-linejoin="round"/>
  <path d="M58.71 101.84c.05.815.133 1.56.133 2.406 0 1.043.45 3.675 0 3.675h2.205c1.116 0 5.412-.107 5.412 1.337 0 .66-.017 1.616-.801 2.205-.889.666-4.762 1.054-5.88.868-.528-.088-1.695-.626-2.005-.935-.5-.501-1.515-1.448-2.004-1.938-.315-.315.618-5.997.2-6.414" fill="#b4823e" stroke="#000" stroke-width=".706" stroke-linecap="round" stroke-linejoin="round"/>
  <path d="M55.581 69.55c.548-.955 1.233-1.872 1.524-2.885.436-1.514.109-1.278-.094-1.252-.547.712-1.791 1.498-2.36 2.138-.7.785-2.622 1.595-2.567 2.032.003.027-.494-1.081-1.493-2.237-.912-1.055-2.208-1.256-2.533-1.509-.365-.284 1.6 4.146-.665 2.853-2.139-1.222-4.114-2.536-6.565-2.949-1.073-.18 2.379 2.182 1.51 2.29-.197.025-.236-.183 0 0 .798.622-4.132-.736-3.382-.035 4.935 4.61 1.088 1.106-1.855 4.542-3.834 4.475-7.935 9.741-9.925 15.385-.67 1.899 2.39-.919 2.668-1.277.062-.08-.111.182-.099.281.09.716.445 1.402.531 2.089.241 1.925 1.158 9.343 2.721 9.894.835.295.305-3.622 1.806-1.707 1.72 2.193 3.502 4.007 5.737 4.937.615.257 2.282.736 2.702 1.143.344.336 1.503 1.206 2.188 1.342 1.73.346-1.306-2.193.364-1.392 1.423 0 5.357 1.509 6.432 1.888 1.133-2.209 4.54-2.183 5.668-2.713 2.9-.744 3.158-1.522 3.597-1.815 4.155-2.772.544 1.65 1.459 1.972.597.211 1.244-.362 1.674-.613 3.557-2.083 3.631-6.49 3.196-9.963-.055-.438.718.515 1.045.812.538.489 3.153 3.241 3.63 3.181.014-.002-.273-3.725-.598-4.773-.577-2.687-2.77-8.138-2.77-8.138 1.359.407 2.182 1.656 2.901 2.734.09.134.335.524.316.365-.627-5-2.454-8.327-5.756-12.613-.567-.737-5.218-3.386-5.67-3.33-.161.02-.893.389-.91.25-.045-.356 2.724-3.142 2.695-3.38-.051-.407-2.666 1.039-2.846 1.108-2.424.94-2.602.696-4.276 1.344z" fill="#ffce8b" stroke="#000" stroke-width=".706" stroke-linecap="round" stroke-linejoin="round"/>
  <ellipse cx="46.017" cy="-79.923" rx="2.071" ry="3.942" transform="scale(1 -1)" fill="#280b0b"/>
  <ellipse cx="56.374" cy="-79.923" rx="2.071" ry="3.942" transform="scale(1 -1)" fill="#280b0b"/>
  <path d="M61.266 89.702c-.53.67-1.268 1.12-2.078 1.607-4.607 2.764-6.116 5.245-11.907 2.929-1.539-.616-2.989-2.371-4.252-3.213-.704-.47-2.457-1.733-2.457-2.362 0-.073.265.506.473.661.74.555 1.195 1.034 1.984 1.701 1.19.892 2.354 1.994 3.73 3.04 1.153.877 1.95.647 3.09.92 1.072.37 3.019-.037 4.84-.884 3.425-2.283 5.784-3.48 6.577-4.399z" fill="none" stroke="#000" stroke-width=".706" stroke-linecap="round" stroke-linejoin="round"/>
  <ellipse cx="46.389" cy="-78.694" rx=".458" ry="1.182" transform="scale(1 -1)" fill="#fff"/>
  <ellipse cx="56.942" cy="-78.718" rx=".458" ry="1.205" transform="scale(1 -1)" fill="#fff"/>
  <path d="M40.138 102.106c-.051.815-.134 1.559-.134 2.406 0 1.042-.45 3.675 0 3.675h-2.205c-1.116 0-5.412-.107-5.412 1.336 0 .66.017 1.616.802 2.205.888.666 4.762 1.055 5.88.869.528-.088 1.694-.626 2.004-.936.5-.5 1.515-1.448 2.005-1.938.314-.314-.619-5.996-.2-6.414" fill="#b4823e" stroke="#000" stroke-width=".706" stroke-linecap="round" stroke-linejoin="round"/>
  <path d="M48.222 74.51c-2.149-1.994-4.342-.4-5.01.268" fill="#ffce8b" stroke="#000" stroke-width=".706" stroke-linecap="round" stroke-linejoin="round"/>
  <path d="M59.114 74.845c-.4-.029-.75-.456-1.07-.668-1.861-1.242-3.32-.021-3.875.534" fill="#ffce8b" stroke="#000" stroke-width=".706" stroke-linecap="round" stroke-linejoin="round"/>
  <path d="M116.417 104.036c.05.815.134 1.559.134 2.406 0 1.042.45 3.675 0 3.675h2.205c1.115 0 5.412-.107 5.412 1.336 0 .66-.017 1.616-.802 2.205-.888.666-4.762 1.055-5.88.869-.528-.088-1.695-.626-2.004-.936-.501-.5-1.515-1.448-2.005-1.938-.315-.314.618-5.996.2-6.414" fill="#b4823e" stroke="#000" stroke-width=".706" stroke-linecap="round" stroke-linejoin="round"/>
  <path d="M113.289 71.745c.547-.954 1.232-1.871 1.524-2.885.435-1.513.108-1.277-.095-1.252-.547.713-1.79 1.498-2.36 2.138-.7.786-2.622 1.595-2.567 2.033.003.026-.493-1.082-1.492-2.237-.912-1.056-2.208-1.257-2.533-1.51-.366-.283 1.599 4.146-.666 2.853-2.139-1.221-4.114-2.536-6.564-2.948-1.074-.181 2.378 2.181 1.509 2.29-.196.025-.236-.183 0 0 .799.621-4.132-.736-3.382-.036 4.935 4.61 1.088 1.107-1.855 4.542-3.834 4.476-7.934 9.741-9.924 15.385-.67 1.9 2.39-.919 2.668-1.277.06-.079-.112.183-.1.282.09.716.445 1.401.531 2.088.242 1.925 1.158 9.344 2.722 9.895.834.294.304-3.623 1.806-1.708 1.72 2.193 3.501 4.007 5.736 4.938.615.256 2.283.735 2.702 1.143.345.335 1.504 1.205 2.189 1.342 1.73.345-1.306-2.194.364-1.392 1.422 0 5.356 1.508 6.432 1.887 1.132-2.208 4.538-2.182 5.668-2.713 2.9-.743 3.158-1.522 3.596-1.814 4.156-2.772.545 1.65 1.46 1.972.597.21 1.244-.363 1.673-.614 3.558-2.082 3.632-6.489 3.196-9.963-.054-.437.719.516 1.045.812.538.49 3.154 3.242 3.63 3.182.014-.002-.273-3.725-.597-4.774-.578-2.686-2.77-8.138-2.77-8.138 1.358.407 2.181 1.656 2.9 2.735.09.133.336.524.316.364-.626-5-2.454-8.326-5.755-12.612-.568-.737-5.219-3.387-5.67-3.33-.162.02-.894.388-.911.249-.045-.356 2.725-3.142 2.695-3.38-.05-.406-2.666 1.04-2.845 1.109-2.424.939-2.603.695-4.276 1.344z" fill="#ffce8b" stroke="#000" stroke-width=".706" stroke-linecap="round" stroke-linejoin="round"/>
  <ellipse cx="103.725" cy="-82.118" rx="2.071" ry="3.942" transform="scale(1 -1)" fill="#280b0b"/>
  <ellipse cx="114.082" cy="-82.118" rx="2.071" ry="3.942" transform="scale(1 -1)" fill="#280b0b"/>
  <path d="M118.974 96.465c-.53-.564-1.269-.944-2.079-1.354-4.607-2.332-6.116-4.424-11.906-2.471-1.54.52-2.99 2-4.252 2.71-.705.396-2.457 1.461-2.457 1.992 0 .061.265-.426.472-.558.74-.468 1.196-.872 1.985-1.434 1.189-.753 2.353.39 3.73-.493 1.153-.74 4.956-.565 6.098-.795 1.071-.312 2.55-.37 4.371.344 3.425 1.926 3.245 1.285 4.038 2.06z" fill="#b74c24" stroke="#000" stroke-width=".706" stroke-linecap="round" stroke-linejoin="round"/>
  <ellipse cx="104.096" cy="-80.89" rx=".458" ry="1.182" transform="scale(1 -1)" fill="#fff"/>
  <ellipse cx="114.65" cy="-80.913" rx=".458" ry="1.205" transform="scale(1 -1)" fill="#fff"/>
  <path d="M97.845 104.302c-.05.814-.134 1.558-.134 2.405 0 1.043-.45 3.675 0 3.675h-2.205c-1.115 0-5.412-.107-5.412 1.337 0 .66.017 1.616.802 2.204.888.667 4.762 1.055 5.88.87.528-.089 1.695-.627 2.004-.936.501-.501 1.515-1.448 2.005-1.938.315-.315-.618-5.997-.2-6.415" fill="#b4823e" stroke="#000" stroke-width=".706" stroke-linecap="round" stroke-linejoin="round"/>
  <path d="M104.837 75.82c-2.706-1.13-4.214 1.123-4.61 1.98" fill="#ffce8b" stroke="#000" stroke-width=".706" stroke-linecap="round" stroke-linejoin="round"/>
  <path d="M117.409 77.481c-.353-.192-.495-.726-.697-1.05-1.18-1.902-3.012-1.396-3.748-1.12" fill="#ffce8b" stroke="#000" stroke-width=".706" stroke-linecap="round" stroke-linejoin="round"/>
  <path d="M172.801 105.57c.05.815.134 1.559.134 2.406 0 1.043.45 3.675 0 3.675h2.205c1.115 0 5.412-.107 5.412 1.336 0 .66-.017 1.617-.802 2.205-.888.666-4.762 1.055-5.88.869-.528-.088-1.695-.626-2.004-.936-.501-.5-1.515-1.447-2.005-1.937-.315-.315.618-5.997.2-6.415" fill="#b4823e" stroke="#000" stroke-width=".706" stroke-linecap="round" stroke-linejoin="round"/>
  <path d="M169.673 73.28c.547-.955 1.232-1.872 1.524-2.885.435-1.514.108-1.278-.095-1.253-.547.713-1.79 1.499-2.36 2.138-.7.786-2.622 1.596-2.567 2.033.003.026-.494-1.081-1.492-2.237-.912-1.056-2.208-1.256-2.533-1.51-.366-.283 1.599 4.147-.666 2.853-2.139-1.221-4.114-2.536-6.564-2.948-1.074-.181 2.378 2.181 1.509 2.29-.196.025-.236-.183 0 0 .799.621-4.132-.736-3.382-.036 4.935 4.61 1.088 1.107-1.855 4.543-3.834 4.475-7.934 9.74-9.924 15.384-.67 1.9 2.39-.918 2.668-1.277.06-.078-.112.183-.1.282.09.716.445 1.401.531 2.088.242 1.925 1.158 9.344 2.721 9.895.835.294.305-3.622 1.807-1.708 1.72 2.193 3.501 4.008 5.736 4.938.615.256 2.283.735 2.702 1.143.345.335 1.503 1.205 2.189 1.342 1.73.346-1.306-2.193.364-1.392 1.422 0 5.356 1.508 6.432 1.888 1.132-2.209 4.538-2.183 5.668-2.714 2.9-.743 3.158-1.522 3.596-1.814 4.156-2.772.544 1.65 1.46 1.972.597.21 1.244-.362 1.673-.614 3.558-2.082 3.632-6.488 3.196-9.962-.054-.438.718.515 1.045.812.538.488 3.154 3.24 3.63 3.181.014-.002-.273-3.725-.597-4.773-.578-2.687-2.77-8.138-2.77-8.138 1.358.407 2.181 1.655 2.9 2.734.09.134.336.524.316.364-.626-4.999-2.454-8.326-5.755-12.612-.568-.737-5.22-3.386-5.67-3.33-.162.02-.894.388-.912.249-.044-.355 2.726-3.142 2.696-3.379-.05-.407-2.666 1.039-2.845 1.108-2.424.94-2.603.696-4.276 1.344z" fill="#ffce8b" stroke="#000" stroke-width=".706" stroke-linecap="round" stroke-linejoin="round"/>
  <ellipse cx="160.109" cy="-83.653" rx="2.071" ry="3.942" transform="scale(1 -1)" fill="#280b0b"/>
  <ellipse cx="170.465" cy="-83.653" rx="2.071" ry="3.942" transform="scale(1 -1)" fill="#280b0b"/>
  <path d="M175.358 98c-.531-.565-1.269-.945-2.08-1.355-4.606-2.331-6.115-4.424-11.905-2.47-1.54.519-2.99 1.999-4.253 2.709 3.716 5.581 16.366-.421 18.238 1.116z" fill="#b74c24" stroke="#000" stroke-width=".706" stroke-linecap="round" stroke-linejoin="round"/>
  <ellipse cx="160.48" cy="-82.424" rx=".458" ry="1.182" transform="scale(1 -1)" fill="#fff"/>
  <ellipse cx="171.033" cy="-82.448" rx=".458" ry="1.205" transform="scale(1 -1)" fill="#fff"/>
  <path d="M154.229 105.836c-.05.815-.134 1.558-.134 2.405 0 1.043-.45 3.675 0 3.675h-2.205c-1.115 0-5.412-.107-5.412 1.337 0 .66.017 1.616.802 2.205.888.666 4.762 1.055 5.88.868.528-.088 1.695-.625 2.004-.935.501-.501 1.515-1.448 2.005-1.938.315-.314-.618-5.997-.2-6.414" fill="#b4823e" stroke="#000" stroke-width=".706" stroke-linecap="round" stroke-linejoin="round"/>
  <path d="M161.221 77.354c-2.706-1.13-4.214 1.123-4.61 1.981" fill="#ffce8b" stroke="#000" stroke-width=".706" stroke-linecap="round" stroke-linejoin="round"/>
  <path d="M173.792 79.015c-.352-.191-.494-.725-.696-1.05-1.18-1.902-3.012-1.395-3.748-1.12" fill="#ffce8b" stroke="#000" stroke-width=".706" stroke-linecap="round" stroke-linejoin="round"/>
  <path d="M170.205 158.786c.05.814.134 1.558.134 2.405 0 1.043.45 3.675 0 3.675h2.205c1.115 0 5.412-.107 5.412 1.336 0 .66-.017 1.617-.802 2.205-.888.666-4.762 1.055-5.88.869-.528-.088-1.695-.626-2.004-.936-.501-.5-1.515-1.448-2.005-1.937-.314-.315.618-5.997.2-6.415" fill="#b4823e" stroke="#000" stroke-width=".706" stroke-linecap="round" stroke-linejoin="round"/>
  <path d="M167.077 126.494c.547-.954 1.232-1.87 1.524-2.885.436-1.513.108-1.277-.095-1.252-.547.713-1.79 1.498-2.36 2.138-.7.786-2.621 1.595-2.567 2.033.003.026-.493-1.081-1.492-2.237-.912-1.056-2.208-1.257-2.533-1.51-.365-.283 1.6 4.147-.666 2.853-2.138-1.221-4.114-2.536-6.564-2.948-1.074-.181 2.378 2.181 1.509 2.29-.196.025-.236-.183 0 0 .799.621-4.132-.736-3.382-.036 4.935 4.61 1.088 1.107-1.855 4.543-3.834 4.475-7.934 9.74-9.924 15.384-.67 1.9 2.39-.918 2.668-1.277.061-.078-.112.183-.1.282.09.716.445 1.401.532 2.088.24 1.925 1.158 9.344 2.72 9.895.835.294.305-3.623 1.807-1.708 1.72 2.193 3.501 4.008 5.736 4.938.615.256 2.283.735 2.702 1.143.345.335 1.504 1.205 2.189 1.342 1.73.346-1.306-2.193.364-1.392 1.423 0 5.356 1.508 6.432 1.888 1.132-2.209 4.539-2.183 5.668-2.714 2.9-.743 3.158-1.522 3.596-1.814 4.156-2.772.545 1.65 1.46 1.972.597.21 1.244-.362 1.673-.614 3.558-2.082 3.632-6.489 3.197-9.962-.055-.438.718.515 1.044.812.538.488 3.154 3.24 3.63 3.181.014-.002-.273-3.725-.597-4.774-.578-2.686-2.77-8.137-2.77-8.137 1.358.406 2.182 1.655 2.901 2.734.09.133.335.524.315.364-.626-5-2.454-8.326-5.755-12.612-.568-.737-5.219-3.386-5.67-3.33-.162.02-.894.388-.911.249-.045-.355 2.725-3.142 2.695-3.379-.05-.407-2.666 1.039-2.845 1.108-2.424.94-2.603.695-4.276 1.344z" fill="#ffce8b" stroke="#000" stroke-width=".706" stroke-linecap="round" stroke-linejoin="round"/>
  <ellipse cx="157.513" cy="-136.868" rx="2.071" ry="3.942" transform="scale(1 -1)" fill="#280b0b"/>
  <ellipse cx="167.87" cy="-136.868" rx="2.071" ry="3.942" transform="scale(1 -1)" fill="#280b0b"/>
  <path d="M161.895 147.673c-1.633-1.702-6.226.582-4.913 2.048 13.179 7.135 12.506-4.95 4.913-2.048z" fill="#b74c24" stroke="#000" stroke-width=".706" stroke-linecap="round" stroke-linejoin="round"/>
  <ellipse cx="157.884" cy="-135.639" rx=".458" ry="1.182" transform="scale(1 -1)" fill="#fff"/>
  <ellipse cx="168.438" cy="-135.663" rx=".458" ry="1.205" transform="scale(1 -1)" fill="#fff"/>
  <path d="M151.633 159.051c-.05.815-.134 1.558-.134 2.405 0 1.043-.45 3.675 0 3.675h-2.205c-1.115 0-5.412-.107-5.412 1.337 0 .66.017 1.616.802 2.205.888.666 4.762 1.055 5.88.868.528-.088 1.695-.625 2.005-.935.5-.501 1.514-1.448 2.004-1.938.315-.314-.618-5.997-.2-6.414" fill="#b4823e" stroke="#000" stroke-width=".706" stroke-linecap="round" stroke-linejoin="round"/>
  <path d="M158.625 130.569c-2.706-1.13-4.214 1.123-4.61 1.981" fill="#ffce8b" stroke="#000" stroke-width=".706" stroke-linecap="round" stroke-linejoin="round"/>
  <path d="M171.197 132.23c-.353-.191-.495-.725-.697-1.05-1.18-1.902-3.012-1.395-3.748-1.12" fill="#ffce8b" stroke="#000" stroke-width=".706" stroke-linecap="round" stroke-linejoin="round"/>
  <path d="M169.45 213.403c.05.815.133 1.558.133 2.405 0 1.043.45 3.675 0 3.675h2.205c1.116 0 5.412-.107 5.412 1.337 0 .66-.017 1.616-.802 2.205-.888.666-4.762 1.055-5.88.868-.528-.088-1.694-.625-2.004-.935-.501-.5-1.515-1.448-2.005-1.938-.314-.314.618-5.996.2-6.414" fill="#b4823e" stroke="#000" stroke-width=".706" stroke-linecap="round" stroke-linejoin="round"/>
  <path d="M166.32 181.112c.548-.955 1.233-1.871 1.525-2.885.436-1.513.108-1.277-.095-1.252-.547.712-1.79 1.498-2.36 2.138-.7.786-2.621 1.595-2.567 2.033.003.026-.493-1.082-1.492-2.238-.912-1.055-2.208-1.256-2.533-1.509-.365-.284 1.6 4.146-.666 2.853-2.138-1.222-4.114-2.536-6.564-2.949-1.074-.18 2.379 2.182 1.509 2.29-.196.025-.236-.182 0 0 .799.622-4.131-.735-3.382-.035 4.935 4.61 1.088 1.106-1.855 4.542-3.834 4.475-7.934 9.741-9.924 15.385-.67 1.9 2.39-.919 2.668-1.277.061-.079-.112.183-.1.282.09.716.446 1.4.532 2.088.24 1.925 1.158 9.343 2.72 9.895.835.294.305-3.623 1.807-1.708 1.72 2.193 3.501 4.007 5.736 4.938.615.256 2.283.735 2.702 1.143.345.335 1.504 1.205 2.189 1.342 1.73.345-1.306-2.194.364-1.393 1.423 0 5.356 1.509 6.432 1.888 1.132-2.208 4.539-2.182 5.668-2.713 2.9-.744 3.158-1.522 3.596-1.814 4.156-2.773.545 1.649 1.46 1.972.597.21 1.244-.363 1.673-.614 3.558-2.082 3.632-6.489 3.197-9.963-.055-.437.718.516 1.044.812.538.489 3.154 3.241 3.63 3.182.014-.002-.273-3.725-.597-4.774-.578-2.686-2.77-8.138-2.77-8.138 1.358.407 2.182 1.656 2.901 2.734.09.134.335.524.315.365-.626-5-2.454-8.326-5.755-12.612-.568-.737-5.219-3.387-5.67-3.33-.162.02-.894.388-.911.248-.045-.355 2.725-3.141 2.695-3.378-.05-.408-2.666 1.038-2.845 1.108-2.424.939-2.602.695-4.276 1.343z" fill="#ffce8b" stroke="#000" stroke-width=".706" stroke-linecap="round" stroke-linejoin="round"/>
  <ellipse cx="156.757" cy="-191.485" rx="2.071" ry="3.942" transform="scale(1 -1)" fill="#280b0b"/>
  <ellipse cx="167.114" cy="-191.485" rx="2.071" ry="3.942" transform="scale(1 -1)" fill="#280b0b"/>
  <path d="M162.208 203.05c-2.956-.52-5.186 1.338-4.394 3.56 3.636 4.16 9.2-2.635 4.394-3.56z" fill="#b74c24" stroke="#000" stroke-width=".706" stroke-linecap="round" stroke-linejoin="round"/>
  <ellipse cx="157.128" cy="-190.257" rx=".458" ry="1.182" transform="scale(1 -1)" fill="#fff"/>
  <ellipse cx="167.682" cy="-190.28" rx=".458" ry="1.205" transform="scale(1 -1)" fill="#fff"/>
  <path d="M150.877 213.669c-.05.814-.133 1.558-.133 2.405 0 1.043-.45 3.675 0 3.675h-2.205c-1.116 0-5.413-.107-5.413 1.336 0 .66.017 1.617.802 2.205.888.666 4.762 1.055 5.88.869.528-.088 1.695-.626 2.005-.936.5-.5 1.514-1.447 2.004-1.937.315-.315-.618-5.997-.2-6.415" fill="#b4823e" stroke="#000" stroke-width=".706" stroke-linecap="round" stroke-linejoin="round"/>
  <path d="M157.87 185.187c-2.707-1.13-4.215 1.123-4.611 1.98" fill="#ffce8b" stroke="#000" stroke-width=".706" stroke-linecap="round" stroke-linejoin="round"/>
  <path d="M170.44 186.848c-.352-.192-.494-.726-.696-1.051-1.18-1.901-3.012-1.395-3.748-1.12" fill="#ffce8b" stroke="#000" stroke-width=".706" stroke-linecap="round" stroke-linejoin="round"/>
  <path d="M167.733 267.872c.05.815.133 1.559.133 2.406 0 1.043.45 3.675 0 3.675h2.205c1.116 0 5.413-.107 5.413 1.336 0 .66-.017 1.617-.802 2.205-.888.666-4.762 1.055-5.88.869-.528-.088-1.695-.626-2.005-.936-.5-.5-1.514-1.448-2.004-1.937-.315-.315.618-5.997.2-6.415" fill="#b4823e" stroke="#000" stroke-width=".706" stroke-linecap="round" stroke-linejoin="round"/>
  <path d="M164.604 235.581c.548-.954 1.233-1.87 1.525-2.885.435-1.513.108-1.277-.095-1.252-.547.713-1.791 1.498-2.36 2.138-.7.786-2.622 1.595-2.567 2.033.003.026-.494-1.082-1.492-2.237-.912-1.056-2.208-1.257-2.534-1.51-.365-.283 1.6 4.147-.665 2.853-2.139-1.221-4.114-2.536-6.565-2.948-1.073-.181 2.38 2.181 1.51 2.29-.197.025-.236-.183 0 0 .799.621-4.132-.736-3.382-.036 4.935 4.61 1.088 1.107-1.855 4.543-3.834 4.475-7.935 9.74-9.925 15.384-.67 1.9 2.39-.918 2.669-1.277.06-.078-.112.183-.1.282.09.716.445 1.401.531 2.088.241 1.925 1.158 9.344 2.721 9.895.835.294.305-3.623 1.807-1.708 1.72 2.193 3.5 4.008 5.736 4.938.615.256 2.283.735 2.702 1.143.345.335 1.503 1.205 2.188 1.342 1.73.346-1.305-2.194.365-1.392 1.422 0 5.356 1.508 6.431 1.888 1.133-2.209 4.54-2.183 5.669-2.714 2.9-.743 3.157-1.522 3.596-1.814 4.156-2.772.544 1.65 1.459 1.972.598.21 1.245-.363 1.674-.614 3.558-2.082 3.631-6.489 3.196-9.962-.055-.438.718.515 1.045.811.538.49 3.154 3.242 3.63 3.182.014-.002-.273-3.725-.597-4.774-.578-2.686-2.77-8.137-2.77-8.137 1.358.406 2.181 1.655 2.9 2.734.09.133.336.524.316.364-.627-5-2.454-8.326-5.755-12.612-.568-.737-5.22-3.386-5.67-3.33-.162.02-.894.388-.912.249-.044-.355 2.726-3.142 2.696-3.38-.051-.406-2.666 1.04-2.845 1.11-2.424.938-2.603.694-4.277 1.343z" fill="#ffce8b" stroke="#000" stroke-width=".706" stroke-linecap="round" stroke-linejoin="round"/>
  <ellipse cx="155.041" cy="-245.955" rx="2.071" ry="3.942" transform="scale(1 -1)" fill="#280b0b"/>
  <ellipse cx="165.397" cy="-245.955" rx="2.071" ry="3.942" transform="scale(1 -1)" fill="#280b0b"/>
  <path d="M163.576 261.777c-2.095-.409-3.675 1.05-3.114 2.797 2.576 3.267 6.518-2.07 3.114-2.797z" fill="#b74c24" stroke="#000" stroke-width=".706" stroke-linecap="round" stroke-linejoin="round"/>
  <ellipse cx="155.412" cy="-244.726" rx=".458" ry="1.182" transform="scale(1 -1)" fill="#fff"/>
  <ellipse cx="165.965" cy="-244.75" rx=".458" ry="1.205" transform="scale(1 -1)" fill="#fff"/>
  <path d="M149.16 268.138c-.05.815-.133 1.558-.133 2.405 0 1.043-.45 3.675 0 3.675h-2.205c-1.116 0-5.412-.107-5.412 1.337 0 .66.017 1.616.802 2.205.888.666 4.762 1.055 5.88.868.528-.088 1.694-.625 2.004-.935.501-.501 1.515-1.448 2.005-1.938.314-.314-.618-5.997-.2-6.414" fill="#b4823e" stroke="#000" stroke-width=".706" stroke-linecap="round" stroke-linejoin="round"/>
  <path d="M156.153 238.068c-2.706-1.13-4.214 1.124-4.61 1.982" fill="#ffce8b" stroke="#000" stroke-width=".706" stroke-linecap="round" stroke-linejoin="round"/>
  <path d="M168.724 239.73c-.352-.192-.494-.726-.696-1.051-1.18-1.901-3.013-1.395-3.748-1.12" fill="#ffce8b" stroke="#000" stroke-width=".706" stroke-linecap="round" stroke-linejoin="round"/>
  <path d="M58.74 46.905c.05.814.134 1.558.134 2.405 0 1.043.45 3.675 0 3.675h2.205c1.115 0 5.412-.107 5.412 1.336 0 .66-.017 1.617-.802 2.205-.888.666-4.762 1.055-5.88.869-.528-.088-1.695-.626-2.004-.936-.501-.5-1.515-1.447-2.005-1.937-.315-.315.618-5.997.2-6.415" fill="#b4823e" stroke="#000" stroke-width=".706" stroke-linecap="round" stroke-linejoin="round"/>
  <path d="M55.612 14.613c.547-.954 1.232-1.87 1.524-2.884.435-1.514.108-1.278-.095-1.252-.547.712-1.79 1.498-2.36 2.137-.7.786-2.622 1.596-2.567 2.033.003.026-.494-1.081-1.492-2.237-.912-1.056-2.208-1.256-2.533-1.51-.366-.283 1.599 4.147-.666 2.853-2.139-1.221-4.114-2.536-6.565-2.948-1.073-.181 2.38 2.181 1.51 2.29-.196.025-.236-.183 0 0 .799.621-4.132-.736-3.382-.036 4.935 4.611 1.088 1.107-1.855 4.543-3.834 4.475-7.934 9.74-9.925 15.384-.67 1.9 2.39-.918 2.669-1.277.06-.078-.112.183-.1.282.09.716.445 1.401.531 2.088.242 1.925 1.158 9.344 2.721 9.895.835.294.305-3.622 1.807-1.708 1.72 2.193 3.501 4.008 5.736 4.938.615.256 2.283.735 2.702 1.143.345.335 1.503 1.205 2.189 1.342 1.73.346-1.306-2.193.364-1.392 1.422 0 5.356 1.508 6.432 1.888 1.132-2.209 4.538-2.183 5.668-2.714 2.9-.743 3.158-1.522 3.596-1.814 4.156-2.772.544 1.65 1.46 1.972.597.21 1.244-.362 1.673-.614 3.558-2.082 3.632-6.488 3.196-9.962-.054-.438.718.515 1.045.812.538.488 3.154 3.24 3.63 3.181.014-.002-.273-3.725-.597-4.773-.578-2.687-2.77-8.138-2.77-8.138 1.358.407 2.181 1.655 2.9 2.734.09.134.336.524.316.364-.626-4.999-2.454-8.326-5.755-12.612-.568-.737-5.22-3.386-5.67-3.33-.162.02-.894.388-.912.249-.044-.355 2.726-3.142 2.696-3.379-.05-.407-2.666 1.039-2.845 1.108-2.424.94-2.603.696-4.276 1.344z" fill="#ffce8b" stroke="#000" stroke-width=".706" stroke-linecap="round" stroke-linejoin="round"/>
  <ellipse cx="46.048" cy="-24.987" rx="2.071" ry="3.942" transform="scale(1 -1)" fill="#280b0b"/>
  <ellipse cx="56.405" cy="-24.987" rx="2.071" ry="3.942" transform="scale(1 -1)" fill="#280b0b"/>
  <path d="M61.297 39.334c-.531-.565-1.269-.945-2.08-1.355-4.606-2.331-6.115-4.424-11.905-2.47-1.54.519-2.99 1.999-4.253 2.709-.704.396-2.456 1.461-2.456 1.992 0 .062.265-.426.472-.557.74-.469 1.196-.873 1.984-1.435 1.19-.752 2.354-1.681 3.73-2.564 1.154-.74 1.95-.546 3.091-.776 1.071-.312 3.018.031 4.84.746 3.425 1.925 5.784 2.935 6.577 3.71z" fill="none" stroke="#000" stroke-width=".706" stroke-linecap="round" stroke-linejoin="round"/>
  <ellipse cx="46.419" cy="-23.758" rx=".458" ry="1.182" transform="scale(1 -1)" fill="#fff"/>
  <ellipse cx="56.972" cy="-23.782" rx=".458" ry="1.205" transform="scale(1 -1)" fill="#fff"/>
  <path d="M40.168 47.17c-.05.815-.134 1.558-.134 2.406 0 1.042-.45 3.674 0 3.674H37.83c-1.115 0-5.412-.107-5.412 1.337 0 .66.017 1.616.802 2.205.888.666 4.762 1.055 5.88.868.528-.088 1.695-.625 2.004-.935.501-.5 1.515-1.448 2.005-1.938.315-.314-.618-5.996-.2-6.414" fill="#b4823e" stroke="#000" stroke-width=".706" stroke-linecap="round" stroke-linejoin="round"/>
  <path d="M44.085 19.961c.86 1.64 3.843 3.613 4.876 3.143" fill="#ffce8b" stroke="#000" stroke-width=".8" stroke-linecap="round" stroke-linejoin="round"/>
  <ellipse cx="51.925" cy="-2.368" rx="2.548" ry="1.153" transform="matrix(.89516 .44574 -.38418 .92326 0 0)" fill="#ffce8b"/>
  <path d="M58.563 19.982c-.86 1.64-3.842 3.612-4.876 3.143" fill="#ffce8b" stroke="#000" stroke-width=".8" stroke-linecap="round" stroke-linejoin="round"/>
  <ellipse cx="-43.056" cy="43.51" rx="2.548" ry="1.153" transform="matrix(-.89516 .44574 .38418 .92326 0 0)" fill="#ffce8b"/>
  <path d="M115.547 47.949c.05.815.134 1.558.134 2.405 0 1.043.45 3.675 0 3.675h2.205c1.115 0 5.412-.107 5.412 1.337 0 .66-.017 1.616-.802 2.205-.888.666-4.762 1.055-5.88.868-.528-.088-1.695-.625-2.004-.935-.501-.501-1.515-1.448-2.005-1.938-.315-.314.618-5.997.2-6.414" fill="#b4823e" stroke="#000" stroke-width=".706" stroke-linecap="round" stroke-linejoin="round"/>
  <path d="M112.419 15.658c.547-.955 1.232-1.871 1.524-2.885.436-1.513.108-1.277-.095-1.252-.547.712-1.79 1.498-2.36 2.138-.7.786-2.621 1.595-2.567 2.033.003.026-.493-1.082-1.492-2.238-.912-1.055-2.208-1.256-2.533-1.509-.365-.284 1.6 4.146-.666 2.853-2.139-1.222-4.114-2.536-6.564-2.949-1.074-.18 2.378 2.182 1.509 2.29-.196.025-.236-.182 0 0 .799.622-4.132-.736-3.382-.035 4.935 4.61 1.088 1.106-1.855 4.542-3.834 4.475-7.934 9.741-9.924 15.385-.67 1.9 2.39-.919 2.668-1.277.061-.079-.112.183-.1.282.09.715.445 1.4.532 2.088.24 1.925 1.158 9.343 2.72 9.895.835.294.305-3.623 1.807-1.708 1.72 2.193 3.501 4.007 5.736 4.938.615.256 2.283.735 2.702 1.143.345.335 1.504 1.205 2.189 1.342 1.73.345-1.306-2.194.364-1.393 1.423 0 5.356 1.509 6.432 1.888 1.132-2.208 4.539-2.182 5.668-2.713 2.9-.744 3.158-1.522 3.596-1.815 4.156-2.772.545 1.65 1.46 1.973.597.21 1.244-.363 1.673-.614 3.558-2.082 3.632-6.489 3.197-9.963-.055-.437.718.516 1.044.812.538.489 3.154 3.241 3.63 3.182.014-.003-.273-3.725-.597-4.774-.578-2.686-2.77-8.138-2.77-8.138 1.358.407 2.182 1.656 2.901 2.734.09.134.335.524.315.365-.626-5-2.454-8.326-5.755-12.612-.568-.738-5.219-3.387-5.67-3.33-.162.02-.894.388-.911.248-.045-.355 2.725-3.141 2.695-3.379-.05-.407-2.666 1.04-2.845 1.109-2.424.939-2.603.695-4.276 1.343z" fill="#ffce8b" stroke="#000" stroke-width=".706" stroke-linecap="round" stroke-linejoin="round"/>
  <ellipse cx="102.855" cy="-26.031" rx="2.071" ry="3.942" transform="scale(1 -1)" fill="#280b0b"/>
  <ellipse cx="113.212" cy="-26.031" rx="2.071" ry="3.942" transform="scale(1 -1)" fill="#280b0b"/>
  <ellipse cx="103.226" cy="-25.956" rx=".458" ry=".748" transform="scale(1 -1)" fill="#fff"/>
  <ellipse cx="113.78" cy="-26.013" rx=".458" ry=".805" transform="scale(1 -1)" fill="#fff"/>
  <path d="M96.975 48.215c-.05.814-.134 1.558-.134 2.405 0 1.043-.45 3.675 0 3.675h-2.205c-1.115 0-5.412-.107-5.412 1.336 0 .66.017 1.617.802 2.205.888.666 4.762 1.055 5.88.869.528-.088 1.695-.626 2.005-.936.5-.5 1.514-1.447 2.004-1.937.315-.315-.618-5.997-.2-6.415" fill="#b4823e" stroke="#000" stroke-width=".706" stroke-linecap="round" stroke-linejoin="round"/>
  <path d="M100.363 21.874c.86 1.64 3.843 3.613 4.876 3.144" fill="#ffce8b" stroke="#000" stroke-width=".8" stroke-linecap="round" stroke-linejoin="round"/>
  <ellipse cx="104.813" cy="-25.624" rx="2.548" ry="1.153" transform="matrix(.89516 .44574 -.38418 .92326 0 0)" fill="#ffce8b"/>
  <path d="M115.37 22.084c-.86 1.64-3.842 3.613-4.876 3.144" fill="#ffce8b" stroke="#000" stroke-width=".8" stroke-linecap="round" stroke-linejoin="round"/>
  <ellipse cx="-94.814" cy="70.776" rx="2.548" ry="1.153" transform="matrix(-.89516 .44574 .38418 .92326 0 0)" fill="#ffce8b"/>
  <path d="M169.536 47.949c.05.815.133 1.558.133 2.405 0 1.043.45 3.675 0 3.675h2.205c1.116 0 5.412-.107 5.412 1.337 0 .66-.017 1.616-.801 2.205-.889.666-4.762 1.055-5.88.868-.529-.088-1.695-.625-2.005-.935-.5-.501-1.515-1.448-2.004-1.938-.315-.314.618-5.997.2-6.414" fill="#b4823e" stroke="#000" stroke-width=".706" stroke-linecap="round" stroke-linejoin="round"/>
  <path d="M166.407 15.658c.548-.955 1.233-1.871 1.524-2.885.436-1.513.109-1.277-.094-1.252-.547.712-1.791 1.498-2.36 2.138-.7.786-2.622 1.595-2.567 2.033.003.026-.494-1.082-1.493-2.238-.912-1.055-2.208-1.256-2.533-1.509-.365-.284 1.6 4.146-.665 2.853-2.14-1.222-4.114-2.536-6.565-2.949-1.073-.18 2.379 2.182 1.51 2.29-.197.025-.236-.182 0 0 .798.622-4.132-.736-3.382-.035 4.935 4.61 1.088 1.106-1.855 4.542-3.834 4.475-7.935 9.741-9.925 15.385-.67 1.9 2.39-.919 2.668-1.277.061-.079-.111.183-.099.282.09.715.445 1.4.531 2.088.241 1.925 1.158 9.343 2.721 9.895.835.294.305-3.623 1.806-1.708 1.72 2.193 3.502 4.007 5.737 4.938.615.256 2.282.735 2.702 1.143.344.335 1.503 1.205 2.188 1.342 1.73.345-1.306-2.194.364-1.393 1.423 0 5.357 1.509 6.432 1.888 1.133-2.208 4.539-2.182 5.668-2.713 2.9-.744 3.158-1.522 3.597-1.815 4.155-2.772.544 1.65 1.459 1.973.597.21 1.244-.363 1.674-.614 3.557-2.082 3.631-6.489 3.196-9.963-.055-.437.718.516 1.044.812.539.489 3.154 3.241 3.631 3.182.014-.003-.273-3.725-.598-4.774-.577-2.686-2.77-8.138-2.77-8.138 1.359.407 2.182 1.656 2.901 2.734.09.134.335.524.315.365-.626-5-2.453-8.326-5.755-12.612-.568-.738-5.219-3.387-5.67-3.33-.161.02-.893.388-.91.248-.045-.355 2.724-3.141 2.695-3.379-.051-.407-2.666 1.04-2.846 1.109-2.424.939-2.602.695-4.276 1.343z" fill="#ffce8b" stroke="#000" stroke-width=".706" stroke-linecap="round" stroke-linejoin="round"/>
  <ellipse cx="156.843" cy="-26.031" rx="2.071" ry="3.942" transform="scale(1 -1)" fill="#280b0b"/>
  <ellipse cx="167.2" cy="-26.031" rx="2.071" ry="3.942" transform="scale(1 -1)" fill="#280b0b"/>
  <path d="M165.788 37.93c-.178-.466-.425-.78-.697-1.12-1.543-1.926-2.05-3.655-3.99-2.04-.515.428-1.002 1.652-1.425 2.238-.236.328-.823 1.208-.823 1.647 0 .05.089-.353.158-.461.665-1.186 2.257-4.314 2.936-4.097 1.094-.196 2.088.843 3.841 3.833z" fill="none" stroke="#000" stroke-width=".706" stroke-linecap="round" stroke-linejoin="round"/>
  <ellipse cx="157.214" cy="-25.956" rx=".458" ry=".748" transform="scale(1 -1)" fill="#fff"/>
  <ellipse cx="167.768" cy="-26.013" rx=".458" ry=".805" transform="scale(1 -1)" fill="#fff"/>
  <path d="M150.964 48.215c-.051.814-.134 1.558-.134 2.405 0 1.043-.45 3.675 0 3.675h-2.205c-1.116 0-5.412-.107-5.412 1.336 0 .66.017 1.617.802 2.205.888.666 4.762 1.055 5.88.869.528-.088 1.694-.626 2.004-.936.5-.5 1.515-1.447 2.004-1.937.315-.315-.618-5.997-.2-6.415" fill="#b4823e" stroke="#000" stroke-width=".706" stroke-linecap="round" stroke-linejoin="round"/>
  <path d="M154.352 21.874c.86 1.64 3.842 3.613 4.875 3.144" fill="#ffce8b" stroke="#000" stroke-width=".8" stroke-linecap="round" stroke-linejoin="round"/>
  <ellipse cx="154.773" cy="-49.745" rx="2.548" ry="1.153" transform="matrix(.89516 .44574 -.38418 .92326 0 0)" fill="#ffce8b"/>
  <path d="M169.359 22.084c-.86 1.64-3.843 3.613-4.876 3.144" fill="#ffce8b" stroke="#000" stroke-width=".8" stroke-linecap="round" stroke-linejoin="round"/>
  <ellipse cx="-144.774" cy="94.897" rx="2.548" ry="1.153" transform="matrix(-.89516 .44574 .38418 .92326 0 0)" fill="#ffce8b"/>
  <path d="M113.185 36.537c-.745-1.277-1.807-1.92-3.071-2.552-.351-.175-.54-.383-.898-.472-1.695.24-7.024 5.17-7.134 6.52" fill="#ffce8b" stroke="#000" stroke-width=".8" stroke-linecap="round" stroke-linejoin="round"/>
  <path d="M195.73 34.86c-.098-.256 2.131-1.428 5.239-1.886 3.107-.459 5.58.024 5.56.3-.021.28-2.468.27-5.412.705-2.944.434-5.288 1.144-5.388.882z"/>
  <path d="M195.606 30.799c.063-.25 1.828-.104 3.92.523.956.286 1.774.616 2.406.942.367.186.613.44.752.615.096.117.162.221.2.303.055.089.037.184.022.207-.026.041-.128.023-.208.005a2.713 2.713 0 0 1-.317-.127c-.179-.08-.48-.232-.725-.284a79.18 79.18 0 0 1-2.421-.688c-2.043-.61-3.703-1.203-3.629-1.496z"/>
  <path d="M200.97 32.264c-.155-.207.695-1.199 1.98-2.152.33-.245.654-.46.964-.64.978-.567 1.801-.41 1.81-.396.119.172-.676.634-1.281 1.165-.264.213-.57.452-.887.687-1.261.936-2.403 1.577-2.585 1.336z"/>
  <path d="M205.729 27.583c-.012.247-1.971.256-4.752-.016-1.033-.243-2.148-.609-3.18-.852l-.113-.026c-.013-.023-.026-.044-.038-.07.026-.06.06-.105.088-.155.06-.102.118-.204.175-.307.143-.021.217-.01.207-.02.473-.192.918-.378 1.407-.533 3.21-1.005 5.649-1.01 5.674-.877.043.226-2.333.72-5.365 1.802-.436.154-.842.339-1.33.543a1.474 1.474 0 0 1-.514.097 14.467 14.467 0 0 1-.274-.42c.012-.016.025-.039.039-.06l.12-.008c1.124-.074 2.313-.049 3.22-.036 2.735.425 4.644.773 4.636.938z"/>
  <path d="M202.159 25.568c.335-.05.523.56.542 1.193 0 .018.002.035.001.053a3.6 3.6 0 0 1-.036.618c.062.237-.096.315-.149.467 0 0-.47.31-.618-.27a1.779 1.779 0 0 1-.214-.832c-.028-.696.26-1.197.474-1.229z"/>
  <path d="M196.138 18.636c.399-.015.462 1.922.126 4.24-.322 2.216-.547 4.061-.691 4.08-.396.052-.655-1.88-.32-4.225.322-2.265.734-4.09.885-4.095z"/>
  <path d="M196.34 22.363c.016-.273 2.078-.387 4.605-.245 2.53.142 4.568.51 4.546.796-.02.273-2.081.36-4.603.219-2.527-.142-4.567-.483-4.549-.77z"/>
  <path d="M198.707 20.533c-.135-.01-.192-.89-.177-2.317.01-.372.088-.638.139-.96.125-.353.383-.627.447-.633l.086-.107c.186-.152.315-.165.328-.064.042.048.028.04-.023-.048.373.323.782.58 1.282.92.62.416 1.272.797 2 1.205.553.31 1.102.61 1.627.91.256.148.696.25 1.123.562.12.094.22.188.308.268a.26.26 0 0 1-.135.206l.005-.001c-.167.49-.388.533-.45.238-.08-.221-.137-.365-.218-.587a10.388 10.388 0 0 1-.479-2.054c-.164-1.145-.077-1.844.089-1.831.05.003.22.657.522 1.7.154.512.368 1.221.659 1.87.077.176.168.381.25.579.002-.137-.016.111-.29.736-.227-.064-.411-.124-.56-.153-.098-.08-.188-.156-.27-.214-.188-.151-.572-.203-1.033-.451-.515-.275-1.093-.58-1.647-.891a21.541 21.541 0 0 1-2.059-1.293c-.476-.34-.922-.659-1.334-1.066-.134-.166-.183-.288-.175-.346-.01.028.07-.093.282-.319l.005-.001c.035-.025.07-.05.106-.078.332.523.324.926.337 1.102-.086.354-.195.622-.227.853-.196 1.414-.383 2.275-.518 2.265z"/>
  <path d="M195.87 12.216c.022-.28.713-.457 1.545-.395.831.062 1.489.339 1.468.619-.02.28-.712.456-1.544.395-.831-.062-1.489-.34-1.468-.62z"/>
  <path d="M198.11 10.676c.022-.28 1.577-.393 3.474-.252 1.896.141 3.418.482 3.397.762-.02.28-1.577.393-3.473.252-1.896-.141-3.418-.483-3.397-.762z"/>
  <path d="M197.627 6.288c.054-.052.257.38.133.685.004.222-.115.504-.028.374.235.175.547.434.821.536.224.098.512.07.893.042.155-.03.283-.044.327-.092-.041.021-.044.045-.064.157-.082-.547.09-.628.097-.251-.233-.345-.691-.537-1.245-.825-.078-.04-.185-.07-.316-.108a8.99 8.99 0 0 0-.339-.308c.111-.226.183-.397.24-.536.008-.023.017-.044.026-.065.099-.214.166-.251.134-.176.132.015.236.039.314.06.266.073.517.162.749.246.255.093.506.189.745.283.155.058.27.115.36.142 1.082.33 1.835.547 2.658.855 1.233.433 2.027 1.093 1.93 1.197-.098.105-.756-.146-2.14-.5-.547-.124-1.878-.412-2.708-.623-.183-.05-.325-.108-.442-.15-.24-.084-.49-.172-.736-.256-.23-.078-.46-.156-.68-.214-.076-.02-.128-.037-.155-.039-.1.07-.142.01-.048-.133l.036-.046c.083-.11.211-.281.363-.494a.875.875 0 0 1-.031-.221c.145.039.31.092.485.177.566.26 1.154.592 1.582 1.176.176.63.049.855.034.598.043.382-.116.682-.387.84-.276.139-.528.175-.723.172-.432.034-.884-.02-1.291-.23-.41-.236-.698-.565-.888-.786-.285-.47-.069-.808.025-.924.12-.498.215-.511.27-.563z"/>
</svg>
