<?xml version="1.0" encoding="UTF-8" standalone="no"?>
<svg
   xmlns:dc="http://purl.org/dc/elements/1.1/"
   xmlns:cc="http://creativecommons.org/ns#"
   xmlns:rdf="http://www.w3.org/1999/02/22-rdf-syntax-ns#"
   xmlns:svg="http://www.w3.org/2000/svg"
   xmlns="http://www.w3.org/2000/svg"
   xmlns:sodipodi="http://sodipodi.sourceforge.net/DTD/sodipodi-0.dtd"
   xmlns:inkscape="http://www.inkscape.org/namespaces/inkscape"
   width="1024pt"
   height="816"
   viewBox="0 0 361.244 215.9"
   version="1.1"
   id="svg250"
   sodipodi:docname="clouds-only.svg"
   inkscape:version="0.92.2 5c3e80d, 2017-08-06">
  <metadata
     id="metadata256">
    <rdf:RDF>
      <cc:Work
         rdf:about="">
        <dc:format>image/svg+xml</dc:format>
        <dc:type
           rdf:resource="http://purl.org/dc/dcmitype/StillImage" />
        <dc:title />
      </cc:Work>
    </rdf:RDF>
  </metadata>
  <defs
     id="defs254">
    <inkscape:path-effect
       effect="simplify"
       id="path-effect1084"
       is_visible="true"
       steps="1"
       threshold="0.5"
       smooth_angles="360"
       helper_size="0"
       simplify_individual_paths="false"
       simplify_just_coalesce="false"
       simplifyindividualpaths="false"
       simplifyJustCoalesce="false" />
  </defs>
  <sodipodi:namedview
     pagecolor="#ffffff"
     bordercolor="#666666"
     borderopacity="1"
     objecttolerance="10"
     gridtolerance="10"
     guidetolerance="10"
     inkscape:pageopacity="0"
     inkscape:pageshadow="2"
     inkscape:window-width="1380"
     inkscape:window-height="728"
     id="namedview252"
     showgrid="false"
     inkscape:zoom="0.47460937"
     inkscape:cx="303.40741"
     inkscape:cy="408"
     inkscape:window-x="0"
     inkscape:window-y="0"
     inkscape:window-maximized="0"
     inkscape:current-layer="svg250" />
  <path
     d="M154.125 91.208l.058.06.07.011a1.81 1.81 0 0 0-.128-.07zM154.254 91.28c.02.012.04.02.062.035-.024-.018-.03-.02-.048-.034l-.014-.002zM153.785 91.088c-.022 0-.053.003-.07.004l.02.01c.017-.002.05-.007.05-.014zM153.471 91.04l.09.036.096.018.057-.002-.07-.037c-.057-.008-.115-.01-.173-.016zM152.659 90.722l.02.007c.02.005.048.01.085.02l-.015-.013c-.026-.004-.046-.01-.074-.013l-.016-.001zM152.764 90.748c.007.007.015.011.023.018a1.07 1.07 0 0 0-.016-.003l.014.005c.067.015.134.032.2.045a1.656 1.656 0 0 0-.22-.065zM151.029 90.202c.02.008.045.027.073.052l.138.021a.657.657 0 0 0-.211-.073zM150.22 89.914l-.017-.015-.029-.003-.063.006.108.012zM148.46 89.676a.363.363 0 0 0-.033.053c.214.13.43.26.652.376l.041-.006.008-.001a.564.564 0 0 0-.075-.083c-.22-.18-.388-.3-.592-.339zM148.427 89.729l-.108-.065c-.074 0-.153.007-.242.027-.044.031-.13.08-.2.123.11.025.219.054.326.088l.02.006a.469.469 0 0 0 .204-.18zM134.505 91.417l-.027-.001c.156.023.306.047.451.071-.134-.05-.28-.058-.424-.07zM123.41 72.66c.091-.17.176-.33.302-.56.055-.1-.44.718-.301.56zM127.278 67.2l.027-.029c.043-.086.106-.213.143-.267.05-.074.118-.182.192-.28l-.041.029c-.135.178-.22.273-.321.548zM127.64 66.625c.15-.104.248-.172.28-.177l.014-.03c-.097-.02-.2.084-.294.207zM127.92 66.448c-.021.055-.046.109-.07.163.077-.115.101-.168.07-.163zM146.645 50.73h.384c.093-.042.186-.089.28-.137-.145 0-.29-.002-.434-.003-.066.06-.156.09-.23.14zM147.31 50.593l1.592.014c-.08-.078-.174-.102-.264-.135-.432-.325-.885-.104-1.329.121z"
     fill="#65ff80"
     id="path6" />
  <path
     d="M305.142 39.796c1.133-1.204 1.246-2.943 1.494-4.486.361-2.247-1.145-4.254-3.007-5.397-1.82-1.117-4.111-1.15-5.935-2.199-1.343-.772-2.838-1.516-3.754-2.774-1.256-1.726-1.737-4.083-3.736-5.226-2.369-1.354-5.213-.994-7.823-.973-1.36.011-2.744.188-3.801 1.175-.932.87-2.195 1.505-3.496.535-1.764-1.317-3.457-3.648-5.806-3.3-1.604.236-2.963 1.173-4.511 1.663-2.905.92-6.258 1.429-8.377 3.782-1.258 1.396-1.49 3.476-1.168 5.247.32 1.753 2.192 2.354 3.694 2.738 1.598.408 3.498 1.629 3.28 3.429-.276 2.286-2.218 3.762-3.552 5.469-.949 1.214-.967 2.976.081 4.18 1.145 1.314 2.816 2.016 4.365 2.738 1.598.746 2.26-1.058 3.458-1.664 1.815-.918 3.63-2.544 5.667-2.308 2.123.246 3.59 2.004 5.07 3.365 1.354 1.247 3.246 2.494 5.154 1.75 1.164-.455 2.263-1.01 3.623-.903 1.574.123 2-2.096 3.664-1.821 2.338.386 4.328 2.296 6.674 2.277 1.793-.013 3.635-.757 4.83-1.999.893-.93-.085-2.332.648-3.57.55-.927 2.416-.997 3.295-1.777"
     fill="#e3e2db"
     fill-opacity=".588"
     stroke="#000"
     stroke-width=".706"
     id="path100" />
  <path
     d="M299.116 42.621c-.573.398-1.137.814-1.746 1.156-.383.215-.775.437-1.21.522-.194.039-.431.051-.58-.105a.438.438 0 0 1-.094-.162M296.715 42.769c-.15.167-.337.295-.523.418-.525.346-1.073.67-1.668.877-.26.091-.533.178-.812.156a.345.345 0 0 1-.327-.338M281.815 42.533c-.256.256-.555.464-.857.66-.561.366-1.14.72-1.772.943-.25.089-.516.187-.785.152a.386.386 0 0 1-.207-.083M268.505 39.72c-.151.146-.346.236-.537.32a8.259 8.259 0 0 1-1.865.591c-.33.06-.67.119-1.003.057-.138-.025-.293-.099-.321-.251a.317.317 0 0 1-.004-.081M283.792 43.987c-.61.378-1.326.513-2.022.644-.356.067-.72.109-1.064.225-.355.12-.659.381-1.034.434a.644.644 0 0 1-.09.006M267.217 41.33c-.286.161-.61.239-.929.308-.897.194-1.813.323-2.731.334-.41.005-.83.022-1.224-.095a.741.741 0 0 1-.21-.092"
     fill="none"
     stroke="#000"
     stroke-width=".353"
     id="path102" />
  <path
     d="M116.681 28.046c-2.174-4.865-6.291-9.222-11.66-10.452-2.798-.642-5.54.393-8.14 1.305-1.882.66-3.922.628-5.83-.09-2.391-.898-4.017-3.247-6.678-3.574-1.887-.232-3.875-.518-5.71-.035-2.693.709-4.158 3.481-6.91 4.164-2.99.742-6.273.138-9.063 1.834-2.699 1.64-4.05 4.826-3.944 7.928.127 3.755.793 8.048 3.6 10.518 1.43 1.259 3.42 1.409 4.895 2.786 1.626 1.517 3.779 2.83 6.132 2.276 2.952-.696 5.295-2.878 8.427-3.205 2.905-.303 4.869 2.295 7.323 3.347 1.55.664 3.28.786 4.937.745 2.314-.057 4.061-1.6 6.336-2.127 2.084-.483 4.178-.552 6.35-.47 1.96.073 4.243.87 5.957-.282 1.484-.997 1.875-3.309 3.898-3.592 1.875-.262 4.013.384 5.637-1.022 1.421-1.232.825-3.27-.126-4.645-.955-1.382-1.47-2.765-2.663-4.172-.668-.788-1.975-.578-2.768-1.237z"
     fill="#e3e2db"
     fill-opacity=".588"
     stroke="#000"
     stroke-width=".706"
     id="path104" />
  <path
     d="M108.215 39.952c-.73.418-1.587.702-2.436.562-.832-.137-1.531-.655-2.158-1.188-.731-.621-1.419-1.319-2.286-1.755M101.07 39.952c-.594-.392-1.15-.838-1.713-1.274-.446-.347-.874-.719-1.344-1.035a1.18 1.18 0 0 0-.117-.072M86.254 40.746c-1.138-.383-2.323-.674-3.37-1.28-.567-.329-1.096-.77-1.392-1.366M85.196 38.1c-.438-.415-.904-.822-1.463-1.065-.455-.197-.956-.26-1.448-.258M69.85 41.54c-1.138-.077-2.19-.629-3.064-1.335a10.505 10.505 0 0 1-2.757-3.428M69.056 39.688c-.356-.591-.792-1.148-1.357-1.553a3.63 3.63 0 0 0-.495-.3"
     fill="none"
     stroke="#000"
     stroke-width=".353"
     id="path106" />
  <path
     d="M240.823 152.851c-1.271-3.953-4.741-7.155-8.785-8.122-1.693-.404-3.39.062-5.028.614-1.897.64-3.907.876-5.865 1.272-1.34.27-2.741.416-3.922-.62-1.915-1.68-5.003-2.891-7.264-1.484-1.763 1.097-3.968 1.066-5.677 2.352-1.316.99-2.72 2.02-4.507 1.978-1.299-.031-2.862-.145-3.721 1.058-.8 1.12-1.389 2.399-2.396 3.356-1.109 1.054-.75 2.618-.718 3.968.072 3.074 1.194 6.472 4.048 8.054 1.795.995 3.993 1.153 5.907.35 1.59-.668 3.244-1.182 5.006-1.175 1.789.007 3.622.22 5.182 1.203 1.238.78 2.523 1.472 3.983 1.784 3.263.699 6.575 1.18 9.9 1.52 1.639.167 2.141-1.965 3.743-1.982 1.429-.015 2.84-.127 4.234-.55 1.424-.431 2.72-1.533 4.206-1.49 1.242.038 2.847.938 3.733-.383 1.083-1.617 1.176-4.033.069-5.467-1.046-1.354 1.087-3.041.09-4.167a16.185 16.185 0 0 0-2.218-2.069z"
     fill="#e3e2db"
     fill-opacity=".588"
     stroke="#000"
     stroke-width=".706"
     id="path108" />
  <path
     d="M226.23 164.264c-.956-.34-1.89-.785-2.674-1.438-.554-.462-1.036-1.062-1.197-1.78a2.405 2.405 0 0 1-.057-.524M223.05 163.702c-.329-.02-.637-.164-.897-.361-.432-.327-.755-.782-1.22-1.065a1.755 1.755 0 0 0-.128-.07M211.825 162.954c-.56-.474-1.263-.751-1.983-.867-1.015-.163-2.047-.067-3.069-.069M210.702 160.148a3.86 3.86 0 0 0-1.642.092c-.539.151-1.04.408-1.538.656M195.548 153.412c-.327.762-.638 1.544-.751 2.369-.064.46-.077.951.122 1.38.063.136.149.262.255.367M196.483 155.283c-.243.377-.398.82-.386 1.273.007.272.077.542.2.785"
     fill="none"
     stroke="#000"
     stroke-width=".353"
     id="path110" />
  <path
     d="M84.94 149.486c-4.046.075-8.124 2.727-11.386 5.03l.146.107c-.96.548-2.385.674-3.408.662-4.418-.054-7.59-4.618-12.007-3.859-4.97.854-5.851 7.675-3.252 11.028 1.752 2.26-1.614 5.032.705 7.335 4.83 4.798 10.988 7.05 17.135 7.414 6.476.385 13.44-.986 18.485-5.144.59 4.674 8.58 2.862 8.39 1.508l-.307-.442c3.364 2.097 8.805-2 9.038-6.702.265-5.348-3.685-11.446-9.338-10.568-6.545 1.017-6.258-3.918-10.83-5.762a8.496 8.496 0 0 0-3.371-.607z"
     fill="#e3e2db"
     fill-opacity=".588"
     stroke="#000"
     stroke-width=".7056348599999999"
     id="path112" />
  <path
     d="M84.667 171.98c-.45 1-1.286 1.807-2.278 2.27a4.602 4.602 0 0 1-1.89.441M83.08 171.98c-.301.392-.574.806-.895 1.183-.223.26-.496.487-.82.613-.4.155-.837.182-1.262.188M59.202 170.494c-.447-.12-.899-.242-1.314-.452-.22-.11-.43-.266-.546-.49-.108-.205-.171-.43-.283-.635a2.47 2.47 0 0 0-.402-.528M101.534 170.59c.572-.044 1.093-.35 1.492-.75a4.31 4.31 0 0 0 1.1-1.947c.074-.286.12-.58.12-.875M60.898 170.39c-.447-.12-.899-.241-1.314-.45-.22-.112-.43-.267-.546-.49-.108-.206-.171-.432-.284-.636a2.47 2.47 0 0 0-.4-.529M102.49 171.373c.617-.06 1.163-.423 1.575-.869.616-.666 1.032-1.498 1.287-2.362a6.018 6.018 0 0 0 .264-1.685"
     fill="none"
     stroke="#000"
     stroke-width=".353"
     id="path114" />
  <path
     d="M65.881 94.985C62.33 87.687 53.507 84.41 45.66 85.876c-9.238 1.728-17.184-8.58-26.2-4.68-4.246 1.838-8.18 4.824-10.709 9.094-2.703 4.564.707 5.767 2.31 11.022 1.335 4.383 5.341 6.434 10.453 6.803 3.344.241 8.321-5.242 8.492-4.735 1.813 5.392 10.153 5.18 14.107 2.878 4.333-2.523 9.145-3.346 14.045-2.022 4.785 1.293 7.55-.67 10.135-4.004 2.17-2.798-.127-3.863-2.41-5.247z"
     fill="#e3e2db"
     fill-opacity=".588"
     stroke="#000"
     stroke-width=".7056348599999999"
     id="path116" />
  <path
     d="M12.947 98.815c.574 1.398.793 2.98 1.72 4.207.258.343.632.662 1.086.657M15.598 101.589c.64.62 1.068 1.418 1.684 2.058M54.069 101.338c-1.74-.309-3.537.038-5.173.633-1.032.375-2.072.841-2.872 1.612M47.082 101.615c-1.16.625-2.191 1.462-3.367 2.058"
     fill="none"
     stroke="#000"
     stroke-width=".35268513999999995"
     id="path118" />
  <path
     d="M1318 271c-3.155-19.515-26.848-16.592-40.995-24.812-13.873-8.06-28.217 15.508-35.59 7.24-14.988-16.803-45.923-24.533-60.853-9.727-14.107 13.99-34.537.99-51.211 8.494-11.128 5.007-23.713 25.543-17.878 34.583 6.885 10.669 9.445 12.9 19.657 19.768 22.815 15.344 64.836 28.972 76.87 6.454 4.262-7.975-1.756-16.111 12.85-9.264 23.642 11.083 50.879 7.64 76.454 8.192 16.631.358 25.479-11.305 33.997-25.388 5.108-8.446-8.82-10.815-12.832-16.006"
     transform="matrix(.26495 0 0 .3351 -.447 -16.676)"
     fill="#e3e2db"
     fill-opacity=".588"
     stroke="#000"
     stroke-width="2.368"
     id="path120" />
  <path
     d="M315.442 88.177c-.319.749-.84 1.507-1.667 1.735-.796.22-1.631.096-2.445.124M314.062 87.37c-.094.496-.567.802-.984 1.011a5.86 5.86 0 0 1-2.57.626"
     fill="none"
     stroke="#000"
     stroke-width=".35268513999999995"
     id="path122" />
  <path
     d="M1311.683 311.126c-7.445 8.553-19.184 13.576-30.406 14.142"
     transform="matrix(.10505 0 0 .12999 204.436 43.779)"
     fill="none"
     stroke="#000"
     stroke-width="3.019"
     id="path124" />
  <path
     d="M340.063 84.345c-.734.612-1.581 1.07-2.432 1.496"
     fill="none"
     stroke="#000"
     stroke-width=".35268513999999995"
     id="path126" />
</svg>
