<svg xmlns="http://www.w3.org/2000/svg" width="1024pt" height="816" viewBox="0 0 361.244 215.9">
  <path d="M223.837 152.532c.691-1.898 1.431-4.29.238-6.066-1.375-2.046-4.935-2.987-6.56-.879-1.928 2.503-2.493 5.767-2.466 8.793.007.824-.927 3.455-.752 2.986.153-.413.371-.81.677-1.13" fill="none"/>
  <path d="M220.332 106.847c-4.557 2.746-7.876 6.916-11.187 11.087-4.441 5.594-10.157 9.312-16.225 12.738-5.295 2.99-9.513 4.998-15.305 6.535-5.707.474-11.53 1.08-17.058-.622-5.021-1.545-19.755-.527-15.47 1.027.888.322 1.789.578 2.7.786l.048-.012c.036-.06.157-.12.405-.185.058-.014.116-.023.176-.03.038-.004.077-.008.116-.01l.12-.01.12-.008.114-.007.112-.007.112-.006.102-.006.094-.005.088-.005.081-.004c.049-.003.098-.001.146.002.595.037.496.273.23.552.128-.11.32-.192.58-.218l.047-.005c.097-.006.194-.006.291 0 .1.002.2.005.3.01.114.006.228.016.342.025.122.009.244.019.366.024l.355.024c.101.005.203.008.305.01l.305.01.29.012c.088.004.176.004.264.006.09.004.181.01.272.017l.259.022.273.028c.086.01.173.018.26.025.086.008.173.018.26.024.095.006.19.01.285.014.086.004.17.008.256.01.086.001.172.002.258.008.072.006.144.012.216.02l.032.003c.083-.029.18-.047.287-.056l.027-.01.051-.012.159-.03.15-.03c.04-.009.079-.02.117-.032.047-.015.053-.02.092-.033a.97.97 0 0 1 .166-.043c.17-.025.204.053.177.177.016.004.025.009.04.013.014 0 .034-.007.046-.005.039.005.061.028.077.058.061.044.061.096.016.154-.017.151-.088.356-.142.54 2.385.135 4.772.279 7.111.68 7.09 1.215 14.471.713 21.432-1.72 6.088-2.128 12.825-3.219 17.72-7.395 7.441-6.348 11.21-11.298 15.81-17.395.79-2.152 1.04-4.508 1.329-6.74zm-70.49 31.818c-.034.036-.075.073-.113.109.005 0 .01.002.014.003a.605.605 0 0 1 .1-.112z" fill="#ffe680"/>
  <path d="M242.434 64.896c.207 2.295-3.344 5.128-2.186 6.435 1.343 1.516 3.07 2.91 3.062-.433-.004-1.843.339-4.707-.876-6.002zM272.822 85.873l-.28.28c.025.07.045.142.067.213.081-.16.153-.324.213-.493zm-.213.493c-.926 1.828-3.16 3.143-5.433 4.294l-.006.068a.874.874 0 0 1-.031.122l-.03.084a1.246 1.246 0 0 1-.081.182 1.459 1.459 0 0 1-.059.1c-.02.032-.042.063-.064.095a3.128 3.128 0 0 1-.147.187l-.074.086a4.207 4.207 0 0 1-.165.176l-.087.084c-.03.029-.061.056-.092.083a2.37 2.37 0 0 1-.204.158l-.097.068c-.027.02-.055.038-.082.057l-.081.058-.076.053a2.03 2.03 0 0 1-.196.126c-.037.022-.075.041-.113.061-.036.019-.073.036-.11.054l-.098.048a25.023 25.023 0 0 0-.202.103l-.102.051a7.916 7.916 0 0 1-.221.11l-.114.053a5.217 5.217 0 0 1-.936.333l-.17.044-.162.043a34.89 34.89 0 0 1-.155.04l-.143.036-.137.037-.132.037-.133.038-.127.038a6.114 6.114 0 0 0-.117.036l-.11.037a6.417 6.417 0 0 0-.11.04l-.105.039a3.65 3.65 0 0 0-.094.038l-.098.041-.091.038-.085.035c-.017.008-.035.015-.052.024l-.054.027c-.045.02-1.228.653-1.278.658-.655.704.276.853.82 1.764 2.073 3.468-.26 7.913 5.052 2.947 3.361-3.142 7.59-9.051 6.382-12.931z" fill="#d6ffea"/>
  <g fill="#65ff80">
    <path d="M157.86 33.8v.001c-.047.05-.126.089-.245.089h-.032c-.026.001-.052.005-.078.008l-.097.012-.105.011-.11.012c-.038.005-.077.01-.115.013l-.12.013-.12.012-.121.012-.124.012-.124.013-.125.013a9.596 9.596 0 0 1-.13.012l-.13.011-.13.012-.127.012a17.32 17.32 0 0 0-.26.027 10.963 10.963 0 0 1-.263.024l-.124.01-.121.014-.117.012-.115.012a7.424 7.424 0 0 0-.317.038l-.107.014-.103.015-.1.015-.096.015-.097.015-.095.013-.095.014-.093.013-.093.012a6.773 6.773 0 0 1-.094.012l-.09.011-.087.01-.08.008-.076.007a5.689 5.689 0 0 0-.073.008l-.075.007-.074.007a2.788 2.788 0 0 1-.293.008c-.023 0-.046 0-.069-.002a1.635 1.635 0 0 1-.069-.005l-.064-.008a2.44 2.44 0 0 1-.137-.025c-.084.02-.165.036-.25.056-9.992 2.401-21.562 8.156-28.673 13.011-6.934 4.734-18.832 18.341-20.902 22.3-1.092 2.088.35-1.083 5.443-2.55 10.413-3.002 4.243-1.097-4.192 10.807-2.685 3.79-9.887 14.682-7.369 12.93 6.09-4.235 12.762-5.818 20.139-3.094l.01-.003a1.385 1.385 0 0 1 .443-.076l.134.001a2.084 2.084 0 0 1 .349.037c.069.01.136.027.203.045a8.01 8.01 0 0 1 .466.15 5.789 5.789 0 0 1 .34.136 13.322 13.322 0 0 1 .547.248l.187.09.182.092c.058.028.116.059.174.088a11.436 11.436 0 0 1 .386.21 8.582 8.582 0 0 1 .397.245l.202.134c.07.046.14.095.209.144l.206.144.208.147.211.148.216.154.214.153.223.163.218.158c.077.055.153.112.23.168a27.812 27.812 0 0 1 .469.348l.236.177.24.182.243.186a22.482 22.482 0 0 1 .506.4 41.788 41.788 0 0 1 .505.417 37.08 37.08 0 0 1 .777.678c.084.075.167.152.25.228l.249.231a20.886 20.886 0 0 1 .471.452l.217.215a23.348 23.348 0 0 1 .422.428 17.935 17.935 0 0 1 .404.425l.188.202.184.201c.062.068.123.137.183.206l.158.177.154.17.084.094c.605-.233 1.404-.774 2.52-1.73 3.396-2.907 8.059-3.089 12.327-2.135l.044-.021a1.18 1.18 0 0 1 .245-.071c.06-.012.122-.018.184-.023a2.728 2.728 0 0 1 .303-.007c.057 0 .114.003.17.007.048.004.096.01.143.013l.156.016.18.025.165.026.168.03c.06.01.12.022.179.033a11.75 11.75 0 0 1 .383.08l.195.047.204.05.197.052.208.057a12.53 12.53 0 0 1 .41.12c.066.019.131.04.197.06.071.021.142.044.213.067a10.718 10.718 0 0 1 .424.148l.203.077.207.08c.073.03.145.06.218.092.069.03.138.059.206.09.071.03.141.064.21.097a37.045 37.045 0 0 1 .412.201l.193.099a10.282 10.282 0 0 1 .37.202 6.978 6.978 0 0 1 .365.215l.153.096c.06.038.12.078.18.118l.163.112.153.109.137.096.129.09.12.085c.072.048.137.104.2.163.33.317.265.46.044.53 1.14.713 2.02 1.423 2.53 2.026 0 0 .663-.186 1.654-.44.023-.03.045-.061.07-.09a2.17 2.17 0 0 1 .198-.199 2.786 2.786 0 0 1 .216-.167 3.372 3.372 0 0 1 .26-.169c.05-.029.1-.056.152-.083l.147-.075.15-.075a3.85 3.85 0 0 1 .352-.154l.174-.068c.062-.024.126-.046.189-.068.067-.024.135-.045.203-.067l.21-.062.206-.06.206-.058c.071-.02.142-.038.214-.057.073-.02.147-.038.22-.057l.22-.055.22-.054.231-.054.232-.052.23-.05.246-.05.24-.045a18.248 18.248 0 0 1 .744-.126l.24-.036.248-.036.25-.033.23-.03a21.543 21.543 0 0 1 .983-.117l.248-.024c.086-.01.173-.017.26-.026l.25-.023.237-.022.244-.024.241-.022a29.863 29.863 0 0 1 .502-.038l.247-.014.232-.014.225-.012.218-.011c.074-.004.149-.007.224-.009h.037c.49-.004.765.214.824.458 1.739-.12 3.372-.1 4.684.158 1.817.357 3.615.806 5.39 1.316.021 0 .041-.002.061-.003a9.864 9.864 0 0 1 .39-.01l.196-.003a16.322 16.322 0 0 1 .417.007c.07.002.14.004.21.008l.195.01a8.418 8.418 0 0 1 .61.047 5.16 5.16 0 0 1 .395.053c.065.01.13.023.193.035l.19.04c.063.013.127.028.19.043l.19.046.188.048.184.046a12.986 12.986 0 0 1 .387.1l.196.055a19.133 19.133 0 0 1 .598.186l.196.066.192.064.188.066.195.068.194.068.182.067.174.061.181.065.188.068.187.068.192.07.193.067.197.067a23.796 23.796 0 0 0 .411.13l.22.065.22.067.214.064.212.065.217.066.217.065a28.842 28.842 0 0 1 .435.136l.205.064.204.067.204.067.206.068.213.07.202.068.204.069.194.067a14.483 14.483 0 0 1 .409.145l.213.081a16.84 16.84 0 0 1 .44.176l.23.094a25.032 25.032 0 0 1 .699.299l.228.103a44.506 44.506 0 0 1 .452.211 15.411 15.411 0 0 1 .442.219l.217.112.215.112.216.112.212.109.21.107.212.108.206.104.2.102.202.103.202.1.198.1.199.101.212.106a45.658 45.658 0 0 1 .425.213l.21.107a24.169 24.169 0 0 0 .41.209l.192.098.192.096.187.094a43.065 43.065 0 0 1 .348.174c.045.021.088.044.132.066.481.247.605.608.494.858l.07.03c2.793 1.147 5.01 3.523 6.79 5.994a1.738 1.738 0 0 0-.54.476c-.05-.152-.097-.304-.15-.457l.115-.63c-.603.697-1.062 1.927-1.67 2.734-.6.385-1.176.846-1.297 1.407l-.163.1a7.71 7.71 0 0 0 .146-.01c-.004.034-.005.067-.005.1a4.158 4.158 0 0 1-.407.072c.087-.05.176-.105.266-.161-.356.02-.729.033-.783.219-.32.816-3.494 3.537-3.928 3.572-.275.014-1.675 1.335-1.95 1.334-.05.003-.368-.002-.068 0 .066 0-.13.008-.196.011l-.064.003c-.118.085-.966.587-1.278.74-.386.187-.787.34-1.193.478-.259.088-.603.18-.757.226-.243.07-6.103 2.509-6.334 2.58-.255.08-.694.141-.953.212-.356.1-3.229 1.414-3.56 1.457-.329.047-.656.098-.985.136-.366.047-.733.098-1.1.132-.343.034-4.116.363-4.422.392-.336.033-.672.075-1.009.11-.604.053-1.234.724-1.84.664-.303-.049-6.77.26-7.27.313-.526.064-2.894-.59-3.42-.536-.516.056-14.984-.534-15.568-.603-.524-.057-4.349-.057-4.903-.162-.534-.102-1.065-.215-1.598-.318a69.087 69.087 0 0 0-1.6-.3 47.527 47.527 0 0 0-1.589-.25c-.57-.08-1.14-.15-1.711-.228-.559-.077-1.118-.148-1.676-.227-.51-.073-1.02-.138-1.53-.21-.434-.07-.872-.118-1.308-.172a31.94 31.94 0 0 1-1.94-.3 52.807 52.807 0 0 1-1.338-.281l-.036.004a.71.71 0 0 1-.099.001l-.059-.002c-.024 0-.047-.002-.07-.003l-.086-.004a4.3 4.3 0 0 1-.428-.029l-.129-.013a7.254 7.254 0 0 1-.458-.061 9.584 9.584 0 0 1-.394-.073 5.53 5.53 0 0 0-.194-.037c-.058-.01-.117-.017-.176-.027l-.15-.02-.169-.022-.185-.026a17.262 17.262 0 0 1-.485-.077 7.992 7.992 0 0 0-.248-.04l-.244-.037c-.076-.01-.151-.021-.227-.03a7.998 7.998 0 0 1-.506-.069c-.087-.013-.175-.025-.261-.04-.084-.016-.167-.03-.25-.047a6.414 6.414 0 0 1-.225-.05c-.066-.017-.132-.033-.197-.051l-.187-.052c-.06-.017-.119-.036-.178-.054a3.247 3.247 0 0 0-.291-.074l-.165-.036a11.224 11.224 0 0 1-.2-.041l-.21-.05a80.57 80.57 0 0 0-.432-.093l-.232-.046-.23-.049a6.297 6.297 0 0 0-.197-.037l-.194-.032a13.138 13.138 0 0 1-.453-.084 2.075 2.075 0 0 0-.199-.031l-.216-.023c-.075-.008-.15-.013-.226-.022a6.404 6.404 0 0 1-.447-.064 4.81 4.81 0 0 1-.235-.045l-.196-.044a7.254 7.254 0 0 1-.216-.05l-.207-.055c-.059-.014-.118-.025-.177-.037a7.796 7.796 0 0 1-.197-.045l-.202-.048-.183-.048a11.633 11.633 0 0 1-.157-.044c-.053-.014-.105-.03-.158-.045a9.91 9.91 0 0 1-.149-.045c-.05-.016-.1-.031-.15-.05a3.36 3.36 0 0 1-.15-.06c-.05-.023-.102-.044-.152-.07-.05-.025-.101-.05-.151-.077-.046-.025-.092-.05-.137-.077a3.482 3.482 0 0 1-.225-.145l-.109-.076-.078-.052-.138-.026a38.052 38.052 0 0 1-1.186-.236 53.814 53.814 0 0 1-1.155-.289 44.14 44.14 0 0 1-1.205-.344c-.372-.113-.74-.236-1.11-.357-.38-.125-.758-.254-1.137-.382-.495-.166-.98-.362-1.463-.557-.388-.152-.777-.302-1.162-.46a30.337 30.337 0 0 1-1.47-.658l-1.357-.65a83.97 83.97 0 0 1-1.44-.706c-.192-.096-.38-.197-.57-.298l-.128-.037c-.287-.091-.573-.182-.854-.292l-.67-.261c-.25-.101-.499-.203-.746-.312-.199-.092-.4-.18-.595-.28-.245-.12-.487-.248-.724-.384l-.563-.318c-.258-.15-.513-.306-.763-.468-.178-.117-.356-.232-.53-.353-.245-.164-.488-.33-.722-.51-.2-.156-1.042-.37-1.2-.503-.046-.04-1.133-.673-1.157-1.492l-.48.268c-.678.38-3.617-2.89-4.111-3.245-.571-.41-.737-1.323-1.3-1.743a70.827 70.827 0 0 1-1.756-1.376c-.51-.401-1.01-.815-1.514-1.225a79.734 79.734 0 0 1-1.55-1.322c-.4-.348-.794-.704-1.189-1.059l.017.044.16.384c.033.067.075.167.113.249.065.149.134.295.2.443.055.117.108.235.162.352.064.138.129.274.192.412.087.197.093.201.196.43.069.16.13.295.2.462.078.181.152.364.223.547.068.186.132.37.196.556.043.128.087.256.133.383.06.16.11.322.167.481.042.127.09.25.14.375.063.146.117.296.18.443.059.126.103.258.165.382.071.144.134.294.21.437.096.192.184.389.278.582l.266.567c.076.155.137.317.216.47.078.164.161.325.244.487.085.173.176.342.264.513a16.297 16.297 0 0 0 .48.867c.091.148.177.3.271.446l.304.456.36.537c.107.16.21.322.32.48.103.144.206.289.312.43.134.185.27.367.404.551.11.15.222.3.333.449.1.133.203.264.307.394a26.745 26.745 0 0 0 .621.714c.129.147.26.294.393.437.155.164.307.328.462.49.146.151.286.308.437.455.157.153.303.317.461.47.17.17.338.344.507.517.165.168.333.335.497.505.195.204.382.416.57.627.12.131.238.263.357.395l.123.05.168.07.156.065.153.066c.055.024.109.05.163.076l.15.075.148.076a6.086 6.086 0 0 1 .305.174c.05.03.1.064.15.096l.135.09a14.322 14.322 0 0 1 .262.179 30.92 30.92 0 0 1 .252.174c.043.03.085.06.127.092l.124.094c.04.03.08.063.12.095l.12.1.123.108.115.103.114.105.113.104.113.104.117.11c.04.036.078.073.116.11l.119.113a14.738 14.738 0 0 0 .232.22l.12.112.121.11.132.115.14.12.146.123.144.12.15.122.152.123.15.12.163.13.165.128a16.32 16.32 0 0 0 .348.262l.173.13.18.132.179.134.181.134.187.137.186.134.193.137.194.138.2.139.196.136.189.134.184.13.191.134.192.132.193.133.199.135.19.129c.063.041.124.083.187.123a12.242 12.242 0 0 0 .376.235l.193.116.191.116.196.12.211.126.214.127a37.703 37.703 0 0 1 .443.264l.238.137.248.14.241.136.238.133c.08.045.161.088.242.132.079.044.159.086.239.128l.242.125.241.122.237.117.237.116.24.12.227.113.222.111.218.106.216.105.216.104.211.1.21.099.21.098c.07.033.142.065.213.097l.217.095c.07.03.14.06.21.087.076.031.152.06.229.09.073.03.147.059.221.087.072.028.145.054.217.081a41.628 41.628 0 0 1 .429.16l.208.08.189.07.183.065.183.067.145.054c.378.132.569.354.613.567 31.786 12.735 76.03 12.108 90.941-2.076.526-.214 1.864-.806 2.311-1.324 1.887-2.186 4.975-3.389 6.614-5.907.488-.75 1.661-1.8 2.215-2.455 1.16 1.167 3.51 2.298 4.49 3.88 1.341 2.16 3.597 3.753 5.785 5.126 2.432 1.527 3.902 3.915 6.322 5.333 2.275 1.334 4.658 2.406 6.807 3.962 2.344 1.696 4.93 1.864 7.27 3.291 1.537.938 2.463.655 2.962-.152.03.278.13.41.366.28 1.372-.752 2.748-1.459 4.051-2.351 2.03-1.391 4.197-2.577 6.525-3.399 1.837-.648 3.066-2.117 4.725-3.117 1.302-.786 2.156-2.438 3.624-2.71 1.153-.798 1.493-.017 1.789-1.364.337 1.032.78.686 1.245 1.614 1.092 2.185 3.092 3.963 5.307 5.147 1.883 1.006 4.056-.393 5.078 1.91.829 1.868 2.928 3.004 3.388 5.074.182.82 1.383 4.919 1.772 2.57.59-3.566-.787-7.36-2.82-10.387-.45-.668-2.142-2.908-.72-1.338.348.385.673.713.987 1.016.033-.045.063-.087.082-.12.028-.076.056-.125.116-.128a.256.256 0 0 1 .103.025c.024.014.046.03.067.048l.062.048.08.062.101.08.123.1.14.118c.055.047.11.092.166.137l.195.163.206.174.219.187c.077.066.154.13.232.194.082.069.164.137.245.207l.242.208c.085.072.17.145.253.218.08.07.161.14.24.214a4.8 4.8 0 0 1 .216.215l.21.225c.07.075.139.15.205.23a2.133 2.133 0 0 1 .27.39c.029.058.07.138.044.203-.015.036-.044.064-.066.096-.034.01.023-.298-.103.032-.013.002.126-.33-.038-.002 1.471 1.603 3.135 4.42 3.778 6.394.223.686.406-3.725.031-4.968-.678-2.247-1.917-3.962-2.608-6.077-.263-.804-3.396-2.514-1.647-2.682 1.957-.189 3.45 2.016 5.088 2.919 1.028.566 3.23 3.415 2.44 1.25-.61-1.676-2.241-4.07-3.049-4.817-.537-.497-1.15-1.724-2.449-2.053-1.975-.501-3.412-2.413-5.24-3.427-1.48-.82-3.124-.872-4.513-1.991-.88-.708-1.976-.897-3.115-.897-.886 0-1.797.116-2.648.191-1.673.149-4.036 1.4-4.078 3.081-.103-.004-.17.013-.213.044v-.038l-.005.04c-.048.038-.063.095-.053.17l.034-.028c-.005.038-.006.077-.01.116-.009-.03-.021-.063-.024-.089-.998.717-2.402.989-3.25 1.974-1.157 1.346-2.758 2.09-4.299 2.844-1.396.683-2.502 1.546-3.642 2.582-1.098.999-2.322 1.256-3.613 1.853-1.283.594-2.757.89-4.143 1.208-1.058.243-1.78.844-1.805 1.772-1.137-1.318-3.721-.998-5.185-2.123-1.943-1.493-3.96-2.845-5.73-4.536-1.901-1.817-4.154-3.223-5.978-5.121-1.717-1.786-3.54-3.304-4.86-5.334-1.488-2.29-3.781-4.467-5.595-6.478.951-2.221 3.139-3.843 5.713-4.992-.086-4.44 5.186-7.657 9.35-7.714 1.526-.02 2.876.327 4.153.84h.014a2.025 2.025 0 0 1 .183-.004 1.3 1.3 0 0 1 .129.008 21.578 21.578 0 0 1 .205.025c.04.006.079.014.118.022l.1.02c.039.008.077.018.116.028l.115.033.108.033.099.03.111.037.121.043.106.04.114.042c.037.013.073.028.11.042l.11.043.107.043.114.046c.041.016.082.034.122.051l.122.055.123.057a13.26 13.26 0 0 1 .244.12 11.517 11.517 0 0 1 .243.134 4.765 4.765 0 0 1 .228.14l.108.07c.031.022.062.042.094.063l.087.059.08.053.076.05.07.046.061.043c.244.173.328.374.304.531.676.347 1.363.68 2.079.963.913.361 1.945.788 3.017 1.189l.133-.016c.086-.008.172-.01.258-.012l.225-.006a4.5 4.5 0 0 1 .248-.001l.224.005c.082 0 .163.007.244.012.08.006.158.014.237.022.079.007.157.018.236.03.075.011.15.027.224.041l.173.034a4.137 4.137 0 0 1 .369.09c.048.015.097.026.146.039l.173.043.146.04c.053.011.105.026.158.04.053.012.105.027.157.042l.158.042.196.061.19.06.18.058a6.377 6.377 0 0 1 .55.221c.08.035.159.07.237.107.085.041.168.085.251.127.087.044.173.09.258.135.08.043.158.091.236.139.759.016 1.468-.078 2.096-.322l.006-.041.006-.046.006-.04.006-.037.005-.036.005-.035c.003-.01.003-.022.005-.033l.004-.03.004-.028c.05-.34.228-.51.403-.528a.298.298 0 0 1 .11.011c-.008-.034.053-.05.25-.045a.881.881 0 0 1 .162.026c.023.005.047.013.071.02l.06.018.054.015.058.016.07.019.072.019c.03.007.058.016.087.024a5.62 5.62 0 0 1 .206.06l.126.04c.045.016.09.03.136.045l.154.048.163.052.166.053.17.053.174.054.187.06.183.059.188.059.198.063.205.062c.068.02.136.043.204.064l.21.066.215.067a37.687 37.687 0 0 0 .42.132 25.585 25.585 0 0 1 .41.136l.197.067.207.07.2.068.185.064.18.063.17.059.16.056.16.057.152.053.14.05c.048.017.097.034.144.053.027.01.054.023.08.035.178.083.29.19.348.299l.038.017a12.928 12.928 0 0 1 .497.252l.247.136a16.04 16.04 0 0 1 .5.283c.078.049.155.099.232.15.075.049.15.1.223.15l.245.17c.082.057.166.114.25.17.096.064.189.133.283.2.102.077.205.153.31.227l.305.21c.101.067.2.139.299.211l.278.2.274.194.248.174.255.182c.087.062.172.127.259.19.084.06.167.122.249.185l.255.199c.089.067.176.136.264.204.083.065.165.132.245.2.471.081.95.105 1.425.052l.01-.184.009-.194a9.524 9.524 0 0 0 .012-.312c.003-.036.003-.073.004-.11 0-.032.003-.065.003-.098s.007-.064.007-.097c0-.027 0-.054.003-.081 0-.024 0-.049.002-.073 0-.037.004-.074.006-.112.003-.033.01-.067.014-.1 0-.01.003-.018.005-.027-.003-.003-.003-.006-.005-.009-.032-.07-.064-.14-.095-.212-.032-.075-.064-.15-.092-.225a5.201 5.201 0 0 1-.073-.204 5.689 5.689 0 0 1-.132-.433 6.816 6.816 0 0 0-.054-.189 10.358 10.358 0 0 1-.13-.477l-.05-.2c-.02-.079-.04-.157-.056-.237-.018-.08-.035-.16-.051-.242-.015-.069-.027-.138-.044-.207-.015-.063-.028-.126-.045-.19a1.88 1.88 0 0 0-.044-.152 6.614 6.614 0 0 0-.06-.162 2.302 2.302 0 0 0-.067-.154l-.091-.197a4.268 4.268 0 0 1-.097-.224c-.029-.073-.058-.146-.084-.22-.026-.071-.052-.143-.075-.215 0-.005-.003-.01-.003-.013a.774.774 0 0 1-.194-.341l-.022-.07-.027-.088-.026-.087-.026-.093c-.01-.034-.021-.067-.03-.101l-.02-.072-.001-.002c-.028-.038-.043-.084-.064-.127v-.002l-.004-.024-.032-.069c.016.017.047.056.065.075v-.005a2.8 2.8 0 0 1-.022-.111v-.002a1.476 1.476 0 0 0-.083-.226c-.012-.026-.017.002-.02.028.013.013.026.022.048.05.01.012-.029-.01-.036-.023-.006-.008-.008-.014-.013-.022 0 .01-.003.023-.003.027.002.035.002.062.022.095.015.023.083.07.058.06-.092-.039-.104-.161-.12-.244a.133.133 0 0 0 .033.05 1.648 1.648 0 0 1-.036-.065v-.003l-.004-.012c-.038-.079-.05-.12-.049-.105-.002-.005-.004-.006-.007-.018a.494.494 0 0 1-.025-.106c-.005-.007-.009-.013-.024-.043.075.044-.026-.011-.086-.12-.03-.055-.02-.133-.009-.2l-.026.008-.016.004-.05.013-.02.004c-.765.179-.93-.594-.166-.777l-.001.003.027-.006a.34.34 0 0 1 .027-.008c.012-.002.037-.01.01-.003l.027-.01c.028-.008-.016.006.006-.002l.024-.01a.42.42 0 0 1 .036-.012c-.59-.949-1.142-1.914-1.5-2.936-.474-1.355-1.066-2.805-1.81-4.157a.933.933 0 0 1-.156-.145l-.019-.022-.047-.052-.052-.056-.054-.06-.06-.065-.064-.07-.069-.076-.073-.08-.077-.083-.083-.09-.085-.091-.094-.101c-.03-.034-.062-.066-.093-.1l-.098-.107-.099-.109-.107-.12c-.034-.04-.068-.08-.1-.12l-.098-.118a13.73 13.73 0 0 1-.1-.123l-.1-.122-.101-.128-.093-.12a16.388 16.388 0 0 1-.093-.124l-.089-.123a7.472 7.472 0 0 1-.18-.261 6.384 6.384 0 0 1-.081-.127c-.026-.04-.05-.082-.075-.123a27.81 27.81 0 0 1-.072-.12l-.07-.114-.068-.114-.067-.112a4.505 4.505 0 0 1-.17-.31l-.024-.053a7.349 7.349 0 0 0-2.202-1.307c-4.855-1.78-8.246-6.292-9.251-10.963l-.016-.065a10.236 10.236 0 0 0-.122-.28c-.02-.043-.037-.086-.056-.129a4.026 4.026 0 0 0-.058-.118l-.06-.118a6.07 6.07 0 0 0-.067-.12l-.072-.126-.075-.131c-.025-.045-.05-.089-.077-.132l-.082-.139-.086-.144-.088-.146a12.74 12.74 0 0 0-.338-.539 9.18 9.18 0 0 0-.085-.127l-.089-.129-.089-.129-.092-.132-.093-.132-.091-.127c-.028-.04-.058-.078-.087-.118l-.084-.112-.083-.112-.082-.111-.077-.103-.074-.097-.08-.105-.085-.109a26.14 26.14 0 0 1-.082-.108l-.085-.113-.079-.105-.078-.103a13.251 13.251 0 0 0-.27-.346c-.02-.022-.038-.045-.056-.067l-.054-.064-.049-.056a2.5 2.5 0 0 0-.047-.05c-.015-.018-.031-.036-.048-.052l-.043-.045-.044-.048-.042-.043-.042-.044a4.31 4.31 0 0 1-.045-.048l-.039-.043-.032-.036-.037-.04-.034-.04a1.974 1.974 0 0 1-.041-.05c.274.321.28-.026.305-.325-1.614-1.597-3.473-2.756-4.873-3.343-7.39-3.1-9.959-.837-14.333-3.272-2.985-1.659-6.91-9.372-7.254-9.3-.05.01-.026.18.084.549 1.06 3.553.372 7.96-3.46 9.862-1.72.855-2.479 1.597-2.668 2.39.183.052.266.29.366.436-.003.039.027.06.053.084.012-.005.041.021.071.054l-.015-.037.02.035c.012.013.109.123.12.142.026.048.046.1.069.15.01.029.023.054.037.078a.168.168 0 0 1 .031.052l.013.02c.001.003.004.004.006.005v.001c.007.006.016.011.02.019.029.048.053.1.079.149l.01.026h.001l-.003-.007c.008-.008.025.014.028.023.037.022.053.035.103.105.055.056.076.133.104.205.001-.009.015.012.021.019l-.015-.013.005.023v.001c.127.591.021.145.036.036.004-.029.034.048.05.073.036.061.04.13.038.198 0-.007 0-.014.006-.014.018 0 .011.034.02.05.002.003.008 0 .01.004.035.075.066.157.094.236a.182.182 0 0 1 .025.03.56.56 0 0 0 .024.031c.048.06.053.098.054.15.005.01.009.014.015.03.013.034.02.07.032.103.002.004.008.006.01.01.01.023.017.046.026.07l.008.043c.023.016.032.046.03.081l.005.01c0 .003.004.001.007 0 .013.026.03.05.038.077.013.037.018.076.027.114 0-.003.003-.011.004-.008.03.063.018.077.037.15.002.007-.002-.026.002-.02.011.015.019.042.026.069l.012.012c.044.044.05.109.05.172l.008.015.01.037c.02.032.032.062.033.107.005.008.009.016.012.025.045.142.038.13.034.123.001 0 .002-.003.013.023.024.057.022.083.022.046.046.081.056.112.05.146l.006.012c.005.04.02.08.014.118-.005.035-.006.08-.02.111-.003.046-.006.093.016.112.009.037.015.075.026.112l.035.078.003.007.001.004c.006.013.018.035.016.036l-.003.002c.006.02.01.038 0 .044.005.02.003.128.002.139-.002.069 0 .111-.002.138l-.002.008.002.04c.033.038-.04-.041.06.178.008.018-.008-.076-.001-.058.044.11.033.069.044.174-.003.029-.008.037-.012.058h.002c.003.002.002.013 0 .01l-.004-.002c-.01.052-.021.095-.043.106 0-.008 0-.016-.002-.022v.007c-.003-.005 0 .006 0 .017l.002-.002v.014c.103.021.085.066.022.122.227.507.444 1.053.632 1.649 1.08 3.408-5.497 6.018-3.784 7.085 3.952 2.463-.05 11 .57 11.73l.006-.006.125-.104.122-.103a4.435 4.435 0 0 0 .223-.205l.118-.114.116-.115.117-.12.109-.114a6.68 6.68 0 0 0 .212-.248 7.143 7.143 0 0 0 .2-.245 5.252 5.252 0 0 0 .179-.235l.089-.121.093-.127.098-.134a39.28 39.28 0 0 0 .182-.246c.031-.041.062-.082.095-.122a5.44 5.44 0 0 1 .2-.233l.094-.098.09-.09a3.861 3.861 0 0 1 .25-.223 4.26 4.26 0 0 1 .165-.125l.071-.05.08-.05.059-.038a2.546 2.546 0 0 1 .218-.129l.04-.023c.033-.019-.033.021-.034.027-.043.206-.013.34.058.425 2.405-2.893 4.749-6.345 5.843-4.285 2.13 4.008 1.962 9.783-2.717 11.858-.974.432-1.882 1.054-2.141 1.52-.26.006-.527.044-.802.121-3.003-.224-5.595-1.595-8.056-3.333-.07-.023-.14-.045-.211-.066a5.705 5.705 0 0 1-.459-.162c-.1-.04-.197-.085-.3-.12a6.952 6.952 0 0 1-.458-.187c-.143-.064-.286-.128-.425-.2-.113-.06-.226-.119-.337-.181-.151-.078-.3-.159-.445-.246-.117-.07-.234-.14-.35-.213-.04-.025-.08-.052-.12-.079l-.11-.026a3.957 3.957 0 0 1-.34-.105l-.16-.053-.177-.06-.174-.06-.179-.065a10.782 10.782 0 0 1-.199-.073l-.191-.073-.196-.07-.215-.079-.222-.083-.22-.08a13.334 13.334 0 0 1-.7-.28 10.012 10.012 0 0 1-.226-.101l-.212-.098a16.454 16.454 0 0 1-.213-.101l-.201-.098-.191-.095-.201-.099-.197-.095-.201-.096a17.818 17.818 0 0 1-.204-.098l-.2-.097-.203-.099a32.408 32.408 0 0 1-.443-.218l-.225-.117a38.547 38.547 0 0 1-.217-.113l-.2-.105-.185-.098-.172-.09c-.307-.162-.467-.37-.512-.565l-.063-.033a18.195 18.195 0 0 1-.536-.3l-.182-.105a27.568 27.568 0 0 0-.357-.202l-.183-.102a10.426 10.426 0 0 0-.356-.187l-.176-.09-.18-.091c-.06-.03-.12-.062-.179-.093a10.757 10.757 0 0 1-.332-.18l-.146-.081a14.967 14.967 0 0 1-.325-.189c-.048-.03-.096-.062-.144-.094l-.13-.085-.148-.098a11.714 11.714 0 0 1-.14-.097l-.131-.092-.133-.092-.146-.101-.144-.1a11.79 11.79 0 0 1-.376-.268l-.112-.08-.121-.088-.131-.095-.144-.103-.156-.114a306.935 306.935 0 0 1-.337-.245 120.77 120.77 0 0 0-.13-.093.787.787 0 0 1-.258-.115 3.43 3.43 0 0 1-.254-.164l-.126-.088-.136-.095-.15-.108c-.047-.034-.094-.07-.142-.103l-.137-.099-.136-.095-.132-.091-.07-.048-.044-.028-.064-.038c-.07-.04-.106-.11-.118-.196l-.004-.003-.108-.09-.093-.077-.085-.074a1.2 1.2 0 0 1-.102-.1c-.054-.064-.188-.274-.158-.347l.001-.003c-.004-.02-.01-.04-.012-.06a.725.725 0 0 1 .002-.087c-4.97-3.534-6.791-10.293-8.189-17.146-1.876-9.2-2.167-18.26-6.55-26.302-4.836-8.875-8.507-10.798-14.613-10.923zm54.763 41.41c-.009.004-.024 0-.037-.003l.006.014.032.001v-.012zm.001.012v.013l.001-.013h-.001zm.044-.12l.002-.008-.02-.007.018.015zm-2.2-5.01l-.006.037.003-.001c.02-.008.015-.021.004-.036zm-.01.073c0 .008 0 .017-.002.025l.009.01c.001.012-.001.016-.002.025l.004.004c.011-.021.003-.043-.009-.064zm.005.06l-.009-.01-.004.04c.004-.004.009-.007.012-.012l.001-.018zm.323.168h-.033l.029.023c.085-.02.054-.024.004-.023zm-.153.48c-.003 0-.006.002-.009.004v.005l.017-.002.001-.001-.01-.007zm.008.007l-.004.005.009-.004-.003-.001h-.002zm-.004.005l-.012.003v.006h.001c.004-.002.007-.006.01-.01zm-.012.003v-.006h-.005l.002.007.003-.001zm-.033.003l-.024.01.029-.005-.005-.005zm.696.165l.014.024.016.017c-.013-.01-.021-.026-.03-.041zm.087.146c.016.038.008.02.002 0h-.002zm-.045 1.091l.009.017a.248.248 0 0 1-.003-.007l-.006-.01zm-.175.186l.01.02c.004 0 .006 0 0-.008-.002-.005-.007-.008-.01-.012zm.644.75l.005.009-.002-.008-.003-.002zm.65 1.593l.015.023h.002c-.003-.01-.008-.025-.017-.023zM76.046 95.602c-.005-.001-.013.001-.018.001.054.119.104.24.147.362.008-.156-.012-.28-.08-.345a.078.078 0 0 0-.049-.019zm1.276 2.596c-.124-.012-.306.007-.56.065.028.107.056.214.081.321-.078-.307.036.112.049.158.034.128.064.256.093.384v.002c.006.039.02.078.032.117l.005.015.046.155c.207-.47.82-1.161.254-1.217zm187.045 4.612v.002h.001v-.002zm-106.363 32.812c.88-.043.98.883.067 1.11.181.123.284.298.274.544a.71.71 0 0 1-.103.285l-.037.06-.047.076a1.517 1.517 0 0 0-.047.082c-.022.037-.045.073-.066.11-.017.027-.035.053-.05.081-.03.052-.06.102-.093.151a1.79 1.79 0 0 1-.104.143 1.332 1.332 0 0 1-.137.147.82.82 0 0 1-.227.141.966.966 0 0 1-.373.08h-.221l-.144-.001h-.173l-.206-.001-.239-.001-.26-.001c-.095 0-.19-.001-.284-.003-.096 0-.192 0-.288-.002-.112 0-.223-.002-.335-.003a51.076 51.076 0 0 1-.756-.009c-.134-.002-.268-.003-.402-.012l-.398-.022-.4-.026a9.924 9.924 0 0 0-.37-.017 39.033 39.033 0 0 1-.355-.014l-.395-.018a56.012 56.012 0 0 1-.923-.052 29.472 29.472 0 0 1-.488-.037l-.488-.044a23.102 23.102 0 0 0-.52-.034l-.541-.031c-.18-.011-.361-.023-.542-.032a42.27 42.27 0 0 1-.562-.035c-.18-.012-.36-.026-.54-.037a61.35 61.35 0 0 1-.506-.038 6.854 6.854 0 0 0-.406-.015c-.127-.002-.254-.002-.38-.012a2.492 2.492 0 0 1-.34-.05 1.313 1.313 0 0 1-.251-.086c-.174-.085-.313-.21-.37-.404-.008-.065-.027-.129-.02-.193a.587.587 0 0 1 .243-.433l.06-.041a.84.84 0 0 1 .122-.064l.047-.02.036-.018c.042-.02.085-.04.13-.055a1.17 1.17 0 0 1 .125-.04l.107-.028c.054-.012.108-.021.163-.025l.095-.011c.054-.006.108-.012.162-.015l.124-.004.143-.005.173-.007a4.08 4.08 0 0 1 .213.001l.213.004.237.006.277.007.29.01c.095.002.19.003.284.002h.303c.1-.002.198-.006.298-.011l.318-.016a21.249 21.249 0 0 0 .637-.046l.33-.03c.113-.011.226-.02.34-.03.12-.012.241-.025.362-.035a17.782 17.782 0 0 0 .739-.075l.41-.045.407-.048.385-.046.387-.05.396-.05.39-.048c.127-.017.253-.035.38-.055l.39-.057c.13-.019.26-.04.39-.058a43.699 43.699 0 0 1 1.224-.164c.138-.017.276-.035.414-.05l.38-.038c.116-.012.23-.024.346-.034l.262-.02c.04-.002.08-.006.12-.014.068-.013.133-.021.194-.024z"/>
    <path d="M75.737 95.316c-.308-.212-.696-.99-.154-.088.924 1.536 2.297 2.832 2.883 4.53.471 1.365 3.316 3.004 1.98 4.216-.58.528-.977 1.855-1.534.437-.622-1.582-1.65-2.993-2.102-4.665-.39-1.443-.463-2.875-1.338-4.198-.173-.262.546-.185.265-.232zM190.764 124.883l-9.657-11.178"/>
  </g>
  <g stroke="#000" stroke-width=".706">
    <path d="M167.446 126.164c-.385-.543-.88-1-1.361-1.457-1.477-1.408-2.915-2.882-4.582-4.06-.28-.198-.633-.825-.87-.57-.23.247-.279.613-.34.933a2.94 2.94 0 0 1-.42 1.055c-.524.81-1.08 1.601-1.68 2.357-.287.36-.721.537-1.096.785-.18.12-.314.297-.409.49M156.688 125.697c-.34-.676-.778-1.951-1.218-2.564-.8-1.114-1.562-2.273-2.538-3.238-.182-.18-.343-.59-.587-.5-.196.074-.235.38-.31.571-.542 1.391-1.009 2.834-1.812 4.098-.243.383-.48.831-.906 1.023a.503.503 0 0 1-.206.048M118.235 121.7c-.505-1.218-1.173-2.376-2.06-3.358-.68-.753-1.554-1.44-1.844-2.421-.108-.365-.365.122-.504.26-1.13 1.134-2.311 2.233-3.634 3.137-.138.094-.276.189-.425.266M94.158 113.494c.2-.078.121-.366.087-.527-.168-.796-.47-1.555-.73-2.323-.19-.563-.245-1.18-.53-1.704-.042-.075.162-.243.07-.21-.512.188-1.037.346-1.54.56-.769.327-1.55.705-2.122 1.326M89.065 110.228c-.177-.39-.273-.813-.363-1.23-.187-.87-.38-1.755-.355-2.647.008-.29.075-.571.16-.858.028-.094.299-.15.107-.06-1.116.522-2.427.755-3.339 1.585-.066.06.308-.256 0 0" fill="#22ad3a" stroke-linecap="round"/>
    <path d="M249.671 102.778c.095-1.03.418-3.783-1.145-1.882-.318.386-.602.8-.922 1.184M245.11 100.734c.106-.993.747-3.417-.993-1.906-.335.29-.671.585-.952.93" fill="#e6e6e6" stroke-linecap="round"/>
    <path d="M149.111 125.135c-.346-.687-.792-1.317-1.24-1.94-.793-1.103-1.127-1.733-2.112-2.67-.19-.18-.401-.668-.613-.503-.173.134-.26.375-.37.567-.676 1.187-1.299 2.434-2.226 3.444-.296.322-.609.694-1.053.799l-.03.004-.058.003" fill="#22ad3a"/>
    <path d="M142.069 125.026c-.346-.686-.793-1.316-1.24-1.939-.794-1.103-1.532-2.27-2.517-3.208-.19-.18-.4-.668-.613-.503-.173.134-.26.375-.37.568-.676 1.187-1.298 2.434-2.226 3.444-.296.321-.609.694-1.053.798l-.03.004-.058.003m.159-.334c-.346-.687-.793-1.317-1.24-1.94-.793-1.103-1.532-2.27-2.517-3.207-.189-.18-.4-.668-.613-.503-.172.134-.259.375-.369.567-.677 1.187-1.299 2.434-2.227 3.444-.295.322-.608.694-1.052.799l-.03.004-.058.003M203.177 109.883c-.555.205-1.162.176-1.743.146-.763-.04-1.515-.187-2.26-.36a12.686 12.686 0 0 1-2.03-.673c-.33-.138-.817-.292-1.068.039-.275.363-.24.854-.208 1.282.078 1.02-.007 2.008-.012 3.032-.004.848-.178 1.901-.022 2.741.032.171.638-.19.851-.192M187.266 121.146c-.557.293-1.067-.555-1.53-.844-1.651-1.035-3.43-3.007-5.173-3.437-.503.172-.659.8-.845 1.253-.72 1.747-1.182 4.635-1.889 6.315M177.455 124.106c-.866-.877-1.92-1.542-2.99-2.144-1.388-.782-2.722-1.66-4.228-2.23-.152-.057-.52-.472-.48-.348.116.368-.107.71-.242 1.039-.32.773-.408 1.612-.615 2.418-.32 1.244-.807 2.495-1.735 3.417" fill="#22ad3a"/>
    <path d="M126.527 123.216c-.287-.726-.68-1.405-1.076-2.077-.692-1.174-1.32-2.41-2.223-3.433-.162-.184-.32-.653-.533-.517-.184.117-.292.349-.42.53-.783 1.12-1.517 2.305-2.534 3.225-.324.293-.67.635-1.122.698l-.03.001-.058-.002M195.229 116.715c-1.043-.224-1.667-.562-2.563-.976-1.313-.606-2.909-.993-3.759-2.161-.427-.587-.788.163-.995.54-.84 1.528-.551 3.285-.603 4.964-.015.53.455 1.802-.043 2.064" fill="#22ad3a"/>
    <path d="M109.135 119.452c-.441-.331-.672-.757-.987-1.123-1.38-1.608-2.662-6.738-3.897-5.018-.74 1.034-2.597 2.614-3.11 3.445M101.14 116.756c-.212-.44-1.337-3.026-1.702-3.828-.408-.9-.75-2.364-1.715-2.583-.41-.094-.672.433-.9.707-.176.212-.358.435-.55.653-.58.657-.906 1.513-1.62 2.129" fill="#22ad3a" stroke-linecap="round"/>
  </g>
  <path d="M154.125 91.208l.058.06.07.011a1.81 1.81 0 0 0-.128-.07zm.129.072c.02.012.04.02.062.035-.024-.018-.03-.02-.048-.034l-.014-.002zm-.469-.192c-.022 0-.053.003-.07.004l.02.01c.017-.002.05-.007.05-.014zm-.314-.048l.09.036.096.018.057-.002-.07-.037c-.057-.008-.115-.01-.173-.016zm-.812-.318l.02.007c.02.005.048.01.085.02l-.015-.013c-.026-.004-.046-.01-.074-.013zm.105.026c.007.007.015.011.023.018a1.07 1.07 0 0 0-.016-.003l.014.005c.067.015.134.032.2.045a1.656 1.656 0 0 0-.22-.065zm-1.735-.546c.02.008.045.027.073.052l.138.021a.657.657 0 0 0-.211-.073zm-.809-.288l-.017-.015-.029-.003-.063.006.108.012zm-1.76-.238a.363.363 0 0 0-.033.053c.214.13.43.26.652.376l.041-.006.008-.001a.564.564 0 0 0-.075-.083c-.22-.18-.388-.3-.592-.34zm-.033.053l-.108-.065c-.074 0-.153.007-.242.027-.044.031-.13.08-.2.123.11.025.219.054.326.088l.02.006a.469.469 0 0 0 .204-.18zm-13.922 1.688l-.027-.001c.156.023.306.047.451.07-.134-.05-.28-.057-.424-.07zM123.41 72.66c.091-.17.176-.33.302-.56.055-.1-.44.718-.301.56zm3.868-5.46l.027-.029c.043-.086.106-.213.143-.267.05-.074.118-.182.192-.28l-.041.029c-.135.178-.22.273-.321.548zm.362-.575c.15-.104.248-.172.28-.177l.014-.03c-.097-.02-.2.084-.294.207zm.28-.177c-.021.055-.046.109-.07.163.077-.115.101-.168.07-.163zm18.725-15.718h.384c.093-.042.186-.089.28-.137-.145 0-.29-.002-.434-.003-.066.06-.156.09-.23.14zm.665-.137l1.592.014c-.08-.078-.174-.102-.264-.135-.432-.325-.885-.104-1.329.121z" fill="#65ff80"/>
  <path d="M213.035 92.59c-1.24 1.075-4.32 4.744-3.742 3.207.698-1.857 1.867-3.591 1.883-5.655.018-2.385-.516-4.987-2.15-6.64-.336-.339-1.775.204-.69-.297 1.633-.754 3.07-2.01 3.985-3.538 1.052-1.754.905-3.975.348-5.842-.387-1.298-.85-2.625-1.647-3.732-.324-.45-1.33-.428-.329-.902 1.873-.886 3.483-2.267 4.898-3.764 1.48-1.565.723-3.94 1.205-5.866.231-.923-.873-3.272-.122-2.771.732.488 1.023 1.584 1.442 2.39 1.476 2.836 3.139 5.838 5.996 7.488 1.413.816 3.096.97 4.692.798" fill="none" stroke="#000" stroke-width=".706"/>
  <ellipse ry="1.663" rx=".648" cy="79.911" cx="240.498"/>
  <path d="M223.77 88.689c3.308-.53-3.385-1.24-4.69-.897-3.42.898-4.477 4.317-7.712 6.064-.778.42 1.331-1.5 1.667-1.266" fill="none" stroke="#000" stroke-width=".706"/>
  <path d="M218.461 87.873c1.337 3.054 3.751 6.534 1.096 9.92-1.826 2.329-4.41 3.131-5.934 4.264m37.288 3.684c-4.24-2.844-8.503-.953-12.267-4.383-5.67-5.167-15.528-1.196-17.262 3.954l.784-.052m10.342-37.397l-.132-.066m9.085 7.861c.562-.81-1.116-1.463-1.8-1.562-.23-.033-.463-.065-.678-.157m24.68 27.791c4.09-3.28 8.237-7.712 8.994-12.98.383-2.663 1.948-4.71-1.058-1.693-3.254 3.268-7.038 6.697-11.64 7.529l.148-.05.248.05" fill="none" stroke="#000" stroke-width=".706"/>
  <path d="M228.804 67.466c6.815.357 13.985 3.563 16.8 10.319 1.988 4.769 2.93 7.89 9.066 11.32 5.45 3.05 7.79 9.995 10.004 15.76 1.325 3.45 2.943 7.984-1.99 3.552-4.917-4.416-12.061-4.002-17.37-7.243-2.605-1.59-5.59-3.536-6.72-6.456" fill="none" stroke="#000" stroke-width=".706"/>
  <path d="M251.646 103.79c-.116.602-.717.981-.827 1.575-.024.132.01.27.092.376" fill="none" stroke="#000" stroke-width=".706"/>
  <ellipse ry=".748" rx=".374" cy="97.087" cx="256.823"/>
  <path d="M258.101 95.932c-.35-.379-.197-1.03-.6-1.345-.436-.341-1.19-.384-1.552.036-.21.244-.331.553-.467.842" fill="none" stroke="#000" stroke-width=".529"/>
  <path d="M213.625 102.058c-7.672-.403-17.345-2.619-24.652-7.223-8.542-5.382-11.566-15.758-14.961-25.113-3.439-9.476-9.563-19.089-19.008-23.435l-1.32-.327-.229-.338m0 0c-25.54 4.183-47.83 23.807-58.503 47.524m33.492 4.166c-6.693-12.309-24.235-14.795-33.576-5.067" fill="none" stroke="#000" stroke-width=".706"/>
  <path d="M153.644 97.65c-3.41-4.75-9.232-6.415-15.266-5.952-2.687.206-12.753 4.38-9.288 5.614m75.933 14.077c-9.062-10.91-23.325-15.28-37.007-16.55-4.657-.433-12.18.896-14.348 2.811" fill="none" stroke="#000" stroke-width=".706"/>
  <path d="M240.487 133.735c-11.307-2.66-26.72-24.678-26.72-24.678m27.504 30.887c-12.657-2.4-33.193-23.372-33.193-23.372" fill="none" stroke="#000" stroke-width=".705"/>
  <path d="M263.805 122.629c-21.072 14.863-22.384 11.218-23.301 11.12m23.65-7.06c-21.073 14.864-21.965 13.352-22.884 13.255" fill="none" stroke="#000" stroke-width=".777"/>
  <path d="M263.805 122.629c1.126-3.614 7.966-3.74 10.812-2.165 3.697 2.045 7.062 3.716 10.693 6.724 2.04 1.69 4.522 7.974 4.399 7.789-2-2.966-5.152-6.284-8.9-6.722m-3.725-2.684c11.668 7.034 8.174 17.877 8.174 17.877" fill="none" stroke="#000" stroke-width=".705"/>
  <path d="M276.552 131.073c7.625 2.874 8.707 12.375 8.707 12.375" fill="none" stroke="#000" stroke-width=".646"/>
  <path d="M274.884 129.198c8.767 7.732 5.757 16.9 5.757 16.9" fill="none" stroke="#000" stroke-width=".802"/>
  <path d="M273.48 133.486c6.348 5.462 7.092 12.507 7.161 12.612" fill="none" stroke="#000" stroke-width=".705"/>
  <path d="M263.967 126.775c2.102 3.47 5.075 8.556 10.126 6.985" fill="none" stroke="#000" stroke-width=".746"/>
  <path d="M213.373 121.282c-9.112 12.043-26.801 19.342-39.273 18.914M74.69 92.267c13.173 33.27 62.178 32.09 89.06 33.93" fill="none" stroke="#000" stroke-width=".704"/>
  <path d="M74.69 92.267c6.962 38.536 53.995 45.682 82.503 46.366" fill="none" stroke="#000" stroke-width=".792"/>
  <path d="M165.333 72.074c-7.626 3.92-8.793 12.184-11.017 19.241m.167-29.014c-8.9 6.835-17.806 16.062-22.093 26.723m90.091-17.198c-2.872.288-5.8-.234-8.467-1.323m6.747 9.79c-2.815.201-5.807-.102-8.07 1.984" fill="none" stroke="#000" stroke-width=".529"/>
  <path d="M210.4 101.449c-6.7-3.961-14.926-6.05-21.841-11.524-8.144-6.449-9.432-18.207-11.08-28.6-1.574-9.938-5.596-20.494-13.55-26.46l-1.16-.558-.154-.374m0 0c-23.93-.37-47.28 15.194-60.757 36.467" fill="none" stroke="#000" stroke-width=".706"/>
  <path d="M101.858 70.401c8.44-6.115 12.673-3.999 12.673-3.999m105.801 40.445c-2.179.811-3.253 2.086-4.698 3.904m-6.383 7.245c-7.316 9.23-25.884 19.382-33.168 18.876" fill="none" stroke="#000" stroke-width=".706"/>
  <path d="M211.501 122.626c-.543.301-2.771-1.826-2.381-1.058m-.662 3.969c-.763-.406-1.258-1.151-1.72-1.852m-.529 4.101c-1.029.765-3.057-2.942-3.175-1.852m0 4.365c-.516-.767-1.264-1.48-2.117-1.852m-.396 3.307c-.711.703-2.453-2.133-1.985-1.19m-1.19 3.572c-.88-.2-1.722-.93-1.852-1.852m-.927 2.91c-.984 1.068-2.115-2.107-1.984-1.455m-1.455 3.043c-.943-.321-1.409-1.256-1.984-1.985m-1.059 3.307c-.589-.549-.96-1.278-1.323-1.984m-1.72 3.307c.016-.313-.757-1.682-1.058-1.19m34.131-26.062c-.527.455-1.134-.109-1.455-.529" fill="none" stroke="#000" stroke-width=".529"/>
  <path d="M242.88 73.458c1.71-6.065-.57-8.892-.57-8.892l.09.105-.237.1c-1.162 5.764-3.191 5.662-3.191 5.662" fill="none" stroke="#000" stroke-width=".706"/>
  <path d="M215.238 111.786c1.908 2.082 3.944 4.029 5.706 6.267 1.637 2.08 2.795 4.868 5.265 5.961 1.583.7 2.231 2.155 3.523 3.192 2.057 1.651 4.262 3.07 6.294 4.769 2.066 1.726 5.918 1.252 7.06 3.459 1.371 2.649-1.166 5.892-3.752 3.757-1.893-1.563-4.14-2.152-6.5-2.93-2.418-.797-4.102-2.915-6.476-3.713-2.498-.84-3.6-3.57-5.92-4.607-2.762-1.232-4.93-3.45-6.555-5.955-1.374-2.118-7.093-4.095-5.127-5.57 1.981-1.485 6.462-2.308 5.755-4.704-.065-.22.838-.304.198.008" fill="none"/>
  <path d="M163.739 126.174c25.834-1.022 39.322-14.63 39.024-16.922M221.734 105.356c-1.532 1.556-1.425 9.14-3.392 9.175" fill="none" stroke="#000" stroke-width=".706"/>
  <path d="M158.84 135.893c-1.278-.123-11.756.714-15.903 1.87" fill="#22ad3a" stroke="#000" stroke-width=".706" stroke-linecap="round"/>
  <g fill="#65ff80">
    <path d="M167.082 128.568c-1.713.026-3.108.311-3.567.726-4.098 4.53-6.666 10.264-7.94 16.248-.64 3.003 1.159 6.358-2.926 2.813-4.8-4.165-10.003-7.616-13.673-12.545-4.13-5.548-10.083-4.227-14.091.876-.859 1.093-1.857 1.51-2.9 1.491l-.085.147-.09.147-.058.098c-.026.045-.053.088-.08.131l-.045.075-.056.093-.045.076-.051.082-.06.09c-.023.035-.05.069-.076.102.002.037.008.07.008.108v.077l.002.12.001.128c0 .09-.005.181-.022.27-.186.995-.564.508-.963-.072a.37.37 0 0 1-.071.017.332.332 0 0 1-.24-.079l-.017-.013a.407.407 0 0 1-.063-.067l-.013-.016-.012-.016a.54.54 0 0 1-.12-.254 1.153 1.153 0 0 1-.308-.188l-.032-.028-.04-.035c-.017-.013-.032-.027-.048-.041-.02-.017.007.005.013.01.009.006-.04-.032-.029-.022l-.037-.03c-.063.09-.12.231-.168.444a.966.966 0 0 0-.013.125v-.116l-.002-.12v-.074a2.796 2.796 0 0 1 .023-.39l-.007-.005-.088-.07-.06-.045a14.74 14.74 0 0 1-.296-.223c-.051-.04-.102-.081-.152-.123-.06-.05-.12-.1-.175-.153a4.765 4.765 0 0 1-.152-.15c-.047-.05-.095-.098-.14-.15a5.594 5.594 0 0 1-.302-.36 7.952 7.952 0 0 1-.474-.682l-.034-.049-.052-.077c-.032-.048-.019-.026-.06-.09a2.096 2.096 0 0 1-.082-.153l-.017-.032-.038-.072-.047-.094c-.028-.054-.056-.107-.081-.162l-.06-.13-.069-.152a8.406 8.406 0 0 1-.08-.186l-.07-.163c-.02-.044-.038-.09-.057-.134a1.648 1.648 0 0 1-.11-.29l-.004-.02a30.373 30.373 0 0 1-2.298-2.42.628.628 0 0 1-.117.246c1.272 2.1 4.969 8.402.571 4.211a17.825 17.825 0 0 1-.697-.713.5.5 0 0 1-.3-.146l-.006-.006-.02-.018-.021-.02-.023-.021-.026-.023-.027-.024-.026-.024-.023-.02-.032-.028-.034-.028-.038-.032-.04-.034-.043-.037-.046-.04-.043-.036-.048-.04-.048-.04a4.317 4.317 0 0 0-.096-.08l-.05-.042-.042-.035-.027-.022-.03-.023c-.132-.11-.1-.156-.017-.183l-.014-.012c-.042-.037-.085-.076-.129-.112a5.681 5.681 0 0 1-.13-.111 7.501 7.501 0 0 0-.14-.12 3.558 3.558 0 0 1-.307-.292l-.098-.104c-.043-.044-.087-.088-.128-.134l-.113-.13-.095-.112-.088-.107-.08-.1-.068-.084a3.675 3.675 0 0 1-.056-.07c-.078.02-.182-.011-.28-.126l-.016-.02-.03-.037-.034-.04-.038-.046-.038-.047-.039-.049-.042-.053-.045-.055-.049-.06-.047-.061-.05-.063a27.663 27.663 0 0 1-.078-.1c-.031.275.25 1.094.996 2.745 1.59 3.517.583 2.89-.905 1.316a.818.818 0 0 1-.319-.15l-.008-.006c-.018-.013-.014-.011-.035-.024a3.824 3.824 0 0 1-.09-.057l-.085-.056a2.027 2.027 0 0 1-.163-.128 4.59 4.59 0 0 1-.075-.064c-.03-.026-.06-.05-.088-.077a1.586 1.586 0 0 0-.065-.058l-.082-.068a23.423 23.423 0 0 0-.096-.08c-.034-.029-.07-.057-.103-.088a1.414 1.414 0 0 1-.116-.116l-.08-.09-.095-.109a3.074 3.074 0 0 1-.212-.257 7.714 7.714 0 0 0-.16-.207 7.126 7.126 0 0 0-.097-.124l-.105-.137-.094-.121-.09-.119-.092-.13-.067-.1-.072-.105a5.27 5.27 0 0 0-.072-.096l-.069-.097a3.425 3.425 0 0 1-.065-.096l-.058-.088-.063-.09a2.108 2.108 0 0 1-.06-.099.99.99 0 0 1-.057-.11c-.013-.03-.027-.061-.038-.092l-.037-.104a1.804 1.804 0 0 1-.032-.114 1.385 1.385 0 0 1-.015-.083c-.467-.558-.82-.97-.81-.884.318 3.443 1.314 5.345 3.367 7.879 1.115 1.375 2.159 2.38 3.28 3.21l.24.066c.092.025.185.048.278.069.101.021.202.046.302.07a10.06 10.06 0 0 0 .507.105 6.457 6.457 0 0 0 .486.066l.227.023c.085.007.17.014.254.023l.224.024c.091.007.182.022.272.04.08.014.158.033.236.052a2.392 2.392 0 0 1 .444.133c.07.027.139.06.207.091.069.033.136.069.202.107a2.465 2.465 0 0 1 .352.242l.127.1.117.095c.05.042.095.088.138.136l.084.099c.036.04.067.082.098.125.028.042.053.087.08.13l.068.114a11.594 11.594 0 0 1 .135.237.719.719 0 0 1 .063.433c-.023.06-.04.125-.07.182.607.271 1.243.551 1.939.857 3.518 1.544 5.864-1.685 8.744-2.85-.004-.012-.01-.023-.012-.035-.04-.193.045-.373.165-.515.057-.059.123-.108.19-.154.043-.028.085-.058.127-.087a.957.957 0 0 0 .099-.076l.095-.09.095-.093a.779.779 0 0 1 .238-.166c.126-.06.211-.08.267-.073.14.021.089.23.009.462l.133-.02.016-.05a1.366 1.366 0 0 1 .095-.208 1.045 1.045 0 0 1 .3-.328 1.05 1.05 0 0 1 .637-.18c.062 0 .123.007.184.018l.007.002.015-.003c.01 0 .087.003.092.012l.011.016.068.017.065.016a1.4 1.4 0 0 1 .16.052l.08.03.091.038c.04.017.078.037.116.057l.067.035.075.038.092.053.065.04c.358.232.55.498.621.747l.097.074.193.15.24.19c.09.075.18.151.266.23l.252.226c.099.085.196.173.294.26.086.077.171.154.262.226a7.501 7.501 0 0 0 .458.334 6.11 6.11 0 0 1 .393.279c.088.067.167.14.224.237.009.016.012.033.019.05l.038.026.118.081.108.075c.085.033.173.073.264.124l.052.03.056.034c.027.016.054.032.08.05l.067.044c.231.16.275.286.227.464 3.869 2.58 10.865 7.813 14.17 10.863.883.815 1.403 1.449 1.753 1.916l.012-.003.109-.028.123-.03.126-.027.111-.023.12-.023.12-.02c.034-.007.067-.012.101-.017l.093-.019.079-.015c.052-.026.102-.052.16-.075.034-.014.067-.027.102-.038l.082-.027.088-.03.096-.031.117-.039.084-.027.047-.015.059-.02c.036-.013.073-.024.11-.036l.028-.01.075-.023.046-.018a1.221 1.221 0 0 1 .439-.088l.028.002a.966.966 0 0 1 .36.027 39.615 39.615 0 0 1 3.337-2.306c5.43-3.399 9.545-8.315 12.857-13.773 2.363-3.892 8.307-9.765 1.722-13.512-1.942-1.104-4.67-1.501-6.872-1.469zm-45.717 10.243l-.033.045-.026.032c.016.096.026.2.032.309.115-.195.114-.317.027-.386z"/>
    <path d="M125.048 136.889c-.114.128-.286.163-.44.224-.203.08-.338.331-.557.33a.744.744 0 0 0-.44.17c-.022.017-.177.093-.084.103"/>
    <path d="M125.23 136.654c-.067.006-.13.073-.182.235-.168-.565-.86.047-1.19.255-.533.337-1.014.75-1.565 1.034-.614.316-1.42.737-1.472 1.433-.053.714-.684 1.628-.187 2.144.42.435 1.37.188 1.843-.2 1.02-.842 2.097-1.606 2.94-2.69.318-.41.571-1.032.343-1.528-.077-.167-.324-.7-.53-.683zM115.325 134.772c-.139.593-.014 1.227.258 1.741.122.23.112.646.271.773.342.273.288.726.555 1.03.23.263.463.964.805.714.392-.289.05-.908-.087-1.272-.371-.994-.652-2.263-1.595-2.729-.11-.055-.48-.368-.34-.39.102-.014.052-.018.133.133z"/>
  </g>
  <g fill="#40d659">
    <path d="M156.932 138.67c-1.193-.234-2.24-.288-3.53-.087-.965.15-.856 1.27-1.224 2.078-.613 1.345-1.12 2.712-1.712 4.08-.444 1.028.499 1.998 1.24 2.632.735.629 1.615.99 2.273 1.666.371.381.969.883 1.018-.06.054-1.06.079-2.12.346-3.16.301-1.172.459-2.351.701-3.53.202-.982.49-1.958 1.106-2.764.415-.543-.706-1.043-.078-.648M131.99 140.13c-2.252.36-4.613.898-6.727 1.906-2.328 1.11-4.476 3.062-7.127 2.757-2.01-.232-1.252.067-.116 1.33 1.661 1.849 4.285 1.813 6.83 1.229 2.62-.601 4.079-3.515 6.56-3.93 2.103-.35 3.9 1.743 5.353 3.286 1.91 2.026 3.951 3.983 6.284 5.494.974.63 3.341 1.606 1.499-.04-2.114-1.891-4.156-3.931-5.655-6.28-1.484-2.326-3.574-4.15-6.03-5.486-.267-.146-.56-.266-.87-.267zM114.724 133.359c-.049 0-.049.124.025.456.242 1.088.285 2.265.9 3.189.241.362.635 1.633.589 1.605-.895-.54-1.47-1.41-2.315-2.013-.691-.494-1.555-.773-2.104-1.404-.48-.552-1.877-2.153-1.646-1.67.368.765.719 1.536 1.148 2.275.467.806.923 1.616 1.164 2.515.305 1.136 1.407 1.187 2.349 1.57.816.333 1.752.136 2.637.426.69.227 2.404.033 2.671.014l-.054-.159c-.36-.806-.861-1.509-1.356-2.224-.497-.72-1.386-1.083-1.833-1.813-.514-.839-1.2-1.536-1.805-2.346-.166-.221-.308-.422-.37-.421zm5.418 6.963l.003.007c.043-.008.04-.01-.003-.007zm.003.007l-.016.004c-.254.044-.054.135.077.173z"/>
  </g>
  <g fill="none" stroke="#000">
    <path d="M120.206 140.506c-1.072-1.972-2.744-3.491-3.93-5.408-.394-.635-1.099-1.02-1.49-1.643-.101-.163-.65-.903-.539-.612.395 1.033.833 2.044 1.153 3.11.316 1.051.596 2.117.97 3.15m31.499 16.464c-1.503-2.174-4.214-2.867-6.19-4.465-2.836-2.296-5.334-4.97-8.247-7.197-.974-.744-1.441-1.432-2.788-.406-2.417 1.841-5.022 3.705-7.971 4.356-2.352.52-6.711-3.198-6.711-3.198m38.029 15.903c-7.334-5.17-16.563-15.818-21.002-20.515m0 0c-5.078-.11-12.404 6.323-15.343 4.721m-10.799-12.072c1.195 12.608 11.27 12.179 11.27 12.179" stroke-width=".706"/>
    <path d="M119.551 140.851c-7.67-4.49-9.915-8.607-9.915-8.607l.28.281m53.599-3.231c-4.828 4.715-9.258 15.174-8.233 20.835m-2.121-11.363a32.432 32.432 0 0 0-2.124 4.78c-.307.884-.77 1.771-.74 2.717" stroke-width=".706"/>
    <path d="M155.282 150.129c-3.416-2.368-19.167-16.892-22.858-17.57m.411-.127c-5.36 2.3-9.652 3.958-12.523 7.792-.937 1.252-3.985.295-5.906-.496v.187c-7.857-4.116-7.483-7.483-7.483-7.483h-.187m5.519 6.174c-1.777-4.865-2.526-5.894-2.526-5.894" stroke-width=".706"/>
    <path d="M172.061 136.796c-.06 1.435.094 2.868.094 4.303m-.967-1.403c-.096 1.057-.094 2.12-.094 3.18m-.935-.561c-.064.92-.178 1.864-.561 2.713m-.842-.468c-.535 1.196-.192 2.719-1.123 3.742" stroke-width=".353" stroke-linecap="round"/>
    <path d="M177.972 132.234c-2.4 9.578-10.01 18.939-18.302 24.867a43.309 43.309 0 0 1-5.68 3.459" stroke-width=".706"/>
  </g>
</svg>
