<?xml version="1.0" encoding="UTF-8" standalone="no"?>
<svg
   xmlns:dc="http://purl.org/dc/elements/1.1/"
   xmlns:cc="http://creativecommons.org/ns#"
   xmlns:rdf="http://www.w3.org/1999/02/22-rdf-syntax-ns#"
   xmlns:svg="http://www.w3.org/2000/svg"
   xmlns="http://www.w3.org/2000/svg"
   xmlns:sodipodi="http://sodipodi.sourceforge.net/DTD/sodipodi-0.dtd"
   xmlns:inkscape="http://www.inkscape.org/namespaces/inkscape"
   width="1024pt"
   height="816"
   viewBox="0 0 361.244 215.9"
   version="1.1"
   id="svg3017"
   sodipodi:docname="dragon-no-color.svg"
   inkscape:version="0.92.2 5c3e80d, 2017-08-06">
  <metadata
     id="metadata3023">
    <rdf:RDF>
      <cc:Work
         rdf:about="">
        <dc:format>image/svg+xml</dc:format>
        <dc:type
           rdf:resource="http://purl.org/dc/dcmitype/StillImage" />
        <dc:title />
      </cc:Work>
    </rdf:RDF>
  </metadata>
  <defs
     id="defs3021">
    <inkscape:path-effect
       effect="simplify"
       id="path-effect3427"
       is_visible="true"
       steps="1"
       threshold="0.0125895"
       smooth_angles="360"
       helper_size="0"
       simplify_individual_paths="false"
       simplify_just_coalesce="false"
       simplifyindividualpaths="false"
       simplifyJustCoalesce="false" />
    <inkscape:path-effect
       effect="simplify"
       id="path-effect3231"
       is_visible="true"
       steps="1"
       threshold="0.0125895"
       smooth_angles="360"
       helper_size="0"
       simplify_individual_paths="false"
       simplify_just_coalesce="false"
       simplifyindividualpaths="false"
       simplifyJustCoalesce="false" />
    <inkscape:path-effect
       effect="simplify"
       id="path-effect3134"
       is_visible="true"
       steps="1"
       threshold="0.0125895"
       smooth_angles="360"
       helper_size="0"
       simplify_individual_paths="false"
       simplify_just_coalesce="false"
       simplifyindividualpaths="false"
       simplifyJustCoalesce="false" />
  </defs>
  <sodipodi:namedview
     pagecolor="#ffffff"
     bordercolor="#666666"
     borderopacity="1"
     objecttolerance="10"
     gridtolerance="10"
     guidetolerance="10"
     inkscape:pageopacity="0"
     inkscape:pageshadow="2"
     inkscape:window-width="1438"
     inkscape:window-height="795"
     id="namedview3019"
     showgrid="false"
     inkscape:zoom="0.35355339"
     inkscape:cx="380.01334"
     inkscape:cy="532.55727"
     inkscape:window-x="15"
     inkscape:window-y="36"
     inkscape:window-maximized="0"
     inkscape:current-layer="layer2" />
  <g
     inkscape:groupmode="layer"
     id="layer2"
     inkscape:label="line art"
     style="display:inline"
     sodipodi:insensitive="true">
    <path
       inkscape:connector-curvature="0"
       style="fill:#65ff80;stroke-width:1"
       d="m 154.125,91.208 0.058,0.06 0.07,0.01101 a 1.81,1.81 0 0 0 -0.128,-0.07 z m 0.129,0.072 c 0.02,0.01199 0.04,0.02 0.062,0.035 -0.024,-0.01799 -0.03,-0.02 -0.048,-0.034 l -0.014,-0.0021 z m -0.469,-0.192001 c -0.022,0 -0.053,0.003 -0.07,0.004 l 0.02,0.01 c 0.017,-0.0021 0.05,-0.007 0.05,-0.014 z m -0.314,-0.048 0.09,0.036 0.096,0.01799 0.057,-0.0021 -0.07,-0.037 c -0.057,-0.008 -0.115,-0.01 -0.173,-0.01601 z m -0.812,-0.318 0.02,0.007 c 0.02,0.005 0.048,0.01 0.085,0.02 l -0.015,-0.01299 c -0.026,-0.004 -0.046,-0.01 -0.074,-0.01299 z m 0.105,0.02601 c 0.007,0.007 0.015,0.01101 0.023,0.01799 a 1.07,1.07 0 0 0 -0.016,-0.003 l 0.014,0.005 c 0.067,0.015 0.134,0.032 0.2,0.045 a 1.656,1.656 0 0 0 -0.22,-0.065 z m -1.735,-0.545999 c 0.02,0.008 0.045,0.027 0.073,0.052 l 0.138,0.02101 a 0.657,0.657 0 0 0 -0.211,-0.073 z m -0.809,-0.288002 -0.017,-0.015 -0.029,-0.003 -0.063,0.006 0.108,0.01199 z m -1.76,-0.237998 a 0.363,0.363 0 0 0 -0.033,0.053 c 0.214,0.13 0.43,0.260001 0.652,0.375999 l 0.041,-0.006 0.008,-0.0011 a 0.56400002,0.56400002 0 0 0 -0.075,-0.083 c -0.22,-0.180001 -0.388,-0.3 -0.592,-0.339 z m -0.033,0.053 -0.108,-0.065 c -0.074,0 -0.153,0.007 -0.242,0.027 -0.044,0.031 -0.13,0.08 -0.2,0.123 0.11,0.025 0.219,0.054 0.326,0.088 l 0.02,0.006 a 0.46899999,0.46899999 0 0 0 0.204,-0.180001 z m -13.922,1.687999 -0.027,-0.0011 c 0.156,0.02299 0.306,0.047 0.451,0.071 -0.134,-0.05 -0.28,-0.058 -0.424,-0.07 z m -11.095,-18.757 c 0.091,-0.17 0.176,-0.329999 0.302,-0.559999 0.055,-0.1 -0.44,0.718 -0.301,0.559999 z m 3.868,-5.46 0.027,-0.029 c 0.043,-0.086 0.106,-0.213 0.143,-0.267001 0.05,-0.074 0.118,-0.181999 0.192,-0.279998 l -0.041,0.029 c -0.135,0.178001 -0.22,0.273 -0.321,0.548 z m 0.362,-0.575001 c 0.15,-0.103999 0.248,-0.171997 0.28,-0.176998 l 0.014,-0.03 c -0.097,-0.02 -0.2,0.084 -0.294,0.206998 z m 0.28,-0.176998 c -0.021,0.055 -0.046,0.109 -0.07,0.162999 0.077,-0.114998 0.101,-0.168 0.07,-0.162999 z m 18.725,-15.718 h 0.384 c 0.093,-0.042 0.186,-0.089 0.28,-0.137001 -0.145,0 -0.29,-0.002 -0.434,-0.003 -0.066,0.06 -0.156,0.09 -0.23,0.140001 z m 0.665,-0.137001 1.592,0.014 c -0.08,-0.078 -0.174,-0.102 -0.264,-0.134999 -0.432,-0.325001 -0.885,-0.104001 -1.329,0.120999 z"
       id="path2773" />
    <path
       style="fill:none;stroke:#000000;stroke-width:0.70599997"
       inkscape:connector-curvature="0"
       d="m 213.03501,92.590001 c -1.24,1.075 -4.32,4.744001 -3.74201,3.206999 0.698,-1.856999 1.86701,-3.590999 1.883,-5.654998 0.018,-2.385002 -0.51599,-4.987001 -2.14999,-6.640002 -0.336,-0.339 -1.775,0.204002 -0.69,-0.297 1.63299,-0.753999 3.07,-2.01 3.98499,-3.538 1.05201,-1.754 0.90501,-3.975 0.34801,-5.842 -0.387,-1.297998 -0.85,-2.625 -1.647,-3.731998 -0.324,-0.450001 -1.33001,-0.428001 -0.32901,-0.902002 1.87301,-0.886 3.48301,-2.267 4.89801,-3.764 1.48,-1.564999 0.723,-3.94 1.205,-5.865999 0.231,-0.923 -0.873,-3.272 -0.122,-2.771 0.732,0.487999 1.02299,1.584 1.442,2.39 1.476,2.835999 3.13899,5.837999 5.99599,7.487998 1.41301,0.816002 3.09601,0.970003 4.69201,0.798002"
       id="path2899" />
    <ellipse
       style="stroke:none;stroke-width:1"
       ry="1.663"
       rx="0.648"
       cy="79.910995"
       cx="240.498"
       id="ellipse2901" />
    <path
       style="fill:none;stroke:#000000;stroke-width:0.70599997"
       inkscape:connector-curvature="0"
       d="m 223.77,88.689 c 3.30801,-0.53 -3.385,-1.239998 -4.68999,-0.896998 -3.42,0.897999 -4.47701,4.317 -7.71201,6.063999 -0.77799,0.419999 1.331,-1.5 1.66701,-1.266"
       id="path2903" />
    <path
       style="fill:none;stroke:#000000;stroke-width:0.70599997"
       inkscape:connector-curvature="0"
       d="m 218.461,87.873002 c 1.33701,3.053998 3.75101,6.533999 1.096,9.919999 -1.82599,2.328999 -4.40999,3.130999 -5.93399,4.263999 m 37.288,3.684 c -4.24,-2.844 -8.503,-0.953 -12.267,-4.383 -5.67,-5.166998 -15.52801,-1.196 -17.26201,3.954 l 0.784,-0.052 m 10.34201,-37.396998 -0.132,-0.066 m 9.085,7.861001 c 0.562,-0.81 -1.11601,-1.463 -1.8,-1.561999 -0.23,-0.033 -0.463,-0.065 -0.678,-0.157001 m 24.68,27.790997 c 4.09,-3.279997 8.237,-7.711998 8.994,-12.979998 0.383,-2.662999 1.948,-4.709999 -1.058,-1.693 -3.254,3.268001 -7.03801,6.697001 -11.64,7.529002 l 0.148,-0.05 0.248,0.05"
       id="path2905" />
    <path
       style="fill:none;stroke:#000000;stroke-width:0.70599997"
       inkscape:connector-curvature="0"
       d="m 228.80401,67.466001 c 6.815,0.357 13.985,3.562999 16.8,10.318999 1.988,4.769001 2.93,7.890002 9.066,11.320002 5.45,3.049998 7.79,9.994998 10.004,15.759998 1.325,3.45 2.943,7.984 -1.99,3.552 -4.91701,-4.416 -12.061,-4.002 -17.37,-7.243 -2.605,-1.589998 -5.59,-3.536 -6.72,-6.456"
       id="path2907" />
    <path
       style="fill:none;stroke:#000000;stroke-width:0.70599997"
       inkscape:connector-curvature="0"
       d="m 251.64601,103.79 c -0.116,0.602 -0.71701,0.981 -0.827,1.575 -0.024,0.132 0.01,0.27 0.092,0.376"
       id="path2909" />
    <ellipse
       style="stroke:none;stroke-width:1"
       ry="0.74800003"
       rx="0.37400001"
       cy="97.086998"
       cx="256.823"
       id="ellipse2911" />
    <path
       style="fill:none;stroke:#000000;stroke-width:0.52899998"
       inkscape:connector-curvature="0"
       d="m 258.10101,95.932001 c -0.35,-0.379 -0.197,-1.029999 -0.6,-1.344999 -0.436,-0.341 -1.19,-0.384 -1.552,0.036 -0.21,0.243999 -0.331,0.553001 -0.46701,0.842"
       id="path2913" />
    <path
       id="path2917"
       d="m 213.62501,102.058 c -7.672,-0.403 -17.345,-2.619 -24.65201,-7.222999 C 180.43101,89.453001 177.40701,79.077 174.012,69.722 170.573,60.246001 164.449,50.633 155.004,46.287001 L 153.684,45.96 153.455,45.622001 m 0,0 c -25.54,4.183 -47.83,23.807 -58.503001,47.524001 M 128.444,97.312001 C 121.751,85.003 104.209,82.517002 94.867999,92.245"
       inkscape:connector-curvature="0"
       style="fill:none;stroke:#000000;stroke-width:0.70599997" />
    <path
       id="path2919"
       d="m 153.644,97.650001 c -3.41,-4.750001 -9.232,-6.415 -15.266,-5.952 -2.687,0.205999 -12.753,4.38 -9.288,5.614 M 205.02301,111.389 C 195.961,100.479 181.69801,96.109002 168.016,94.839002 163.359,94.406001 155.836,95.735 153.668,97.650001"
       inkscape:connector-curvature="0"
       style="fill:none;stroke:#000000;stroke-width:0.70599997" />
    <path
       style="fill:none;stroke:#000000;stroke-width:0.70504737"
       inkscape:connector-curvature="0"
       d="m 240.48681,133.73478 c -11.30688,-2.659 -26.71996,-24.67812 -26.71996,-24.67812 m 27.50448,30.887 c -12.65769,-2.39891 -33.19317,-23.372 -33.19317,-23.372"
       id="path2921" />
    <path
       style="fill:none;stroke:#000000;stroke-width:0.77735996"
       inkscape:connector-curvature="0"
       d="m 263.80451,122.62883 c -21.07155,14.86345 -22.3832,11.21774 -23.30092,11.11964 m 23.65009,-7.05872 c -21.07266,14.86345 -21.96464,13.35087 -22.88346,13.25391"
       id="path2923" />
    <path
       style="fill:none;stroke:#000000;stroke-width:0.70504737"
       inkscape:connector-curvature="0"
       d="m 263.80451,122.62883 c 1.12699,-3.61377 7.96618,-3.73925 10.8122,-2.16507 3.69771,2.04529 7.0619,3.71643 10.69357,6.72448 2.04023,1.6894 4.52141,7.97357 4.3983,7.78877 -1.99882,-2.96584 -5.15149,-6.28417 -8.89956,-6.7222 m -3.72456,-2.68409 c 11.66724,7.03476 8.17322,17.8772 8.17322,17.8772"
       id="path2925" />
    <path
       style="fill:none;stroke:#000000;stroke-width:0.64629346"
       inkscape:connector-curvature="0"
       d="m 276.55174,131.0735 c 7.62484,2.87345 8.70706,12.37442 8.70706,12.37442"
       id="path2927" />
    <path
       style="fill:none;stroke:#000000;stroke-width:0.80221736"
       inkscape:connector-curvature="0"
       d="m 274.88419,129.19817 c 8.76638,7.73174 5.75696,16.89962 5.75696,16.89962"
       id="path2929" />
    <path
       style="fill:none;stroke:#000000;stroke-width:0.70504737"
       inkscape:connector-curvature="0"
       d="m 273.48076,133.4861 c 6.34676,5.46172 7.091,12.50675 7.16039,12.61169"
       id="path2931" />
    <path
       style="fill:none;stroke:#000000;stroke-width:0.74572331"
       inkscape:connector-curvature="0"
       d="m 263.96678,126.77531 c 2.10179,3.47004 5.07539,8.55532 10.12616,6.98456"
       id="path2933" />
    <path
       id="path2937"
       d="m 213.37301,121.282 c -9.112,12.043 -26.801,19.342 -39.27301,18.914 M 74.689999,92.267001 C 87.862999,125.537 136.868,124.357 163.75,126.197"
       inkscape:connector-curvature="0"
       style="fill:none;stroke:#000000;stroke-width:0.704" />
    <path
       id="path2939"
       d="M 74.689999,92.267001 C 81.651999,130.803 128.685,137.949 157.193,138.633"
       inkscape:connector-curvature="0"
       style="fill:none;stroke:#000000;stroke-width:0.792" />
    <path
       id="path2941"
       d="m 163.739,126.174 c 25.83401,-1.022 39.32201,-14.63 39.02401,-16.922 m 18.971,-3.896 c -1.532,1.556 -1.425,9.14 -3.392,9.175 m -40.37,17.703 c -2.942,11.745 -13.72001,23.162 -23.98201,28.326"
       inkscape:connector-curvature="0"
       style="fill:none;stroke:#000000;stroke-width:0.70599997" />
    <path
       id="path2943"
       d="m 165.333,72.074001 c -7.626,3.92 -8.793,12.184001 -11.017,19.241 m 0.167,-29.014 c -8.9,6.835 -17.806,16.062 -22.093,26.722999 m 90.091,-17.197999 c -2.87199,0.287999 -5.8,-0.234 -8.467,-1.323001 m 6.74701,9.790001 c -2.815,0.200999 -5.807,-0.101999 -8.07,1.984"
       inkscape:connector-curvature="0"
       style="fill:none;stroke:#000000;stroke-width:0.52899998" />
    <path
       style="fill:none;stroke:#000000;stroke-width:0.7056284"
       inkscape:connector-curvature="0"
       d="M 210.40016,101.44896 C 203.70042,97.487759 195.47415,95.399233 188.55875,89.925242 180.41505,83.476053 179.12697,71.718102 177.47946,61.325324 175.90474,51.38684 171.8831,40.831371 163.92901,34.86432 l -1.15977,-0.557307 -0.15394,-0.373546 m 0,0 c -23.93107,-0.370979 -47.28071,15.193067 -60.75777,36.466729"
       id="path2945" />
    <path
       id="path2949"
       d="m 101.858,70.401 c 8.44,-6.114999 12.673,-3.998999 12.673,-3.998999 M 220.33201,106.847 c -2.179,0.811 -3.253,2.086 -4.698,3.904 m -6.38301,7.245 c -7.31599,9.23 -25.884,19.382 -33.168,18.876"
       inkscape:connector-curvature="0"
       style="fill:none;stroke:#000000;stroke-width:0.70599997" />
    <path
       id="path2951"
       d="m 211.50101,122.626 c -0.543,0.301 -2.771,-1.826 -2.381,-1.058 m -0.662,3.969 c -0.763,-0.406 -1.25801,-1.151 -1.72,-1.852 m -0.529,4.101 c -1.029,0.765 -3.05701,-2.942 -3.175,-1.852 m 0,4.365 c -0.51601,-0.767 -1.264,-1.48 -2.117,-1.852 m -0.396,3.307 c -0.71101,0.703 -2.453,-2.133 -1.985,-1.19 m -1.19,3.572 c -0.88001,-0.2 -1.722,-0.93 -1.85201,-1.852 m -0.92699,2.91 c -0.98401,1.068 -2.115,-2.107 -1.984,-1.455 m -1.45501,3.043 c -0.94299,-0.321 -1.40899,-1.256 -1.984,-1.985 m -1.059,3.307 c -0.58899,-0.549 -0.95999,-1.278 -1.32299,-1.984 m -1.72,3.307 c 0.016,-0.313 -0.757,-1.682 -1.058,-1.19 m 34.131,-26.062 c -0.52701,0.455 -1.134,-0.109 -1.45501,-0.529"
       inkscape:connector-curvature="0"
       style="fill:none;stroke:#000000;stroke-width:0.52899998" />
    <path
       id="path2953"
       d="m 242.88001,73.458002 c 1.71,-6.065002 -0.57,-8.892001 -0.57,-8.892001 l 0.09,0.105 -0.23699,0.1 c -1.16201,5.764001 -3.19101,5.662002 -3.19101,5.662002 m -36.324,39.449997 c -0.555,0.205 -1.162,0.176 -1.74299,0.146 -0.763,-0.04 -1.51501,-0.187 -2.26001,-0.36 a 12.686,12.686 0 0 1 -2.031,-0.673 c -0.32999,-0.138 -0.81599,-0.292 -1.06699,0.039 -0.275,0.363 -0.24101,0.854 -0.208,1.282 0.078,1.02 0.456,2.008 0.45099,3.032 -0.004,0.848 -0.24399,1.703 -0.088,2.543 0.032,0.171 0.109,0.405 0.322,0.403 m -0.42099,-0.141 c -0.99601,0.056 -2.04101,-10e-4 -2.937,-0.415 -1.313,-0.606 -2.90901,-0.993 -3.75901,-2.161 -0.42699,-0.587 -0.78799,0.163 -0.995,0.54 -0.84,1.528 -0.59799,3.332 -0.65,5.011 -0.015,0.53 0.268,1.334 -0.22999,1.596 -0.55701,0.293 -1.114,-0.368 -1.57601,-0.657 -1.652,-1.035 -3.05,-3.831 -4.89299,-3.203 -0.50301,0.172 -0.659,0.8 -0.84501,1.253 -0.72,1.747 -1.00099,3.701 -2.03499,5.288 -0.15,0.23 -0.297,0.561 -0.60201,0.607"
       inkscape:connector-curvature="0"
       style="fill:none;stroke:#000000;stroke-width:0.70599997" />
    <path
       id="path2955"
       d="m 177.455,124.106 c -0.866,-0.877 -1.92,-1.542 -2.98999,-2.144 -1.38801,-0.782 -2.72201,-1.66 -4.22801,-2.23 -0.152,-0.057 -0.52,-0.472 -0.48,-0.348 0.116,0.368 -0.107,0.71 -0.242,1.039 -0.32,0.773 -0.408,1.612 -0.615,2.418 -0.32,1.244 -0.807,2.495 -1.735,3.417"
       inkscape:connector-curvature="0"
       style="fill:none;stroke:#000000;stroke-width:0.70599997" />
    <path
       id="path2957"
       d="m 167.446,126.164 c -0.385,-0.543 -0.88,-1 -1.361,-1.457 -1.477,-1.408 -2.915,-2.882 -4.582,-4.06 -0.28,-0.198 -0.633,-0.825 -0.87,-0.57 -0.23,0.247 -0.279,0.613 -0.34,0.933 a 2.94,2.94 0 0 1 -0.42,1.055 c -0.524,0.81 -1.08,1.601 -1.68,2.357 -0.287,0.36 -0.721,0.537 -1.096,0.785 -0.18,0.12 -0.314,0.297 -0.409,0.49 m 0,-0.655 c -0.34,-0.676 -0.778,-1.296 -1.218,-1.909 -0.8,-1.114 -1.562,-2.273 -2.538,-3.238 -0.182,-0.18 -0.343,-0.59 -0.587,-0.5 -0.196,0.074 -0.235,0.38 -0.31,0.571 -0.542,1.391 -1.009,2.834 -1.812,4.098 -0.243,0.383 -0.48,0.831 -0.906,1.023 a 0.50300001,0.50300001 0 0 1 -0.206,0.048 M 118.235,121.7 c -0.505,-1.218 -1.173,-2.376 -2.06,-3.358 -0.68,-0.753 -1.554,-1.44 -1.844,-2.421 -0.108,-0.365 -0.365,0.122 -0.504,0.26 -1.13,1.134 -2.311,2.233 -3.634,3.137 -0.138,0.094 -0.276,0.189 -0.425,0.266 m -0.59,-0.03 c -0.441,-0.216 -0.754,-0.625 -1.069,-0.991 -1.38,-1.608 -2.662,-6.738 -3.897,-5.018 a 54.221002,54.221002 0 0 1 -2.329,3.021 c -0.255,0.307 -0.767,0.486 -1.015,0.038 -0.427,-0.771 -0.662,-1.63 -1.027001,-2.432 -0.408,-0.9 -0.585,-2.298 -1.549,-2.517 -0.41,-0.094 -0.672,0.433 -0.9,0.707 -0.709,0.85 -1.505,1.895 -2.705,1.968 m -0.529,-0.836 c 0.2,-0.078 0.121,-0.366 0.087,-0.527 -0.168,-0.796 -0.47,-1.555 -0.73,-2.323 -0.19,-0.563 -0.245,-1.18 -0.53,-1.704 -0.042,-0.075 0.162,-0.243 0.07,-0.21 -0.512,0.188 -1.037,0.346 -1.54,0.56 -0.769,0.327 -1.55,0.705 -2.122,1.326 -0.11,0.12 -0.211,0.25 -0.295,0.39 m -0.033,-0.778 c -0.177,-0.39 -0.273,-0.813 -0.363,-1.23 -0.187,-0.87 -0.38,-1.755 -0.355,-2.647 0.008,-0.29 0.075,-0.571 0.16,-0.858 0.028,-0.094 0.299,-0.15 0.107,-0.06 -1.116,0.522 -2.427,0.755 -3.339,1.585 -0.066,0.06 -0.397,0.173 -0.308,0.256 m 164.704011,-4.496 c 0.095,-1.03 0.418,-3.783 -1.145,-1.882 -0.318,0.386 -0.60201,0.8 -0.922,1.184 M 245.11,100.734 c 0.106,-0.992999 0.74701,-3.416998 -0.99299,-1.906 -0.335,0.290002 -0.671,0.585002 -0.952,0.93 M 158.84,135.893 c -1.278,-0.123 -11.756,0.714 -15.903,1.87"
       inkscape:connector-curvature="0"
       style="fill:none;stroke:#000000;stroke-width:0.70599997" />
    <path
       id="path2959"
       d="m 172.061,136.796 c -0.06,1.435 0.094,2.868 0.094,4.303 m -0.967,-1.403 c -0.096,1.057 -0.094,2.12 -0.094,3.18 m -0.935,-0.561 c -0.064,0.92 -0.178,1.864 -0.561,2.713 m -0.842,-0.468 c -0.535,1.196 -0.192,2.719 -1.123,3.742"
       inkscape:connector-curvature="0"
       style="fill:none;stroke:#000000;stroke-width:0.35299999;stroke-linecap:round" />
    <path
       id="path2961"
       d="m 149.515,125.672 c -0.346,-0.687 -0.792,-1.317 -1.24,-1.94 -0.793,-1.103 -1.531,-2.27 -2.516,-3.207 -0.19,-0.18 -0.401,-0.668 -0.613,-0.503 -0.173,0.134 -0.26,0.375 -0.37,0.567 -0.676,1.187 -1.299,2.434 -2.226,3.444 -0.296,0.322 -0.609,0.694 -1.053,0.799 l -0.03,0.004 -0.058,0.003"
       inkscape:connector-curvature="0"
       style="fill:none;stroke:#000000;stroke-width:0.70599997" />
    <path
       id="path2963"
       d="m 142.069,125.026 c -0.346,-0.686 -0.793,-1.316 -1.24,-1.939 -0.794,-1.103 -1.532,-2.27 -2.517,-3.208 -0.19,-0.18 -0.4,-0.668 -0.613,-0.503 -0.173,0.134 -0.26,0.375 -0.37,0.568 -0.676,1.187 -1.298,2.434 -2.226,3.444 -0.296,0.321 -0.609,0.694 -1.053,0.798 l -0.03,0.004 -0.058,0.003 m 0.159,-0.334 c -0.346,-0.687 -0.793,-1.317 -1.24,-1.94 -0.793,-1.103 -1.532,-2.27 -2.517,-3.207 -0.189,-0.18 -0.4,-0.668 -0.613,-0.503 -0.172,0.134 -0.259,0.375 -0.369,0.567 -0.677,1.187 -1.299,2.434 -2.227,3.444 -0.295,0.322 -0.608,0.694 -1.052,0.799 l -0.03,0.004 -0.058,0.003"
       inkscape:connector-curvature="0"
       style="fill:none;stroke:#000000;stroke-width:0.70599997" />
    <path
       id="path2965"
       d="m 126.527,123.216 c -0.287,-0.726 -0.68,-1.405 -1.076,-2.077 -0.692,-1.174 -1.32,-2.41 -2.223,-3.433 -0.162,-0.184 -0.32,-0.653 -0.533,-0.517 -0.184,0.117 -0.292,0.349 -0.42,0.53 -0.783,1.12 -1.517,2.305 -2.534,3.225 -0.324,0.293 -0.67,0.635 -1.122,0.698 l -0.03,0.001 -0.058,-0.002"
       inkscape:connector-curvature="0"
       style="fill:none;stroke:#000000;stroke-width:0.70599997" />
    <path
       style="fill:none;stroke:#000000;stroke-width:0.70599997"
       id="path3007"
       d="m 155.282,150.129 c -3.416,-2.368 -19.167,-16.892 -22.858,-17.57 m 0.411,-0.127 c -5.36,2.3 -9.652,3.958 -12.523,7.792 -0.937,1.252 -3.985,0.295 -5.906,-0.496 v 0.187 c -7.857,-4.116 -7.483,-7.483 -7.483,-7.483 h -0.187 m 5.519,6.174 c -1.777,-4.865 -2.526,-5.894 -2.526,-5.894"
       inkscape:connector-curvature="0" />
    <path
       style="fill:none;stroke:#000000;stroke-width:0.70599997"
       id="path3009"
       d="m 120.206,140.506 c -1.072,-1.972 -2.744,-3.491 -3.93,-5.408 -0.394,-0.635 -1.099,-1.02 -1.49,-1.643 -0.101,-0.163 -0.65,-0.903 -0.539,-0.612 0.395,1.033 0.833,2.044 1.153,3.11 0.316,1.051 0.596,2.117 0.97,3.15 m 31.499,16.464 c -1.503,-2.174 -4.214,-2.867 -6.19,-4.465 -2.836,-2.296 -5.334,-4.97 -8.247,-7.197 -0.974,-0.744 -1.441,-1.432 -2.788,-0.406 -2.417,1.841 -5.022,3.705 -7.971,4.356 -2.352,0.52 -4.037,-1.62 -5.49,-3.091 -0.45,-0.457 -1.188,-0.726 -0.8,0.22 m 37.608,15.576 c -7.334,-5.17 -16.563,-15.818 -21.002,-20.515 m 0,0 c -5.078,-0.11 -12.404,5.902 -15.343,4.3 m -10.799,-11.651 c 1.195,12.608 11.27,12.179 11.27,12.179"
       inkscape:connector-curvature="0" />
    <path
       style="fill:none;stroke:#000000;stroke-width:0.70599997"
       id="path3011"
       d="m 119.551,140.851 c -7.67,-4.49 -9.915,-8.607 -9.915,-8.607 l 0.28,0.281 m 53.599,-3.231 c -4.828,4.715 -9.258,15.174 -8.233,20.835 m -2.121,-11.363 a 32.433001,32.433001 0 0 0 -2.124,4.78 c -0.307,0.884 -0.77,1.771 -0.74,2.717 0.003,0.106 0.01,0.225 0.085,0.308"
       inkscape:connector-curvature="0" />
  </g>
</svg>
