<svg xmlns="http://www.w3.org/2000/svg" width="1024pt" height="816" viewBox="0 0 361.244 215.9">
  <path d="M242.51 64.76c.05 0 .086.005.122.01l.01-.009a1.737 1.737 0 0 0-.132 0zm.122.01l-.38.288v.031a.659.659 0 0 0 .022.195l.018.052c.002.007.012.044.019.051a.25.25 0 0 0 .01.03l.002.003.004.006c0-.002-.002-.005 0-.004s.002.004.003.006l.014.022-.006-.001.005.018c.001.003.002.01.003.008v-.011c.003.019.003.038.01.057l.033.124c.007.013.01.029.012.044-.139-.008-.207-.008-.192-.141a.344.344 0 0 0-.019.117v.18c0 .008 0 .024-.002.029a.443.443 0 0 0-.016.102c-.004.031-.014.06-.018.092-.005.033-.014.065-.016.098-.005.041-.016.082-.014.124 0 .024 0 .048-.004.072a.88.88 0 0 0-.01.072.432.432 0 0 0-.02.1c0-.008-.005.013-.007.02l-.01.051v.01c-.006.03-.016.062-.02.094-.006.025-.011.051-.018.076-.015.054-.023.109-.032.164-.005.047-.013.094-.011.142v.19c0 .016 0 .033-.002.048-.002.007-.024.09-.013.045.008-.027-.02.043-.029.061a3.058 3.058 0 0 1-.094.198c-.012.026-.024.052-.041.074a.575.575 0 0 1-.049.062c-.024.03-.048.063-.074.093-.042.05-.086.098-.121.153-.02.03-.039.064-.063.09-.03.04-.055.08-.082.12-.022.035-.046.068-.065.104.017-.036-.014.017-.015.018 0 .002-.03.037-.029.04-.017.027-.036.051-.053.076a.546.546 0 0 1-.046.062c-.034.03-.056.081-.083.117-.017.028-.039.052-.056.08a2.399 2.399 0 0 1-.086.125c-.017.022-.031.05-.053.068-.024.03-.054.059-.078.092-.025.034-.05.066-.074.101-.017.029-.037.067-.052.09a.298.298 0 0 1-.043.06c-.016.021-.036.04-.053.064-.012.003-.057.068-.073.08-.012-.001-.049.048-.057.045-.036.027-.067.06-.1.092-.025.027-.046.055-.077.076-.02.015-.042.03-.064.044h-.004c-.025.001-.049.02-.073.02a.9.9 0 0 0-.14.05c-.037.018-.01.002-.044.019l-.007.001c.004-.002.012-.006.008-.006-.006 0-.011.004-.016.008l-.014.003-.006.003-.024.011c.004-.002.01-.005.005-.006-.015-.002-.029.014-.042.022a.28.28 0 0 0-.075.064c0 .001 0 .003-.002.004l-.018.02a.115.115 0 0 0-.024.047.444.444 0 0 0-.029.088c.192.059.387.107.575.177a.232.232 0 0 1-.031.051l-.02.02c-.078.08-.115.056-.277.076H240.298l.003.002.045.025c.003.001-.005-.005-.007-.007.003 0 .005-.003.008-.002.014.005.025.016.039.022.001 0 .003-.002.005-.001.005.001.01.005.015.007-.009-.029.047.03.064.044a.685.685 0 0 0 .059.045c.004-.003-.012-.008-.01-.012.008-.007.018.03.025.019.002 0 .005-.002.007 0 .031.021.055.053.088.072l.017.01h.005c.027.016.048.038.073.056.007.005.032.024.034.023.003-.001-.005-.006-.006-.01h.004c.017.015.03.032.05.044v-.003c.016.008.03.023.044.033.001 0 .003-.002.004-.001l.015.01c.018.017.03.033.05.044.004.002.007.001.009.003.015.01.028.025.045.032.04.033.082.06.12.094.025.02.051.037.074.059.01.008.017.017.026.025.003.003.007.004.01.006.036.037.072.073.11.109.02.018.074.075.1.078.003.002.018.016.023.018 0 0 .003-.002.004-.001.013.009.02.024.033.035.02.025.04.052.053.082.02.03.038.059.06.086.021.03.047.055.068.084.002-.016.015.02.022.031.038.064.014.03.038.058l.013.016.02.025h.003c.015.017.027.037.048.047l.017.022c.002.003.008.002.01.006.019.021.03.05.048.071.03.043.061.083.095.122l.021.025.006.004c.001 0 0-.003.002-.002.018.019.03.045.05.062.032.032.062.065.094.096.002 0 .003-.002.004-.001.027.02.054.053.077.076l.037.032c.008.006.017.011.025.018.008.008.015.017.024.024l.006.002c.022.02.043.042.065.064v.032l.018.103a.553.553 0 0 0 .088.15c.039.042.085.078.132.11.012-.006.023.01.034.018.04.045.085.082.142.102a.387.387 0 0 0 .199 0c.124-.03-.045-.159-.2-.238l.011-.004c.018-.009.031-.02.047-.03.117.005.234.01.351.013v-.011-.013h.004c.004 0-.005-.054-.007-.07a.668.668 0 0 0-.09-.233c-.022-.04-.05-.078-.078-.116a1.23 1.23 0 0 1 .012-.039l.048-.124c.007-.016.018-.033.03-.06a.944.944 0 0 0 .058-.133c.016-.038.037-.074.05-.113.022-.054.037-.11.05-.166l.033-.138c.01-.038.023-.076.035-.114l.032-.11.03-.118c.01-.042.02-.083.033-.124.012-.047.024-.095.031-.143.007-.033.015-.066.025-.098l.035-.14c.012-.045.028-.088.039-.133.014-.055.026-.112.033-.169.006-.05.013-.102.016-.153.006-.051.015-.102.017-.153.006-.06.013-.119.01-.179v-.14-.113a1.81 1.81 0 0 0-.008-.147c-.004-.035-.01-.062-.008-.096V68.752v-.11-.126c0-.06 0-.12-.005-.179-.005-.06-.014-.12-.022-.18a2.151 2.151 0 0 0-.04-.185c-.014-.04-.017-.081-.029-.12-.007-.046-.015-.091-.021-.137-.006-.01-.001 0-.003-.03-.002-.027-.004-.054-.01-.08-.001.004 0 .017-.001.012-.004-.03.003-.06 0-.09l-.001-.13a1.08 1.08 0 0 0-.014-.144c-.007-.04-.007-.083-.013-.124a2.792 2.792 0 0 1-.015-.13c-.008-.05-.02-.099-.03-.149l-.04-.143a2.265 2.265 0 0 0-.056-.177c-.025-.055-.046-.112-.073-.166v-.002c-.012-.053-.023-.107-.04-.158-.012-.035-.027-.068-.04-.101-.005-.03-.007-.06-.014-.089-.008-.01 0 0-.006-.033-.007-.04-.007-.015-.01-.055a.715.715 0 0 0-.043-.155 1.454 1.454 0 0 0-.047-.126 1.186 1.186 0 0 1-.036-.138c-.014-.057-.025-.114-.04-.17l-.01-.077a.94.94 0 0 0-.08-.27c-.07-.14-.124-.202-.27-.22zm-.295.679l-.003-.01c0 .003.004.011.002.01zm-.008-.02a.008.008 0 0 0-.002-.003c0 .004.004.01.002.007-.003-.003-.004-.008-.005-.013-.019-.027-.03-.049-.025-.054l-.049.062c.03.01.058.015.086.02-.005-.005-.005-.013-.007-.02zm-2.094 4.87c0-.002.003.001.005.002h-.002l-.003-.002zm.006.002c.01.004.027.016.019.008-.001-.002-.006-.007-.004-.006.015.007.027.019.04.028h-.06c.01-.002.026-.003.015-.013-.001-.007-.008-.01-.013-.015l.003-.002zm2.124.354l.003.002-.002.01-.002-.001-.004-.002.004-.009zm.074.658l-.025.017c-.014.008-.024.021-.037.03 0 0 0-.002-.002-.002l-.005.002c.003-.007.01-.011.013-.017.01-.014.03-.022.045-.03h.011zm.281 1.183c.032 0 .063.002.095.003l-.025.031c-.024-.012-.048-.026-.07-.034zM272.767 85.881c-.019-.001-.03 0-.033.006a2.976 2.976 0 0 1-.306.406c-.038.035-.063.08-.097.118-.01.012-.026.02-.037.032l-.034.04a1.15 1.15 0 0 0-.149.204c-.033.028-.042.077-.069.11-.003.002 0-.005 0-.008-.021.005-.058.093-.034.037-.024.01-.038.05-.057.068 0 .002-.003-.002-.005-.001-.018.009-.043.043-.05.052l-.033.035c-.193.016-.332.04-.332.074v-.062c.006-.128-.003.024-.03.042-.044.116-.003.016-.01.013-.01-.003-.01.018-.014.027a1.5 1.5 0 0 0-.017.042c.003-.006.006-.014.003-.015-.013-.004-.012.023-.018.034-.021.034-.026.074-.046.108-.011.02.02-.043.024-.066.005-.024-.022.041-.031.063l-.035.09a1.086 1.086 0 0 0-.051.293c0-.011 0-.023.003-.035 0-.004.003-.019 0-.014-.004.013-.006.034-.01.058-.041.05-.083.1-.127.148-.023.022-.041.049-.062.073-.007-.006-.003-.032.017-.088.006-.014.008-.027.02-.039-.045.043-.085.085-.127.13-.042.026-.082.091-.126.12-.06.063-.129.115-.19.177-.07.073-.14.146-.207.222-.055.061-.109.123-.177.17-.084.06-.171.117-.25.184-.09.072-.177.147-.27.213a4.166 4.166 0 0 0-.316.246c-.09.075-.18.148-.274.22-.09.066-.178.134-.266.203-.087.069-.172.14-.251.218a2.208 2.208 0 0 1-.18.154c-.065.052-.125.11-.194.156-.072.053-.141.108-.216.156-.078.062-.153.128-.229.193-.056.055-.11.113-.17.163-.053.034-.107.065-.154.106-.069.056-.048.04-.113.095-.024.022-.051.039-.072.064-.077.087-.008.01-.01.008-.007-.01-.014.02-.049.048-.005.004.007-.01.012-.016l-.025.02c-.042.04-.09.072-.134.113-.054.046-.106.094-.16.141-.057.05-.117.097-.173.147-.06.055-.127.102-.195.147-.08.054-.158.111-.238.164-.079.054-.15.118-.224.178-.06.05-.114.105-.175.153-.066.052-.13.105-.194.158-.06.044-.12.088-.182.13a3.248 3.248 0 0 0-.215.157c-.061.048-.119.103-.189.14-.071.039-.14.084-.21.123-.055.022-.108.048-.162.072a1.103 1.103 0 0 1-.175.083c-.07.027-.134.068-.204.095a1.69 1.69 0 0 1-.208.08c-.084.032-.172.048-.256.081-.064.016-.125.041-.188.058-.042.017-.111.06-.154.066-.003 0 .003-.004.004-.006-.07.028-.133.056-.202.084-.076.03-.15.062-.227.09-.076.037-.152.071-.231.098-.08.036-.162.065-.238.107-.047.028-.097.05-.146.076-.068.039-.141.07-.214.101-.083.038-.17.066-.252.107a.358.358 0 0 1-.013.007.51.51 0 0 0-.342.165c-.037.016-.074.032-.113.04-.08.03-.159.06-.24.085-.092.035-.187.066-.275.113-.06.031-.12.06-.18.089l-.003.002c-.034-.004-.068.017-.101.044l.006-.003-.012.008-.008.006c.003-.001.003-.003.005-.005a.57.57 0 0 0-.06.036l.008.013a.54.54 0 0 0-.046.057l.046-.055c.248.47.136.656.364.564 0 .005.004.01.005.016h.008a.112.112 0 0 1-.007-.017l.01-.004.007.02h-.01c.004.005.005.01.007.014h.008l.03.089c.064.134.098.195.041.118l.013.039.006.006c.005.005.013.018.02.021v-.004c.024.034.04.074.07.105l-.011-.019c.004.005.008.01.01.015-.006-.011-.012-.025-.02-.035l-.01-.011a.086.086 0 0 1 .008.013.04.04 0 0 1-.007-.01c-.003-.006 0-.003 0-.003v-.003l-.004-.007c-.02-.08-.071-.222-.103-.315l.022-.005c.266.492.19.48.115.376.034.055.06.12.1.172.004-.011 0-.006.014.01.054.069.016.032.07.112.03.047.057.096.09.142.003.006.031.067.06.075.016.016.049.078.04.057l-.01-.02c-.008-.03-.053-.143.02.046l.02.042c-.003-.008-.01-.031-.006-.023.035.071.062.146.108.212.06.102.123.203.195.296.019.024.035.05.054.075.003.003.008 0 .012.003.021.025.026.063.05.086.014.016.018.041.036.054.01.007-.02-.044-.014-.034.035.048.026.057.056.098-.005-.015-.024-.055-.014-.044.013.015.015.036.024.054v-.008c.008.015.01.032.02.046l-.006-.021.015.037c.023.054.046.09.064.142.025.02 0 0 .027.077.024.068.055.135.084.201.02.02-.003-.003.03.06.036.07.008.006.041.078.026.059.056.114.084.171.036.094.074.189.114.282.045.118.103.23.14.352.05.164.08.333.131.497.042.128.082.256.116.386.023.072.043.144.063.217a.677.677 0 0 1-.012.024l-.022.05c-.192 1.011.053-.203-.046.156l-.01.038a1.498 1.498 0 0 0-.031.198c-.006.015-.003.186-.004.096a.89.89 0 0 0 .34.702c.056.043.12.073.181.11.278.105.33.055.77.01.032-.003.058-.028.088-.04.008-.003.018-.003.026-.005.07-.052.145-.096.219-.14a.13.13 0 0 0 .019-.013c.036-.031.058-.052.083-.075l.063.018c.055.012.057-.098.09-.145.03-.065.062-.147.093-.214.025-.056.005-.038.025-.054.027.015.012-.07.037-.072.005 0-.005.018-.003.014.02-.028.043-.09.01-.009.01-.01.024-.034.04-.05a.297.297 0 0 0-.03.053c-.006.018.019-.012.042-.04l-.015.019c.026-.008.027-.01.034-.024v.002c.022.006.085-.092.048-.036.045-.031.087-.066.127-.103.013-.012.022-.028.038-.036.01-.005-.013.017-.019.026.045-.029.07-.078.109-.111.006-.005-.017.014-.012.02.005.004.013-.008.018-.012.07-.071.045-.097.07-.07.042-.03.08-.068.118-.104.067-.044.232-.347.11-.131.017-.027.025-.063.05-.08.025-.015-.046.047-.045.076 0 .026.032-.042.046-.064.022-.037.04-.078.062-.115.003-.004-.004.01-.005.013 0 .002 0 .004-.003.006l-.01.023.007-.011c-.003.005-.005.009-.004.014.004.019.026-.067.031-.049.006.02-.02.036-.03.054-.002.005-.012.022-.007.017.047-.052.068-.098.04-.044.05-.033.094-.081.137-.123.006-.006.023-.026.018-.019-.013.02-.066.06-.043.056a1.098 1.098 0 0 0 .042-.04l.075-.073c.015-.013-.027.029-.038.046-.005.008.015-.011.021-.018.084-.093.111-.142.075-.08.029-.012.042-.047.069-.061.005-.003-.012.016-.006.016s.053-.041.058-.045c.09-.072.155-.169.228-.257.006-.007.016-.013.023-.02l.048-.06c.032-.04.068-.077.103-.116.033-.03.065-.062.099-.092.017-.016.066-.066.052-.048-.015.021-.034.039-.052.058-.004.006-.018.02-.012.016.062-.033.113-.085.178-.113.068-.053.133-.111.207-.156.067-.05 0 .003.095-.078.042-.036-.006.013.048-.04.02-.017.036-.038.056-.055.006-.005-.01.013-.014.02-.079.083-.022.02.025-.014.01-.008-.016.02-.025.03-.01.01-.043.033-.03.028.013-.006.023-.017.034-.026-.063.048-.124.092.057-.036.018-.012.03-.023.048-.037l.041-.036c-.23.202.032-.02.086-.06.043-.031.077-.07.117-.105l.01-.004s.003.002.004 0c.024-.02.046-.044.068-.065.033-.032.054-.051.085-.087.006-.007.08-.11.104-.124.003-.002 0 .005-.003.008a2.2 2.2 0 0 0 .216-.283c.055-.089.055-.078.12-.172.022-.008.071-.1.103-.11-.003.006-.013.017-.008.016.026-.003.14-.14.156-.149-.003.005-.013.019-.008.015.022-.023.042-.049.064-.072.018-.02.006-.003.003.004l.083-.108.034-.049.044-.071c.007-.011-.025.046-.017.035.03-.047.086-.144.012-.016l.022-.023c.01-.002-.043.052-.019.032.018-.015.03-.035.047-.05.004-.004-.005.009-.007.013.129-.128-.033.043.094-.084.047-.047.09-.096.137-.143a5.97 5.97 0 0 0 .222-.255c.053-.059.116-.112.163-.179.056-.074.107-.143.154-.216 0 .005-.008.018-.005.014.042-.049.05-.077.085-.103.08-.084.15-.174.212-.271.058-.069-.028.03 0 .008.016-.013.027-.031.04-.047a2.05 2.05 0 0 0 .128-.166c.053-.08.101-.16.152-.236.088-.167.035-.063.118-.226.044-.079.069-.167.107-.248a3 3 0 0 0 .12-.387v.002l.01-.027c.052-.175-.027.085.038-.109-.019.07.049-.124.058-.136l-.015.04c-.003.006-.013.025-.008.02.003-.002.003-.004.006-.01-.005.006-.009.011-.007.017.007.023.036-.09.04-.059.04-.058.074-.103.12-.163.003.008.082-.074.1-.092.04-.038.078-.078.118-.115.046-.037-.006.014-.014.031-.009.009-.04.03-.028.026.023-.004.225-.21.13-.1.042-.038.087-.076.128-.116.016-.016.03-.034.047-.049.006-.004-.007.013-.011.019l.047-.047a1.91 1.91 0 0 0 .239-.327c.015-.03.05-.098.047-.089-.012.025-.033.065-.024.05.075-.13.036-.063.026-.047 0 0 0 .002.003.002.021.003.115-.223.045-.067 0 .003.004-.003.006-.004.053-.065.115-.131.163-.208.079-.115.131-.243.186-.37.045-.094.092-.19.122-.292a3.11 3.11 0 0 0 .095-.42.891.891 0 0 1 .06-.197h-.002c.012-.038-.162-.12-.385-.21l.037-.067c.037-.05.065-.106.101-.157.026-.025.047-.056.072-.082.013-.032.034-.059.05-.09a.754.754 0 0 0 .038-.087c.003-.007 0-.016.003-.022 0-.003.003-.004.006-.006.004-.01.004-.023.007-.034.003-.01.006-.03.012-.04.01-.017.003.014.008-.012.003-.012 0-.025 0-.037v-.007c0-.002.006-.002.006-.004.003-.006.003-.02.005-.026l.007-.01c.003-.006.003-.012.005-.017 0-.017.01-.03.016-.044.005-.013.006-.024.013-.035.005-.009.004-.004.008-.014l-.102.046c-.008.011-.02.036.04-.076.006-.011-.013.022-.015.035 0 .006.007-.012.012-.018.032-.05-.005.015.055-.1.055-.083.09-.177.134-.267.039-.088.077-.178.108-.269l.01-.023c-.006.018-.006.02.016-.04-.003.008 0 .012.038-.084.033-.109.068-.217.085-.33.014-.068.031-.136.047-.204l.013-.054-.022.057c-.006.013-.022.053-.019.039.031-.135.052-.21.068-.26-.006.01-.01.013-.073.128-.012.015-.02.032-.034.045-.418.402-.132.06.212-.572.004-.008-.006.035 0 .028a.786.786 0 0 1-.033.183l-.014.032c0 .003.003-.01 0-.005l-.003.01c-.014.033-.03.067-.017.05.003-.003.003-.007.005-.01l-.01.03c0 .01.009-.014.02-.049.038-.073.067-.211.081-.27.003-.009-.003.02-.005.03 0 .008-.01.019-.005.025.009.007.008-.022.012-.033.027-.077.022-.064.047-.154a1.88 1.88 0 0 0 .036-.185l.02-.046c.004-.008-.03.073-.006.024.052-.087.082-.182.125-.279.056-.166.109-.334.11-.512 0-.035-.163-.058-.369-.073.005-.012.008-.026.014-.038.024-.056.03-.116.056-.171.008-.016.008-.034.013-.05.003-.009.009-.017.011-.025.012-.007.006-.018.01-.027 0-.004.005-.004.008-.006l.008-.008-.018.008c.068-.082.133-.167.196-.253a1.61 1.61 0 0 0 .18-.306c.013-.04-.489-.212-.626-.223zm.083 2.62c0-.002-.003.005 0-.003-.003 0 0-.003 0-.011v-.002c-.004.013-.014.032-.034.098a.698.698 0 0 0 .034-.081zm-11.972 5.968l.006-.006c0 .001-.003 0-.003.002-.003.001-.004.003-.006.005l.003-.001zm11.937-5.808l-.019.066c0-.001 0-.003.003-.005l.017-.061zm-.018.066a.135.135 0 0 0-.007.019c0 .004-.003.013.003-.004 0-.005.003-.01.004-.015zm-.158.59a.13.13 0 0 1-.007.027l-.014.04.02-.067zm-.373.79c.009-.02-.014.031-.031.075h-.003c0-.003.003-.006.005-.01-.032.087-.047.101.028-.066zm-.262.493c-.005.008-.008.018-.013.027-.017.028-.033.057-.052.084l-.015.018c.018-.033.035-.068.056-.1l-.003.01.026-.04zm-.302 2.015l-.012.027-.01.012a.37.37 0 0 1 .022-.039zm-4.684 1.38c.006-.005-.005.008-.012.017l-.01.002.022-.02zm-.388.02l.02.027.02.025h-.011l-.01-.007a.206.206 0 0 1-.03-.033l.005-.005c.003.002.004.006.006.004l-.004-.007c0-.002.003-.003.004-.004zm-5.632.438H261l-.029.023.027-.023zm8.396.072c-.007.025-.03.044-.033.07-.003.013.087-.152 0 .005a.32.32 0 0 1-.055.08.827.827 0 0 1-.065.056c.03-.04.057-.082.088-.121.017-.022.033-.046.05-.07-.006.013-.013.025-.016.038-.005.021.037-.08.03-.058zm-8.143.53c.01.017.01.022.02.038l-.02.002c-.004-.013-.01-.028-.012-.038l.01-.002zm.234.003c.003.008.005.018.009.025-.035 0-.07-.002-.104 0 .031-.008.058-.014.095-.025zm-.295.043h-.011c0 .005.008.005.013.007l-.003-.007zm.003.007c.01.04.017.077.038.125.009.021.02.041.032.06.017.025.011.014.021.028-.014-.04-.026-.08-.04-.118a2.182 2.182 0 0 1-.04-.089c-.005 0-.006-.004-.01-.006zm.104.252c-.003-.002-.003-.002.003.005 0-.002 0-.003-.003-.005zm2.632.236c.011.01.024.018.032.027.008.01-.021-.012-.032-.018l-.013-.008h.013zm-.32.018l-.005.002c.06.015.014.02-.056.02l-.014-.019c.025 0 .05-.002.074-.003zm.315.038c.007.008.011.013.028.038l.023.038c0 .003.005.012.003.01-.02-.027-.036-.057-.054-.086zm-2.199.314l.01.02-.008-.014c0-.002 0-.004-.003-.006zm3.475.507c.003-.001 0 .005-.013.026-.028.03-.032.032-.029.028l-.012.012c-.033.009-.056.042-.083.06-.007.006-.015.008-.022.012-.024.016-.065.051-.086.068-.007.01-.017.005-.027.007.02-.017.038-.035.059-.05.023-.018.04-.047.067-.06.014-.008-.046.04-.031.036.02-.005.028-.03.046-.04.01-.006-.016.018-.024.027l.06-.05c.017.007.084-.07.095-.076zm-.544.396c.005-.002-.004.006-.011.011-.064.041-.122.094-.179.144-.05.038-.09.086-.135.13l-.009-.02-.02-.047c.076-.045.149-.096.214-.155-.003.012-.014.024-.017.03-.003.004-.018.014-.011.013.013-.005.088-.058.09-.06-.029.042.06-.037.077-.046zm2.855 1.095a.282.282 0 0 1-.04.04l-.034.026c.025-.022.048-.046.074-.066zm-3.933.272l-.012.078.01-.077v-.001zm-.143.198a.316.316 0 0 0-.01.025c-.01.02-.011.018-.008.01.005-.012.012-.023.018-.035zm1.482 1.34c.004-.013.003.024-.003.036l-.04.166-.014-.006c.018-.066.035-.131.055-.197zm-1.55.058c.05-.001.13.051.244.128-.09-.037-.175-.07-.275-.116a.053.053 0 0 1 .032-.012zm1.467.092l.012.039a.332.332 0 0 0-.025-.011.57.57 0 0 1 .013-.028zm.436.025c.005-.005-.006.013-.01.018-.004.004-.01.01-.016.013.01-.011.007-.011.026-.03zm-.433.106l-.01.057-.01.022c0 .001 0 .002-.002.003l-.003-.002c0 .005-.003.01-.004.015l.006-.012c0 .004-.003.007-.004.01.015-.02-.004.016-.01.025a.22.22 0 0 0 .008-.023l-.02.04a.721.721 0 0 1-.082.11l-.021.024-.032-.008.1-.22.059.04.023-.08z" fill="#d6ffea"/>
  <path d="M223.837 152.532c.691-1.898 1.431-4.29.238-6.066-1.375-2.046-4.935-2.987-6.56-.879-1.928 2.503-2.493 5.767-2.466 8.793.007.824-.927 3.455-.752 2.986.153-.413.371-.81.677-1.13" fill="none"/>
  <path d="M220.332 106.847c-4.557 2.746-7.876 6.916-11.187 11.087-4.441 5.594-10.157 9.312-16.225 12.738-5.295 2.99-9.513 4.998-15.305 6.535-5.707.474-11.53 1.08-17.058-.622-5.021-1.545-19.755-.527-15.47 1.027 1.52.55 3.077.913 4.656 1.165.113-.167.34-.304.688-.338l.047-.005c.097-.006.194-.006.291 0 .1.002.2.005.3.01.114.006.228.016.342.025.122.009.244.019.366.024l.355.024c.101.005.203.008.305.01l.305.01.29.012c.088.004.176.004.264.006.09.004.181.01.272.017l.259.022.273.028c.086.01.173.018.26.025.086.008.173.018.26.024.095.006.19.01.285.014.086.004.17.008.256.01.086 0 .172.002.258.008.072.006.144.012.216.02l.032.003c.083-.029.18-.047.287-.056l.027-.01.051-.012a4.77 4.77 0 0 1 .159-.03l.15-.03c.04-.01.079-.02.117-.032.047-.015.053-.02.092-.033a.97.97 0 0 1 .166-.043c.17-.025.204.053.177.177.016.004.025.009.04.013.014-.001.034-.007.046-.005.039.005.061.028.077.058.061.044.061.096.016.154-.017.151-.088.356-.142.54 2.385.135 4.772.279 7.111.68 7.09 1.215 14.471.713 21.432-1.72 6.088-2.128 12.825-3.22 17.72-7.395 7.441-6.348 11.21-11.298 15.81-17.395.789-2.152 1.04-4.508 1.329-6.74z" fill="#ffe680"/>
  <path d="M157.515 33.791c-.422-.004-.854 0-1.3.01-1.32.03-2.68.28-4.114.624-9.993 2.401-21.563 8.156-28.674 13.011-6.934 4.734-18.832 18.341-20.902 22.3-1.092 2.088.35-1.083 5.443-2.55 10.413-3.002 4.243-1.096-4.192 10.807-2.685 3.79-9.887 14.682-7.369 12.93 7.995-5.559 16.99-6.559 27.268.773 3.715 2.65 2.183 6.967 7.287 2.596 7.228-6.19 20.2-.027 22.887 3.152 0 0 12.015-3.446 17.808-2.31 8.945 1.755 17.456 5.68 24.891 8.736 2.793 1.148 5.01 3.523 6.79 5.995a1.738 1.738 0 0 0-.54.476c-.05-.153-.097-.304-.15-.458l.115-.63c-.603.697-1.062 1.927-1.67 2.734-.6.385-1.176.846-1.297 1.407l-.163.1a7.71 7.71 0 0 0 .146-.009c-.004.033-.005.066-.005.1a4.158 4.158 0 0 1-.407.071c.087-.05.176-.105.266-.161-.356.02-.729.034-.783.219-.32.816-3.494 3.537-3.928 3.572-.275.014-1.675 1.335-1.95 1.335-.05.002-.368-.003-.068 0 .066 0-.13.007-.196.01l-.064.004c-.118.085-.966.586-1.278.739-.386.187-.787.34-1.193.479-.259.088-.603.18-.757.225-.243.071-6.103 2.509-6.334 2.58-.255.08-.694.141-.953.212-.356.1-3.229 1.414-3.56 1.457-.329.047-.656.099-.985.136-.366.047-.733.098-1.1.132-.343.035-4.116.363-4.422.392-.336.034-.672.075-1.009.11-.604.053-1.234.724-1.84.664-.303-.049-6.77.26-7.27.313-.526.064-2.894-.59-3.42-.535-.516.055-14.984-.535-15.568-.603-.524-.058-4.349-.058-4.903-.163-.534-.102-1.065-.215-1.598-.318a69.087 69.087 0 0 0-1.6-.3 47.527 47.527 0 0 0-1.589-.25c-.57-.08-1.14-.15-1.711-.228-.559-.077-1.118-.148-1.676-.227-.51-.073-1.02-.138-1.53-.21-.434-.07-.872-.118-1.308-.172a31.94 31.94 0 0 1-1.94-.3 52.807 52.807 0 0 1-1.338-.28l-.036.003a.66.66 0 0 1-.099.001c-.02 0-.04 0-.06-.002l-.07-.003-.085-.004a4.3 4.3 0 0 1-.428-.029l-.129-.012a7.254 7.254 0 0 1-.458-.062 9.584 9.584 0 0 1-.394-.073 5.53 5.53 0 0 0-.194-.036c-.058-.01-.117-.018-.176-.027l-.15-.022-.169-.02c-.061-.01-.123-.018-.185-.027a17.262 17.262 0 0 1-.485-.077 7.992 7.992 0 0 0-.248-.04l-.244-.037c-.076-.01-.151-.021-.227-.03a7.998 7.998 0 0 1-.506-.069c-.087-.013-.175-.025-.261-.04a6.414 6.414 0 0 1-.475-.096l-.197-.052c-.063-.017-.125-.033-.187-.052-.06-.017-.119-.036-.178-.054a3.247 3.247 0 0 0-.291-.074l-.165-.036a11.224 11.224 0 0 1-.2-.041l-.21-.05a80.57 80.57 0 0 0-.432-.092c-.077-.016-.155-.03-.232-.047l-.23-.048a6.27 6.27 0 0 0-.197-.038l-.194-.032a13.138 13.138 0 0 1-.453-.083 2.075 2.075 0 0 0-.199-.032l-.216-.023c-.075-.008-.15-.013-.226-.022a6.404 6.404 0 0 1-.447-.063 4.81 4.81 0 0 1-.235-.046l-.196-.044a7.254 7.254 0 0 1-.216-.05l-.207-.055c-.059-.014-.118-.025-.177-.037a7.796 7.796 0 0 1-.197-.044l-.202-.049-.183-.048a10.973 10.973 0 0 1-.157-.044c-.053-.014-.105-.03-.158-.045-.05-.014-.1-.03-.149-.045-.05-.016-.1-.031-.15-.05a3.36 3.36 0 0 1-.15-.06c-.05-.023-.102-.044-.152-.07-.05-.024-.101-.05-.151-.077-.046-.025-.092-.05-.137-.077a3.482 3.482 0 0 1-.225-.144l-.109-.076-.078-.053-.138-.025a38.052 38.052 0 0 1-1.186-.237 53.814 53.814 0 0 1-1.155-.288 44.14 44.14 0 0 1-1.205-.345c-.372-.113-.74-.236-1.11-.357-.38-.125-.758-.253-1.137-.382-.495-.166-.98-.362-1.463-.557-.388-.151-.777-.302-1.162-.46a30.337 30.337 0 0 1-1.47-.657c-.452-.218-.904-.434-1.357-.65a83.97 83.97 0 0 1-1.44-.707c-.192-.095-.38-.197-.57-.298l-.128-.037c-.287-.091-.573-.182-.854-.292l-.67-.261c-.25-.1-.499-.203-.746-.312-.199-.092-.4-.18-.595-.28-.245-.12-.487-.247-.724-.384l-.563-.318c-.258-.15-.513-.306-.763-.468-.178-.116-.356-.232-.53-.353-.245-.163-.488-.33-.722-.51-.2-.155-1.042-.37-1.2-.503-.046-.04-1.133-.673-1.157-1.492l-.48.269c-.678.378-3.617-2.89-4.111-3.246-.571-.41-.737-1.323-1.3-1.743a70.714 70.714 0 0 1-1.756-1.376c-.51-.401-1.01-.815-1.514-1.225a79.734 79.734 0 0 1-1.55-1.321c-.4-.349-.794-.705-1.189-1.06l.017.044.16.384c.033.068.075.168.113.25.065.148.134.294.2.443.055.116.108.234.162.351l.192.412c.087.197.093.201.196.43.069.16.13.295.2.462.078.181.152.364.223.548.068.185.132.37.196.556.043.127.087.255.133.382.06.16.109.322.167.482.042.126.09.25.14.374.063.146.117.297.18.443.059.126.103.258.165.382.071.145.134.294.21.437.096.192.184.389.278.583l.266.566c.076.155.137.317.216.47.078.164.161.325.244.487.085.173.176.342.264.513a16.297 16.297 0 0 0 .48.867c.091.148.177.3.271.446l.304.456.36.537c.107.16.21.322.32.48.103.144.206.289.312.431l.404.55c.11.15.222.3.333.449.1.133.203.264.307.394a26.745 26.745 0 0 0 .621.714c.129.147.259.294.393.438.155.163.307.327.462.489.146.152.286.308.437.455.157.153.303.317.461.47.17.171.338.344.507.517.165.168.333.335.497.505.195.204.382.416.57.627.146.16.291.323.437.485.18.2.356.404.532.607.124.138.243.28.371.415.14.154.287.303.432.453.138.14.277.281.418.42.158.154.318.306.478.459.157.15.317.297.474.448.146.136.29.275.435.412.097.09.196.176.297.26.122.108.251.205.38.305.13.1.26.204.396.3.145.103.288.21.435.31.168.117.339.232.51.345.16.102.322.201.484.3.176.102.35.207.528.304a28.34 28.34 0 0 1 2.308 1.415l.152.107c31.69 17.345 84.294 18.283 100.828 2.556.526-.215 1.864-.806 2.311-1.325 1.887-2.186 4.975-3.389 6.614-5.906.488-.75 1.661-1.801 2.215-2.456 1.16 1.167 3.51 2.298 4.49 3.88 1.341 2.161 3.597 3.753 5.785 5.127 2.432 1.526 3.902 3.914 6.322 5.332 2.275 1.334 4.658 2.406 6.807 3.962 2.344 1.696 4.93 1.865 7.27 3.291 1.537.938 2.463.655 2.962-.152.03.278.13.41.366.281 1.372-.753 2.748-1.46 4.051-2.352 2.03-1.39 4.197-2.577 6.525-3.399 1.837-.648 3.066-2.117 4.725-3.117 1.302-.785 2.156-2.438 3.624-2.71 1.153-.798 1.493-.016 1.789-1.364.337 1.033.78.686 1.245 1.614 1.092 2.185 3.092 3.963 5.307 5.147 1.883 1.006 4.056-.392 5.078 1.911.829 1.867 2.928 3.003 3.388 5.074.182.819 1.383 4.918 1.772 2.569.59-3.566-.786-7.36-2.82-10.387-.45-.668-2.142-2.908-.72-1.337.348.384.673.712.987 1.016.033-.046.063-.088.082-.12.028-.077.056-.126.116-.128a.256.256 0 0 1 .103.024c.024.014.046.03.067.048l.062.048.08.062.101.08.123.1c.047.039.094.078.14.119l.166.136.195.163.206.174.219.188c.077.065.154.13.232.193l.245.208.242.207c.085.072.17.145.253.218.08.07.161.14.24.214a4.8 4.8 0 0 1 .216.215l.21.225c.07.076.139.151.205.23a2.133 2.133 0 0 1 .27.39c.029.058.07.138.044.203-.015.036-.044.064-.066.096-.034.01.023-.298-.103.032-.013.003.126-.33-.038-.002 1.471 1.603 3.135 4.42 3.778 6.394.223.686.406-3.725.031-4.967-.678-2.248-1.917-3.963-2.608-6.078-.263-.804-3.396-2.514-1.647-2.682 1.957-.188 3.45 2.016 5.088 2.92 1.028.565 3.23 3.414 2.44 1.25-.61-1.677-2.241-4.07-3.049-4.818-.537-.497-1.15-1.724-2.449-2.053-1.975-.501-3.412-2.412-5.24-3.426-1.48-.821-3.124-.873-4.513-1.992-.879-.708-1.976-.897-3.115-.897-.885.001-1.796.116-2.648.192-1.673.148-4.036 1.4-4.078 3.08-.103-.004-.17.013-.213.044v-.038l-.005.04c-.048.038-.063.095-.053.17l.034-.028c-.005.038-.006.077-.01.116-.009-.03-.021-.063-.024-.089-.998.717-2.402.989-3.25 1.974-1.157 1.346-2.758 2.09-4.299 2.844-1.396.683-2.502 1.546-3.642 2.582-1.098.999-2.322 1.256-3.613 1.853-1.283.594-2.757.89-4.143 1.208-1.058.243-1.78.844-1.805 1.772-1.136-1.318-3.721-.998-5.185-2.123-1.943-1.493-3.96-2.845-5.73-4.536-1.901-1.817-4.154-3.223-5.978-5.121-1.717-1.786-3.54-3.304-4.86-5.334-1.488-2.29-3.781-4.467-5.595-6.478.951-2.221 3.139-3.843 5.713-4.992-.086-4.44 5.186-7.657 9.35-7.714 4.019-.055 6.82 2.44 10.274 3.806.913.361 1.945.788 3.017 1.189l.133-.016c.086-.008.172-.01.258-.012l.225-.006c.083-.003.166-.003.249-.001l.223.005c.082.001.163.007.244.012.08.006.158.014.237.022.079.007.157.018.236.03.075.011.15.027.224.041l.173.034a4.137 4.137 0 0 1 .369.09c.048.015.097.026.146.039.057.014.115.028.173.044l.146.038c.053.012.105.028.158.041.053.012.105.028.157.042l.158.042.196.061.19.06.18.058a6.377 6.377 0 0 1 .55.221c.08.035.159.07.237.107.085.041.168.085.251.127.087.044.173.09.258.135.08.043.158.091.236.139.766.017 1.481-.079 2.114-.328l.008-.051.011-.083a.871.871 0 0 1 .03-.14l.014-.053.012-.048c.003-.013.008-.026.01-.038v.002l.006-.03.005-.025.004-.02c.007-.047.024-.09.04-.135.529-.005.782-.119.927-.111.086.004.133.052.177.194a.215.215 0 0 1 .008.025v.003c.017.064.027.125.035.184 1.45-.14 2.909.469 4.35 1.335l.133.045.165.052h.002c.015-.009.03-.02.047-.029a.637.637 0 0 1 .45-.04c.06.017.12.04.18.064.058.023.118.044.177.066l.198.073c.086.031.17.066.254.102.087.037.173.078.259.117a12.928 12.928 0 0 1 .497.252l.247.136a16.04 16.04 0 0 1 .5.283c.078.05.155.099.232.15.075.049.15.1.223.15l.245.17c.082.057.166.114.25.17.096.065.189.133.283.2.102.077.205.154.31.228.1.07.203.138.305.208.101.068.2.14.299.213l.278.199.274.195.248.173.255.183c.087.062.172.127.259.19.084.06.167.121.249.184l.255.2c.089.066.176.135.264.203.083.065.165.133.245.2.471.082.95.105 1.425.052l.01-.184.01-.194a9.524 9.524 0 0 0 .011-.311c.003-.037.003-.073.004-.11 0-.033.003-.066.003-.1 0-.031.007-.063.007-.095 0-.028 0-.055.003-.082 0-.024 0-.048.002-.072 0-.038.004-.075.006-.112.003-.034.01-.068.014-.101 0-.01.003-.018.005-.027-.003-.002-.003-.005-.005-.008l-.095-.213a5.201 5.201 0 0 1-.164-.43 5.689 5.689 0 0 1-.133-.432 6.816 6.816 0 0 0-.054-.188 10.358 10.358 0 0 1-.13-.478l-.05-.2c-.02-.079-.04-.157-.056-.236-.018-.08-.035-.162-.051-.242-.015-.07-.027-.139-.044-.208-.015-.063-.028-.126-.045-.19a1.88 1.88 0 0 0-.044-.152 6.614 6.614 0 0 0-.06-.162 2.302 2.302 0 0 0-.067-.153l-.091-.197a4.268 4.268 0 0 1-.097-.225c-.029-.073-.057-.145-.084-.22-.026-.071-.052-.142-.075-.215a2.324 2.324 0 0 1-.063-.244 1.428 1.428 0 0 1-.029-.254c0-.012.003-.024.004-.036l-.003-.002c.003-.046.004-.091.011-.136a.101.101 0 0 1-.015-.03c0 .006-.003.012-.004.018 0 .004-.01.003-.01 0v-.002c-.008 0-.018 0-.027.002-.008.025-.01.047.002.057.014.03.028.06.04.09 0 .006-.022-.025-.03-.04 0-.003.004 0 .006 0l-.107-.107c-.003-.003-.004-.007-.005-.01v-.001c-.041-.046-.115-.093-.103-.153l-.016-.018c-.028-.039-.043-.085-.064-.127v-.003l-.004-.023-.032-.07c.026.027.092.115.08.08-.04-.117-.066-.238-.12-.349-.012-.026-.017.002-.02.029.013.012.026.021.048.05.01.011-.029-.011-.036-.024-.006-.008-.008-.014-.013-.022 0 .01-.003.023-.003.028.002.034.002.061.022.094.015.024.083.07.058.06-.092-.039-.104-.161-.12-.244a.133.133 0 0 0 .033.05 1.648 1.648 0 0 1-.036-.065v-.002l-.004-.012c-.038-.08-.05-.12-.049-.105-.002-.005-.004-.006-.007-.019a.494.494 0 0 1-.024-.106c-.006-.007-.01-.012-.025-.042.075.043-.026-.011-.086-.12-.037-.068-.014-.177-.003-.248l.025-.147a.431.431 0 0 1 .09-.208c-.68-1.074-1.336-2.166-1.743-3.328-1.263-3.61-3.366-7.897-6.923-9.203-4.856-1.783-8.246-6.292-9.251-10.963-.975-4.535-5.467-7.852-8.203-9-7.39-3.1-9.959-.837-14.333-3.271-2.985-1.659-6.91-9.373-7.254-9.3-.05.01-.026.18.084.548 1.06 3.554.372 7.96-3.46 9.863-1.72.854-2.479 1.597-2.668 2.39.183.052.266.29.366.435-.003.04.027.06.053.084.012-.005.041.022.071.055l-.015-.038.02.035c.012.013.109.124.12.143.026.048.046.1.07.149.01.03.022.054.036.079a.168.168 0 0 1 .031.051l.013.02c.001.003.004.004.006.006.007.007.016.011.02.019.029.048.053.1.079.149l.01.026h.002l-.004-.008c.008-.008.025.015.028.024.037.022.053.035.103.104.055.057.076.133.104.206.001-.01.015.012.021.018.004.005-.01-.008-.015-.012l.005.023c.127.592.021.146.036.037.004-.03.034.048.05.073.036.06.04.129.038.197 0-.006 0-.014.006-.014.018 0 .011.034.02.05.002.003.008 0 .01.004.035.075.066.157.094.237a.182.182 0 0 1 .025.03.56.56 0 0 0 .024.031c.048.059.053.097.054.149.005.01.009.014.015.031.013.033.02.069.032.102.002.005.008.006.01.01.01.023.017.047.026.07l.008.044c.023.016.032.046.03.08l.005.011c0 .002.004 0 .007 0 .013.025.03.05.039.076.012.037.017.077.026.114 0-.002.003-.01.004-.008.03.064.018.077.037.151.002.007-.002-.027.002-.021.011.016.019.043.026.07l.012.012c.044.044.05.108.05.172l.008.014.01.037c.02.032.033.063.033.107.005.008.009.016.012.025.045.143.038.13.034.123.001 0 .002-.002.013.024.024.056.022.082.022.046.046.08.056.111.05.145l.006.013c.005.04.02.079.014.118-.005.035-.006.079-.02.11-.003.047-.006.094.016.113.009.037.015.075.026.112l.035.078.003.006.001.004c.006.014.018.036.016.036l-.003.002c.006.02.01.038 0 .044.005.02.003.128.002.139-.002.069 0 .111-.002.138l-.002.008.002.04c.033.038-.04-.041.06.178.008.018-.008-.076-.001-.058.044.11.033.069.044.174-.003.029-.008.037-.012.058h.002c.003.002.002.013 0 .01l-.004-.002c-.01.052-.021.096-.043.106v.014c.103.022.085.067.022.122.227.508.444 1.054.632 1.65 1.08 3.408-5.497 6.017-3.784 7.085 4.343 2.706-.92 12.747.9 11.704 3.2-1.836 7.322-10.172 8.888-7.226 2.13 4.008 1.962 9.784-2.717 11.859-.974.431-1.882 1.053-2.141 1.519-.26.006-.527.044-.802.122-3.002-.224-5.595-1.595-8.056-3.334l-.211-.066a5.705 5.705 0 0 1-.459-.162c-.1-.04-.197-.085-.3-.12a6.952 6.952 0 0 1-.458-.186c-.143-.065-.286-.129-.425-.201-.113-.06-.226-.118-.337-.18-.151-.078-.3-.159-.445-.246-.117-.071-.234-.14-.35-.213-.117-.074-.23-.153-.345-.227a5.962 5.962 0 0 0-.194-.124l-.262-.162a12.9 12.9 0 0 1-.316-.2c-.117-.075-.147-.097-.182-.118l-.26-.152-.341-.202c-.079-.05-.162-.093-.24-.142a6.72 6.72 0 0 0-.271-.14l-.29-.154a89.968 89.968 0 0 0-.358-.189c-.124-.064-.25-.126-.376-.19-.114-.054-.227-.112-.34-.169-.133-.058-.264-.122-.396-.182-.127-.059-.253-.12-.38-.18-.119-.056-.239-.108-.357-.164-.107-.056-.224-.095-.334-.147-.126-.055-.25-.115-.376-.168-.145-.062-.287-.128-.43-.192-.126-.056-.252-.114-.379-.168a9.634 9.634 0 0 1-.402-.18 11.21 11.21 0 0 1-.493-.225c-.142-.07-.287-.135-.43-.203-.161-.077-.32-.158-.48-.238-.144-.075-.287-.152-.431-.229-.125-.067-.25-.133-.373-.205-.118-.068-.238-.13-.354-.2-.087-.05-.174-.102-.264-.15a14.283 14.283 0 0 1-.34-.187l-.25-.145a4.695 4.695 0 0 1-.342-.212c-.005-.004-.272-.158-.204-.135-.094-.058-.176-.114-.25-.159-.11-.07-.097-.057-.207-.126l-.207-.131c-.098-.06-.196-.12-.29-.186-.076-.052-.103-.073-.187-.125a2.7 2.7 0 0 1-.17-.116c-.126-.082-.104-.073-.21-.139-.034-.023-.234-.151-.103-.07-.07-.043-.367-.241-.25-.168.24.155-.148-.09-.153-.102l-.07-.05-.151-.102c-.093-.064-.186-.128-.273-.2l-.162-.123a4.798 4.798 0 0 1-.277-.227c-.085-.076-.173-.146-.254-.226.056.047-.216-.196-.16-.15a9.4 9.4 0 0 1-.22-.215c-.042-.041-.163-.15-.014-.023.557.476.84.501.972.281-6.47-3.034-8.566-10.603-10.133-18.286-1.876-9.2-2.167-18.26-6.55-26.301-4.928-9.045-8.64-10.875-14.958-10.935zm55.11 41.431h-.001v.013l.001-.013zm-.001 0v-.012c-.01.004-.025 0-.038-.003l.006.014.032.001zm0-.012l.001-.002c0-.008 0-.016-.002-.022v.007c-.003-.005 0 .006 0 .017zm.044-.108l.002-.008-.02-.007.018.015zm-2.2-5.01l-.006.037.003-.001c.02-.008.015-.021.004-.036zm-.01.073c0 .008 0 .017-.002.025l.009.01-.002.025.004.004c.01-.021.003-.043-.009-.064zm.005.06l-.009-.01-.004.04c.004-.004.009-.007.012-.012l.001-.018zm.323.168h-.033l.029.023c.085-.02.054-.024.004-.023zm-.153.48c-.003 0-.006.002-.009.004v.005l.017-.002.001-.001-.01-.007zm.008.007l-.005.005.01-.004-.003-.001h-.002zm-.005.005c-.003 0-.007.001-.01.003v.006c.004-.002.007-.006.01-.01zm-.01.003l-.001-.006h-.005l.001.007.004-.001zm-.035.003l-.023.01.029-.005-.006-.005zm.697.165l.014.024.016.017c-.013-.01-.021-.026-.03-.041zm.087.146c.016.038.009.021.001 0zm-.503.717l.021.044c.085.04.197.084.16.035-.039-.05-.115-.06-.181-.079zm.285.004l.003.01c.002 0 .003.001.005.004l-.004-.009-.004-.005zm.173.37l.009.017a.248.248 0 0 1-.003-.007l-.006-.01zm-.175.186l.01.02c.004 0 .006 0 0-.008-.002-.005-.007-.008-.01-.012zm.644.75l.005.009-.002-.008-.003-.002zm.65 1.593l.015.023h.002c-.003-.01-.008-.025-.017-.023zM76.046 95.602c-.005-.001-.013.001-.018.001.054.119.104.24.147.362.008-.156-.012-.28-.08-.345a.078.078 0 0 0-.049-.019zm1.276 2.596c-.124-.012-.306.007-.56.065.027.107.056.214.081.321-.078-.307.036.112.049.158.034.128.064.256.093.384v.002c.006.039.02.078.032.117l.005.015.046.155c.206-.47.82-1.161.254-1.217zm187.045 4.612v.002h.001l-.001-.002zm.518.692v.001l.022.03c0-.006-.003-.01-.005-.016l-.005-.01c-.004-.001-.006-.001-.012-.005zm.032.037c.003.005.004.01.005.014 0 .002.003.003.004.004.004.004.007.01.011.013-.007-.012-.008-.014-.02-.03zm-.245.028c-.066.014-.108.055-.119.152-.003.03 0 .048.007.065a.949.949 0 0 1 .125-.194l-.01-.023h-.003zm.27.014c.007.008.012.018.019.025.006.007-.013-.02-.016-.024h-.003zm-.093.243l-.017.016-.019.072.017-.023c.006-.022.01-.044.02-.065zm-.065.078l-.01.015c0 .005 0 .01.003.015h-.009c0 .016.004.022.004.04a.715.715 0 0 1 .013-.018l.005.002c0-.002 0-.005.004-.007 0 .002-.006.003-.007.004h-.003a.093.093 0 0 1-.005-.02c.005 0 .008-.002.013-.001v-.006c0 .002 0 .004.003.006h.002v.005c0-.002.005-.004.006-.005h-.005c0-.008 0-.015-.003-.023l-.002.016-.007-.023zm-.06.024l-.003.04c0 .009.01.01.022.009.004-.014.013-.028.021-.043l-.04-.006zm.083.006l-.007.028-.005-.018.003.031c.003-.005.005-.007.005-.011 0 .004.004.008.005.013.002-.015.009-.029.013-.043h-.008zm-.02.024zm-13.16.626c.003.006.004.012.005.018.028.088.023.093.023.065-.009-.028-.02-.053-.027-.083zm-93.623 31.04c.88-.043.98.883.067 1.11.181.123.284.298.274.544a.71.71 0 0 1-.103.285l-.037.06-.047.076a1.517 1.517 0 0 0-.047.082c-.022.037-.045.073-.066.11-.017.027-.035.053-.05.081-.03.052-.06.102-.093.151a1.79 1.79 0 0 1-.104.143 1.332 1.332 0 0 1-.137.147.82.82 0 0 1-.227.141.966.966 0 0 1-.373.08h-.221l-.144-.001h-.173l-.206-.001-.239-.001-.26-.001c-.095 0-.19-.001-.284-.003-.096 0-.192 0-.288-.002-.112 0-.223-.002-.335-.003a51.045 51.045 0 0 1-.756-.009c-.134-.002-.268-.004-.402-.012l-.398-.022-.4-.026a9.924 9.924 0 0 0-.37-.017 38.966 38.966 0 0 1-.355-.014l-.395-.018a56.012 56.012 0 0 1-.922-.052 29.472 29.472 0 0 1-.489-.037l-.488-.044a23.102 23.102 0 0 0-.52-.035c-.18-.008-.36-.018-.541-.03-.18-.011-.361-.023-.542-.032a42.27 42.27 0 0 1-.562-.035c-.18-.012-.36-.026-.54-.037a61.35 61.35 0 0 1-.506-.038 6.854 6.854 0 0 0-.405-.015c-.128-.002-.255-.002-.382-.012a2.49 2.49 0 0 1-.338-.05 1.313 1.313 0 0 1-.252-.086c-.174-.085-.313-.21-.37-.405-.008-.064-.027-.128-.02-.192a.587.587 0 0 1 .243-.433l.06-.041a.84.84 0 0 1 .122-.064l.047-.02.036-.018c.042-.02.085-.04.13-.055a1.17 1.17 0 0 1 .125-.04l.107-.028c.054-.012.108-.021.163-.025l.095-.011c.054-.006.108-.012.162-.015l.124-.004.143-.005.173-.007a4.08 4.08 0 0 1 .213.001l.213.004.237.006.277.007.29.01c.095.002.19.003.284.002h.303c.1-.002.198-.006.298-.011l.318-.016a21.249 21.249 0 0 0 .637-.046l.33-.03c.113-.011.226-.02.34-.03.12-.012.241-.025.362-.035a17.782 17.782 0 0 0 .739-.075l.41-.045.407-.048.385-.046.387-.05.396-.05.39-.048c.127-.017.253-.035.38-.055l.39-.057c.13-.019.26-.04.39-.058a45.401 45.401 0 0 1 1.224-.164c.138-.017.276-.035.414-.05l.38-.038c.116-.012.23-.024.346-.034l.262-.02c.04-.002.08-.006.12-.014.068-.013.133-.02.194-.024z" fill="#65ff80"/>
  <path d="M56.313 104.208c.125.25.25.499.281.686.031.187-.031.312-.093.437" fill="none" stroke="#000" stroke-width=".706"/>
  <path d="M69.221 99.516c.34.269.28.74.38 1.116.143.536.4 1.024.519 1.579.065.302.217.654.004.918-.023.028-.08.27-.109.19M75.737 95.316c-.308-.212-.696-.99-.154-.088.924 1.536 2.297 2.832 2.883 4.53.471 1.365 3.316 3.004 1.98 4.216-.58.528-.977 1.855-1.534.437-.622-1.582-1.65-2.993-2.102-4.665-.39-1.443-.463-2.875-1.338-4.198-.173-.262.546-.185.265-.232zM190.764 124.883l-9.657-11.178" fill="#65ff80"/>
  <g stroke="#000" stroke-width=".706">
    <path d="M167.446 126.164c-.385-.543-.88-1-1.361-1.457-1.477-1.408-2.915-2.882-4.582-4.06-.28-.198-.633-.825-.87-.57-.23.247-.279.613-.34.933a2.94 2.94 0 0 1-.42 1.055c-.524.81-1.08 1.601-1.68 2.357-.287.36-.721.537-1.096.785-.18.12-.314.297-.409.49M156.688 125.697c-.34-.676-.778-1.951-1.218-2.564-.8-1.114-1.562-2.273-2.538-3.238-.182-.18-.343-.59-.587-.5-.196.074-.235.38-.31.571-.542 1.391-1.009 2.834-1.812 4.098-.243.383-.48.831-.906 1.023a.503.503 0 0 1-.206.048M118.235 121.7c-.505-1.218-1.173-2.376-2.06-3.358-.68-.753-1.554-1.44-1.844-2.421-.108-.365-.365.122-.504.26-1.13 1.134-2.311 2.233-3.634 3.137-.138.094-.276.189-.425.266M94.158 113.494c.2-.078.121-.366.087-.527-.168-.796-.47-1.555-.73-2.323-.19-.563-.245-1.18-.53-1.704-.042-.075.162-.243.07-.21-.512.188-1.037.346-1.54.56-.769.327-1.55.705-2.122 1.326M89.065 110.228c-.177-.39-.273-.813-.363-1.23-.187-.87-.38-1.755-.355-2.647.008-.29.075-.571.16-.858.028-.094.299-.15.107-.06-1.116.522-2.427.755-3.339 1.585-.066.06.308-.256 0 0" fill="#22ad3a" stroke-linecap="round"/>
    <path d="M249.671 102.778c.095-1.03.418-3.783-1.145-1.882-.318.386-.602.8-.922 1.184M245.11 100.734c.106-.993.747-3.417-.993-1.906-.335.29-.671.585-.952.93" fill="#e6e6e6" stroke-linecap="round"/>
    <path d="M149.111 125.135c-.346-.687-.792-1.317-1.24-1.94-.793-1.103-1.127-1.733-2.112-2.67-.19-.18-.401-.668-.613-.503-.173.134-.26.375-.37.567-.676 1.187-1.299 2.434-2.226 3.444-.296.322-.609.694-1.053.799l-.03.004-.058.003" fill="#22ad3a"/>
    <path d="M142.069 125.026c-.346-.686-.793-1.316-1.24-1.939-.794-1.103-1.532-2.27-2.517-3.208-.19-.18-.4-.668-.613-.503-.173.134-.26.375-.37.568-.676 1.187-1.298 2.434-2.226 3.444-.296.321-.609.694-1.053.798l-.03.004-.058.003m.159-.334c-.346-.687-.793-1.317-1.24-1.94-.793-1.103-1.532-2.27-2.517-3.207-.189-.18-.4-.668-.613-.503-.172.134-.259.375-.369.567-.677 1.187-1.299 2.434-2.227 3.444-.295.322-.608.694-1.052.799l-.03.004-.058.003M203.177 109.883c-.555.205-1.162.176-1.743.146-.763-.04-1.515-.187-2.26-.36a12.686 12.686 0 0 1-2.03-.673c-.33-.138-.817-.292-1.068.039-.275.363-.24.854-.208 1.282.078 1.02-.007 2.008-.012 3.032-.004.848-.178 1.901-.022 2.741.032.171.638-.19.851-.192M187.266 121.146c-.557.293-1.067-.555-1.53-.844-1.651-1.035-3.43-3.007-5.173-3.437-.503.172-.659.8-.845 1.253-.72 1.747-1.182 4.635-1.889 6.315M177.455 124.106c-.866-.877-1.92-1.542-2.99-2.144-1.388-.782-2.722-1.66-4.228-2.23-.152-.057-.52-.472-.48-.348.116.368-.107.71-.242 1.039-.32.773-.408 1.612-.615 2.418-.32 1.244-.807 2.495-1.735 3.417" fill="#22ad3a"/>
    <path d="M126.527 123.216c-.287-.726-.68-1.405-1.076-2.077-.692-1.174-1.32-2.41-2.223-3.433-.162-.184-.32-.653-.533-.517-.184.117-.292.349-.42.53-.783 1.12-1.517 2.305-2.534 3.225-.324.293-.67.635-1.122.698l-.03.001-.058-.002M195.229 116.715c-1.043-.224-1.667-.562-2.563-.976-1.313-.606-2.909-.993-3.759-2.161-.427-.587-.788.163-.995.54-.84 1.528-.551 3.285-.603 4.964-.015.53.455 1.802-.043 2.064" fill="#22ad3a"/>
    <path d="M109.135 119.452c-.441-.331-.672-.757-.987-1.123-1.38-1.608-2.662-6.738-3.897-5.018-.74 1.034-2.597 2.614-3.11 3.445M101.14 116.756c-.212-.44-1.337-3.026-1.702-3.828-.408-.9-.75-2.364-1.715-2.583-.41-.094-.672.433-.9.707-.176.212-.358.435-.55.653-.58.657-.906 1.513-1.62 2.129" fill="#22ad3a" stroke-linecap="round"/>
  </g>
  <g>
    <path d="M154.125 91.208l.058.06.07.011a1.81 1.81 0 0 0-.128-.07zm.129.072c.02.012.04.02.062.035-.024-.018-.03-.02-.048-.034l-.014-.002zm-.469-.192c-.022 0-.053.003-.07.004l.02.01c.017-.002.05-.007.05-.014zm-.314-.048l.09.036.096.018.057-.002-.07-.037c-.057-.008-.115-.01-.173-.016zm-.812-.318l.02.007c.02.005.048.01.085.02l-.015-.013c-.026-.004-.046-.01-.074-.013zm.105.026c.007.007.015.011.023.018a1.07 1.07 0 0 0-.016-.003l.014.005c.067.015.134.032.2.045a1.656 1.656 0 0 0-.22-.065zm-1.735-.546c.02.008.045.027.073.052l.138.021a.657.657 0 0 0-.211-.073zm-.809-.288l-.017-.015-.029-.003-.063.006.108.012zm-1.76-.238a.363.363 0 0 0-.033.053c.214.13.43.26.652.376l.041-.006.008-.001a.564.564 0 0 0-.075-.083c-.22-.18-.388-.3-.592-.34zm-.033.053l-.108-.065c-.074 0-.153.007-.242.027-.044.031-.13.08-.2.123.11.025.219.054.326.088l.02.006a.469.469 0 0 0 .204-.18zm-13.922 1.688l-.027-.001c.156.023.306.047.451.07-.134-.05-.28-.057-.424-.07zM123.41 72.66c.091-.17.176-.33.302-.56.055-.1-.44.718-.301.56zm3.868-5.46l.027-.029c.043-.086.106-.213.143-.267.05-.074.118-.182.192-.28l-.041.029c-.135.178-.22.273-.321.548zm.362-.575c.15-.104.248-.172.28-.177l.014-.03c-.097-.02-.2.084-.294.207zm.28-.177c-.021.055-.046.109-.07.163.077-.115.101-.168.07-.163zm18.725-15.718h.384c.093-.042.186-.089.28-.137-.145 0-.29-.002-.434-.003-.066.06-.156.09-.23.14zm.665-.137l1.592.014c-.08-.078-.174-.102-.264-.135-.432-.325-.885-.104-1.329.121z" fill="#65ff80"/>
    <path d="M213.035 92.59c-1.24 1.075-4.32 4.744-3.742 3.207.698-1.857 1.867-3.591 1.883-5.655.018-2.385-.516-4.987-2.15-6.64-.336-.339-1.775.204-.69-.297 1.633-.754 3.07-2.01 3.985-3.538 1.052-1.754.905-3.975.348-5.842-.387-1.298-.85-2.625-1.647-3.732-.324-.45-1.33-.428-.329-.902 1.873-.886 3.483-2.267 4.898-3.764 1.48-1.565.723-3.94 1.205-5.866.231-.923-.873-3.272-.122-2.771.732.488 1.023 1.584 1.442 2.39 1.476 2.836 3.139 5.838 5.996 7.488 1.413.816 3.096.97 4.692.798" fill="none" stroke="#000" stroke-width=".706"/>
    <ellipse ry="1.663" rx=".648" cy="79.911" cx="240.498"/>
    <path d="M223.77 88.689c3.308-.53-3.385-1.24-4.69-.897-3.42.898-4.477 4.317-7.712 6.064-.778.42 1.331-1.5 1.667-1.266" fill="none" stroke="#000" stroke-width=".706"/>
    <path d="M218.461 87.873c1.337 3.054 3.751 6.534 1.096 9.92-1.826 2.329-4.41 3.131-5.934 4.264m37.288 3.684c-4.24-2.844-8.503-.953-12.267-4.383-5.67-5.167-15.528-1.196-17.262 3.954l.784-.052m10.342-37.397l-.132-.066m9.085 7.861c.562-.81-1.116-1.463-1.8-1.562-.23-.033-.463-.065-.678-.157m24.68 27.791c4.09-3.28 8.237-7.712 8.994-12.98.383-2.663 1.948-4.71-1.058-1.693-3.254 3.268-7.038 6.697-11.64 7.529l.148-.05.248.05" fill="none" stroke="#000" stroke-width=".706"/>
    <path d="M228.804 67.466c6.815.357 13.985 3.563 16.8 10.319 1.988 4.769 2.93 7.89 9.066 11.32 5.45 3.05 7.79 9.995 10.004 15.76 1.325 3.45 2.943 7.984-1.99 3.552-4.917-4.416-12.061-4.002-17.37-7.243-2.605-1.59-5.59-3.536-6.72-6.456" fill="none" stroke="#000" stroke-width=".706"/>
    <path d="M251.646 103.79c-.116.602-.717.981-.827 1.575-.024.132.01.27.092.376" fill="none" stroke="#000" stroke-width=".706"/>
    <ellipse ry=".748" rx=".374" cy="97.087" cx="256.823"/>
    <path d="M258.101 95.932c-.35-.379-.197-1.03-.6-1.345-.436-.341-1.19-.384-1.552.036-.21.244-.331.553-.467.842" fill="none" stroke="#000" stroke-width=".529"/>
    <path d="M213.625 102.058c-7.672-.403-17.345-2.619-24.652-7.223-8.542-5.382-11.566-15.758-14.961-25.113-3.439-9.476-9.563-19.089-19.008-23.435l-1.32-.327-.229-.338m0 0c-25.54 4.183-47.83 23.807-58.503 47.524m33.492 4.166c-6.693-12.309-24.235-14.795-33.576-5.067" fill="none" stroke="#000" stroke-width=".706"/>
    <path d="M153.644 97.65c-3.41-4.75-9.232-6.415-15.266-5.952-2.687.206-12.753 4.38-9.288 5.614m75.933 14.077c-9.062-10.91-23.325-15.28-37.007-16.55-4.657-.433-12.18.896-14.348 2.811" fill="none" stroke="#000" stroke-width=".706"/>
    <path d="M240.487 133.735c-11.307-2.66-26.72-24.678-26.72-24.678m27.504 30.887c-12.657-2.4-33.193-23.372-33.193-23.372" fill="none" stroke="#000" stroke-width=".705"/>
    <path d="M263.805 122.629c-21.072 14.863-22.384 11.218-23.301 11.12m23.65-7.06c-21.073 14.864-21.965 13.352-22.884 13.255" fill="none" stroke="#000" stroke-width=".777"/>
    <path d="M263.805 122.629c1.126-3.614 7.966-3.74 10.812-2.165 3.697 2.045 7.062 3.716 10.693 6.724 2.04 1.69 4.522 7.974 4.399 7.789-2-2.966-5.152-6.284-8.9-6.722m-3.725-2.684c11.668 7.034 8.174 17.877 8.174 17.877" fill="none" stroke="#000" stroke-width=".705"/>
    <path d="M276.552 131.073c7.625 2.874 8.707 12.375 8.707 12.375" fill="none" stroke="#000" stroke-width=".646"/>
    <path d="M274.884 129.198c8.767 7.732 5.757 16.9 5.757 16.9" fill="none" stroke="#000" stroke-width=".802"/>
    <path d="M273.48 133.486c6.348 5.462 7.092 12.507 7.161 12.612" fill="none" stroke="#000" stroke-width=".705"/>
    <path d="M263.967 126.775c2.102 3.47 5.075 8.556 10.126 6.985" fill="none" stroke="#000" stroke-width=".746"/>
    <path d="M213.373 121.282c-9.112 12.043-26.801 19.342-39.273 18.914M74.69 92.267c13.173 33.27 62.178 32.09 89.06 33.93" fill="none" stroke="#000" stroke-width=".704"/>
    <path d="M74.69 92.267c6.962 38.536 53.995 45.682 82.503 46.366" fill="none" stroke="#000" stroke-width=".792"/>
    <path d="M165.333 72.074c-7.626 3.92-8.793 12.184-11.017 19.241m.167-29.014c-8.9 6.835-17.806 16.062-22.093 26.723m90.091-17.198c-2.872.288-5.8-.234-8.467-1.323m6.747 9.79c-2.815.201-5.807-.102-8.07 1.984" fill="none" stroke="#000" stroke-width=".529"/>
    <path d="M210.4 101.449c-6.7-3.961-14.926-6.05-21.841-11.524-8.144-6.449-9.432-18.207-11.08-28.6-1.574-9.938-5.596-20.494-13.55-26.46l-1.16-.558-.154-.374m0 0c-23.93-.37-47.28 15.194-60.757 36.467" fill="none" stroke="#000" stroke-width=".706"/>
    <path d="M101.858 70.401c8.44-6.115 12.673-3.999 12.673-3.999m105.801 40.445c-2.179.811-3.253 2.086-4.698 3.904m-6.383 7.245c-7.316 9.23-25.884 19.382-33.168 18.876" fill="none" stroke="#000" stroke-width=".706"/>
    <path d="M211.501 122.626c-.543.301-2.771-1.826-2.381-1.058m-.662 3.969c-.763-.406-1.258-1.151-1.72-1.852m-.529 4.101c-1.029.765-3.057-2.942-3.175-1.852m0 4.365c-.516-.767-1.264-1.48-2.117-1.852m-.396 3.307c-.711.703-2.453-2.133-1.985-1.19m-1.19 3.572c-.88-.2-1.722-.93-1.852-1.852m-.927 2.91c-.984 1.068-2.115-2.107-1.984-1.455m-1.455 3.043c-.943-.321-1.409-1.256-1.984-1.985m-1.059 3.307c-.589-.549-.96-1.278-1.323-1.984m-1.72 3.307c.016-.313-.757-1.682-1.058-1.19m34.131-26.062c-.527.455-1.134-.109-1.455-.529" fill="none" stroke="#000" stroke-width=".529"/>
    <path d="M242.88 73.458c1.71-6.065-.57-8.892-.57-8.892l.09.105-.237.1c-1.162 5.764-3.191 5.662-3.191 5.662" fill="none" stroke="#000" stroke-width=".706"/>
    <path d="M215.238 111.786c1.908 2.082 3.944 4.029 5.706 6.267 1.637 2.08 2.795 4.868 5.265 5.961 1.583.7 2.231 2.155 3.523 3.192 2.057 1.651 4.262 3.07 6.294 4.769 2.066 1.726 5.918 1.252 7.06 3.459 1.371 2.649-1.166 5.892-3.752 3.757-1.893-1.563-4.14-2.152-6.5-2.93-2.418-.797-4.102-2.915-6.476-3.713-2.498-.84-3.6-3.57-5.92-4.607-2.762-1.232-4.93-3.45-6.555-5.955-1.374-2.118-7.093-4.095-5.127-5.57 1.981-1.485 6.462-2.308 5.755-4.704-.065-.22.838-.304.198.008" fill="none"/>
    <path d="M163.739 126.174c25.834-1.022 39.322-14.63 39.024-16.922M221.734 105.356c-1.532 1.556-1.425 9.14-3.392 9.175" fill="none" stroke="#000" stroke-width=".706"/>
    <path d="M158.84 135.893c-1.278-.123-11.756.714-15.903 1.87" fill="#22ad3a" stroke="#000" stroke-width=".706" stroke-linecap="round"/>
  </g>
  <g fill="#65ff80">
    <path d="M167.082 128.568c-1.713.026-3.108.311-3.567.726-4.098 4.53-6.666 10.264-7.94 16.248-.64 3.003 1.159 6.358-2.926 2.813-4.8-4.165-10.003-7.616-13.673-12.545-4.13-5.548-10.083-4.227-14.091.876-.859 1.093-1.857 1.51-2.9 1.491l-.085.147-.09.147-.058.098c-.026.045-.053.088-.08.131l-.045.075-.056.093-.045.076-.051.082-.06.09c-.023.035-.05.069-.076.102.002.037.008.07.008.108v.077l.002.12.001.128c0 .09-.005.181-.022.27-.223 1.195-.723.256-1.203-.42a1.146 1.146 0 0 1-.604-.268l-.032-.028-.04-.035c-.017-.013-.032-.027-.048-.041-.02-.017.007.005.013.01.009.006-.04-.032-.029-.022l-.037-.03c-.063.09-.12.231-.168.444a.966.966 0 0 0-.013.125v-.116l-.002-.12v-.074a2.796 2.796 0 0 1 .023-.39l-.007-.005-.088-.069-.06-.046a14.74 14.74 0 0 1-.296-.223c-.051-.04-.102-.081-.152-.123-.06-.05-.12-.1-.175-.153a4.765 4.765 0 0 1-.152-.15c-.047-.05-.095-.098-.14-.15a5.594 5.594 0 0 1-.302-.36 7.952 7.952 0 0 1-.474-.682l-.034-.049-.052-.077c-.032-.048-.019-.026-.06-.09a2.096 2.096 0 0 1-.082-.153l-.017-.032-.038-.072-.047-.094c-.028-.054-.056-.107-.081-.162l-.06-.13-.069-.152a8.406 8.406 0 0 1-.08-.186l-.07-.163c-.02-.044-.038-.09-.057-.134a1.648 1.648 0 0 1-.11-.29l-.004-.02a30.373 30.373 0 0 1-2.298-2.42.628.628 0 0 1-.117.246c1.272 2.1 4.969 8.402.571 4.211a21.762 21.762 0 0 1-1.032-1.073l-.077-.061a60.627 60.627 0 0 1-.35-.287l-.17-.144a5.946 5.946 0 0 1-.188-.162c-.042-.038-.085-.076-.129-.112a5.681 5.681 0 0 1-.13-.111 7.501 7.501 0 0 0-.14-.12c-.056-.048-.112-.096-.166-.147a3.558 3.558 0 0 1-.141-.145l-.098-.104c-.043-.044-.087-.088-.128-.134l-.113-.13-.095-.112-.088-.107-.08-.1-.068-.084a2.995 2.995 0 0 1-.078-.096l-.07-.09a5.304 5.304 0 0 1-.155-.204l-.075-.105-.082-.119a2.289 2.289 0 0 1-.152-.255l-.012-.025c-.408-.226-.303.42.778 2.812 1.59 3.517.583 2.89-.905 1.316a.818.818 0 0 1-.32-.15l-.007-.006c-.018-.013-.014-.011-.035-.024a3.824 3.824 0 0 1-.09-.057l-.085-.056a2.027 2.027 0 0 1-.163-.128 4.59 4.59 0 0 1-.075-.064c-.03-.026-.06-.051-.088-.077a1.564 1.564 0 0 0-.065-.058l-.082-.068a23.423 23.423 0 0 0-.096-.08c-.034-.029-.07-.057-.103-.088a1.414 1.414 0 0 1-.116-.116l-.08-.09-.095-.109a3.074 3.074 0 0 1-.212-.257 7.467 7.467 0 0 0-.16-.207 7.126 7.126 0 0 0-.097-.124l-.106-.137-.093-.121-.09-.119-.092-.131-.067-.1c-.024-.034-.049-.068-.072-.104a5.27 5.27 0 0 0-.072-.096l-.069-.097a3.425 3.425 0 0 1-.065-.096l-.059-.088-.062-.09a2.108 2.108 0 0 1-.06-.099.99.99 0 0 1-.057-.11c-.013-.03-.027-.061-.038-.093l-.037-.103a1.804 1.804 0 0 1-.032-.114 1.385 1.385 0 0 1-.015-.083c-.467-.558-.82-.97-.81-.884.318 3.443 1.314 5.345 3.367 7.879 1.115 1.375 2.159 2.38 3.28 3.21l.24.066c.092.025.185.048.278.069.101.021.202.046.302.07a10.06 10.06 0 0 0 .507.105 6.457 6.457 0 0 0 .486.065c.076.008.151.017.227.024.085.007.17.014.254.023l.224.024c.091.007.182.022.272.039.08.015.158.034.236.053a2.392 2.392 0 0 1 .444.133c.07.027.139.06.207.091.069.033.136.069.202.107a2.465 2.465 0 0 1 .352.242l.127.1.117.095c.05.042.094.088.138.136.029.032.057.066.084.099.036.04.067.082.098.125.028.042.053.087.08.13l.068.114a11.594 11.594 0 0 1 .135.237.719.719 0 0 1 .063.432c-.023.061-.04.125-.07.183.607.271 1.243.551 1.939.857 3.517 1.544 5.864-1.685 8.744-2.85-.004-.012-.01-.023-.012-.035-.04-.193.045-.373.165-.515.057-.059.123-.108.19-.154.043-.028.085-.058.127-.087a.952.952 0 0 0 .099-.076l.095-.09.095-.093a.779.779 0 0 1 .238-.166c.125-.06.211-.08.267-.073.14.021.088.23.009.462l.147-.022.065-.01c.024-.026.047-.053.072-.078a3.224 3.224 0 0 1 .252-.23 1.41 1.41 0 0 1 .415-.228.748.748 0 0 1 .201-.033c.068-.002.136.003.204.013.11.019.215.057.317.101.108.049.206.114.304.18.073.05.146.101.217.155.05.041.102.081.154.12l.087.066a1.886 1.886 0 0 1 .468.28l.184.142.193.15.24.19c.09.075.18.151.266.23l.252.226c.099.085.196.173.294.26.086.077.171.154.262.226a7.501 7.501 0 0 0 .458.334 6.11 6.11 0 0 1 .393.279c.088.067.167.14.224.237a.704.704 0 0 1 .08.357c3.555 2.26 11.524 8.167 15.119 11.484 4.333 3.998.15 3.874 8.005-1.043 5.43-3.399 9.545-8.315 12.857-13.773 2.363-3.893 8.307-9.766 1.722-13.512-1.942-1.105-4.67-1.501-6.872-1.469zm-45.717 10.243l-.033.045-.026.032c.016.096.026.2.032.309.115-.195.114-.317.027-.386z"/>
    <path d="M125.048 136.889c-.114.128-.286.163-.44.224-.203.08-.338.331-.557.33a.744.744 0 0 0-.44.17c-.022.017-.177.093-.084.103"/>
    <path d="M125.23 136.654c-.067.006-.13.073-.182.235-.168-.565-.86.047-1.19.255-.533.337-1.014.75-1.565 1.034-.614.316-1.42.737-1.472 1.433-.053.714-.684 1.628-.187 2.144.42.435 1.37.188 1.843-.2 1.02-.842 2.097-1.606 2.94-2.69.318-.41.571-1.032.343-1.528-.077-.167-.324-.7-.53-.683zM115.325 134.772c-.139.593-.014 1.227.258 1.741.122.23.112.646.271.773.342.273.288.726.555 1.03.23.263.463.964.805.714.392-.289.05-.908-.087-1.272-.371-.994-.652-2.263-1.595-2.729-.11-.055-.48-.368-.34-.39.102-.014.052-.018.133.133z"/>
  </g>
  <g fill="#40d659">
    <path d="M156.932 138.67c-1.193-.234-2.24-.288-3.53-.087-.965.15-.856 1.27-1.224 2.078-.613 1.345-1.12 2.712-1.712 4.08-.444 1.028.499 1.998 1.24 2.632.735.629 1.615.99 2.273 1.666.371.381.969.883 1.018-.06.054-1.06.079-2.12.346-3.16.301-1.172.459-2.351.701-3.53.202-.982.49-1.958 1.106-2.764.415-.543-.706-1.043-.078-.648M131.99 140.13c-2.252.36-4.613.898-6.727 1.906-2.328 1.11-4.476 3.062-7.127 2.757-2.01-.232-1.252.067-.116 1.33 1.661 1.849 4.285 1.813 6.83 1.229 2.62-.601 4.079-3.515 6.56-3.93 2.103-.35 3.9 1.743 5.353 3.286 1.91 2.026 3.951 3.983 6.284 5.494.974.63 3.341 1.606 1.499-.04-2.114-1.891-4.156-3.931-5.655-6.28-1.484-2.326-3.574-4.15-6.03-5.486-.267-.146-.56-.266-.87-.267zM120.088 140.163c-.36-.806-.861-1.509-1.356-2.224-.497-.72-1.386-1.083-1.833-1.813-.514-.839-1.2-1.536-1.805-2.346-.294-.393-.514-.724-.345.035.242 1.088.286 2.265.9 3.188.242.363.635 1.634.588 1.606-.894-.54-1.469-1.41-2.314-2.013-.691-.494-1.555-.773-2.104-1.404-.48-.552-1.877-2.153-1.646-1.67.368.765.719 1.536 1.148 2.275.467.806.923 1.616 1.164 2.515.304 1.136 1.407 1.186 2.349 1.57.816.333 1.752.135 2.637.426.825.271 3.154-.063 2.658.025-.254.045-.054.135.077.173"/>
  </g>
  <g fill="none" stroke="#000">
    <path d="M120.206 140.506c-1.072-1.972-2.744-3.491-3.93-5.408-.394-.635-1.099-1.02-1.49-1.643-.101-.163-.65-.903-.539-.612.395 1.033.833 2.044 1.153 3.11.316 1.051.596 2.117.97 3.15m31.499 16.464c-1.503-2.174-4.214-2.867-6.19-4.465-2.836-2.296-5.334-4.97-8.247-7.197-.974-.744-1.441-1.432-2.788-.406-2.417 1.841-5.022 3.705-7.971 4.356-2.352.52-6.711-3.198-6.711-3.198m38.029 15.903c-7.334-5.17-16.563-15.818-21.002-20.515m0 0c-5.078-.11-12.404 6.323-15.343 4.721m-10.799-12.072c1.195 12.608 11.27 12.179 11.27 12.179" stroke-width=".706"/>
    <path d="M119.551 140.851c-7.67-4.49-9.915-8.607-9.915-8.607l.28.281m53.599-3.231c-4.828 4.715-9.258 15.174-8.233 20.835m-2.121-11.363a32.432 32.432 0 0 0-2.124 4.78c-.307.884-.77 1.771-.74 2.717" stroke-width=".706"/>
    <path d="M155.282 150.129c-3.416-2.368-19.167-16.892-22.858-17.57m.411-.127c-5.36 2.3-9.652 3.958-12.523 7.792-.937 1.252-3.985.295-5.906-.496v.187c-7.857-4.116-7.483-7.483-7.483-7.483h-.187m5.519 6.174c-1.777-4.865-2.526-5.894-2.526-5.894" stroke-width=".706"/>
    <path d="M172.061 136.796c-.06 1.435.094 2.868.094 4.303m-.967-1.403c-.096 1.057-.094 2.12-.094 3.18m-.935-.561c-.064.92-.178 1.864-.561 2.713m-.842-.468c-.535 1.196-.192 2.719-1.123 3.742" stroke-width=".353" stroke-linecap="round"/>
    <path d="M177.972 132.234c-2.4 9.578-10.01 18.939-18.302 24.867a43.309 43.309 0 0 1-5.68 3.459" stroke-width=".706"/>
  </g>
</svg>
