<?xml version="1.0" encoding="UTF-8" standalone="no"?>
<svg
   xmlns:dc="http://purl.org/dc/elements/1.1/"
   xmlns:cc="http://creativecommons.org/ns#"
   xmlns:rdf="http://www.w3.org/1999/02/22-rdf-syntax-ns#"
   xmlns:svg="http://www.w3.org/2000/svg"
   xmlns="http://www.w3.org/2000/svg"
   xmlns:sodipodi="http://sodipodi.sourceforge.net/DTD/sodipodi-0.dtd"
   xmlns:inkscape="http://www.inkscape.org/namespaces/inkscape"
   width="1024pt"
   height="816"
   viewBox="0 0 361.244 215.9"
   version="1.1"
   id="svg3017"
   sodipodi:docname="dragon-no-color-no-layers.svg"
   inkscape:version="0.92.2 5c3e80d, 2017-08-06">
  <metadata
     id="metadata3023">
    <rdf:RDF>
      <cc:Work
         rdf:about="">
        <dc:format>image/svg+xml</dc:format>
        <dc:type
           rdf:resource="http://purl.org/dc/dcmitype/StillImage" />
        <dc:title></dc:title>
      </cc:Work>
    </rdf:RDF>
  </metadata>
  <defs
     id="defs3021" />
  <sodipodi:namedview
     pagecolor="#ffffff"
     bordercolor="#666666"
     borderopacity="1"
     objecttolerance="10"
     gridtolerance="10"
     guidetolerance="10"
     inkscape:pageopacity="0"
     inkscape:pageshadow="2"
     inkscape:window-width="1438"
     inkscape:window-height="795"
     id="namedview3019"
     showgrid="false"
     inkscape:zoom="0.35355339"
     inkscape:cx="889.13022"
     inkscape:cy="532.55727"
     inkscape:window-x="87"
     inkscape:window-y="0"
     inkscape:window-maximized="0"
     inkscape:current-layer="svg3017" />
  <path
     d="M154.125 91.208l.058.06.07.011a1.81 1.81 0 0 0-.128-.07zM154.254 91.28c.02.012.04.02.062.035-.024-.018-.03-.02-.048-.034l-.014-.002zM153.785 91.088c-.022 0-.053.003-.07.004l.02.01c.017-.002.05-.007.05-.014zM153.471 91.04l.09.036.096.018.057-.002-.07-.037c-.057-.008-.115-.01-.173-.016zM152.659 90.722l.02.007c.02.005.048.01.085.02l-.015-.013c-.026-.004-.046-.01-.074-.013l-.016-.001zM152.764 90.748c.007.007.015.011.023.018a1.07 1.07 0 0 0-.016-.003l.014.005c.067.015.134.032.2.045a1.656 1.656 0 0 0-.22-.065zM151.029 90.202c.02.008.045.027.073.052l.138.021a.657.657 0 0 0-.211-.073zM150.22 89.914l-.017-.015-.029-.003-.063.006.108.012zM148.46 89.676a.363.363 0 0 0-.033.053c.214.13.43.26.652.376l.041-.006.008-.001a.564.564 0 0 0-.075-.083c-.22-.18-.388-.3-.592-.339zM148.427 89.729l-.108-.065c-.074 0-.153.007-.242.027-.044.031-.13.08-.2.123.11.025.219.054.326.088l.02.006a.469.469 0 0 0 .204-.18zM134.505 91.417l-.027-.001c.156.023.306.047.451.071-.134-.05-.28-.058-.424-.07zM123.41 72.66c.091-.17.176-.33.302-.56.055-.1-.44.718-.301.56zM127.278 67.2l.027-.029c.043-.086.106-.213.143-.267.05-.074.118-.182.192-.28l-.041.029c-.135.178-.22.273-.321.548zM127.64 66.625c.15-.104.248-.172.28-.177l.014-.03c-.097-.02-.2.084-.294.207zM127.92 66.448c-.021.055-.046.109-.07.163.077-.115.101-.168.07-.163zM146.645 50.73h.384c.093-.042.186-.089.28-.137-.145 0-.29-.002-.434-.003-.066.06-.156.09-.23.14zM147.31 50.593l1.592.014c-.08-.078-.174-.102-.264-.135-.432-.325-.885-.104-1.329.121z"
     id="path2773"
     fill="#65ff80" />
  <g
     id="g3110"
     transform="translate(-6.119,1.844)">
    <g
       id="g2967"
       style="stroke:#000000">
      <g
         id="g2915"
         transform="translate(98.927,-5.159)">
        <path
           id="path2899"
           d="m 120.227,95.905 c -1.24,1.075 -4.32,4.744 -3.742,3.207 0.698,-1.857 1.867,-3.591 1.883,-5.655 0.018,-2.385 -0.516,-4.987 -2.15,-6.64 -0.336,-0.339 -1.775,0.204 -0.69,-0.297 1.633,-0.754 3.07,-2.01 3.985,-3.538 1.052,-1.754 0.905,-3.975 0.348,-5.842 -0.387,-1.298 -0.85,-2.625 -1.647,-3.732 -0.324,-0.45 -1.33,-0.428 -0.329,-0.902 1.873,-0.886 3.483,-2.267 4.898,-3.764 1.48,-1.565 0.723,-3.94 1.205,-5.866 0.231,-0.923 -0.873,-3.272 -0.122,-2.771 0.732,0.488 1.023,1.584 1.442,2.39 1.476,2.836 3.139,5.838 5.996,7.488 1.413,0.816 3.096,0.97 4.692,0.798"
           inkscape:connector-curvature="0"
           style="fill:none;stroke-width:0.70599997" />
        <ellipse
           id="ellipse2901"
           cx="147.69"
           cy="83.225998"
           rx="0.648"
           ry="1.663"
           style="stroke:none" />
        <path
           id="path2903"
           d="m 130.962,92.004 c 3.308,-0.53 -3.385,-1.24 -4.69,-0.897 -3.42,0.898 -4.477,4.317 -7.712,6.064 -0.778,0.42 1.331,-1.5 1.667,-1.266"
           inkscape:connector-curvature="0"
           style="fill:none;stroke-width:0.70599997" />
        <path
           id="path2905"
           d="m 125.653,91.188 c 1.337,3.054 3.751,6.534 1.096,9.92 -1.826,2.329 -4.41,3.131 -5.934,4.264 m 37.288,3.684 c -4.24,-2.844 -8.503,-0.953 -12.267,-4.383 -5.67,-5.167 -15.528,-1.196 -17.262,3.954 l 0.784,-0.052 M 139.7,71.178 139.568,71.112 m 9.085,7.861 c 0.562,-0.81 -1.116,-1.463 -1.8,-1.562 -0.23,-0.033 -0.463,-0.065 -0.678,-0.157 m 24.68,27.791 c 4.09,-3.28 8.237,-7.712 8.994,-12.98 0.383,-2.663 1.948,-4.71 -1.058,-1.693 -3.254,3.268 -7.038,6.697 -11.64,7.529 l 0.148,-0.05 0.248,0.05"
           inkscape:connector-curvature="0"
           style="fill:none;stroke-width:0.70599997" />
        <path
           id="path2907"
           d="m 135.996,70.781 c 6.815,0.357 13.985,3.563 16.8,10.319 1.988,4.769 2.93,7.89 9.066,11.32 5.45,3.05 7.79,9.995 10.004,15.76 1.325,3.45 2.943,7.984 -1.99,3.552 -4.917,-4.416 -12.061,-4.002 -17.37,-7.243 -2.605,-1.59 -5.59,-3.536 -6.72,-6.456"
           inkscape:connector-curvature="0"
           style="fill:none;stroke-width:0.70599997" />
        <path
           id="path2909"
           d="m 158.838,107.105 c -0.116,0.602 -0.717,0.981 -0.827,1.575 -0.024,0.132 0.01,0.27 0.092,0.376"
           inkscape:connector-curvature="0"
           style="fill:none;stroke-width:0.70599997" />
        <ellipse
           id="ellipse2911"
           cx="164.015"
           cy="100.402"
           rx="0.37400001"
           ry="0.74800003"
           style="stroke:none" />
        <path
           id="path2913"
           d="m 165.293,99.247 c -0.35,-0.379 -0.197,-1.03 -0.6,-1.345 -0.436,-0.341 -1.19,-0.384 -1.552,0.036 -0.21,0.244 -0.331,0.553 -0.467,0.842"
           inkscape:connector-curvature="0"
           style="fill:none;stroke-width:0.52899998" />
      </g>
      <path
         id="path2917"
         d="M 219.744,100.214 C 212.072,99.811 202.399,97.595 195.092,92.991 186.55,87.609 183.526,77.233 180.131,67.878 176.692,58.402 170.568,48.789 161.123,44.443 l -1.32,-0.327 -0.229,-0.338 m 0,0 c -25.54,4.183 -47.83,23.807 -58.503,47.524 m 33.492,4.166 C 127.87,83.159 110.328,80.673 100.987,90.401"
         inkscape:connector-curvature="0"
         style="fill:none;stroke-width:0.70599997" />
      <path
         id="path2919"
         d="m 159.763,95.806 c -3.41,-4.75 -9.232,-6.415 -15.266,-5.952 -2.687,0.206 -12.753,4.38 -9.288,5.614 m 75.933,14.077 c -9.062,-10.91 -23.325,-15.28 -37.007,-16.55 -4.657,-0.433 -12.18,0.896 -14.348,2.811"
         inkscape:connector-curvature="0"
         style="fill:none;stroke-width:0.70599997" />
      <g
         id="g2935"
         style="fill:none;stroke-width:0.88499999">
        <path
           id="path2921"
           transform="matrix(1.11916,0,0,1.14071,82.885,-20.094)"
           d="m 146.289,133.237 c -10.103,-2.331 -23.875,-21.634 -23.875,-21.634 m 24.576,27.077 c -11.31,-2.103 -29.659,-20.489 -29.659,-20.489"
           inkscape:connector-curvature="0"
           style="stroke-width:0.62400001" />
        <path
           id="path2923"
           transform="matrix(1.11916,0,0,1.14071,82.885,-20.094)"
           d="m 167.124,123.501 c -18.828,13.03 -20,9.834 -20.82,9.748 m 21.132,-6.188 c -18.829,13.03 -19.626,11.704 -20.447,11.619"
           inkscape:connector-curvature="0"
           style="stroke-width:0.68800002" />
        <path
           id="path2925"
           transform="matrix(1.11916,0,0,1.14071,82.885,-20.094)"
           d="m 167.124,123.501 c 1.007,-3.168 7.118,-3.278 9.661,-1.898 3.304,1.793 6.31,3.258 9.555,5.895 1.823,1.481 4.04,6.99 3.93,6.828 -1.786,-2.6 -4.603,-5.509 -7.952,-5.893 m -3.328,-2.353 c 10.425,6.167 7.303,15.672 7.303,15.672"
           inkscape:connector-curvature="0"
           style="stroke-width:0.62400001" />
        <path
           id="path2927"
           transform="matrix(1.11916,0,0,1.14071,82.885,-20.094)"
           d="m 178.514,130.904 c 6.813,2.519 7.78,10.848 7.78,10.848"
           inkscape:connector-curvature="0"
           style="stroke-width:0.57200003" />
        <path
           id="path2929"
           transform="matrix(1.11916,0,0,1.14071,82.885,-20.094)"
           d="m 177.024,129.26 c 7.833,6.778 5.144,14.815 5.144,14.815"
           inkscape:connector-curvature="0"
           style="stroke-width:0.70999998" />
        <path
           id="path2931"
           transform="matrix(1.11916,0,0,1.14071,82.885,-20.094)"
           d="m 175.77,133.019 c 5.671,4.788 6.336,10.964 6.398,11.056"
           inkscape:connector-curvature="0"
           style="stroke-width:0.62400001" />
        <path
           id="path2933"
           transform="matrix(1.11916,0,0,1.14071,82.885,-20.094)"
           d="m 167.269,127.136 c 1.878,3.042 4.535,7.5 9.048,6.123"
           inkscape:connector-curvature="0"
           style="stroke-width:0.66000003" />
      </g>
      <path
         id="path2937"
         d="m 219.492,119.438 c -9.112,12.043 -26.801,19.342 -39.273,18.914 M 80.809,90.423 c 13.173,33.27 62.178,32.09 89.06,33.93"
         inkscape:connector-curvature="0"
         style="fill:none;stroke-width:0.704" />
      <path
         id="path2939"
         d="m 80.809,90.423 c 6.962,38.536 53.995,45.682 82.503,46.366"
         inkscape:connector-curvature="0"
         style="fill:none;stroke-width:0.792" />
      <path
         id="path2941"
         d="m 169.858,124.33 c 25.834,-1.022 39.322,-14.63 39.024,-16.922 m 18.971,-3.896 c -1.532,1.556 -1.425,9.14 -3.392,9.175 m -40.37,17.703 c -2.942,11.745 -13.72,23.162 -23.982,28.326"
         inkscape:connector-curvature="0"
         style="fill:none;stroke-width:0.70599997" />
      <path
         id="path2943"
         d="m 171.452,70.23 c -7.626,3.92 -8.793,12.184 -11.017,19.241 m 0.167,-29.014 c -8.9,6.835 -17.806,16.062 -22.093,26.723 M 228.6,69.982 c -2.872,0.288 -5.8,-0.234 -8.467,-1.323 m 6.747,9.79 c -2.815,0.201 -5.807,-0.102 -8.07,1.984"
         inkscape:connector-curvature="0"
         style="fill:none;stroke-width:0.52899998" />
      <g
         id="g2947"
         style="fill:none;stroke-width:0.73000002">
        <path
           id="path2945"
           transform="matrix(0.91924,0.17909,-0.16733,0.98383,91.018,-76.558)"
           d="m 163.697,149.26 c -7.764,-2.613 -16.8,-3.091 -25.062,-7.151 -9.73,-4.784 -13.192,-16.105 -16.788,-26.014 -3.438,-9.476 -9.563,-19.09 -19.007,-23.436 l -1.321,-0.326 -0.229,-0.338 m 0,0 c -25.265,4.222 -47.064,24.01 -57.445,47.523"
           inkscape:connector-curvature="0" />
      </g>
      <path
         id="path2949"
         d="m 107.977,68.557 c 8.44,-6.115 12.673,-3.999 12.673,-3.999 m 105.801,40.445 c -2.179,0.811 -3.253,2.086 -4.698,3.904 m -6.383,7.245 c -7.316,9.23 -25.884,19.382 -33.168,18.876"
         inkscape:connector-curvature="0"
         style="fill:none;stroke-width:0.70599997" />
      <path
         id="path2951"
         d="m 217.62,120.782 c -0.543,0.301 -2.771,-1.826 -2.381,-1.058 m -0.662,3.969 c -0.763,-0.406 -1.258,-1.151 -1.72,-1.852 m -0.529,4.101 c -1.029,0.765 -3.057,-2.942 -3.175,-1.852 m 0,4.365 c -0.516,-0.767 -1.264,-1.48 -2.117,-1.852 m -0.396,3.307 c -0.711,0.703 -2.453,-2.133 -1.985,-1.19 m -1.19,3.572 c -0.88,-0.2 -1.722,-0.93 -1.852,-1.852 m -0.927,2.91 c -0.984,1.068 -2.115,-2.107 -1.984,-1.455 m -1.455,3.043 c -0.943,-0.321 -1.409,-1.256 -1.984,-1.985 m -1.059,3.307 c -0.589,-0.549 -0.96,-1.278 -1.323,-1.984 m -1.72,3.307 c 0.016,-0.313 -0.757,-1.682 -1.058,-1.19 m 34.131,-26.062 c -0.527,0.455 -1.134,-0.109 -1.455,-0.529"
         inkscape:connector-curvature="0"
         style="fill:none;stroke-width:0.52899998" />
      <path
         id="path2953"
         d="m 248.999,71.614 c 1.71,-6.065 -0.57,-8.892 -0.57,-8.892 l 0.09,0.105 -0.237,0.1 c -1.162,5.764 -3.191,5.662 -3.191,5.662 m -36.324,39.45 c -0.555,0.205 -1.162,0.176 -1.743,0.146 -0.763,-0.04 -1.515,-0.187 -2.26,-0.36 a 12.686,12.686 0 0 1 -2.031,-0.673 c -0.33,-0.138 -0.816,-0.292 -1.067,0.039 -0.275,0.363 -0.241,0.854 -0.208,1.282 0.078,1.02 0.456,2.008 0.451,3.032 -0.004,0.848 -0.244,1.703 -0.088,2.543 0.032,0.171 0.109,0.405 0.322,0.403 m -0.421,-0.141 c -0.996,0.056 -2.041,-0.001 -2.937,-0.415 -1.313,-0.606 -2.909,-0.993 -3.759,-2.161 -0.427,-0.587 -0.788,0.163 -0.995,0.54 -0.84,1.528 -0.598,3.332 -0.65,5.011 -0.015,0.53 0.268,1.334 -0.23,1.596 -0.557,0.293 -1.114,-0.368 -1.576,-0.657 -1.652,-1.035 -3.05,-3.831 -4.893,-3.203 -0.503,0.172 -0.659,0.8 -0.845,1.253 -0.72,1.747 -1.001,3.701 -2.035,5.288 -0.15,0.23 -0.297,0.561 -0.602,0.607"
         inkscape:connector-curvature="0"
         style="fill:none;stroke-width:0.70599997" />
      <path
         id="path2955"
         d="m 183.574,122.262 c -0.866,-0.877 -1.92,-1.542 -2.99,-2.144 -1.388,-0.782 -2.722,-1.66 -4.228,-2.23 -0.152,-0.057 -0.52,-0.472 -0.48,-0.348 0.116,0.368 -0.107,0.71 -0.242,1.039 -0.32,0.773 -0.408,1.612 -0.615,2.418 -0.32,1.244 -0.807,2.495 -1.735,3.417"
         inkscape:connector-curvature="0"
         style="fill:none;stroke-width:0.70599997" />
      <path
         id="path2957"
         d="m 173.565,124.32 c -0.385,-0.543 -0.88,-1 -1.361,-1.457 -1.477,-1.408 -2.915,-2.882 -4.582,-4.06 -0.28,-0.198 -0.633,-0.825 -0.87,-0.57 -0.23,0.247 -0.279,0.613 -0.34,0.933 a 2.94,2.94 0 0 1 -0.42,1.055 c -0.524,0.81 -1.08,1.601 -1.68,2.357 -0.287,0.36 -0.721,0.537 -1.096,0.785 -0.18,0.12 -0.314,0.297 -0.409,0.49 m 0,-0.655 c -0.34,-0.676 -0.778,-1.296 -1.218,-1.909 -0.8,-1.114 -1.562,-2.273 -2.538,-3.238 -0.182,-0.18 -0.343,-0.59 -0.587,-0.5 -0.196,0.074 -0.235,0.38 -0.31,0.571 -0.542,1.391 -1.009,2.834 -1.812,4.098 -0.243,0.383 -0.48,0.831 -0.906,1.023 a 0.503,0.503 0 0 1 -0.206,0.048 m -30.876,-3.435 c -0.505,-1.218 -1.173,-2.376 -2.06,-3.358 -0.68,-0.753 -1.554,-1.44 -1.844,-2.421 -0.108,-0.365 -0.365,0.122 -0.504,0.26 -1.13,1.134 -2.311,2.233 -3.634,3.137 -0.138,0.094 -0.276,0.189 -0.425,0.266 m -0.59,-0.03 c -0.441,-0.216 -0.754,-0.625 -1.069,-0.991 -1.38,-1.608 -2.662,-6.738 -3.897,-5.018 a 54.221,54.221 0 0 1 -2.329,3.021 c -0.255,0.307 -0.767,0.486 -1.015,0.038 -0.427,-0.771 -0.662,-1.63 -1.027,-2.432 -0.408,-0.9 -0.585,-2.298 -1.549,-2.517 -0.41,-0.094 -0.672,0.433 -0.9,0.707 -0.709,0.85 -1.505,1.895 -2.705,1.968 m -0.529,-0.836 c 0.2,-0.078 0.121,-0.366 0.087,-0.527 -0.168,-0.796 -0.47,-1.555 -0.73,-2.323 -0.19,-0.563 -0.245,-1.18 -0.53,-1.704 -0.042,-0.075 0.162,-0.243 0.07,-0.21 -0.512,0.188 -1.037,0.346 -1.54,0.56 -0.769,0.327 -1.55,0.705 -2.122,1.326 -0.11,0.12 -0.211,0.25 -0.295,0.39 m -0.033,-0.778 c -0.177,-0.39 -0.273,-0.813 -0.363,-1.23 -0.187,-0.87 -0.38,-1.755 -0.355,-2.647 0.008,-0.29 0.075,-0.571 0.16,-0.858 0.028,-0.094 0.299,-0.15 0.107,-0.06 -1.116,0.522 -2.427,0.755 -3.339,1.585 -0.066,0.06 -0.397,0.173 -0.308,0.256 m 164.704,-4.496 c 0.095,-1.03 0.418,-3.783 -1.145,-1.882 -0.318,0.386 -0.602,0.8 -0.922,1.184 m -2.494,-1.346 c 0.106,-0.993 0.747,-3.417 -0.993,-1.906 -0.335,0.29 -0.671,0.585 -0.952,0.93 m -84.325,36.135 c -1.278,-0.123 -11.756,0.714 -15.903,1.87"
         inkscape:connector-curvature="0"
         style="fill:none;stroke-width:0.70599997" />
      <path
         id="path2959"
         d="m 178.18,134.952 c -0.06,1.435 0.094,2.868 0.094,4.303 m -0.967,-1.403 c -0.096,1.057 -0.094,2.12 -0.094,3.18 m -0.935,-0.561 c -0.064,0.92 -0.178,1.864 -0.561,2.713 m -0.842,-0.468 c -0.535,1.196 -0.192,2.719 -1.123,3.742"
         inkscape:connector-curvature="0"
         style="fill:none;stroke-width:0.35299999;stroke-linecap:round" />
      <path
         id="path2961"
         d="m 155.634,123.828 c -0.346,-0.687 -0.792,-1.317 -1.24,-1.94 -0.793,-1.103 -1.531,-2.27 -2.516,-3.207 -0.19,-0.18 -0.401,-0.668 -0.613,-0.503 -0.173,0.134 -0.26,0.375 -0.37,0.567 -0.676,1.187 -1.299,2.434 -2.226,3.444 -0.296,0.322 -0.609,0.694 -1.053,0.799 l -0.03,0.004 -0.058,0.003"
         inkscape:connector-curvature="0"
         style="fill:none;stroke-width:0.70599997" />
      <path
         id="path2963"
         d="m 148.188,123.182 c -0.346,-0.686 -0.793,-1.316 -1.24,-1.939 -0.794,-1.103 -1.532,-2.27 -2.517,-3.208 -0.19,-0.18 -0.4,-0.668 -0.613,-0.503 -0.173,0.134 -0.26,0.375 -0.37,0.568 -0.676,1.187 -1.298,2.434 -2.226,3.444 -0.296,0.321 -0.609,0.694 -1.053,0.798 l -0.03,0.004 -0.058,0.003 m 0.159,-0.334 c -0.346,-0.687 -0.793,-1.317 -1.24,-1.94 -0.793,-1.103 -1.532,-2.27 -2.517,-3.207 -0.189,-0.18 -0.4,-0.668 -0.613,-0.503 -0.172,0.134 -0.259,0.375 -0.369,0.567 -0.677,1.187 -1.299,2.434 -2.227,3.444 -0.295,0.322 -0.608,0.694 -1.052,0.799 l -0.03,0.004 -0.058,0.003"
         inkscape:connector-curvature="0"
         style="fill:none;stroke-width:0.70599997" />
      <path
         id="path2965"
         d="m 132.646,121.372 c -0.287,-0.726 -0.68,-1.405 -1.076,-2.077 -0.692,-1.174 -1.32,-2.41 -2.223,-3.433 -0.162,-0.184 -0.32,-0.653 -0.533,-0.517 -0.184,0.117 -0.292,0.349 -0.42,0.53 -0.783,1.12 -1.517,2.305 -2.534,3.225 -0.324,0.293 -0.67,0.635 -1.122,0.698 l -0.03,0.001 -0.058,-0.002"
         inkscape:connector-curvature="0"
         style="fill:none;stroke-width:0.70599997" />
    </g>
    <g
       id="g3013"
       style="fill:none;stroke:#000000;stroke-width:0.70599997">
      <path
         id="path3007"
         d="m 161.401,148.285 c -3.416,-2.368 -19.167,-16.892 -22.858,-17.57 m 0.411,-0.127 c -5.36,2.3 -9.652,3.958 -12.523,7.792 -0.937,1.252 -3.985,0.295 -5.906,-0.496 v 0.187 c -7.857,-4.116 -7.483,-7.483 -7.483,-7.483 h -0.187 m 5.519,6.174 c -1.777,-4.865 -2.526,-5.894 -2.526,-5.894"
         inkscape:connector-curvature="0" />
      <path
         id="path3009"
         d="m 126.325,138.662 c -1.072,-1.972 -2.744,-3.491 -3.93,-5.408 -0.394,-0.635 -1.099,-1.02 -1.49,-1.643 -0.101,-0.163 -0.65,-0.903 -0.539,-0.612 0.395,1.033 0.833,2.044 1.153,3.11 0.316,1.051 0.596,2.117 0.97,3.15 m 31.499,16.464 c -1.503,-2.174 -4.214,-2.867 -6.19,-4.465 -2.836,-2.296 -5.334,-4.97 -8.247,-7.197 -0.974,-0.744 -1.441,-1.432 -2.788,-0.406 -2.417,1.841 -5.022,3.705 -7.971,4.356 -2.352,0.52 -4.037,-1.62 -5.49,-3.091 -0.45,-0.457 -1.188,-0.726 -0.8,0.22 m 37.608,15.576 c -7.334,-5.17 -16.563,-15.818 -21.002,-20.515 m 0,0 c -5.078,-0.11 -12.404,5.902 -15.343,4.3 M 112.966,130.85 c 1.195,12.608 11.27,12.179 11.27,12.179"
         inkscape:connector-curvature="0" />
      <path
         id="path3011"
         d="m 125.67,139.007 c -7.67,-4.49 -9.915,-8.607 -9.915,-8.607 l 0.28,0.281 m 53.599,-3.231 c -4.828,4.715 -9.258,15.174 -8.233,20.835 m -2.121,-11.363 a 32.433,32.433 0 0 0 -2.124,4.78 c -0.307,0.884 -0.77,1.771 -0.74,2.717 0.003,0.106 0.01,0.225 0.085,0.308"
         inkscape:connector-curvature="0" />
    </g>
  </g>
</svg>
