<svg xmlns:vectornator="http://vectornator.io" xmlns="http://www.w3.org/2000/svg" viewBox="0 0 16 16" fill-rule="evenodd" clip-rule="evenodd" stroke-linecap="round" stroke-linejoin="round"><path fill="#800000" d="M13.617 2.452c-.045-.054-.154-.068-.154-.068-.086-.089-1.253-.066-2.43.015-1.178.08-2.361.208-2.458.301L4.998 6.193 1.42 9.686a.502.502 0 00-.159.33c-.006.119.02.244.106.332l2.03 2.08 2.03 2.08c.087.088.211.117.33.114a.502.502 0 00.334-.15l3.578-3.493 3.578-3.493c.096-.094.25-1.27.36-2.449.112-1.179.183-2.363.097-2.452 0 0-.042-.08-.087-.133zM11.984 4.09a1.192 1.192 0 01-.02 1.679 1.192 1.192 0 01-1.68-.02 1.192 1.192 0 01.02-1.68 1.192 1.192 0 011.68.02z" vectornator:layerName="Layer 1"/></svg>