<svg xmlns="http://www.w3.org/2000/svg" width="620" height="450" viewBox="0 0 622.191 450">
  <circle cx="76.771" cy="379.838" r="69.75" fill="#fff" stroke="#000" stroke-width="2.007"/>
  <circle cx="226.855" cy="380.387" r="69.75" fill="#fff" stroke="#000" stroke-width="2.007"/>
  <circle cx="376.765" cy="380.904" r="69.75" fill="#fff" stroke="#000" stroke-width="2.007"/>
  <circle cx="76.09" cy="229.923" r="69.75" fill="#fff" stroke="#000" stroke-width="2.007"/>
  <circle cx="226.174" cy="230.472" r="69.75" fill="#fff" stroke="#000" stroke-width="2.007"/>
  <circle cx="376.084" cy="230.989" r="69.75" fill="#fff" stroke="#000" stroke-width="2.007"/>
  <circle cx="74.901" cy="81.754" r="69.75" fill="#fff" stroke="#000" stroke-width="2.007"/>
  <ellipse class="left" cx="60.28" cy="64.077" rx="3.509" ry="6.794" fill="none" stroke="#000" stroke-width="1.731"/>
  <circle cx="224.985" cy="82.303" r="69.75" fill="#fff" stroke="#000" stroke-width="2.007"/>
  <ellipse class="left" cx="208.235" cy="59.148" rx="5.5" ry="9.534"/>
  <ellipse cx="241.235" cy="58.19" rx="5.5" ry="9.534"/>
  <path d="M195.277 105.378q31-21.347 61 0" fill="none" stroke="#000" stroke-width="2.007" stroke-linecap="round"/>
  <circle cx="374.895" cy="82.82" r="69.75" fill="#fff" stroke="#000" stroke-width="2.007"/>
  <circle cx="392.625" cy="-62.746" r="6.021" transform="scale(1 -1)"/>
  <path d="M100.11 49.395c-1.65-4.945-8.194-9.498-13.411-7.664M62.27 41.252c-5.92.16-9.753 4.586-13.412 8.622" fill="none" stroke="#000" stroke-width="2.007"/>
  <path d="M194.085 35.116c5.3-4.602 16.851 4.953 20.597 9.101M255.413 32.82c-5.3-4.603-16.851 4.952-20.597 9.1" fill="none" stroke="#000" stroke-width="2.007" stroke-linecap="square"/>
  <circle cx="359.023" cy="-62.127" r="6.021" transform="scale(1 -1)"/>
  <path d="M358.84 98.19c-10.176-6.346-17.196 1.569-13.454 11.256 3.63 9.392 17.592 24.216 25.883 15.337 4.925-5.275-2.216-22.926-7.446-23.198" fill="#500"/>
  <path d="M406.104 97.867c-14.525 30.194-56.867-13.584-61.644 2.032-6.893 22.54 46.909 46.52 21.773 3.077M399.484 42.69c-.791-15.808-15.71 10.72-15.328 8.142M363.56 50.353c-.316-9.101-10.905-4.927-13.413.48M374.006 72.296c8.775.595 15.236 17.65 2.395 17.244" fill="none" stroke="#000" stroke-width="2.007" stroke-linecap="square"/>
  <path d="M357.048 98.908c-13-6.204-8.92 12.104-.773 16.183 13.015 6.516 3.743-12.487.773-16.183z" fill="#ff8080"/>
  <circle cx="60.751" cy="-209.025" transform="scale(1 -1)" r="3.011"/>
  <path d="M47.9 190.675c-12.643 3.647-15.318 31.27-2.395 35.47M102.505 189.832c9.143.828 20.378 31.864 3.353 33.051M77.598 224.23c4.07 4.482 13.937 24.948-1.437 23.47M90.53 275.846c-4.676-15.367-29.216 3.322-26.832 4.35 9.307 4.009 20.53-1.727 27.02-3.218l-.187 1.263" fill="none" stroke="#000" stroke-width="2.007" stroke-linecap="square"/>
  <circle cx="93.405" cy="-207.464" transform="scale(1 -1)" r="3.011"/>
  <circle cx="208.189" cy="-199.816" transform="scale(1 -1)" r="4.516"/>
  <path d="M225.537 216.525c4.07 4.483 13.938 24.949-1.437 23.471" fill="none" stroke="#000" stroke-width="2.007" stroke-linecap="square"/>
  <circle cx="240.843" cy="-198.255" transform="scale(1 -1)" r="4.516"/>
  <path d="M236.625 197.405a18.974 18.974 0 0 1 .253-5.834c.335-1.671.907-3.316 1.87-4.723.964-1.406 2.343-2.564 3.97-3.073.58-.181 1.192-.28 1.797-.222.604.058 1.202.278 1.66.677a2.5 2.5 0 0 1 .815 1.467 2.5 2.5 0 0 1-.306 1.65M205.011 199.8c-1.164-3.815-.75-8.085 1.125-11.606.545-1.025 1.219-1.998 2.105-2.749.886-.75 2.002-1.265 3.163-1.29.943-.021 1.89.288 2.637.863a4.183 4.183 0 0 1 1.508 2.328c.07.294.11.602.264.86a.83.83 0 0 0 .318.314c.133.07.295.093.438.044a.488.488 0 0 0 .303-.31.488.488 0 0 0-.07-.427.488.488 0 0 0-.387-.197.488.488 0 0 0-.387.195" fill="none" stroke="#000" stroke-width="2.007" stroke-linecap="square"/>
  <ellipse cx="76.492" cy="131.988" rx="4.79" ry="6.466" fill="none" stroke="#000" stroke-width="2.007" stroke-linecap="square"/>
  <path d="M411.459 203.153a14.286 14.286 0 0 1-7.12 5.793c-2.94 1.082-6.181 1.16-9.265.618a24.076 24.076 0 0 1-4.212-1.142M361.643 207.464a21.086 21.086 0 0 1-13.504 1.201 20.974 20.974 0 0 1-7.572-3.596M379.366 241.264a8.42 8.42 0 0 0 2.217-4.298 8.42 8.42 0 0 0-.534-4.807 8.321 8.321 0 0 0-3.94-4.165 8.195 8.195 0 0 0-5.407-.62" fill="none" stroke="#000" stroke-width="2.007" stroke-linecap="square"/>
  <path d="M382.149 262.458a14.432 14.432 0 0 0-9.134-3.754c-1.772-.066-3.573.207-5.186.942-1.614.735-3.031 1.95-3.872 3.51a7.507 7.507 0 0 0-.852 4.141 8.147 8.147 0 0 0 1.449 3.982c.947 1.355 2.27 2.404 3.65 3.313 1.382.909 2.84 1.699 4.19 2.655.607.431 1.22.909 1.95 1.054.366.072.756.054 1.097-.096a1.39 1.39 0 0 0 .456-.317c.127-.136.225-.3.277-.48a1.31 1.31 0 0 0 .027-.582c-.033-.193-.101-.379-.188-.554-.174-.351-.42-.66-.635-.989-.609-.936-.942-2.02-1.306-3.076-.33-.952-.691-1.898-.89-2.886-.2-.987-.23-2.032.1-2.984.41-1.184 1.355-2.133 2.454-2.735 1.099-.603 2.345-.886 3.59-1.033.936-.11 1.881-.148 2.823-.111z" fill="#280b0b" stroke="#000" stroke-width="2.007" stroke-linecap="square" stroke-opacity=".926"/>
  <circle cx="62.229" cy="-358.65" transform="scale(1 -1)" r="4.516"/>
  <circle cx="94.882" cy="-357.089" transform="scale(1 -1)" r="4.516"/>
  <path d="M109.313 339.2a9.562 9.562 0 0 0-5.548-3.037c-1.645-.267-3.367-.088-4.904.559-1.536.646-2.879 1.763-3.753 3.183-.975 1.584-1.34 3.458-2.02 5.19-.341.865-.768 1.707-1.368 2.419-.599.711-1.381 1.29-2.278 1.538-.645.18-1.332.184-1.992.07-1.55-.266-2.943-1.173-3.983-2.352a8.881 8.881 0 0 1-1.401-2.147M43.708 346.25a9.57 9.57 0 0 1 4.848-4.063c1.562-.583 3.286-.744 4.92-.41 1.633.334 3.168 1.168 4.3 2.39 1.266 1.367 1.986 3.136 2.991 4.703.503.783 1.086 1.526 1.814 2.106.728.58 1.61.993 2.538 1.058.668.047 1.34-.087 1.968-.32 1.411-.526 2.612-1.564 3.404-2.845.494-.8.835-1.693.999-2.619M79.028 372.77a22.485 22.485 0 0 1 2.19 9.692c-.005 3.059-.67 6.176-2.33 8.744-.607.937-1.36 1.81-2.335 2.351a4.089 4.089 0 0 1-1.582.509 3.228 3.228 0 0 1-1.634-.255 2.925 2.925 0 0 1-1.333-1.22" fill="none" stroke="#000" stroke-width="2.007" stroke-linecap="square" stroke-opacity=".926"/>
  <path d="M67.879 408.14a10.352 10.352 0 0 0-2.254-.727c-1.162-.232-2.354-.262-3.539-.244-.923.015-1.857.061-2.742.325-.884.264-1.726.767-2.238 1.535-.307.46-.485.999-.551 1.547a5.186 5.186 0 0 0 .085 1.648c.24 1.186.8 2.293 1.529 3.259.73.965 1.626 1.794 2.581 2.537 1.085.844 2.253 1.584 3.276 2.501.397.356.781.744 1.268.959.244.107.511.168.777.148.265-.02.528-.124.716-.313.19-.19.294-.457.317-.725a1.881 1.881 0 0 0-.122-.792c-.183-.506-.512-.948-.724-1.442-.223-.521-.313-1.092-.322-1.658-.009-.566.06-1.131.144-1.691.35-2.346.954-4.653 1.799-6.868z" fill="#280b0b"/>
  <path d="M75.108 419.069c-.877-4.451-3.843-8.445-7.85-10.571-1.225-.65-2.55-1.135-3.925-1.307-1.376-.172-2.807-.02-4.071.549-1.108.5-2.08 1.329-2.668 2.392-.588 1.064-.77 2.365-.409 3.525.264.848.799 1.592 1.431 2.215.633.623 1.364 1.135 2.096 1.637a135.92 135.92 0 0 0 7.717 4.915l.105.11" fill="none" stroke="#000" stroke-width="2.007" stroke-linecap="round" stroke-linejoin="round"/>
  <path d="M67.032 409.237a10.665 10.665 0 0 0-1.17 7.072c.19 1.033.533 2.032.764 3.057.172.762.282 1.541.531 2.282.103.304.229.6.377.885" fill="none" stroke="#000" stroke-width="2.007" stroke-linecap="round"/>
  <path d="M238.652 317.7c-.503-4.26-2.98-8.246-6.578-10.582-1.601-1.039-3.424-1.765-5.322-1.962-1.898-.196-3.872.157-5.514 1.13-1.513.895-2.682 2.26-3.822 3.6-.973 1.143-1.959 2.305-2.578 3.672-.31.684-.524 1.415-.58 2.163-.057.748.048 1.514.35 2.2.125.283.282.55.467.796" fill="#fff" stroke="#000" stroke-width="2.007" stroke-linecap="round" stroke-linejoin="round"/>
  <path d="M189.953 342.917c-16.137 8.8-24.268 29.81-17.978 47.595 6.13 17.337 27.288 18.863 41.89 13.444 17.902-6.644 32.062 16.593 48.57 8.04 9.35-4.844 15.15-15.017 18.13-24.793 3.23-10.588-2.809-19.46-8.252-26.83-5.434-7.359-12.044-16.332-23.619-15.992-15.666.46-30.338 3.209-45.934-.858-4.281-1.116-8.48-1.831-12.807-.606z" fill="#280b0b" stroke="#000" stroke-width="2.007" stroke-linecap="round" stroke-linejoin="round"/>
  <path d="M229.568 396.632c8.642-.794 28.405-16.076 15.697-19.36-8.502-2.198-17.026 12.158-22.084 6.942-6.015-6.204-21.09-16.188-21.229-1.645-.126 13.163 17.043 10.976 25.904 14.009l1.712.054z" fill="#faa"/>
  <circle cx="363.711" cy="-357.623" transform="scale(1 -1)" r="3.011" fill="none" stroke="#000" stroke-width="2.007"/>
  <path d="M350.86 339.273c-12.643 3.646-15.319 31.27-2.395 35.47M405.465 338.43c9.142.827 20.378 31.864 3.353 33.051" fill="none" stroke="#000" stroke-width="2.007" stroke-linecap="square"/>
  <circle cx="396.364" cy="-356.062" transform="scale(1 -1)" r="3.011" fill="none" stroke="#000" stroke-width="2.007"/>
  <path d="M351.964 347.547c-4.548 1.5-4.17 7.121-3.725 11.13.18 1.633 1.27 2.646 2.306 3.772M404.12 346.483c4.307 1.327 4.796 6.993 4.183 10.738-.372 2.273-1.402 5.491-4.183 5.583" fill="none" stroke="#000" stroke-width="2.007" stroke-linecap="round" stroke-linejoin="round"/>
  <path d="M383.309 431.837c5.316-.183 24.647.263 14.8-5.495-6.383-3.733-15.252-2.57-23.72-2.475-6.004.067-12.483 13.223-4.795 11.924 1.63-.276 3.109-1.972 4.845-1.47" fill="#280b0b" stroke="#000" stroke-width="2.007" stroke-linecap="round" stroke-linejoin="round"/>
  <path d="M388.227 423.89c-1.792 4.267 3.53 11.05-3.084 13.674-4.91 1.948-7.92-3.598-10.202-7.662-.301-.537-.518-6.976-.492-5.192" fill="#faa" stroke="#000" stroke-width="2.007" stroke-linecap="round" stroke-linejoin="round"/>
  <path d="M386.38 388.705c1.003 3.59 2.085 10.685-2.818 11.166-4.202.412-9.383.965-9.6-4.78" fill="none" stroke="#000" stroke-width="2.007" stroke-linecap="round" stroke-linejoin="round"/>
  <ellipse class="left" cx="88.701" cy="63.705" rx="3.509" ry="6.794" fill="none" stroke="#000" stroke-width="1.731"/>
  <path d="M239.089 273.853c-2.302-5.114-8.691-8.355-13.9-8.52-4.385-.138-11.892 5.8-6.313 9.7 4.895 3.422 11.163 1.486 15.73-1.138.564-.323 4.654-.074 2.354-1.462M76.283 85.703c-.653 3.071 3.656 7.001.013 9.027-1.205.67-2.565 1.033-3.916 1.262" fill="none" stroke="#000" stroke-width="2.007" stroke-linecap="round" stroke-linejoin="round"/>
  <circle cx="523.662" cy="80.035" r="69.75" fill="#fff" stroke="#000" stroke-width="2.007"/>
  <path d="M500.854 66.168c2.431-7.068 14.573-15.343 7.095-21.205-4.64-3.637-12.14 10.215-11.109 5.878 2.141-9.003-11.719-11.186-11.11-1.19.503 8.26 6.446 13.81 13.993 16.35l1.131.167zM542.551 66.042c-2.43-7.069-14.572-15.343-7.094-21.205 4.64-3.638 12.14 10.215 11.108 5.878-2.14-9.003 11.72-11.187 11.11-1.19-.502 8.259-6.446 13.81-13.993 16.35l-1.13.167z" fill="#d40000" stroke="#000" stroke-width="2.007" stroke-linecap="round" stroke-linejoin="round"/>
  <path d="M561.614 94.632c-12.067 18.034-36.811 17.286-58.426 12.55-9.064-1.987-26.156-27.315-14.167-8.09 9.445 15.144 25.435 31.63 43.034 33.492 17.448 1.846 36.668-21.37 29.559-37.952z" fill="#500" stroke="#000" stroke-width="2.007" stroke-linecap="round" stroke-linejoin="round"/>
  <circle cx="523.302" cy="231.175" r="69.75" fill="#fff" stroke="#000" stroke-width="2.007"/>
  <path d="M493.594 260.28q31-10.98 61 0" fill="none" stroke="#000" stroke-width="2.007" stroke-linecap="round"/>
  <path d="M492.402 183.989c5.299-4.603 16.85 4.952 20.596 9.1M553.73 181.692c-5.3-4.603-16.852 4.952-20.598 9.1" fill="none" stroke="#000" stroke-width="2.007" stroke-linecap="square"/>
  <circle cx="540.103" cy="-207.516" r="6.021" transform="scale(1 -1)"/>
  <circle cx="506.501" cy="-206.897" r="6.021" transform="scale(1 -1)"/>
  <path d="M528.12 232.627a8.42 8.42 0 0 0 2.218-4.299 8.42 8.42 0 0 0-.534-4.807 8.321 8.321 0 0 0-3.941-4.165 8.195 8.195 0 0 0-5.406-.62" fill="none" stroke="#000" stroke-width="2.007" stroke-linecap="square"/>
  <circle cx="523.302" cy="376.48" r="69.75" fill="#fff" stroke="#000" stroke-width="2.007"/>
  <path d="M558.677 342.963a14.286 14.286 0 0 0-7.121-5.793c-2.938-1.082-6.18-1.16-9.265-.618a24.076 24.076 0 0 0-4.211 1.142M508.86 338.652a21.086 21.086 0 0 0-13.503-1.2 20.974 20.974 0 0 0-7.572 3.595M526.584 386.755a8.42 8.42 0 0 0 2.217-4.298 8.42 8.42 0 0 0-.534-4.807 8.321 8.321 0 0 0-3.941-4.165 8.195 8.195 0 0 0-5.406-.62" fill="none" stroke="#000" stroke-width="2.007" stroke-linecap="square"/>
  <path d="M529.367 407.95a14.432 14.432 0 0 0-9.134-3.755c-1.772-.066-3.573.207-5.187.942-1.613.735-3.03 1.95-3.871 3.51a7.507 7.507 0 0 0-.852 4.141 8.147 8.147 0 0 0 1.449 3.982c.946 1.355 2.27 2.404 3.65 3.313 1.381.909 2.84 1.699 4.189 2.655.608.432 1.22.909 1.952 1.054.365.072.755.054 1.096-.095a1.39 1.39 0 0 0 .456-.318c.127-.136.225-.3.277-.48a1.31 1.31 0 0 0 .027-.582c-.033-.193-.101-.379-.188-.554-.174-.351-.421-.66-.635-.988-.61-.937-.942-2.021-1.307-3.077-.328-.952-.69-1.898-.89-2.885-.2-.988-.229-2.033.101-2.985.41-1.184 1.355-2.133 2.454-2.735 1.098-.603 2.345-.886 3.59-1.033.936-.11 1.88-.148 2.823-.11z" fill="#280b0b" stroke="#000" stroke-width="2.007" stroke-linecap="square" stroke-opacity=".926"/>
  <circle cx="538.038" cy="-355.114" r="6.021" transform="scale(1 -1)"/>
  <circle cx="504.437" cy="-354.495" r="6.021" transform="scale(1 -1)"/>
</svg>
