<?xml version="1.0" encoding="UTF-8" standalone="no"?>
<!-- Created with Inkscape (http://www.inkscape.org/) -->

<svg
   xmlns:dc="http://purl.org/dc/elements/1.1/"
   xmlns:cc="http://creativecommons.org/ns#"
   xmlns:rdf="http://www.w3.org/1999/02/22-rdf-syntax-ns#"
   xmlns:svg="http://www.w3.org/2000/svg"
   xmlns="http://www.w3.org/2000/svg"
   xmlns:sodipodi="http://sodipodi.sourceforge.net/DTD/sodipodi-0.dtd"
   xmlns:inkscape="http://www.inkscape.org/namespaces/inkscape"
   width="146.66667"
   height="146.66667"
   viewBox="0 0 38.805558 38.805556"
   version="1.1"
   id="svg549"
   inkscape:version="0.92.2 5c3e80d, 2017-08-06"
   sodipodi:docname="lovey-face.svg">
  <defs
     id="defs543" />
  <sodipodi:namedview
     id="base"
     pagecolor="#ffffff"
     bordercolor="#666666"
     borderopacity="1.0"
     inkscape:pageopacity="0.0"
     inkscape:pageshadow="2"
     inkscape:zoom="1.979899"
     inkscape:cx="20.069239"
     inkscape:cy="103.24122"
     inkscape:document-units="mm"
     inkscape:current-layer="layer1"
     showgrid="false"
     units="px"
     inkscape:window-width="1440"
     inkscape:window-height="808"
     inkscape:window-x="254"
     inkscape:window-y="0"
     inkscape:window-maximized="0" />
  <metadata
     id="metadata546">
    <rdf:RDF>
      <cc:Work
         rdf:about="">
        <dc:format>image/svg+xml</dc:format>
        <dc:type
           rdf:resource="http://purl.org/dc/dcmitype/StillImage" />
        <dc:title></dc:title>
      </cc:Work>
    </rdf:RDF>
  </metadata>
  <g
     inkscape:label="Layer 1"
     inkscape:groupmode="layer"
     id="layer1"
     transform="translate(0,-258.19446)">
    <circle
       style="fill:#ffffff;stroke:#000000;stroke-width:0.52914876"
       cx="19.404274"
       cy="277.49472"
       r="18.3897"
       id="circle507" />
    <path
       inkscape:connector-curvature="0"
       style="fill:#d40000;stroke:#000000;stroke-width:0.52914876;stroke-linecap:round;stroke-linejoin:round"
       d="m 13.39091,273.83867 c 0.640937,-1.86349 3.842195,-4.04521 1.870608,-5.59074 -1.223343,-0.9589 -3.20073,2.69321 -2.928905,1.54975 0.564478,-2.37366 -3.0897336,-2.94921 -2.9291706,-0.31375 0.132617,2.17777 1.6994986,3.64103 3.6892776,4.31071 z m 10.993482,-0.0332 c -0.640674,-1.86376 -3.841932,-4.04521 -1.870345,-5.59074 1.223344,-0.95916 3.200731,2.69321 2.928642,1.54975 -0.564214,-2.37366 3.089998,-2.94947 2.929169,-0.31375 -0.132353,2.1775 -1.699497,3.64103 -3.689276,4.31071 l -0.297927,0.044 z"
       id="path509" />
    <path
       inkscape:connector-curvature="0"
       style="fill:#550000;stroke:#000000;stroke-width:0.52914876;stroke-linecap:round;stroke-linejoin:round"
       d="m 29.410383,281.34325 c -3.181484,4.75469 -9.70528,4.55748 -15.40411,3.30882 -2.389738,-0.52387 -6.8960721,-7.20164 -3.735152,-2.13294 2.490189,3.99274 6.705978,8.3393 11.345983,8.83022 4.600194,0.4867 9.667579,-5.63423 7.793279,-10.0061 z"
       id="path511" />
  </g>
</svg>
