<?xml version="1.0" encoding="UTF-8" standalone="no"?>
<!-- Created with Inkscape (http://www.inkscape.org/) -->

<svg
   xmlns:dc="http://purl.org/dc/elements/1.1/"
   xmlns:cc="http://creativecommons.org/ns#"
   xmlns:rdf="http://www.w3.org/1999/02/22-rdf-syntax-ns#"
   xmlns:svg="http://www.w3.org/2000/svg"
   xmlns="http://www.w3.org/2000/svg"
   xmlns:sodipodi="http://sodipodi.sourceforge.net/DTD/sodipodi-0.dtd"
   xmlns:inkscape="http://www.inkscape.org/namespaces/inkscape"
   width="146.66667"
   height="146.66667"
   viewBox="0 0 38.805557 38.805557"
   version="1.1"
   id="svg549"
   inkscape:version="0.92.2 5c3e80d, 2017-08-06"
   sodipodi:docname="thoughtful-face.svg">
  <defs
     id="defs543" />
  <sodipodi:namedview
     id="base"
     pagecolor="#ffffff"
     bordercolor="#666666"
     borderopacity="1.0"
     inkscape:pageopacity="0.0"
     inkscape:pageshadow="2"
     inkscape:zoom="1.979899"
     inkscape:cx="-48.082122"
     inkscape:cy="107.17519"
     inkscape:document-units="mm"
     inkscape:current-layer="layer1"
     showgrid="false"
     units="px"
     inkscape:window-width="1440"
     inkscape:window-height="808"
     inkscape:window-x="19"
     inkscape:window-y="54"
     inkscape:window-maximized="0" />
  <metadata
     id="metadata546">
    <rdf:RDF>
      <cc:Work
         rdf:about="">
        <dc:format>image/svg+xml</dc:format>
        <dc:type
           rdf:resource="http://purl.org/dc/dcmitype/StillImage" />
        <dc:title />
      </cc:Work>
    </rdf:RDF>
  </metadata>
  <g
     inkscape:label="Layer 1"
     inkscape:groupmode="layer"
     id="layer1"
     transform="translate(0,-258.19446)">
    <ellipse
       style="fill:#ffeeaa;fill-opacity:1;stroke:#000000;stroke-width:0.52914876"
       cx="19.089132"
       cy="277.62299"
       id="circle525"
       rx="18.235426"
       ry="18.3897" />
    <path
       inkscape:connector-curvature="0"
       style="fill:none;stroke:#000000;stroke-width:0.52914876;stroke-linecap:square"
       d="m 28.57008,268.78617 a 3.7665271,3.7665271 0 0 0 -1.877463,-1.52733 C 25.918009,266.97357 25.06325,266.953 24.249885,267.0959 a 6.3476764,6.3476764 0 0 0 -1.110237,0.30109 m -7.7039,0.25258 a 5.5593581,5.5593581 0 0 0 -3.560088,-0.31638 5.5298292,5.5298292 0 0 0 -1.9963697,0.94782 M 20.108709,280.332 a 2.2199467,2.2199467 0 0 0 0.584516,-1.13317 2.2199467,2.2199467 0 0 0 -0.14079,-1.26738 2.1938451,2.1938451 0 0 0 -1.039051,-1.0981 2.160625,2.160625 0 0 0 -1.425301,-0.16347"
       id="path527" />
    <path
       inkscape:connector-curvature="0"
       style="fill:#280b0b;stroke:#000000;stroke-width:0.52914876;stroke-linecap:square;stroke-opacity:0.92600002"
       d="m 20.842452,285.9201 a 3.8050203,3.8050203 0 0 0 -2.408194,-0.99001 c -0.467191,-0.0174 -0.942028,0.0546 -1.367561,0.24836 -0.42527,0.19378 -0.798865,0.51412 -1.020596,0.92541 a 1.9792327,1.9792327 0 0 0 -0.224631,1.09179 2.1479698,2.1479698 0 0 0 0.382031,1.04986 c 0.249415,0.35725 0.598489,0.63381 0.962329,0.87347 0.364103,0.23966 0.74877,0.44795 1.104436,0.7 0.160301,0.1139 0.321655,0.23966 0.514648,0.27789 0.09623,0.019 0.199057,0.0142 0.288963,-0.0251 a 0.36647575,0.36647575 0 0 0 0.120225,-0.0838 c 0.03348,-0.0359 0.05932,-0.0791 0.07303,-0.12655 a 0.34538362,0.34538362 0 0 0 0.0071,-0.15345 c -0.0087,-0.0509 -0.02663,-0.0999 -0.04957,-0.14606 -0.04588,-0.0925 -0.110997,-0.17401 -0.167419,-0.26049 -0.160827,-0.24704 -0.24836,-0.53284 -0.344593,-0.81125 -0.08648,-0.251 -0.181919,-0.50041 -0.23465,-0.76064 -0.05273,-0.26049 -0.06038,-0.536 0.02663,-0.787 0.108098,-0.31216 0.357248,-0.56237 0.647001,-0.72109 0.28949,-0.15898 0.618263,-0.23359 0.94651,-0.27235 0.246778,-0.029 0.495665,-0.039 0.744288,-0.029 z"
       id="path529" />
    <circle
       style="stroke-width:0.26365161"
       cx="23.12858"
       cy="-271.98981"
       r="1.5874463"
       transform="scale(1,-1)"
       id="circle531" />
    <circle
       style="stroke-width:0.26365161"
       cx="14.269618"
       cy="-271.8266"
       r="1.5874463"
       transform="scale(1,-1)"
       id="circle533" />
  </g>
</svg>
