<svg xmlns="http://www.w3.org/2000/svg" width="146.667" height="146.667" viewBox="0 0 38.806 38.806">
  <ellipse cx="19.089" cy="19.429" rx="18.235" ry="18.39" fill="#fea" stroke="#000" stroke-width=".529"/>
  <path d="M28.57 10.592a3.767 3.767 0 0 0-1.877-1.528c-.775-.285-1.63-.305-2.443-.163a6.348 6.348 0 0 0-1.11.302m-7.704.252a5.56 5.56 0 0 0-3.56-.316 5.53 5.53 0 0 0-1.997.948m10.23 12.05a2.22 2.22 0 0 0 .584-1.133 2.22 2.22 0 0 0-.14-1.267 2.194 2.194 0 0 0-1.04-1.098 2.16 2.16 0 0 0-1.425-.164" fill="none" stroke="#000" stroke-width=".529" stroke-linecap="square"/>
  <path d="M20.842 27.726a3.805 3.805 0 0 0-2.408-.99 3.033 3.033 0 0 0-1.367.248 2.18 2.18 0 0 0-1.02.925 1.98 1.98 0 0 0-.226 1.092 2.148 2.148 0 0 0 .382 1.05c.25.357.599.634.963.874s.749.447 1.104.7c.16.113.322.24.515.277a.49.49 0 0 0 .289-.025.366.366 0 0 0 .12-.084.315.315 0 0 0 .073-.126.345.345 0 0 0 .007-.153.531.531 0 0 0-.05-.147c-.045-.092-.11-.174-.167-.26-.16-.247-.248-.533-.344-.811-.087-.251-.182-.5-.235-.76-.053-.261-.06-.537.027-.788.108-.312.357-.562.647-.721.29-.159.618-.234.946-.272.247-.03.496-.04.744-.03z" fill="#280b0b" stroke="#000" stroke-width=".529" stroke-linecap="square" stroke-opacity=".926"/>
  <circle cx="24.064" cy="13.095" r="1.587"/>
  <circle cx="14.27" cy="13.095" r="1.587"/>
</svg>
