<?xml version="1.0" encoding="UTF-8" standalone="no"?>
<!-- Created with Inkscape (http://www.inkscape.org/) -->

<svg
   xmlns:dc="http://purl.org/dc/elements/1.1/"
   xmlns:cc="http://creativecommons.org/ns#"
   xmlns:rdf="http://www.w3.org/1999/02/22-rdf-syntax-ns#"
   xmlns:svg="http://www.w3.org/2000/svg"
   xmlns="http://www.w3.org/2000/svg"
   xmlns:sodipodi="http://sodipodi.sourceforge.net/DTD/sodipodi-0.dtd"
   xmlns:inkscape="http://www.inkscape.org/namespaces/inkscape"
   width="146.66667"
   height="146.66667"
   viewBox="0 0 38.805557 38.805557"
   version="1.1"
   id="svg549"
   inkscape:version="0.92.2 5c3e80d, 2017-08-06"
   sodipodi:docname="thoughtful-face-broken-up.svg">
  <defs
     id="defs543" />
  <sodipodi:namedview
     id="base"
     pagecolor="#ffffff"
     bordercolor="#666666"
     borderopacity="1.0"
     inkscape:pageopacity="0.0"
     inkscape:pageshadow="2"
     inkscape:zoom="1.979899"
     inkscape:cx="26.581591"
     inkscape:cy="94.624617"
     inkscape:document-units="mm"
     inkscape:current-layer="svg549"
     showgrid="false"
     units="px"
     inkscape:window-width="1440"
     inkscape:window-height="808"
     inkscape:window-x="0"
     inkscape:window-y="61"
     inkscape:window-maximized="0" />
  <metadata
     id="metadata546">
    <rdf:RDF>
      <cc:Work
         rdf:about="">
        <dc:format>image/svg+xml</dc:format>
        <dc:type
           rdf:resource="http://purl.org/dc/dcmitype/StillImage" />
        <dc:title></dc:title>
      </cc:Work>
    </rdf:RDF>
  </metadata>
  <g
     inkscape:groupmode="layer"
     id="layer2"
     inkscape:label="layer 2" />
  <ellipse
     style="fill:#ffeeaa;fill-opacity:1;stroke:#000000;stroke-width:0.52914876"
     cx="19.089132"
     cy="19.428526"
     id="circle525"
     rx="18.235426"
     ry="18.3897" />
  <path
     style="fill:none;stroke:#000000;stroke-width:0.52914876;stroke-linecap:square"
     d="M 28.57008,10.591709 A 3.7665271,3.7665271 0 0 0 26.692615,9.0643795 C 25.918007,8.7791097 25.063248,8.7585397 24.249883,8.9014395 a 6.3476764,6.3476764 0 0 0 -1.110237,0.30109"
     id="path6859" />
  <path
     style="fill:none;stroke:#000000;stroke-width:0.52914876;stroke-linecap:square"
     d="M 15.435746,9.4551095 A 5.5593581,5.5593581 0 0 0 11.875658,9.1387295 5.5298292,5.5298292 0 0 0 9.8792889,10.086549"
     id="path6857" />
  <path
     style="fill:none;stroke:#000000;stroke-width:0.52914876;stroke-linecap:square"
     d="m 20.108707,21.608373 a 2.2199467,2.2199467 0 0 0 0.584516,-1.13317 2.2199467,2.2199467 0 0 0 -0.14079,-1.26738 2.1938451,2.1938451 0 0 0 -1.039051,-1.0981 2.160625,2.160625 0 0 0 -1.425301,-0.16347"
     id="path527"
     inkscape:connector-curvature="0" />
  <path
     inkscape:connector-curvature="0"
     style="fill:#280b0b;stroke:#000000;stroke-width:0.52914876;stroke-linecap:square;stroke-opacity:0.92600002"
     d="M 20.84245,27.725641 A 3.8050203,3.8050203 0 0 0 18.434256,26.73563 c -0.467191,-0.0174 -0.942028,0.0546 -1.367561,0.24836 -0.42527,0.19378 -0.798865,0.51412 -1.020596,0.925409 a 1.9792327,1.9792327 0 0 0 -0.224631,1.09179 2.1479698,2.1479698 0 0 0 0.382031,1.049861 c 0.249415,0.357249 0.598489,0.63381 0.962329,0.873469 0.364103,0.23966 0.74877,0.44795 1.104436,0.7 0.160301,0.113901 0.321655,0.23966 0.514648,0.27789 0.09623,0.019 0.199057,0.01421 0.288963,-0.02511 a 0.36647575,0.36647575 0 0 0 0.120225,-0.0838 c 0.03348,-0.0359 0.05932,-0.0791 0.07303,-0.12655 a 0.34538362,0.34538362 0 0 0 0.0071,-0.153448 c -0.0087,-0.0509 -0.02663,-0.0999 -0.04957,-0.14606 -0.04588,-0.0925 -0.110997,-0.174011 -0.167419,-0.26049 -0.160827,-0.247042 -0.24836,-0.53284 -0.344593,-0.81125 -0.08648,-0.251 -0.181919,-0.500412 -0.23465,-0.76064 -0.05273,-0.26049 -0.06038,-0.536001 0.02663,-0.787001 0.108098,-0.31216 0.357248,-0.562369 0.647001,-0.72109 0.28949,-0.15898 0.618263,-0.23359 0.94651,-0.272349 0.246778,-0.029 0.495665,-0.039 0.744288,-0.029 z"
     id="path529" />
  <circle
     style="stroke-width:0.26365161"
     cx="24.064024"
     cy="13.094814"
     r="1.5874463"
     id="circle531" />
  <circle
     style="stroke-width:0.26365161"
     cx="14.269617"
     cy="13.094814"
     r="1.5874463"
     id="circle533" />
</svg>
