<svg xmlns="http://www.w3.org/2000/svg" width="146.667" height="146.667" viewBox="0 0 38.806 38.806">
  <g transform="translate(0 -258.194)">
    <ellipse cx="19.089" cy="277.623" rx="18.235" ry="18.39" fill="#b9ffff" stroke="#000" stroke-width=".529"/>
    <path d="M28.57 268.786a3.767 3.767 0 0 0-1.877-1.527c-.775-.285-1.63-.306-2.443-.163a6.348 6.348 0 0 0-1.11.301m-7.704.253a5.56 5.56 0 0 0-3.56-.317 5.53 5.53 0 0 0-1.997.948m10.23 12.051a2.22 2.22 0 0 0 .584-1.133 2.22 2.22 0 0 0-.14-1.268 2.194 2.194 0 0 0-1.04-1.098 2.16 2.16 0 0 0-1.425-.163" fill="none" stroke="#000" stroke-width=".529" stroke-linecap="square"/>
    <path d="M20.842 285.92a3.805 3.805 0 0 0-2.408-.99 3.033 3.033 0 0 0-1.367.248 2.18 2.18 0 0 0-1.02.926 1.98 1.98 0 0 0-.226 1.092 2.148 2.148 0 0 0 .383 1.05c.249.357.598.633.962.873s.749.448 1.104.7c.16.114.322.24.515.278a.49.49 0 0 0 .289-.025.366.366 0 0 0 .12-.084.315.315 0 0 0 .073-.127.345.345 0 0 0 .007-.153.531.531 0 0 0-.05-.146c-.045-.093-.11-.174-.167-.26-.16-.248-.248-.533-.344-.812-.087-.25-.182-.5-.235-.76-.053-.261-.06-.536.027-.787.108-.313.357-.563.647-.722.29-.159.618-.233.946-.272.247-.029.496-.039.744-.029z" fill="#280b0b" stroke="#000" stroke-width=".529" stroke-linecap="square" stroke-opacity=".926"/>
    <circle cx="23.129" cy="-271.99" r="1.587" transform="scale(1 -1)"/>
    <circle cx="14.27" cy="-271.827" r="1.587" transform="scale(1 -1)"/>
  </g>
</svg>
